<?xml version="1.0" standalone="no"?>
<!DOCTYPE svg PUBLIC "-//W3C//DTD SVG 1.1//EN" "http://www.w3.org/Graphics/SVG/1.1/DTD/svg11.dtd" >
<svg>
<metadata>
Created by FontForge 20090914 at Tue Jun 28 21:53:39 2022
 By www-data
Copyright &#194;&#169; 2012 Christian Schwartz for Commercial Type.
</metadata>
<defs>
<font id="GraphikLCG-Semibold" horiz-adv-x="612" >
  <font-face 
    font-family="Graphik LCG"
    font-weight="600"
    font-stretch="normal"
    units-per-em="1000"
    panose-1="2 11 7 3 3 2 2 6 2 3"
    ascent="822"
    descent="-178"
    x-height="523"
    cap-height="715"
    bbox="-232 -228 1165 1128"
    underline-thickness="50"
    underline-position="-150"
    unicode-range="U+000D-U+FB02"
  />
<missing-glyph horiz-adv-x="512" 
 />
    <glyph glyph-name="f_f" unicode="ff" horiz-adv-x="698" 
d="M94 420l-68.999 -0.000976562v103h69v54c0 60 16.167 105.5 48.5 136.5s78.166 46.5 137.499 46.5c25.333 0 50 -3.66699 74 -11v-108c-20 5.33301 -37.333 8 -52 8c-42.667 0 -64 -23 -64 -69v-57h171v60c0 60.667 16.333 106.334 49 137.001s78.667 46 138 46
c28 0 53 -3.33301 75 -10v-109c-18 6 -35.667 9 -53 9c-43.333 0 -65 -23 -65 -69v-64h114v-103h-114v-420h-144v420h-171v-420h-144v420z" />
    <glyph glyph-name=".notdef" horiz-adv-x="512" 
 />
    <glyph glyph-name="NULL" horiz-adv-x="0" 
 />
    <glyph glyph-name="NULL" horiz-adv-x="0" 
 />
    <glyph glyph-name="CR" unicode="&#xd;" horiz-adv-x="222" 
 />
    <glyph glyph-name="space" unicode=" " horiz-adv-x="222" 
 />
    <glyph glyph-name="exclam" unicode="!" horiz-adv-x="328" 
d="M164 -9c-26 0 -47.333 8.33203 -64 24.999c-18 16.667 -27 37 -27 61c0 24.667 8.83301 45.334 26.5 62.001s39.167 25 64.5 25s46.833 -8.33301 64.5 -25s26.5 -37.334 26.5 -62.001c0 -23.333 -8.66699 -43.666 -26 -60.999c-18 -16.667 -39.667 -25 -65 -25z
M84 714.999h162l-22 -492h-118z" />
    <glyph glyph-name="quotedbl" unicode="&#x22;" horiz-adv-x="442" 
d="M54 715h140l-19 -264h-102zM248 715h140l-18 -264h-103z" />
    <glyph glyph-name="numbersign" unicode="#" horiz-adv-x="561" 
d="M293 256h-75l-23 -157h-102l23 157h-74v115h91l14 96h-80v111h96l21 137h101l-20 -137h75l21 137h101l-21 -137h78v-111h-94l-14 -96h83v-115h-100l-23 -157h-101zM235 371h75l14 96h-75z" />
    <glyph glyph-name="dollar" unicode="$" horiz-adv-x="652" 
d="M293 -10c-82.667 4.66699 -145.668 29.334 -189.001 74.001c-40 38.667 -62 91.667 -66 159h148c4.66699 -34 13.334 -59 26.001 -75c18 -23.333 45 -37.333 81 -42v193c-81.333 12 -140.333 34.667 -177 68c-38.667 32.667 -58 81.667 -58 147
c0 58 21.333 106.333 64 145c44 38.667 101 60.334 171 65.001v89h71v-90c141.333 -12.667 218 -82.334 230 -209.001h-143c-9.33301 52.667 -38.333 84 -87 94v-179c80.667 -12.667 140 -33.334 178 -62.001c42.667 -34.667 64 -84.667 64 -150
c0 -62 -20.333 -113.333 -61 -154c-44 -44 -104.333 -68.333 -181 -73v-125h-71v125zM457.999 200c0 24.667 -6.66699 43.501 -20 56.501s-38 23.5 -74 31.5v-182c29.333 5.33301 52.333 16.166 69 32.499s25 36.833 25 61.5zM201.999 527.001c0 -24 6.00098 -42 18.001 -54
c11.333 -13.333 35.666 -24 72.999 -32v169c-29.333 -4 -51.833 -13.333 -67.5 -28s-23.5 -33 -23.5 -55z" />
    <glyph glyph-name="percent" unicode="%" horiz-adv-x="823" 
d="M215 461c21.333 0 38 7.5 50 22.5s18 36.5 18 64.5c0 26.667 -6 47.667 -18 63s-28.667 23 -50 23c-22 0 -39.167 -7.5 -51.5 -22.5s-18.5 -36.167 -18.5 -63.5c0 -28 6.16699 -49.5 18.5 -64.5s29.5 -22.5 51.5 -22.5zM214 371
c-52.667 0 -96.001 16.999 -130.001 50.999c-33.333 32 -50 73.667 -50 125c0 50 17.667 91.667 53 125c34.667 33.333 77.334 50 128.001 50s93 -16.333 127 -49c34.667 -33.333 52 -74.666 52 -123.999c0 -50.667 -17 -93 -51 -127s-77 -51 -129 -51zM604.999 714.999h90
l-475 -715h-90zM608.999 79.999c22 0 39 7.5 51 22.5s18 36.167 18 63.5s-6 48.5 -18 63.5s-29 22.5 -51 22.5s-39 -7.33301 -51 -22s-18 -36 -18 -64s6 -49.333 18 -64s29 -22 51 -22zM608.999 -11.001c-52.667 0 -96 16.999 -130 50.999c-33.333 32 -50 73.667 -50 125
c0 50 17.667 92 53 126c34.667 33.333 77 50 127 50c51.333 0 94 -16.333 128 -49c34.667 -33.333 52 -74.666 52 -123.999c0 -51.333 -17 -94 -51 -128s-77 -51 -129 -51z" />
    <glyph glyph-name="ampersand" unicode="&#x26;" horiz-adv-x="746" 
d="M600 146l119 -145.998h-185l-52 64c-54 -49.333 -119 -74 -195 -74c-74 0 -132.333 18.667 -175 56c-44.667 37.333 -67 88.333 -67 153c0 88.667 53 158.667 159 210c-33.333 46 -50 91 -50 135c0 55.333 21 99.666 63 132.999c38 30 87 45 147 45
c54 0 99.333 -13.667 136 -41c38.667 -30 58 -69.667 58 -119c0 -78.667 -48.667 -138.334 -146 -179.001l112 -137l64 125h128zM308 109.002c38.667 0 71.668 16 99.001 48l-136 165c-24 -12.667 -42.333 -27.167 -55 -43.5s-19 -37.5 -19 -63.5
c0 -32.667 9.66699 -58.5 29 -77.5s46.666 -28.5 81.999 -28.5zM295.001 542.002c0 -26 16.001 -57.667 48.001 -95c30.667 14 52.667 29.333 66 46s20 37 20 61c0 18.667 -5.83301 34 -17.5 46s-26.834 18 -45.501 18c-20.667 0 -37.667 -6.5 -51 -19.5
s-20 -31.833 -20 -56.5z" />
    <glyph glyph-name="quotesingle" unicode="'" horiz-adv-x="252" 
d="M54 715h144l-19 -264h-106z" />
    <glyph glyph-name="parenleft" unicode="(" horiz-adv-x="355" 
d="M216 -148c-49.333 58.667 -87.332 121 -113.999 187c-35.333 84 -53 175.333 -53 274s17.667 190 53 274c26.667 66 64.667 128.333 114 187h119c-42 -59.333 -75.333 -123.333 -100 -192c-30 -81.333 -45 -171 -45 -269s15 -187.667 45 -269
c23.333 -66 56.666 -130 99.999 -192h-119z" />
    <glyph glyph-name="parenright" unicode=")" horiz-adv-x="355" 
d="M21 -148c42 59.333 75.332 123.331 99.999 191.998c29.333 82.667 44 172.334 44 269.001s-14.667 186.334 -44 269.001c-23.333 66 -56.666 130 -99.999 192h119c47.333 -56.667 85.333 -119 114 -187c34.667 -84.667 52 -176 52 -274s-17.333 -189.333 -52 -274
c-28.667 -68 -66.667 -130.333 -114 -187h-119z" />
    <glyph glyph-name="asterisk" unicode="*" horiz-adv-x="446" 
d="M72 448l87 97l-119 19l30 103l112 -51l-17 127h117l-18 -127l112 51l30 -103l-120 -19l87 -97l-89 -64l-62 117l-61 -117z" />
    <glyph glyph-name="plus" unicode="+" horiz-adv-x="563" 
d="M223 286h-180v109h180v195h118v-195h180v-109h-180v-195h-118v195z" />
    <glyph glyph-name="comma" unicode="," horiz-adv-x="310" 
d="M29 -86l88 247l136 -51l-136 -233z" />
    <glyph glyph-name="hyphen" unicode="-" horiz-adv-x="376" 
d="M60 339h256v-115h-256v115z" />
    <glyph glyph-name="period" unicode="." horiz-adv-x="305" 
d="M152 -9c-25.333 0 -46.5 8.5 -63.5 25.5s-25.5 37.833 -25.5 62.5c0 24 8.5 44.5 25.5 61.5s38.167 25.5 63.5 25.5s46.666 -8.5 63.999 -25.5s26 -37.5 26 -61.5s-8.66699 -44.667 -26 -62s-38.666 -26 -63.999 -26z" />
    <glyph glyph-name="slash" unicode="/" horiz-adv-x="435" 
d="M300 776h119l-308 -924h-118z" />
    <glyph glyph-name="zero" unicode="0" horiz-adv-x="725" 
d="M366 116c98 0 147 75.667 147 227v32c0 150 -49.667 225 -149 225c-100.667 0 -151 -75 -151 -225v-34c0 -150 51 -225 153 -225zM362 -11c-96 0 -171.334 31.333 -226.001 94c-56.667 62 -85 147.667 -85 257v34c0 108.667 29 194.667 87 258
c56.667 62 131.667 93 225 93s168.333 -30 225 -90c57.333 -62.667 86 -148.667 86 -258v-33c0 -109.333 -27.667 -196 -83 -260c-57.333 -63.333 -133.666 -95 -228.999 -95z" />
    <glyph glyph-name="one" unicode="1" horiz-adv-x="443" 
d="M183 555l-145 -95v138l165 117h142v-715h-162v555z" />
    <glyph glyph-name="two" unicode="2" horiz-adv-x="605" 
d="M18 26l261.999 276.998c37.333 39.333 65.5 75 84.5 107s28.5 63.333 28.5 94s-8.16699 54.5 -24.5 71.5s-39.833 25.5 -70.5 25.5c-33.333 0 -59.333 -10.333 -78 -31s-30.667 -54 -36 -100h-147c4 82.667 29.333 145.834 76 189.501s110.667 65.5 192 65.5
c76 0 137.333 -20 184 -60c42.667 -40.667 64 -93 64 -157c0 -44.667 -11.667 -87.167 -35 -127.5s-57.666 -82.166 -102.999 -125.499l-135 -132h278v-123h-540v26z" />
    <glyph glyph-name="three" unicode="3" horiz-adv-x="647" 
d="M319 -11c-89.333 0 -157.668 21.002 -205.001 63.002s-72.666 100.333 -75.999 175h146c8 -79.333 51 -119 129 -119c79.333 0 119 34.333 119 103s-38.333 103 -115 103h-56v108h52c72.667 0 109 31.667 109 95c0 26.667 -8.5 48.167 -25.5 64.5s-41.5 24.5 -73.5 24.5
c-34 0 -61.167 -9.5 -81.5 -28.5s-32.5 -45.5 -36.5 -79.5h-143c4 67.333 28.667 121.666 74 162.999c46.667 42.667 110 64 190 64c76.667 0 137.667 -18.333 183 -55c44 -36 66 -82.333 66 -139c0 -76 -39.333 -127.667 -118 -155c43.333 -10 77.333 -29.333 102 -58
s37 -65.334 37 -110.001c0 -68 -24.5 -121.5 -73.5 -160.5s-116.833 -58.5 -203.5 -58.5z" />
    <glyph glyph-name="four" unicode="4" horiz-adv-x="668" 
d="M383 142h-351v59l309 514h199v-457h94v-116h-94v-142h-157v142zM386 258v335l-192 -335h192z" />
    <glyph glyph-name="five" unicode="5" horiz-adv-x="627" 
d="M303 -11c-84 0 -149.002 21.333 -195.002 64c-42.667 38.667 -66 92 -70 160h149c4 -32 14 -56 30 -72c16.667 -18.667 45 -28 85 -28c36 0 63.667 11.5 83 34.5s29 53.833 29 92.5s-10.333 69.167 -31 91.5s-49 33.5 -85 33.5c-58 0 -103.667 -19 -137 -57h-90l10 407
h453v-123h-332l-3 -179c35.333 44 88.333 66 159 66c64.667 0 117.334 -21 158.001 -63c40.667 -42.667 61 -102 61 -178s-25 -136.333 -75 -181c-49.333 -45.333 -115.666 -68 -198.999 -68z" />
    <glyph glyph-name="six" unicode="6" horiz-adv-x="666" 
d="M345 -11c-101.333 0 -177.334 32.665 -228.001 97.998c-44 56 -66 137 -66 243v18c0 118.667 29 211.667 87 279c56 65.333 129 98 219 98c72 0 129.333 -16.667 172 -50s68 -82.666 76 -147.999h-150c-6 25.333 -16 44.333 -30 57s-36 19 -66 19
c-45.333 0 -80.833 -19.167 -106.5 -57.5s-39.5 -94.166 -41.5 -167.499c36.667 59.333 94.334 89 173.001 89c68 0 124.333 -20.667 169 -62c44.667 -43.333 67 -100 67 -170c0 -74 -24.333 -133.333 -73 -178c-50.667 -45.333 -118 -68 -202 -68zM342.999 105.998
c36 0 64.667 11.668 86 35.001s32 54 32 92s-10.667 68.667 -32 92s-50 35 -86 35s-65.333 -11.333 -88 -34c-22.667 -24.667 -34 -54 -34 -88c0 -40.667 11.167 -72.834 33.5 -96.501s51.833 -35.5 88.5 -35.5z" />
    <glyph glyph-name="seven" unicode="7" horiz-adv-x="570" 
d="M348 584h-315v131h518v-18l-256 -697h-165z" />
    <glyph glyph-name="eight" unicode="8" horiz-adv-x="651" 
d="M326 -11c-84 0 -150.333 17.999 -199 53.999c-54 38 -81 91 -81 159c0 43.333 11.5 80.333 34.5 111s55.5 53.334 97.5 68.001c-69.333 28.667 -104 78.334 -104 149.001c0 60.667 25.333 108.667 76 144c48.667 34 107.667 51 177 51c71.333 0 130.333 -17 177 -51
c49.333 -36 74 -83.667 74 -143c0 -68.667 -34.667 -118.334 -104 -149.001c42 -14.667 74.333 -37 97 -67s34 -66.333 34 -109c0 -67.333 -26.333 -121 -79 -161c-51.333 -37.333 -118 -56 -200 -56zM326 106.999c35.333 0 64 9.83105 86 29.498s33 46.834 33 81.501
s-10.833 61.5 -32.5 80.5s-50.167 28.5 -85.5 28.5s-63.333 -9.33301 -84 -28c-24 -20 -36 -47.333 -36 -82c0 -33.333 11.667 -60.666 35 -81.999c20.667 -18.667 48.667 -28 84 -28zM328 425.997c30 0 54.166 8.33496 72.499 25.002s27.5 39.667 27.5 69
c0 27.333 -9.5 49.5 -28.5 66.5s-43.167 25.5 -72.5 25.5s-53.666 -8.33301 -72.999 -25s-29 -39.334 -29 -68.001s9.83301 -51.334 29.5 -68.001s44.167 -25 73.5 -25z" />
    <glyph glyph-name="nine" unicode="9" horiz-adv-x="667" 
d="M316 -10c-77.333 0 -138.5 17.5 -183.5 52.5s-71.5 85.167 -79.5 150.5h151c12 -53.333 47.667 -80 107 -80c93.333 0 141.666 73.667 144.999 221c-36.667 -58 -93.667 -87 -171 -87c-70 0 -127 20.333 -171 61c-45.333 42 -68 98.667 -68 170
c0 74.667 24.667 134.667 74 180c50.667 45.333 118.334 68 203.001 68c96.667 0 170 -30.667 220 -92c48 -60 72 -142.333 72 -247v-32c0 -118 -25.667 -208.333 -77 -271s-125.333 -94 -222 -94zM321 355c36.667 0 66.167 11.168 88.5 33.501s33.5 51.166 33.5 86.499
c0 41.333 -11.167 74 -33.5 98s-51.833 36 -88.5 36c-36 0 -64.667 -11.667 -86 -35s-32 -54 -32 -92s10.667 -68.667 32 -92s50 -35 86 -35z" />
    <glyph glyph-name="colon" unicode=":" horiz-adv-x="312" 
d="M155 -9c-25.333 0 -46.333 8.5 -63 25.5s-25 37.833 -25 62.5c0 24 8.33301 44.5 25 61.5s37.667 25.5 63 25.5s46.666 -8.5 63.999 -25.5s26 -37.5 26 -61.5s-8.66699 -44.667 -26 -62s-38.666 -26 -63.999 -26zM155 281c-25.333 0 -46.333 8.5 -63 25.5
s-25 37.833 -25 62.5c0 24 8.33301 44.5 25 61.5s37.667 25.5 63 25.5s46.666 -8.5 63.999 -25.5s26 -37.5 26 -61.5s-8.66699 -44.667 -26 -62s-38.666 -26 -63.999 -26z" />
    <glyph glyph-name="semicolon" unicode=";" horiz-adv-x="322" 
d="M20 -86l88 247l136 -51l-136 -233zM174 281c-25.333 0 -46.5 8.5 -63.5 25.5s-25.5 37.833 -25.5 62.5c0 24 8.5 44.5 25.5 61.5s38.167 25.5 63.5 25.5s46.666 -8.5 63.999 -25.5s26 -37.5 26 -61.5s-8.66699 -44.667 -26 -62s-38.666 -26 -63.999 -26z" />
    <glyph glyph-name="less" unicode="&#x3c;" horiz-adv-x="521" 
d="M52 308v29l408 235v-132l-217 -117l217 -121v-130z" />
    <glyph glyph-name="equal" unicode="=" horiz-adv-x="542" 
d="M45 281h452v-103h-452v103zM45 472h452v-104h-452v104z" />
    <glyph glyph-name="greater" unicode="&#x3e;" horiz-adv-x="521" 
d="M62 205l216 117l-216 121v130l408 -236v-29l-408 -235v132z" />
    <glyph glyph-name="question" unicode="?" horiz-adv-x="544" 
d="M179 253c0 34.667 10.667 67.665 32 98.998c14 20 36.333 44.667 67 74c15.333 14.667 27 26.334 35 35.001s15.5 19.667 22.5 33s10.5 26.333 10.5 39c0 49.333 -25.667 74 -77 74c-28 0 -50.667 -9.16699 -68 -27.5s-27.666 -43.5 -30.999 -75.5h-139
c2.66699 68 27 122.333 73 163c44.667 38.667 102.667 58 174 58c72 0 127.333 -16.667 166 -50c37.333 -32 56 -75.333 56 -130c0 -52.667 -27.333 -105 -82 -157c-40.667 -38.667 -63.334 -61 -68.001 -67c-22 -25.333 -34.333 -49.666 -37 -72.999v-25h-134v30z
M245 -9.00195c-26.667 0 -48.334 8.33203 -65.001 24.999c-18 16.667 -27 37 -27 61c0 24.667 9 45.334 27 62.001c16.667 16.667 38.334 25 65.001 25c25.333 0 46.833 -8.33301 64.5 -25s26.5 -37.334 26.5 -62.001c0 -23.333 -8.66699 -43.666 -26 -60.999
c-18 -16.667 -39.667 -25 -65 -25z" />
    <glyph glyph-name="at" unicode="@" horiz-adv-x="931" 
d="M466 -154c-131.333 0 -235.669 40.3311 -313.002 120.998c-74.667 76.667 -112 172.667 -112 288c0 125.333 44.333 230 133 314c40 38 86.833 67.667 140.5 89s109.5 32 167.5 32c118.667 0 216.334 -34 293.001 -102c76.667 -69.333 115 -157 115 -263
c0 -91.333 -22 -160 -66 -206c-38 -40.667 -84.667 -61 -140 -61c-77.333 0 -122.333 27.667 -135 83c-29.333 -58 -76 -87 -140 -87c-50 0 -89.5 16.167 -118.5 48.5s-43.5 76.5 -43.5 132.5c0 68.667 19.333 125 58 169c36.667 43.333 83 65 139 65c58 0 96 -21 114 -63
l7 55h124l-32 -265c-7.33301 -47.333 7.66699 -71 45 -71c30 0 55.333 15.667 76 47c23.333 35.333 35 86.333 35 153c0 88.667 -29.333 160.334 -88 215.001c-60 54.667 -140.667 82 -242 82c-103.333 0 -188.666 -33.667 -255.999 -101c-69.333 -68 -104 -157 -104 -267
c0 -100 29 -180 87 -240c62 -66.667 148 -100 258 -100c104 0 187 28.667 249 86h86c-30 -45.333 -74.667 -82.666 -134 -111.999c-61.333 -28 -129 -42 -203 -42zM445.997 151.998c26.667 0 49.667 12 69 36c19.333 26 29 58.333 29 97c0 57.333 -26.333 86 -79 86
c-26 0 -47.667 -12 -65 -36s-26 -55.667 -26 -95c0 -26.667 6.5 -48 19.5 -64s30.5 -24 52.5 -24z" />
    <glyph glyph-name="A" unicode="A" horiz-adv-x="732" 
d="M262 715h211l232 -715h-169l-49 159h-259l-49 -159h-152zM263 274h189l-94 309z" />
    <glyph glyph-name="B" unicode="B" horiz-adv-x="671" 
d="M83 715h281c158 0 237 -62 237 -186v-4c0 -80 -38.667 -131 -116 -153c95.333 -19.333 143 -75.333 143 -168v-4c0 -133.333 -83.667 -200 -251 -200h-294v715zM352 112c77.333 0 116 33.667 116 101v4c0 34 -9.83301 59.167 -29.5 75.5s-51.167 24.5 -94.5 24.5h-103
v-205h111zM338 421c39.333 0 67.333 7.16699 84 21.5s25 37.833 25 70.5v4c0 30 -8.83301 52 -26.5 66s-45.5 21 -83.5 21h-96v-183h97z" />
    <glyph glyph-name="C" unicode="C" horiz-adv-x="760" 
d="M405 -11c-115.333 0 -204.331 33.334 -266.998 100.001c-61.333 63.333 -92 151.333 -92 264v8c0 108 34 196 102 264c66 67.333 150.333 101 253 101c89.333 0 161.666 -21.333 216.999 -64c58.667 -46 92 -111.333 100 -196h-166c-12 88 -62 132 -150 132
c-56.667 0 -101.667 -20.833 -135 -62.5s-50 -99.5 -50 -173.5v-8c0 -74.667 16.167 -132.334 48.5 -173.001s78.166 -61 137.499 -61c45.333 0 82.333 11.5 111 34.5s46.334 57.167 53.001 102.5h159c-8.66699 -87.333 -42.334 -154 -101.001 -200
c-56.667 -45.333 -130 -68 -220 -68z" />
    <glyph glyph-name="D" unicode="D" horiz-adv-x="738" 
d="M311 126c141.333 0 212 76.333 212 229v8c0 75.333 -17.167 131.833 -51.5 169.5s-88.5 56.5 -162.5 56.5h-64v-463h66zM83 715h234c122 0 216 -31.333 282 -94c62 -62 93 -147.333 93 -256v-8c0 -110 -31.333 -196.333 -94 -259c-65.333 -65.333 -159.333 -98 -282 -98
h-233v715z" />
    <glyph glyph-name="E" unicode="E" horiz-adv-x="607" 
d="M83 715h466v-126h-305v-167h244v-118h-244v-178h321v-126h-482v715z" />
    <glyph glyph-name="F" unicode="F" horiz-adv-x="579" 
d="M83 715h459v-127h-297v-189h235v-122h-235v-277h-162v715z" />
    <glyph glyph-name="G" unicode="G" horiz-adv-x="792" 
d="M410 -11c-114.667 0 -204.331 34.334 -268.998 103.001c-63.333 64.667 -95 151.667 -95 261v8c0 108 34.333 195.667 103 263c68 68 155 102 261 102c86 0 156.667 -19.333 212 -58c63.333 -45.333 98.666 -109.333 105.999 -192h-161
c-14.667 81.333 -66.334 122 -155.001 122c-62 0 -110.333 -21.333 -145 -64s-52 -101 -52 -175v-8c0 -73.333 15.667 -130 47 -170c33.333 -44.667 84 -67 152 -67c56.667 0 100 15 130 45c26.667 26 40.667 61.333 42 106h-161v118h321v-76
c0 -96.667 -29.333 -173.334 -88 -230.001c-60 -58.667 -142.667 -88 -248 -88z" />
    <glyph glyph-name="H" unicode="H" horiz-adv-x="776" 
d="M83 715h162v-292h287v292h162v-715h-162v295h-287v-295h-162v715z" />
    <glyph glyph-name="I" unicode="I" horiz-adv-x="337" 
d="M87 715h163v-715h-163v715z" />
    <glyph glyph-name="J" unicode="J" horiz-adv-x="469" 
d="M160 -9c-51.333 0 -91 7.33301 -119 22v124c30 -11.333 60 -17 90 -17c67.333 0 101 37.667 101 113v482h163v-484c0 -80 -20.333 -140 -61 -180s-98.667 -60 -174 -60z" />
    <glyph glyph-name="K" unicode="K" horiz-adv-x="698" 
d="M83 715h162v-308l250 309h172l-283 -339l297 -377h-189l-247 321v-321h-162v715z" />
    <glyph glyph-name="L" unicode="L" horiz-adv-x="572" 
d="M83 715h162v-588h291v-127h-453v715z" />
    <glyph glyph-name="M" unicode="M" horiz-adv-x="923" 
d="M83 715h214l167 -445l165 445h210v-715h-161v502l-198 -502h-53l-199 502v-502h-145v715z" />
    <glyph glyph-name="N" unicode="N" horiz-adv-x="770" 
d="M83 715h188l272 -471v471h144v-715h-162l-298 509v-509h-144v715z" />
    <glyph glyph-name="O" unicode="O" horiz-adv-x="828" 
d="M416 118c59.333 0 107.334 21.667 144.001 65c35.333 42.667 53 100 53 172v8c0 69.333 -17.333 125.666 -52 168.999c-36.667 43.333 -85.667 65 -147 65c-60.667 0 -109.334 -21 -146.001 -63c-35.333 -41.333 -53 -98.666 -53 -171.999v-8c0 -72.667 19 -130 57 -172
c36.667 -42.667 84.667 -64 144 -64zM413.001 -11c-110.667 0 -199.667 34.666 -267 103.999c-66.667 66.667 -100 153.334 -100 260.001v8c0 108 35 195.333 105 262c69.333 68 157 102 263 102c108.667 0 197 -33 265 -99c68.667 -68.667 103 -155.667 103 -261v-8
c0 -107.333 -33.667 -195.333 -101 -264c-68 -69.333 -157.333 -104 -268 -104z" />
    <glyph glyph-name="P" unicode="P" horiz-adv-x="638" 
d="M83 715l246.999 -0.000976562c88.667 0 156.334 -19.167 203.001 -57.5s70 -95.166 70 -170.499v-4c0 -74 -24.333 -130 -73 -168c-46.667 -36.667 -111.667 -55 -195 -55h-91v-260h-161v715zM325.999 372.999c80.667 0 121 36.333 121 109v4
c0 70.667 -40.333 106 -121 106h-82v-219h82z" />
    <glyph glyph-name="Q" unicode="Q" horiz-adv-x="828" 
d="M548 10c-44 -14 -89 -21.001 -135 -21.001c-110.667 0 -199.667 34.667 -267 104c-66.667 66.667 -100 153.334 -100 260.001v8c0 108 35 195.333 105 262c69.333 68 157 102 263 102c108.667 0 197 -33 265 -99c68.667 -68.667 103 -155.667 103 -261v-8
c0 -118 -39.333 -211.667 -118 -281l73 -78l-92 -91zM416 113.999c8 0 19.333 0.668945 34 2.00195l-68 74l94 88l88 -95c32.667 45.333 49 102.666 49 171.999v8c0 69.333 -17.333 125.666 -52 168.999c-36.667 43.333 -85.667 65 -147 65c-62 0 -110.667 -21 -146 -63
s-53 -99.333 -53 -172v-8c0 -75.333 19 -134 57 -176c36.667 -42.667 84.667 -64 144 -64z" />
    <glyph glyph-name="R" unicode="R" horiz-adv-x="684" 
d="M83 715h256c86.667 0 153.667 -17.667 201 -53c50 -37.333 75 -92 75 -164v-4c0 -52 -14 -94 -42 -126c-26 -30 -61 -51.333 -105 -64l189 -304h-172l-171 276h-70v-276h-161v715zM335 386c81.333 0 122 34.333 122 103v4c0 35.333 -10 60.5 -30 75.5
s-50.667 22.5 -92 22.5h-91v-205h91z" />
    <glyph glyph-name="S" unicode="S" horiz-adv-x="652" 
d="M333 -11c-95.333 0 -167.997 21.333 -217.997 64c-47.333 40.667 -73 97.667 -77 171h155c4.66699 -38 15.667 -65.333 33 -82c23.333 -23.333 59 -35 107 -35c36 0 64.667 8.83301 86 26.5s32 40.5 32 68.5c0 27.333 -9.33301 48 -28 62
c-20.667 12.667 -56.334 23 -107.001 31c-94 12 -159.667 34 -197 66c-40.667 31.333 -61 81.666 -61 150.999c0 60.667 23.667 111.667 71 153c48.667 40 111.667 60 189 60c81.333 0 144.666 -18 189.999 -54s71.333 -89.333 78 -160h-149
c-8.66699 63.333 -48.334 95 -119.001 95c-34.667 0 -61.167 -7.33301 -79.5 -22s-27.5 -34.334 -27.5 -59.001c0 -27.333 8.66699 -46.666 26 -57.999c18 -14 53.667 -25 107 -33c90.667 -11.333 156 -31.666 196 -60.999c44 -33.333 66 -85.333 66 -156
c0 -66 -24.333 -119.667 -73 -161c-51.333 -44.667 -118 -67 -200 -67z" />
    <glyph glyph-name="T" unicode="T" horiz-adv-x="609" 
d="M223 589h-193v126h549v-126h-193v-589h-163v589z" />
    <glyph glyph-name="U" unicode="U" horiz-adv-x="751" 
d="M372 -11c-95.333 0 -168.334 24.667 -219.001 74s-76 121.333 -76 216v436h163v-426c0 -60.667 10 -104.334 30 -131.001s54.333 -40 103 -40s83.834 13.333 105.501 40s32.5 72.334 32.5 137.001v420h163v-430c0 -97.333 -25.833 -171 -77.5 -221s-126.5 -75 -224.5 -75
z" />
    <glyph glyph-name="V" unicode="V" horiz-adv-x="713" 
d="M25 715h171l170 -549l170 549h152l-238 -715h-186z" />
    <glyph glyph-name="W" unicode="W" horiz-adv-x="983" 
d="M27 715h164l112 -494l122 494h138l127 -497l116 497h150l-174 -715h-165l-129 494l-131 -494h-156z" />
    <glyph glyph-name="X" unicode="X" horiz-adv-x="731" 
d="M263 367l-210 348h183l136 -238l135 238h166l-204 -343l226 -372h-184l-155 266l-154 -266h-166z" />
    <glyph glyph-name="Y" unicode="Y" horiz-adv-x="660" 
d="M255 308l-236 407h178l145 -274l142 274h157l-223 -407v-308h-163v308z" />
    <glyph glyph-name="Z" unicode="Z" horiz-adv-x="627" 
d="M24 20l341 569h-303v126h532v-19l-334 -569h322v-127h-558v20z" />
    <glyph glyph-name="bracketleft" unicode="[" horiz-adv-x="402" 
d="M80 776h276v-107h-131v-710h131v-107h-276v924z" />
    <glyph glyph-name="backslash" unicode="\" horiz-adv-x="435" 
d="M16 776h118l308 -924h-118z" />
    <glyph glyph-name="bracketright" unicode="]" horiz-adv-x="402" 
d="M47 -41h130v710h-130v107h275v-924h-275v107z" />
    <glyph glyph-name="asciicircum" unicode="^" horiz-adv-x="534" 
d="M202 715h130l166 -316h-129l-103 198l-104 -198h-125z" />
    <glyph glyph-name="underscore" unicode="_" horiz-adv-x="431" 
d="M5 -81h421v-79h-421v79z" />
    <glyph glyph-name="grave" unicode="`" horiz-adv-x="412" 
d="M57 753h152l57 -159h-105z" />
    <glyph glyph-name="a" unicode="a" horiz-adv-x="576" 
d="M211 -11c-50.667 0 -91.666 12.334 -122.999 37.001c-34.667 27.333 -52 67 -52 119c0 58 25.333 101.333 76 130c45.333 25.333 110.666 38 195.999 38h59v21c0 33.333 -6.16699 57.666 -18.5 72.999s-34.5 23 -66.5 23c-51.333 0 -81 -24.667 -89 -74h-137
c4 58.667 28.333 104 73 136c40.667 28.667 94.667 43 162 43s120 -14.667 158 -44c40.667 -32 61 -82 61 -150v-341h-141v63c-35.333 -49.333 -88 -74 -158 -74zM254.001 90.001c32.667 0 59.667 8.33203 81 24.999s32 39.334 32 68.001v44h-56
c-44 0 -77.167 -5.66699 -99.5 -17s-33.5 -30.333 -33.5 -57c0 -42 25.333 -63 76 -63z" />
    <glyph glyph-name="b" unicode="b" horiz-adv-x="649" 
d="M382 -11c-39.333 0 -73.502 8.5 -102.502 25.5s-50.5 39.833 -64.5 68.5v-83h-145v760h145v-319c15.333 27.333 37.833 49.833 67.5 67.5s62.834 26.5 99.501 26.5c66 0 120 -23 162 -69c44 -48 66 -114.333 66 -199v-8c0 -84 -21.667 -150.333 -65 -199
c-41.333 -47.333 -95.666 -71 -162.999 -71zM338.998 102c40 0 70.666 13.167 91.999 39.5s32 65.166 32 116.499v8c0 52 -11.333 91.333 -34 118s-53 40 -91 40c-39.333 0 -70.5 -13.5 -93.5 -40.5s-34.5 -66.167 -34.5 -117.5v-8c0 -51.333 11.333 -90.166 34 -116.499
s54.334 -39.5 95.001 -39.5z" />
    <glyph glyph-name="c" unicode="c" horiz-adv-x="590" 
d="M307 -11c-78.667 0 -142.666 23 -191.999 69c-51.333 48 -77 113.667 -77 197v8c0 82 26.333 148.667 79 200c50 48 113.667 72 191 72c67.333 0 122 -15 164 -45c48 -34.667 75.333 -87.334 82 -158.001h-137c-8.66699 59.333 -44 89 -106 89
c-38.667 0 -69.167 -13.667 -91.5 -41s-33.5 -65.666 -33.5 -114.999v-8c0 -52 11.167 -91.5 33.5 -118.5s53.833 -40.5 94.5 -40.5c30.667 0 56.167 8.66699 76.5 26s32.166 42.333 35.499 75h131c-4 -64.667 -27.667 -115 -71 -151c-46 -39.333 -105.667 -59 -179 -59z
" />
    <glyph glyph-name="d" unicode="d" horiz-adv-x="649" 
d="M266 -11c-66 0 -119.666 22.667 -160.999 68c-44 47.333 -66 113 -66 197v8c0 83.333 22 150.333 66 201c42 48 96.667 72 164 72c77.333 0 132.333 -30 165 -90v315h144v-760h-144v87c-14 -28 -36.333 -51.333 -67 -70s-64.334 -28 -101.001 -28zM309.001 102
c39.333 0 70.668 13.167 94.001 39.5s35 65.5 35 117.5v8c0 51.333 -10.667 90.333 -32 117s-52.333 40 -93 40s-71.834 -13.5 -93.501 -40.5s-32.5 -66.5 -32.5 -118.5v-8c0 -50.667 11 -89.167 33 -115.5s51.667 -39.5 89 -39.5z" />
    <glyph glyph-name="e" unicode="e" horiz-adv-x="599" 
d="M311 -11c-81.333 0 -146.334 23.668 -195.001 71.001c-52 48 -78 113 -78 195v8c0 81.333 26 147.333 78 198c50.667 49.333 114.334 74 191.001 74c72.667 0 132 -21 178 -63c51.333 -46.667 77 -114.334 77 -203.001v-40h-377c2 -44 14.167 -77.833 36.5 -101.5
s53.5 -35.5 93.5 -35.5c62.667 0 99 24.333 109 73h137c-8.66699 -56.667 -34.5 -100.167 -77.5 -130.5s-100.5 -45.5 -172.5 -45.5zM420.999 318.001c-4.66699 78 -42.667 116.999 -114 116.999c-32.667 0 -59.5 -10.167 -80.5 -30.5s-34.167 -49.166 -39.5 -86.499h234z
" />
    <glyph glyph-name="f" unicode="f" horiz-adv-x="383" 
d="M94 420l-69 -0.000976562v103h69v60c0 60.667 16.333 106.334 49 137.001s78.667 46 138 46c28 0 53 -3.33301 75 -10v-109c-18 6 -35.667 9 -53 9c-43.333 0 -65 -23 -65 -69v-64h114v-103h-114v-420h-144v420z" />
    <glyph glyph-name="g" unicode="g" horiz-adv-x="648" 
d="M302 -193c-82.667 0 -145.331 16.667 -187.998 50c-40.667 30 -64.667 74 -72 132h144c10 -50.667 48.667 -76 116 -76c88 0 132 42.667 132 128v79c-17.333 -29.333 -39.333 -51.666 -66 -66.999c-30.667 -20 -64.667 -30 -102 -30c-66 0 -119.667 22.333 -161 67
c-44.667 46.667 -67 107.667 -67 183v7c0 74.667 22 136 66 184c44 47.333 98.667 71 164 71c75.333 0 130.666 -30 165.999 -90v78h144v-482c-0.666992 -76.667 -24.834 -134.834 -72.501 -174.501s-115.5 -59.5 -203.5 -59.5zM309.003 132
c38.667 0 69.832 12.832 93.499 38.499s35.5 60.5 35.5 104.5v7c0 44.667 -11 79.667 -33 105s-53 38 -93 38s-71 -13 -93 -39s-33 -61 -33 -105v-8c0 -43.333 11.333 -77.666 34 -102.999s52.334 -38 89.001 -38z" />
    <glyph glyph-name="h" unicode="h" horiz-adv-x="627" 
d="M70 760h144.999v-320c32.667 63.333 89.334 95 170.001 95c52.667 0 95 -16 127 -48c32.667 -34.667 49 -86 49 -154v-333h-145v312c0 36 -7.33301 62.5 -22 79.5s-38 25.5 -70 25.5c-32.667 0 -59 -9.83301 -79 -29.5s-30 -48.167 -30 -85.5v-302h-145v760z" />
    <glyph glyph-name="i" unicode="i" horiz-adv-x="293" 
d="M145 594c-23.333 0 -42.833 7.5 -58.5 22.5s-23.5 33.833 -23.5 56.5s7.83301 41.5 23.5 56.5s35.167 22.5 58.5 22.5s43 -7.5 59 -22.5s24 -33.833 24 -56.5s-8 -41.5 -24 -56.5s-35.667 -22.5 -59 -22.5zM74 523h144v-523h-144v523z" />
    <glyph glyph-name="j" unicode="j" horiz-adv-x="293" 
d="M5 -79c24.667 2 42.333 8.5 53 19.5s16 27.5 16 49.5v533h144v-532c0 -56.667 -15 -99.667 -45 -129c-34 -32 -90 -48.333 -168 -49v108zM144.999 594c-23.333 0 -42.833 7.5 -58.5 22.5s-23.5 33.833 -23.5 56.5s7.83301 41.5 23.5 56.5s35.167 22.5 58.5 22.5
s43 -7.5 59 -22.5s24 -33.833 24 -56.5s-8 -41.5 -24 -56.5s-35.667 -22.5 -59 -22.5z" />
    <glyph glyph-name="k" unicode="k" horiz-adv-x="567" 
d="M70 760h145v-458l168 221h154l-190 -238l205 -285h-164l-173 247v-247h-145v760z" />
    <glyph glyph-name="l" unicode="l" horiz-adv-x="292" 
d="M74 760h144v-760h-144v760z" />
    <glyph glyph-name="m" unicode="m" horiz-adv-x="935" 
d="M70 523h145v-80c14.667 26.667 35.667 48.667 63 66s59.666 26 96.999 26c73.333 0 122 -30.333 146 -91c40.667 60.667 99.334 91 176.001 91c50.667 0 91.667 -15.667 123 -47c32.667 -34.667 49 -85.667 49 -153v-335h-144v319c0 64.667 -27.333 97 -82 97
c-29.333 0 -53.5 -9.16699 -72.5 -27.5s-28.5 -44.833 -28.5 -79.5v-309h-144v319c0 64.667 -27.333 97 -82 97c-29.333 0 -53.5 -9.16699 -72.5 -27.5s-28.5 -44.833 -28.5 -79.5v-309h-145v523z" />
    <glyph glyph-name="n" unicode="n" horiz-adv-x="627" 
d="M70 523h144.999v-83c32.667 63.333 89.334 95 170.001 95c52.667 0 95 -16 127 -48c32.667 -34.667 49 -86 49 -154v-333h-145v312c0 36 -7.33301 62.5 -22 79.5s-38 25.5 -70 25.5c-32.667 0 -59 -9.83301 -79 -29.5s-30 -48.167 -30 -85.5v-302h-145v523z" />
    <glyph glyph-name="o" unicode="o" horiz-adv-x="628" 
d="M314 99c40.667 0 72.167 14 94.5 42s33.5 67 33.5 117v7c0 50 -11.167 89.167 -33.5 117.5s-53.833 42.5 -94.5 42.5c-40 0 -71.333 -13.833 -94 -41.5s-34 -66.5 -34 -116.5v-8c0 -50.667 11 -90 33 -118s53.667 -42 95 -42zM313 -11c-80 0 -145.333 24.332 -196 72.999
c-52.667 48.667 -79 113.334 -79 194.001v8c0 80.667 26.333 146.334 79 197.001c51.333 49.333 117 74 197 74c80.667 0 146.334 -24.333 197.001 -73c52 -50.667 78 -115.667 78 -195v-8c0 -80.667 -26.333 -146.334 -79 -197.001
c-50.667 -48.667 -116.334 -73 -197.001 -73z" />
    <glyph glyph-name="p" unicode="p" horiz-adv-x="649" 
d="M70 523h144.998v-82c15.333 27.333 37.833 49.833 67.5 67.5s62.834 26.5 99.501 26.5c66 0 120 -23 162 -69c44 -48 66 -114.333 66 -199v-8c0 -84 -21.667 -150.333 -65 -199c-41.333 -47.333 -95.666 -71 -162.999 -71c-38.667 0 -72.667 8.5 -102 25.5
s-51 38.833 -65 65.5v-258h-145v701zM338.998 102c40 0 70.666 13.167 91.999 39.5s32 65.166 32 116.499v8c0 52 -11.333 91.333 -34 118s-53 40 -91 40c-39.333 0 -70.5 -13.5 -93.5 -40.5s-34.5 -66.167 -34.5 -117.5v-8c0 -51.333 11.333 -90.166 34 -116.499
s54.334 -39.5 95.001 -39.5z" />
    <glyph glyph-name="q" unicode="q" horiz-adv-x="649" 
d="M434 84c-13.333 -26 -35 -48 -65 -66c-32.667 -19.333 -67 -29 -103 -29c-66 0 -119.667 22.667 -161 68c-44 47.333 -66 113 -66 197v8c0 83.333 22 150.333 66 201c42 48 96.667 72 164 72c77.333 0 132.333 -30 165 -90v78h144v-701h-144v262zM309 102
c39.333 0 70.668 13.167 94.001 39.5s35 65.5 35 117.5v8c0 51.333 -10.667 90.333 -32 117s-52.333 40 -93 40s-71.834 -13.5 -93.501 -40.5s-32.5 -66.5 -32.5 -118.5v-8c0 -50.667 11 -89.167 33 -115.5s51.667 -39.5 89 -39.5z" />
    <glyph glyph-name="r" unicode="r" horiz-adv-x="421" 
d="M70 523l145.001 0.000976562v-100c33.333 71.333 89.666 107.333 168.999 108v-135c-56 0.666992 -98.167 -9.33301 -126.5 -30s-42.5 -55.334 -42.5 -104.001v-262h-145v523z" />
    <glyph glyph-name="s" unicode="s" horiz-adv-x="514" 
d="M260 -11c-70.667 0 -125.668 15.001 -165.001 45.001s-60.333 73.333 -63 130h135c4 -25.333 12.667 -44 26 -56s35.333 -18 66 -18c54.667 0 82 19 82 57c0 18 -8 31.5 -24 40.5s-43.333 16.167 -82 21.5c-70.667 11.333 -120 28.333 -148 51
c-30 23.333 -45 60.666 -45 111.999s21.333 92.333 64 123c36.667 26.667 84.334 40 143.001 40c60.667 0 109.667 -12 147 -36c39.333 -26.667 62.333 -68.667 69 -126h-133c-4 22 -12.333 38 -25 48s-31.667 15 -57 15c-23.333 0 -41.5 -5 -54.5 -15s-19.5 -23 -19.5 -39
c0 -16.667 7.16699 -29 21.5 -37s40.833 -14.667 79.5 -20c68.667 -9.33301 119 -25 151 -47c34.667 -26 52 -65 52 -117c0 -56 -19.167 -98.667 -57.5 -128s-92.5 -44 -162.5 -44z" />
    <glyph glyph-name="t" unicode="t" horiz-adv-x="389" 
d="M261 -10c-112.667 0 -168.999 55 -168.999 165v265h-67v103h67v113h144v-113h110v-103h-110v-252c0 -41.333 19.333 -62 58 -62c21.333 0 39.666 3.33301 54.999 10v-112c-26.667 -9.33301 -56 -14 -88 -14z" />
    <glyph glyph-name="u" unicode="u" horiz-adv-x="624" 
d="M244 -11c-53.333 0 -95.668 15.667 -127.001 47c-34 34 -51 84 -51 150v337h144v-317c0 -70 30.333 -105 91 -105c32 0 58.167 9.83301 78.5 29.5s30.5 48.167 30.5 85.5v307h144v-523h-144v82c-31.333 -62 -86.666 -93 -165.999 -93z" />
    <glyph glyph-name="v" unicode="v" horiz-adv-x="584" 
d="M20 523h155l125 -374l124 374h140l-190 -523h-163z" />
    <glyph glyph-name="w" unicode="w" horiz-adv-x="838" 
d="M22 523h152l93 -352l101 352h119l92 -352l99 352h139l-165 -523h-142l-89 328l-96 -328h-144z" />
    <glyph glyph-name="x" unicode="x" horiz-adv-x="586" 
d="M202 267l-167 256h166l98 -157l96 157h150l-167 -245l184 -278h-167l-110 176l-113 -176h-149z" />
    <glyph glyph-name="y" unicode="y" horiz-adv-x="579" 
d="M228 53l-208 470h156l127 -314l117 314h139l-283 -701h-140z" />
    <glyph glyph-name="z" unicode="z" horiz-adv-x="511" 
d="M20 16l258 395h-232v112h442v-18l-260 -393h250v-112h-458v16z" />
    <glyph glyph-name="braceleft" unicode="{" horiz-adv-x="417" 
d="M370 -148c-93.333 0 -160.167 17.667 -200.5 53s-53.833 91.666 -40.5 168.999l16 92c4.66699 28 -1.33301 51.167 -18 69.5s-45.667 27.5 -87 27.5v103c41.333 0 70.333 9.16699 87 27.5s22.667 41.5 18 69.5l-16 91c-14.667 77.333 -0.666992 134.666 42 171.999
c38 34 104.333 51 199 51v-106c-42.667 -1.33301 -71.667 -10.166 -87 -26.499s-19.666 -45.5 -12.999 -87.5l15 -107c5.33301 -34.667 -1 -63.667 -19 -87s-45.333 -39.333 -82 -48c36.667 -8 64 -23.667 82 -47s24.333 -52.666 19 -87.999l-15 -106
c-6.66699 -42.667 -2.33398 -72.5 12.999 -89.5s44.333 -26.167 87 -27.5v-105z" />
    <glyph glyph-name="bar" unicode="|" horiz-adv-x="274" 
d="M85 776h104v-924h-104v924z" />
    <glyph glyph-name="braceright" unicode="}" horiz-adv-x="417" 
d="M46 -43c43.333 1.33301 72.5 10.501 87.5 27.501s19.5 46.833 13.5 89.5l-15 106c-5.33301 35.333 1 64.666 19 87.999s45.333 39 82 47c-36.667 8.66699 -64 24.667 -82 48s-24.333 52.333 -19 87l15 107c6 42 1.5 71.167 -13.5 87.5s-44.167 25.166 -87.5 26.499v106
c94.667 0 161.334 -17 200.001 -51c40.667 -36.667 54.667 -94 42 -172l-16 -91c-4.66699 -29.333 1 -52 17 -68c18 -19.333 47 -29 87 -29v-103c-40 0 -69 -9.66699 -87 -29c-16 -16 -21.667 -38.667 -17 -68l16 -92c13.333 -77.333 -0.333984 -133.666 -41.001 -168.999
s-107.667 -53 -201 -53v105z" />
    <glyph glyph-name="asciitilde" unicode="~" horiz-adv-x="504" 
d="M40 218c4 57.333 19.002 101.333 45.002 132c22.667 26.667 51.667 40 87 40c25.333 0 54.666 -7.66699 87.999 -23l33 -17c9.33301 -4.66699 18.666 -7 27.999 -7c26 0 41 16.333 45 49h98c-2.66699 -56 -17.334 -99.333 -44.001 -130c-24 -28.667 -53 -43 -87 -43
c-27.333 0 -57 8 -89 24c-33.333 15.333 -53.666 23 -60.999 23c-26 0 -41 -16 -45 -48h-98z" />
    <glyph glyph-name="uni00A0" unicode="&#xa0;" horiz-adv-x="266" 
 />
    <glyph glyph-name="exclamdown" unicode="&#xa1;" horiz-adv-x="329" 
d="M105 375h118l22 -492h-162zM165 434c-25.333 0 -47 8.33301 -65 25s-27 37.334 -27 62.001c0 23.333 9.33301 43.666 28 60.999c16.667 16.667 38 25 64 25c25.333 0 47 -8.33301 65 -25c17.333 -17.333 26 -37.666 26 -60.999c0 -24.667 -8.83301 -45.334 -26.5 -62.001
s-39.167 -25 -64.5 -25z" />
    <glyph glyph-name="cent" unicode="&#xa2;" horiz-adv-x="596" 
d="M278 -9c-72 7.33301 -129.334 33.332 -172.001 77.999c-45.333 46.667 -68 108.667 -68 186v8c0 75.333 23 138 69 188c44.667 46.667 101.667 74 171 82v96h71v-96c58 -5.33301 106 -23.666 144 -54.999c41.333 -36.667 64.333 -85.334 69 -146.001h-134
c-6.66699 48.667 -33 79 -79 91v-328c54 12.667 83.333 47.334 88 104.001h128c-3.33301 -58.667 -24.166 -106.5 -62.499 -143.5s-89.5 -58.5 -153.5 -64.5v-126h-71v126zM181.999 256.999c0 -89.333 32 -142.667 96 -160v325c-30 -8 -53.5 -25.5 -70.5 -52.5
s-25.5 -61.833 -25.5 -104.5v-8z" />
    <glyph glyph-name="sterling" unicode="&#xa3;" horiz-adv-x="647" 
d="M45 396l56.999 0.000976562c-10 35.333 -15 71.333 -15 108c0 68 24.667 122.333 74 163c47.333 38.667 107.666 58 180.999 58c78.667 0 140.334 -20.333 185.001 -61c40.667 -38.667 63 -92.334 67 -161.001h-149c-6 33.333 -16.5 58 -31.5 74s-37.5 24 -67.5 24
c-29.333 0 -53 -9.33301 -71 -28s-27 -44 -27 -76c0 -36.667 3.33301 -70.334 10 -101.001h191v-99h-171c4.66699 -31.333 7 -59 7 -83c0 -18.667 -4 -39 -12 -61c8.66699 -2.66699 22.667 -7.5 42 -14.5s34.833 -12 46.5 -15s22.5 -4.5 32.5 -4.5c46 0 70.333 23 73 69h144
c-3.33301 -59.333 -20.666 -106.333 -51.999 -141c-34 -37.333 -79.333 -56 -136 -56c-39.333 0 -80.666 9.33301 -123.999 28l-24.5 9.5c-11 4.33301 -19.333 7.5 -25 9.5s-12.334 4 -20.001 6s-14.5 3 -20.5 3c-32.667 0 -51 -15.667 -55 -47h-123
c3.33301 37.333 13 69 29 95c18 30 43.667 50.667 77 62c6 19.333 9 38.333 9 57c0 22.667 -4.66699 50.334 -14 83.001h-87v99z" />
    <glyph glyph-name="yen" unicode="&#xa5;" horiz-adv-x="633" 
d="M77 356h144l-198 359h176l129 -266l126 266h155l-187 -359h145v-67h-164v-61h164v-66h-164v-162h-162v162h-164v66h164v61h-164v67z" />
    <glyph glyph-name="brokenbar" unicode="&#xa6;" horiz-adv-x="278" 
d="M85 300h104v-448h-104v448zM85 776h104v-406h-104v406z" />
    <glyph glyph-name="section" unicode="&#xa7;" horiz-adv-x="594" 
d="M289 -137c-64.667 0 -115.333 15.502 -152 46.502s-56 74.167 -58 129.5h135c3.33301 -49.333 28.666 -74 75.999 -74c24.667 0 43.167 5.66699 55.5 17s18.5 26.333 18.5 45s-8 33.667 -24 45c-17.333 10.667 -49 22 -95 34c-71.333 18 -122 39 -152 63
c-38.667 30 -58 71 -58 123c0 66 36.667 111.333 110 136c-34 30 -51 70 -51 120c0 52 20.667 95 62 129c38 32 87.667 48 149 48c63.333 0 113 -15.333 149 -46s55 -73.334 57 -128.001h-133c-4 46.667 -29 70 -75 70c-24.667 0 -43 -5.66699 -55 -17s-18 -26.333 -18 -45
c0 -20 7.66699 -35.333 23 -46c12.667 -9.33301 43.334 -20.333 92.001 -33c70 -16.667 121.333 -36.667 154 -60c40 -30 60 -72 60 -126c0 -64.667 -36.333 -110.334 -109 -137.001c33.333 -29.333 50 -69 50 -119c0 -50.667 -20 -92.667 -60 -126
c-38.667 -32.667 -89 -49 -151 -49zM359.001 210.002c40 10 60 31.333 60 64c0 19.333 -8.66699 35 -26 47c-14.667 8.66699 -42 19 -82 31l-76 23c-40 -7.33301 -60 -29 -60 -65c0 -18 8 -32.167 24 -42.5s44.667 -21.833 86 -34.5z" />
    <glyph glyph-name="dieresis" unicode="&#xa8;" horiz-adv-x="412" 
d="M104 600c-20.667 0 -38.167 7 -52.5 21s-21.5 31 -21.5 51s7.16699 37 21.5 51s31.833 21 52.5 21s38.167 -7 52.5 -21s21.5 -31 21.5 -51s-7.16699 -37 -21.5 -51s-31.833 -21 -52.5 -21zM308 600c-20.667 0 -38.167 7 -52.5 21s-21.5 31 -21.5 51s7.16699 37 21.5 51
s31.833 21 52.5 21s38.167 -7 52.5 -21s21.5 -31 21.5 -51s-7.16699 -37 -21.5 -51s-31.833 -21 -52.5 -21z" />
    <glyph glyph-name="copyright" unicode="&#xa9;" horiz-adv-x="855" 
d="M432 152c-66 0 -116.502 18 -151.502 54s-52.5 85 -52.5 147v8c0 60 19 109 57 147c38 36.667 86 55 144 55c52.667 0 95.167 -12.5 127.5 -37.5s50.5 -62.5 54.5 -112.5h-109c-4.66699 43.333 -29 65 -73 65c-28 0 -49.833 -10 -65.5 -30s-23.5 -49 -23.5 -87v-7
c0 -77.333 30.333 -116 91 -116c46.667 0 73.334 23 80.001 69h104c-4 -50.667 -22.667 -89 -56 -115c-31.333 -26.667 -73.666 -40 -126.999 -40zM426.998 32c88.667 0 164 30 226 90c63.333 61.333 95 140.333 95 237c0 94 -31 172 -93 234c-62 60 -137.333 90 -226 90
c-91.333 0 -167.333 -30.333 -228 -91c-62.667 -60.667 -94 -139 -94 -235s32 -174.333 96 -235c60 -60 134.667 -90 224 -90zM426.998 -16c-106 0 -195.001 36.001 -267.001 108.001c-73.333 72 -110 160.333 -110 265c0 103.333 36.667 191.666 110 264.999
c72.667 72.667 162.334 109 269.001 109c106 0 195.667 -36 269 -108c72 -73.333 108 -161.333 108 -264c0 -106 -36.667 -195 -110 -267c-74 -72 -163.667 -108 -269 -108z" />
    <glyph glyph-name="ordfeminine" unicode="&#xaa;" horiz-adv-x="472" 
d="M175 288c-42 0 -75.001 9.99902 -99.001 29.999c-28 22.667 -42 54.334 -42 95.001c0 46.667 19.667 81 59 103c36 19.333 88.667 29 158 29h47v19c0 22.667 -4.66699 39.5 -14 50.5s-25 16.5 -47 16.5c-37.333 0 -59 -17.667 -65 -53h-122c4 49.333 23.667 86 59 110
c32.667 24 77.334 36 134.001 36c56 0 100 -12 132 -36c33.333 -26 50 -66.333 50 -121v-269h-125v49c-28 -39.333 -69.667 -59 -125 -59zM215.999 377.999c24 0 43.667 5.83203 59 17.499s23 27.834 23 48.501v31h-43c-62 0 -93 -17.333 -93 -52c0 -30 18 -45 54 -45z" />
    <glyph glyph-name="guillemotleft" unicode="&#xab;" horiz-adv-x="499" 
d="M47 261l127 186h103l-122 -186l122 -186h-103zM226 261l127 186h103l-122 -186l122 -186h-103z" />
    <glyph glyph-name="uni00AD" unicode="&#xad;" horiz-adv-x="376" 
d="M60 339h256v-115h-256v115z" />
    <glyph glyph-name="registered" unicode="&#xae;" horiz-adv-x="528" 
d="M182 615l85 0.000976562c59.333 0 89 -23 89 -69v-1c0 -26.667 -13.333 -46.334 -40 -59.001l53 -90h-64l-45 79h-16v-79h-62v219zM264 515.001c21.333 0 32 9 32 27v1c0 16.667 -10.667 25 -32 25h-20v-53h20zM264 319.001c52 0 95.667 17.001 131 51.001
s53 78.333 53 133s-17 99 -51 133c-35.333 34 -79.666 51 -132.999 51c-54 0 -98 -17 -132 -51c-34.667 -34.667 -52 -79.334 -52 -134.001c0 -54 18 -98.333 54 -133c33.333 -33.333 76.666 -50 129.999 -50zM264 281.002c-63.333 0 -117.001 21.332 -161.001 63.999
c-44 42 -66 94.333 -66 157c0 61.333 22 114 66 158c44.667 43.333 98.334 65 161.001 65c64 0 117.667 -21.667 161 -65s65 -95.666 65 -156.999c0 -62 -21.667 -114.667 -65 -158c-44 -42.667 -97.667 -64 -161 -64z" />
    <glyph glyph-name="macron" unicode="&#xaf;" horiz-adv-x="412" 
d="M60 712h291v-87h-291v87z" />
    <glyph glyph-name="degree" unicode="&#xb0;" horiz-adv-x="455" 
d="M228 456c26 0 47.501 9.5 64.501 28.5s25.5 42.833 25.5 71.5c0 29.333 -8.33301 53.666 -25 72.999s-38.334 29 -65.001 29c-27.333 0 -49.666 -9.66699 -66.999 -29s-26 -43.666 -26 -72.999c0 -28.667 8.66699 -52.5 26 -71.5s39.666 -28.5 66.999 -28.5zM228.001 390
c-47.333 0 -87.668 16.665 -121.001 49.998c-34 30.667 -51 69.334 -51 116.001s17 86.334 51 119.001c34.667 32.667 75 49 121 49s86.333 -16.333 121 -49c33.333 -33.333 50 -73 50 -119s-16.667 -84.667 -50 -116c-33.333 -33.333 -73.666 -50 -120.999 -50z" />
    <glyph glyph-name="plusminus" unicode="&#xb1;" horiz-adv-x="563" 
d="M223 336h-180v108h180v172h118v-172h180v-108h-180v-171h-118v171zM43 100h480v-100h-480v100z" />
    <glyph glyph-name="twosuperior" unicode="&#xb2;" horiz-adv-x="341" 
d="M12 366l128.001 133.998c22 22.667 38 41.334 48 56.001s15 29.334 15 44.001c0 26 -12.667 39 -38 39c-26.667 0 -42.334 -19 -47.001 -57h-99c2 44.667 16.167 78.834 42.5 102.501s62.5 35.5 108.5 35.5c44.667 0 79 -10.333 103 -31s36 -48 36 -82
c0 -24 -6 -45.833 -18 -65.5s-30 -40.834 -54 -63.501l-49 -48h124v-78h-300v14z" />
    <glyph glyph-name="threesuperior" unicode="&#xb3;" horiz-adv-x="363" 
d="M180 345c-49.333 0 -88 11.667 -116 35c-24.667 22.667 -37.667 53 -39 91h96c3.33301 -32.667 21 -49 53 -49s48 13.667 48 41s-16.667 41 -50 41h-29v64h28c32.667 0 49 13.333 49 40c0 24 -13.333 36 -40 36c-28.667 0 -45 -15 -49 -45h-96
c2.66699 36.667 16.667 66 42 88s60.333 33 105 33c44 0 78.5 -9 103.5 -27s37.5 -42.333 37.5 -73c0 -40 -21.333 -66 -64 -78c22 -4 39.667 -13.333 53 -28s20 -32.667 20 -54c0 -35.333 -13.167 -63.333 -39.5 -84s-63.833 -31 -112.5 -31z" />
    <glyph glyph-name="acute" unicode="&#xb4;" horiz-adv-x="412" 
d="M203 753h152l-104 -159h-105z" />
    <glyph glyph-name="mu" unicode="&#xb5;" horiz-adv-x="615" 
d="M64 523h144.001v-323c0 -67.333 30.333 -101 91 -101c32.667 0 59.167 9.83301 79.5 29.5s30.5 48.167 30.5 85.5v309h143v-523h-142v75c-20.667 -51.333 -60.334 -77 -119.001 -77c-38 0 -65.667 14.333 -83 43v-219h-144v701z" />
    <glyph glyph-name="paragraph" unicode="&#xb6;" horiz-adv-x="576" 
d="M269 335h-9.99902c-69.333 0 -122 15.667 -158 47c-40.667 32 -61 78.667 -61 140c0 62.667 20.667 111 62 145c39.333 32 91.666 48 156.999 48h233v-815h-74v754h-76v-754h-73v435z" />
    <glyph glyph-name="periodcentered" unicode="&#xb7;" horiz-adv-x="305" 
d="M152 239c-25.333 0 -46.5 8.5 -63.5 25.5s-25.5 37.833 -25.5 62.5c0 24 8.5 44.5 25.5 61.5s38.167 25.5 63.5 25.5s46.666 -8.5 63.999 -25.5s26 -37.5 26 -61.5s-8.66699 -44.667 -26 -62s-38.666 -26 -63.999 -26z" />
    <glyph glyph-name="cedilla" unicode="&#xb8;" horiz-adv-x="412" 
d="M211 -222c-34 0 -61.168 8.00195 -81.501 24.002s-32.166 38 -35.499 66h74c4 -20.667 16.667 -31 38 -31c23.333 0 35 11 35 33c0 20.667 -11.333 31 -34 31c-11.333 0 -21.666 -3.33301 -30.999 -10l-36 35l45 74h65l-29 -48
c28.667 3.33301 52.667 -2.33398 72 -17.001c21.333 -14.667 32 -37 32 -67c0 -28.667 -10.333 -50.834 -31 -66.501s-48.334 -23.5 -83.001 -23.5z" />
    <glyph glyph-name="onesuperior" unicode="&#xb9;" horiz-adv-x="278" 
d="M109 610l-82 -49v89l97 65h95v-363h-110v258z" />
    <glyph glyph-name="ordmasculine" unicode="&#xba;" horiz-adv-x="523" 
d="M262 386c30 0 52.667 10.167 68 30.5s23 49.5 23 87.5v6c0 36.667 -7.66699 65.167 -23 85.5s-38 30.5 -68 30.5c-29.333 0 -52 -10 -68 -30s-24 -48.667 -24 -86v-6c0 -38 7.83301 -67.167 23.5 -87.5s38.5 -30.5 68.5 -30.5zM261 288c-64.667 0 -117.667 19 -159 57
c-42.667 38.667 -64 90.334 -64 155.001v6c0 65.333 21.333 118.666 64 159.999c42 38.667 95.333 58 160 58c64 0 117 -19 159 -57c42.667 -39.333 64 -91.333 64 -156v-6c0 -66.667 -21.333 -119.667 -64 -159c-42 -38.667 -95.333 -58 -160 -58z" />
    <glyph glyph-name="guillemotright" unicode="&#xbb;" horiz-adv-x="499" 
d="M165 261l-121 186h103l126 -186l-126 -186h-103zM344 261l-121 186h103l126 -186l-126 -186h-103z" />
    <glyph glyph-name="onequarter" unicode="&#xbc;" horiz-adv-x="765" 
d="M112 610l-82 -49v89l97 65h95v-363h-110v258zM606 715h84l-540 -715h-84zM584 69h-181v40l155 254h131v-221h47v-73h-47v-69h-105v69zM587 142v147l-85 -147h85z" />
    <glyph glyph-name="onehalf" unicode="&#xbd;" horiz-adv-x="772" 
d="M112 610l-82 -49v89l97 65h95v-363h-110v258zM593 715h84l-540 -715h-84zM439 14l128.001 133.998c22 22.667 38 41.334 48 56.001s15 29.334 15 44.001c0 26 -12.667 39 -38 39c-26.667 0 -42.334 -19 -47.001 -57h-99c2 44.667 16.167 78.834 42.5 102.501
s62.5 35.5 108.5 35.5c44.667 0 79 -10.333 103 -31s36 -48 36 -82c0 -24 -6 -45.833 -18 -65.5s-30 -40.834 -54 -63.501l-49 -48h124v-78h-300v14z" />
    <glyph glyph-name="threequarters" unicode="&#xbe;" horiz-adv-x="785" 
d="M183 345c-49.333 0 -88 11.667 -116 35c-24.667 22.667 -37.667 53 -39 91h96c3.33301 -32.667 21 -49 53 -49s48 13.667 48 41s-16.667 41 -50 41h-29v64h28c32.667 0 49 13.333 49 40c0 24 -13.333 36 -40 36c-28.667 0 -45 -15 -49 -45h-96
c2.66699 36.667 16.667 66 42 88s60.333 33 105 33c44 0 78.5 -9 103.5 -27s37.5 -42.333 37.5 -73c0 -40 -21.333 -66 -64 -78c22 -4 39.667 -13.333 53 -28s20 -32.667 20 -54c0 -35.333 -13.167 -63.333 -39.5 -84s-63.833 -31 -112.5 -31zM649 715h84l-540 -715h-84z
M602 69h-181v40l155 254h131v-221h47v-73h-47v-69h-105v69zM605 142v147l-85 -147h85z" />
    <glyph glyph-name="questiondown" unicode="&#xbf;" horiz-adv-x="544" 
d="M365 345c0 -35.333 -10.665 -68.001 -31.998 -98.001c-12.667 -18.667 -35 -43.334 -67 -74.001c-22.667 -21.333 -39.667 -40 -51 -56s-17 -33 -17 -51c0 -50 25.667 -75 77 -75c28 0 50.667 9.16699 68 27.5s27.666 43.5 30.999 75.5h139
c-2.66699 -67.333 -26.667 -121.333 -72 -162c-46 -38.667 -104.333 -58 -175 -58c-72.667 0 -128.334 16.667 -167.001 50c-37.333 32 -56 75.333 -56 130c0 30.667 8.33301 60 25 88c10.667 18.667 29.667 41.334 57 68.001l31 30c17.333 16.667 30 29.334 38 38.001
c22 25.333 34.333 49.333 37 72v25h134v-30zM299.002 606.999c25.333 0 46.833 -8.33301 64.5 -25s26.5 -37 26.5 -61c0 -24.667 -8.66699 -45 -26 -61c-18.667 -17.333 -40.334 -26 -65.001 -26c-25.333 0 -46.666 8.66699 -63.999 26c-18 16 -27 36.333 -27 61
c0 24 9 44.333 27 61c16.667 16.667 38 25 64 25z" />
    <glyph glyph-name="Agrave" unicode="&#xc0;" horiz-adv-x="732" 
d="M262 715h211l232 -715h-169l-49 159h-259l-49 -159h-152zM263 274h189l-94 309zM219 902h156l52 -139h-109z" />
    <glyph glyph-name="Aacute" unicode="&#xc1;" horiz-adv-x="732" 
d="M262 715h211l232 -715h-169l-49 159h-259l-49 -159h-152zM263 274h189l-94 309zM356 902h157l-101 -139h-109z" />
    <glyph glyph-name="Acircumflex" unicode="&#xc2;" horiz-adv-x="732" 
d="M262 715h211l232 -715h-169l-49 159h-259l-49 -159h-152zM263 274h189l-94 309zM305 902h123l108 -139h-104l-68 53l-69 -53h-102z" />
    <glyph glyph-name="Atilde" unicode="&#xc3;" horiz-adv-x="732" 
d="M262 715h211l232 -715h-169l-49 159h-259l-49 -159h-152zM263 274h189l-94 309zM426 764c-17.333 0 -39.3301 6.33203 -65.9971 18.999c-3.33301 1.33301 -8.83301 3.83301 -16.5 7.5s-13.834 6.33398 -18.501 8.00098s-9.33398 2.5 -14.001 2.5
c-18.667 0 -30.334 -12.333 -35.001 -37h-86c3.33301 44.667 15.5 79.167 36.5 103.5s46.833 36.5 77.5 36.5c15.333 0 37 -6.33301 65 -19c26.667 -12.667 43.667 -19 51 -19c18 0 29.333 12.333 34 37h87c-4 -44 -16.667 -78.167 -38 -102.5s-47 -36.5 -77 -36.5z" />
    <glyph glyph-name="Adieresis" unicode="&#xc4;" horiz-adv-x="732" 
d="M262 715h211l232 -715h-169l-49 159h-259l-49 -159h-152zM263 274h189l-94 309zM257 769c-20.667 0 -38.167 7.16699 -52.5 21.5s-21.5 31.5 -21.5 51.5s7.16699 37 21.5 51s31.833 21 52.5 21c20 0 37.333 -7 52 -21s22 -31 22 -51s-7.33301 -37.167 -22 -51.5
s-32 -21.5 -52 -21.5zM472 769c-20 0 -37.167 7.16699 -51.5 21.5s-21.5 31.5 -21.5 51.5s7.16699 37 21.5 51s31.5 21 51.5 21c20.667 0 38.167 -7 52.5 -21s21.5 -31 21.5 -51s-7.16699 -37.167 -21.5 -51.5s-31.833 -21.5 -52.5 -21.5z" />
    <glyph glyph-name="Aring" unicode="&#xc5;" horiz-adv-x="732" 
d="M262 715h211l232 -715h-169l-49 159h-259l-49 -159h-152zM263 274h189l-94 309zM365 808c14 0 25.667 5 35 15s14 22.667 14 38s-4.66699 28.166 -14 38.499s-21 15.5 -35 15.5c-14.667 0 -26.5 -5.16699 -35.5 -15.5s-13.5 -23.166 -13.5 -38.499s4.5 -28 13.5 -38
s20.833 -15 35.5 -15zM365 750c-30.667 0 -57.667 11 -81 33c-22.667 21.333 -34 47.333 -34 78c0 31.333 11.333 57.666 34 78.999c23.333 22 50.333 33 81 33s57.667 -11 81 -33c22.667 -21.333 34 -47.666 34 -78.999c0 -30.667 -11.333 -56.667 -34 -78
c-23.333 -22 -50.333 -33 -81 -33z" />
    <glyph glyph-name="AE" unicode="&#xc6;" horiz-adv-x="995" 
d="M363 715h574v-126h-300v-167h239v-118h-239v-178h317v-126h-479v168h-218l-77 -168h-157zM309 280h166v309h-24z" />
    <glyph glyph-name="Ccedilla" unicode="&#xc7;" horiz-adv-x="760" 
d="M385 -222c-34 0 -61.167 8.00293 -81.5 24.0029s-32.166 38 -35.499 66h74c4 -20.667 16.667 -31 38 -31c23.333 0 35 11 35 33c0 20.667 -11.333 31 -34 31c-11.333 0 -21.666 -3.33301 -30.999 -10l-36 35l40 66c-98.667 8.66699 -175 45.667 -229 111
c-52.667 64 -79 147.333 -79 250v8c0 108 34 196 102 264c66 67.333 150.333 101 253 101c89.333 0 161.666 -21.333 216.999 -64c58.667 -46 92 -111.333 100 -196h-166c-12 88 -62 132 -150 132c-56.667 0 -101.667 -20.833 -135 -62.5s-50 -99.5 -50 -173.5v-8
c0 -74.667 16.167 -132.334 48.5 -173.001s78.166 -61 137.499 -61c45.333 0 82.333 11.5 111 34.5s46.334 57.167 53.001 102.5h159c-8.66699 -84 -41 -149.667 -97 -197c-54 -44 -124.667 -67.667 -212 -71l-22 -37c28.667 3.33301 52.667 -2.33398 72 -17.001
c21.333 -14.667 32 -37 32 -67c0 -28.667 -10.333 -50.834 -31 -66.501s-48.334 -23.5 -83.001 -23.5z" />
    <glyph glyph-name="Egrave" unicode="&#xc8;" horiz-adv-x="607" 
d="M83 715h466v-126h-305v-167h244v-118h-244v-178h321v-126h-482v715zM177 902h156l52 -139h-109z" />
    <glyph glyph-name="Eacute" unicode="&#xc9;" horiz-adv-x="607" 
d="M83 715h466v-126h-305v-167h244v-118h-244v-178h321v-126h-482v715zM314 902h157l-101 -139h-109z" />
    <glyph glyph-name="Ecircumflex" unicode="&#xca;" horiz-adv-x="607" 
d="M83 715h466v-126h-305v-167h244v-118h-244v-178h321v-126h-482v715zM263 902h123l108 -139h-104l-68 53l-69 -53h-102z" />
    <glyph glyph-name="Edieresis" unicode="&#xcb;" horiz-adv-x="607" 
d="M83 715h466v-126h-305v-167h244v-118h-244v-178h321v-126h-482v715zM215 769c-20.667 0 -38.167 7.16699 -52.5 21.5s-21.5 31.5 -21.5 51.5s7.16699 37 21.5 51s31.833 21 52.5 21c20 0 37.333 -7 52 -21s22 -31 22 -51s-7.33301 -37.167 -22 -51.5s-32 -21.5 -52 -21.5
zM430 769c-20 0 -37.167 7.16699 -51.5 21.5s-21.5 31.5 -21.5 51.5s7.16699 37 21.5 51s31.5 21 51.5 21c20.667 0 38.167 -7 52.5 -21s21.5 -31 21.5 -51s-7.16699 -37.167 -21.5 -51.5s-31.833 -21.5 -52.5 -21.5z" />
    <glyph glyph-name="Igrave" unicode="&#xcc;" horiz-adv-x="337" 
d="M87 715h163v-715h-163v715zM22 902h156l52 -139h-109z" />
    <glyph glyph-name="Iacute" unicode="&#xcd;" horiz-adv-x="337" 
d="M87 715h163v-715h-163v715zM159 902h157l-101 -139h-109z" />
    <glyph glyph-name="Icircumflex" unicode="&#xce;" horiz-adv-x="337" 
d="M87 715h163v-715h-163v715zM108 902h123l108 -139h-104l-68 53l-69 -53h-102z" />
    <glyph glyph-name="Idieresis" unicode="&#xcf;" horiz-adv-x="337" 
d="M87 715h163v-715h-163v715zM60 769c-20.667 0 -38.167 7.16699 -52.5 21.5s-21.5 31.5 -21.5 51.5s7.16699 37 21.5 51s31.833 21 52.5 21c20 0 37.333 -7 52 -21s22 -31 22 -51s-7.33301 -37.167 -22 -51.5s-32 -21.5 -52 -21.5zM275 769
c-20 0 -37.167 7.16699 -51.5 21.5s-21.5 31.5 -21.5 51.5s7.16699 37 21.5 51s31.5 21 51.5 21c20.667 0 38.167 -7 52.5 -21s21.5 -31 21.5 -51s-7.16699 -37.167 -21.5 -51.5s-31.833 -21.5 -52.5 -21.5z" />
    <glyph glyph-name="Eth" unicode="&#xd0;" horiz-adv-x="765" 
d="M37 415h65v300h234c122 0 216 -31.333 282 -94c62 -62 93 -147.333 93 -256v-8c0 -110 -31.333 -196.333 -94 -259c-65.333 -65.333 -159.333 -98 -282 -98h-233v303h-65v112zM330 126c141.333 0 212 76.333 212 229v8c0 75.333 -17 131.833 -51 169.5
s-88 56.5 -162 56.5h-67v-174h151v-112h-151v-177h68z" />
    <glyph glyph-name="Ntilde" unicode="&#xd1;" horiz-adv-x="770" 
d="M83 715h188l272 -471v471h144v-715h-162l-298 509v-509h-144v715zM461 764c-17.333 0 -39.3301 6.33203 -65.9971 18.999c-3.33301 1.33301 -8.83301 3.83301 -16.5 7.5s-13.834 6.33398 -18.501 8.00098s-9.33398 2.5 -14.001 2.5
c-18.667 0 -30.334 -12.333 -35.001 -37h-86c3.33301 44.667 15.5 79.167 36.5 103.5s46.833 36.5 77.5 36.5c15.333 0 37 -6.33301 65 -19c26.667 -12.667 43.667 -19 51 -19c18 0 29.333 12.333 34 37h87c-4 -44 -16.667 -78.167 -38 -102.5s-47 -36.5 -77 -36.5z" />
    <glyph glyph-name="Ograve" unicode="&#xd2;" horiz-adv-x="828" 
d="M416 118c59.333 0 107.334 21.667 144.001 65c35.333 42.667 53 100 53 172v8c0 69.333 -17.333 125.666 -52 168.999c-36.667 43.333 -85.667 65 -147 65c-60.667 0 -109.334 -21 -146.001 -63c-35.333 -41.333 -53 -98.666 -53 -171.999v-8c0 -72.667 19 -130 57 -172
c36.667 -42.667 84.667 -64 144 -64zM413.001 -11c-110.667 0 -199.667 34.666 -267 103.999c-66.667 66.667 -100 153.334 -100 260.001v8c0 108 35 195.333 105 262c69.333 68 157 102 263 102c108.667 0 197 -33 265 -99c68.667 -68.667 103 -155.667 103 -261v-8
c0 -107.333 -33.667 -195.333 -101 -264c-68 -69.333 -157.333 -104 -268 -104zM267.001 901.999h156l52 -139h-109z" />
    <glyph glyph-name="Oacute" unicode="&#xd3;" horiz-adv-x="828" 
d="M416 118c59.333 0 107.334 21.667 144.001 65c35.333 42.667 53 100 53 172v8c0 69.333 -17.333 125.666 -52 168.999c-36.667 43.333 -85.667 65 -147 65c-60.667 0 -109.334 -21 -146.001 -63c-35.333 -41.333 -53 -98.666 -53 -171.999v-8c0 -72.667 19 -130 57 -172
c36.667 -42.667 84.667 -64 144 -64zM413.001 -11c-110.667 0 -199.667 34.666 -267 103.999c-66.667 66.667 -100 153.334 -100 260.001v8c0 108 35 195.333 105 262c69.333 68 157 102 263 102c108.667 0 197 -33 265 -99c68.667 -68.667 103 -155.667 103 -261v-8
c0 -107.333 -33.667 -195.333 -101 -264c-68 -69.333 -157.333 -104 -268 -104zM404.001 901.999h157l-101 -139h-109z" />
    <glyph glyph-name="Ocircumflex" unicode="&#xd4;" horiz-adv-x="828" 
d="M416 118c59.333 0 107.334 21.667 144.001 65c35.333 42.667 53 100 53 172v8c0 69.333 -17.333 125.666 -52 168.999c-36.667 43.333 -85.667 65 -147 65c-60.667 0 -109.334 -21 -146.001 -63c-35.333 -41.333 -53 -98.666 -53 -171.999v-8c0 -72.667 19 -130 57 -172
c36.667 -42.667 84.667 -64 144 -64zM413.001 -11c-110.667 0 -199.667 34.666 -267 103.999c-66.667 66.667 -100 153.334 -100 260.001v8c0 108 35 195.333 105 262c69.333 68 157 102 263 102c108.667 0 197 -33 265 -99c68.667 -68.667 103 -155.667 103 -261v-8
c0 -107.333 -33.667 -195.333 -101 -264c-68 -69.333 -157.333 -104 -268 -104zM353.001 901.999h123l108 -139h-104l-68 53l-69 -53h-102z" />
    <glyph glyph-name="Otilde" unicode="&#xd5;" horiz-adv-x="828" 
d="M416 118c59.333 0 107.334 21.667 144.001 65c35.333 42.667 53 100 53 172v8c0 69.333 -17.333 125.666 -52 168.999c-36.667 43.333 -85.667 65 -147 65c-60.667 0 -109.334 -21 -146.001 -63c-35.333 -41.333 -53 -98.666 -53 -171.999v-8c0 -72.667 19 -130 57 -172
c36.667 -42.667 84.667 -64 144 -64zM413.001 -11c-110.667 0 -199.667 34.666 -267 103.999c-66.667 66.667 -100 153.334 -100 260.001v8c0 108 35 195.333 105 262c69.333 68 157 102 263 102c108.667 0 197 -33 265 -99c68.667 -68.667 103 -155.667 103 -261v-8
c0 -107.333 -33.667 -195.333 -101 -264c-68 -69.333 -157.333 -104 -268 -104zM474.001 763.999c-17.333 0 -39.3301 6.33203 -65.9971 18.999c-3.33301 1.33301 -8.83301 3.83301 -16.5 7.5s-13.834 6.33398 -18.501 8.00098s-9.33398 2.5 -14.001 2.5
c-18.667 0 -30.334 -12.333 -35.001 -37h-86c3.33301 44.667 15.5 79.167 36.5 103.5s46.833 36.5 77.5 36.5c15.333 0 37 -6.33301 65 -19c26.667 -12.667 43.667 -19 51 -19c18 0 29.333 12.333 34 37h87c-4 -44 -16.667 -78.167 -38 -102.5s-47 -36.5 -77 -36.5z" />
    <glyph glyph-name="Odieresis" unicode="&#xd6;" horiz-adv-x="828" 
d="M416 118c59.333 0 107.334 21.667 144.001 65c35.333 42.667 53 100 53 172v8c0 69.333 -17.333 125.666 -52 168.999c-36.667 43.333 -85.667 65 -147 65c-60.667 0 -109.334 -21 -146.001 -63c-35.333 -41.333 -53 -98.666 -53 -171.999v-8c0 -72.667 19 -130 57 -172
c36.667 -42.667 84.667 -64 144 -64zM413.001 -11c-110.667 0 -199.667 34.666 -267 103.999c-66.667 66.667 -100 153.334 -100 260.001v8c0 108 35 195.333 105 262c69.333 68 157 102 263 102c108.667 0 197 -33 265 -99c68.667 -68.667 103 -155.667 103 -261v-8
c0 -107.333 -33.667 -195.333 -101 -264c-68 -69.333 -157.333 -104 -268 -104zM305.001 768.999c-20.667 0 -38.167 7.16699 -52.5 21.5s-21.5 31.5 -21.5 51.5s7.16699 37 21.5 51s31.833 21 52.5 21c20 0 37.333 -7 52 -21s22 -31 22 -51s-7.33301 -37.167 -22 -51.5
s-32 -21.5 -52 -21.5zM520.001 768.999c-20 0 -37.167 7.16699 -51.5 21.5s-21.5 31.5 -21.5 51.5s7.16699 37 21.5 51s31.5 21 51.5 21c20.667 0 38.167 -7 52.5 -21s21.5 -31 21.5 -51s-7.16699 -37.167 -21.5 -51.5s-31.833 -21.5 -52.5 -21.5z" />
    <glyph glyph-name="multiply" unicode="&#xd7;" horiz-adv-x="546" 
d="M42 182l153 153l-154 154l77 78l154 -155l153 153l78 -77l-154 -153l155 -154l-78 -78l-154 155l-153 -153z" />
    <glyph glyph-name="Oslash" unicode="&#xd8;" horiz-adv-x="828" 
d="M39 21l87 92.999c-53.333 64.667 -80 144.334 -80 239.001v8c0 108 35 195.333 105 262c69.333 68 157 102 263 102c84.667 0 158.667 -21.667 222 -65l76 81l54 -54l-73 -78c59.333 -66.667 89 -148 89 -244v-8c0 -107.333 -33.667 -195.333 -101 -264
c-68 -69.333 -157.333 -104 -268 -104c-93.333 0 -171 24 -233 72l-87 -93zM416 117.999c60 0 108.333 21.668 145 65.001c36 41.333 54 98.666 54 171.999v8c0 51.333 -9.33301 95.333 -28 132l-306 -327c36.667 -33.333 81.667 -50 135 -50zM213 354
c0 -45.333 7.66797 -86 23.001 -122l303 324c-32 27.333 -73.667 41 -125 41c-62.667 0 -111.834 -21 -147.501 -63s-53.5 -99.333 -53.5 -172v-8z" />
    <glyph glyph-name="Ugrave" unicode="&#xd9;" horiz-adv-x="751" 
d="M372 -11c-95.333 0 -168.334 24.667 -219.001 74s-76 121.333 -76 216v436h163v-426c0 -60.667 10 -104.334 30 -131.001s54.333 -40 103 -40s83.834 13.333 105.501 40s32.5 72.334 32.5 137.001v420h163v-430c0 -97.333 -25.833 -171 -77.5 -221s-126.5 -75 -224.5 -75
zM227.999 902h156l52 -139h-109z" />
    <glyph glyph-name="Uacute" unicode="&#xda;" horiz-adv-x="751" 
d="M372 -11c-95.333 0 -168.334 24.667 -219.001 74s-76 121.333 -76 216v436h163v-426c0 -60.667 10 -104.334 30 -131.001s54.333 -40 103 -40s83.834 13.333 105.501 40s32.5 72.334 32.5 137.001v420h163v-430c0 -97.333 -25.833 -171 -77.5 -221s-126.5 -75 -224.5 -75
zM364.999 902h157l-101 -139h-109z" />
    <glyph glyph-name="Ucircumflex" unicode="&#xdb;" horiz-adv-x="751" 
d="M372 -11c-95.333 0 -168.334 24.667 -219.001 74s-76 121.333 -76 216v436h163v-426c0 -60.667 10 -104.334 30 -131.001s54.333 -40 103 -40s83.834 13.333 105.501 40s32.5 72.334 32.5 137.001v420h163v-430c0 -97.333 -25.833 -171 -77.5 -221s-126.5 -75 -224.5 -75
zM313.999 902h123l108 -139h-104l-68 53l-69 -53h-102z" />
    <glyph glyph-name="Udieresis" unicode="&#xdc;" horiz-adv-x="751" 
d="M372 -11c-95.333 0 -168.334 24.667 -219.001 74s-76 121.333 -76 216v436h163v-426c0 -60.667 10 -104.334 30 -131.001s54.333 -40 103 -40s83.834 13.333 105.501 40s32.5 72.334 32.5 137.001v420h163v-430c0 -97.333 -25.833 -171 -77.5 -221s-126.5 -75 -224.5 -75
zM265.999 769c-20.667 0 -38.167 7.16699 -52.5 21.5s-21.5 31.5 -21.5 51.5s7.16699 37 21.5 51s31.833 21 52.5 21c20 0 37.333 -7 52 -21s22 -31 22 -51s-7.33301 -37.167 -22 -51.5s-32 -21.5 -52 -21.5zM480.999 769c-20 0 -37.167 7.16699 -51.5 21.5
s-21.5 31.5 -21.5 51.5s7.16699 37 21.5 51s31.5 21 51.5 21c20.667 0 38.167 -7 52.5 -21s21.5 -31 21.5 -51s-7.16699 -37.167 -21.5 -51.5s-31.833 -21.5 -52.5 -21.5z" />
    <glyph glyph-name="Yacute" unicode="&#xdd;" horiz-adv-x="660" 
d="M255 308l-236 407h178l145 -274l142 274h157l-223 -407v-308h-163v308zM325 902h157l-101 -139h-109z" />
    <glyph glyph-name="Thorn" unicode="&#xde;" horiz-adv-x="638" 
d="M83 715l161 -0.000976562v-123h86c182 0 273 -73.667 273 -221v-4c0 -73.333 -24.333 -128.666 -73 -165.999c-46.667 -36.667 -111.667 -55 -195 -55h-91v-146h-161v715zM326 259.999c80.667 0 121 35.667 121 107v4c0 36.667 -10.167 63 -30.5 79s-50.5 24 -90.5 24
h-82v-214h82z" />
    <glyph glyph-name="germandbls" unicode="&#xdf;" horiz-adv-x="631" 
d="M370 -10c-33.333 0 -64.6699 4.33398 -94.0029 13.001v112c17.333 -8 38.333 -12 63 -12c32 0 56.667 8.66699 74 26c22.667 21.333 34 55.333 34 102v6c0 46.667 -14.167 81.667 -42.5 105s-67.166 34.666 -116.499 33.999v110c38.667 0 68.334 10.333 89.001 31
c16.667 16.667 25 38.667 25 66v4c0 27.333 -7.83301 48.5 -23.5 63.5s-38.5 22.5 -68.5 22.5c-29.333 0 -52.666 -9.83301 -69.999 -29.5s-26 -46.5 -26 -80.5v-563h-144v552c0 70.667 24.667 126.334 74 167.001c44 36 101.667 54 173 54
c68.667 0 122.667 -15.667 162 -47c40 -32.667 60 -77.667 60 -135v-2c0 -34 -10.833 -64.5 -32.5 -91.5s-50.5 -46.167 -86.5 -57.5c52 -12.667 93.333 -36 124 -70c33.333 -38.667 50 -85.334 50 -140.001v-7c0 -78.667 -21.667 -138 -65 -178
c-40.667 -36.667 -93.667 -55 -159 -55z" />
    <glyph glyph-name="agrave" unicode="&#xe0;" horiz-adv-x="576" 
d="M211 -11c-50.667 0 -91.666 12.334 -122.999 37.001c-34.667 27.333 -52 67 -52 119c0 58 25.333 101.333 76 130c45.333 25.333 110.666 38 195.999 38h59v21c0 33.333 -6.16699 57.666 -18.5 72.999s-34.5 23 -66.5 23c-51.333 0 -81 -24.667 -89 -74h-137
c4 58.667 28.333 104 73 136c40.667 28.667 94.667 43 162 43s120 -14.667 158 -44c40.667 -32 61 -82 61 -150v-341h-141v63c-35.333 -49.333 -88 -74 -158 -74zM254.001 90.001c32.667 0 59.667 8.33203 81 24.999s32 39.334 32 68.001v44h-56
c-44 0 -77.167 -5.66699 -99.5 -17s-33.5 -30.333 -33.5 -57c0 -42 25.333 -63 76 -63zM139.001 753h152l57 -159h-105z" />
    <glyph glyph-name="aacute" unicode="&#xe1;" horiz-adv-x="576" 
d="M211 -11c-50.667 0 -91.666 12.334 -122.999 37.001c-34.667 27.333 -52 67 -52 119c0 58 25.333 101.333 76 130c45.333 25.333 110.666 38 195.999 38h59v21c0 33.333 -6.16699 57.666 -18.5 72.999s-34.5 23 -66.5 23c-51.333 0 -81 -24.667 -89 -74h-137
c4 58.667 28.333 104 73 136c40.667 28.667 94.667 43 162 43s120 -14.667 158 -44c40.667 -32 61 -82 61 -150v-341h-141v63c-35.333 -49.333 -88 -74 -158 -74zM254.001 90.001c32.667 0 59.667 8.33203 81 24.999s32 39.334 32 68.001v44h-56
c-44 0 -77.167 -5.66699 -99.5 -17s-33.5 -30.333 -33.5 -57c0 -42 25.333 -63 76 -63zM289.001 753h152l-104 -159h-105z" />
    <glyph glyph-name="acircumflex" unicode="&#xe2;" horiz-adv-x="576" 
d="M211 -11c-50.667 0 -91.666 12.334 -122.999 37.001c-34.667 27.333 -52 67 -52 119c0 58 25.333 101.333 76 130c45.333 25.333 110.666 38 195.999 38h59v21c0 33.333 -6.16699 57.666 -18.5 72.999s-34.5 23 -66.5 23c-51.333 0 -81 -24.667 -89 -74h-137
c4 58.667 28.333 104 73 136c40.667 28.667 94.667 43 162 43s120 -14.667 158 -44c40.667 -32 61 -82 61 -150v-341h-141v63c-35.333 -49.333 -88 -74 -158 -74zM254.001 90.001c32.667 0 59.667 8.33203 81 24.999s32 39.334 32 68.001v44h-56
c-44 0 -77.167 -5.66699 -99.5 -17s-33.5 -30.333 -33.5 -57c0 -42 25.333 -63 76 -63zM230.001 751h109l114 -156h-102l-69 63l-70 -63h-99z" />
    <glyph glyph-name="atilde" unicode="&#xe3;" horiz-adv-x="576" 
d="M211 -11c-50.667 0 -91.666 12.334 -122.999 37.001c-34.667 27.333 -52 67 -52 119c0 58 25.333 101.333 76 130c45.333 25.333 110.666 38 195.999 38h59v21c0 33.333 -6.16699 57.666 -18.5 72.999s-34.5 23 -66.5 23c-51.333 0 -81 -24.667 -89 -74h-137
c4 58.667 28.333 104 73 136c40.667 28.667 94.667 43 162 43s120 -14.667 158 -44c40.667 -32 61 -82 61 -150v-341h-141v63c-35.333 -49.333 -88 -74 -158 -74zM254.001 90.001c32.667 0 59.667 8.33203 81 24.999s32 39.334 32 68.001v44h-56
c-44 0 -77.167 -5.66699 -99.5 -17s-33.5 -30.333 -33.5 -57c0 -42 25.333 -63 76 -63zM350.001 598c-18.667 0 -40.001 6.33398 -64.001 19.001l-26 13c-8 4 -15.667 6 -23 6c-8.66699 0 -16.167 -3.5 -22.5 -10.5s-10.5 -15.833 -12.5 -26.5h-83
c3.33301 45.333 14.833 80.166 34.5 104.499s44.834 36.5 75.501 36.5c14 0 35.333 -6 64 -18c26.667 -12.667 43.667 -19 51 -19c18.667 0 30 12.333 34 37h84c-4 -45.333 -16.333 -80.333 -37 -105s-45.667 -37 -75 -37z" />
    <glyph glyph-name="adieresis" unicode="&#xe4;" horiz-adv-x="576" 
d="M211 -11c-50.667 0 -91.666 12.334 -122.999 37.001c-34.667 27.333 -52 67 -52 119c0 58 25.333 101.333 76 130c45.333 25.333 110.666 38 195.999 38h59v21c0 33.333 -6.16699 57.666 -18.5 72.999s-34.5 23 -66.5 23c-51.333 0 -81 -24.667 -89 -74h-137
c4 58.667 28.333 104 73 136c40.667 28.667 94.667 43 162 43s120 -14.667 158 -44c40.667 -32 61 -82 61 -150v-341h-141v63c-35.333 -49.333 -88 -74 -158 -74zM254.001 90.001c32.667 0 59.667 8.33203 81 24.999s32 39.334 32 68.001v44h-56
c-44 0 -77.167 -5.66699 -99.5 -17s-33.5 -30.333 -33.5 -57c0 -42 25.333 -63 76 -63zM188.001 600c-20.667 0 -38.167 7 -52.5 21s-21.5 31 -21.5 51s7.16699 37 21.5 51s31.833 21 52.5 21s38.167 -7 52.5 -21s21.5 -31 21.5 -51s-7.16699 -37 -21.5 -51
s-31.833 -21 -52.5 -21zM392.001 600c-20.667 0 -38.167 7 -52.5 21s-21.5 31 -21.5 51s7.16699 37 21.5 51s31.833 21 52.5 21s38.167 -7 52.5 -21s21.5 -31 21.5 -51s-7.16699 -37 -21.5 -51s-31.833 -21 -52.5 -21z" />
    <glyph glyph-name="aring" unicode="&#xe5;" horiz-adv-x="576" 
d="M211 -11c-50.667 0 -91.666 12.334 -122.999 37.001c-34.667 27.333 -52 67 -52 119c0 58 25.333 101.333 76 130c45.333 25.333 110.666 38 195.999 38h59v21c0 33.333 -6.16699 57.666 -18.5 72.999s-34.5 23 -66.5 23c-51.333 0 -81 -24.667 -89 -74h-137
c4 58.667 28.333 104 73 136c40.667 28.667 94.667 43 162 43s120 -14.667 158 -44c40.667 -32 61 -82 61 -150v-341h-141v63c-35.333 -49.333 -88 -74 -158 -74zM254.001 90.001c32.667 0 59.667 8.33203 81 24.999s32 39.334 32 68.001v44h-56
c-44 0 -77.167 -5.66699 -99.5 -17s-33.5 -30.333 -33.5 -57c0 -42 25.333 -63 76 -63zM292.001 643c14 0 25.667 5 35 15s14 22.667 14 38s-4.66699 28.166 -14 38.499s-21 15.5 -35 15.5c-14.667 0 -26.5 -5.16699 -35.5 -15.5s-13.5 -23.166 -13.5 -38.499
s4.5 -28 13.5 -38s20.833 -15 35.5 -15zM292.001 585c-30.667 0 -57.667 11 -81 33c-22.667 21.333 -34 47.333 -34 78c0 31.333 11.333 57.666 34 78.999c23.333 22 50.333 33 81 33s57.667 -11 81 -33c22.667 -21.333 34 -47.666 34 -78.999
c0 -30.667 -11.333 -56.667 -34 -78c-23.333 -22 -50.333 -33 -81 -33z" />
    <glyph glyph-name="ae" unicode="&#xe6;" horiz-adv-x="910" 
d="M629 -11c-92.667 0 -159.664 32.332 -200.997 96.999c-45.333 -64.667 -114 -97 -206 -97c-54.667 0 -98.334 12.333 -131.001 37c-36.667 26 -55 65.667 -55 119c0 58.667 25.333 102.667 76 132c45.333 26 110 39 194 39h62v18c0 32.667 -6.5 56.834 -19.5 72.501
s-34.833 23.5 -65.5 23.5c-52.667 0 -82.667 -24.667 -90 -74h-137c4 58.667 28.333 104 73 136c39.333 28.667 91.666 43 156.999 43c82 0 137.667 -23.333 167 -70c44.667 46.667 101.667 70 171 70c72.667 0 130.667 -20.667 174 -62c50 -48 75 -115.333 75 -202v-39
h-367c5.33301 -93.333 46.666 -140 123.999 -140c61.333 0 96.333 24.333 105 73h136c-8 -56.667 -33 -100.167 -75 -130.5s-97.667 -45.5 -167 -45.5zM254.003 89.999c34.667 0 62.333 8.16797 83 24.501s31 39.166 31 68.499v46h-59c-43.333 0 -76 -5.5 -98 -16.5
s-33 -29.833 -33 -56.5c0 -44 25.333 -66 76 -66zM732.002 318c-5.33301 78 -41.333 117.001 -108 117.001c-32 0 -58.167 -10.333 -78.5 -31s-32.833 -49.334 -37.5 -86.001h224z" />
    <glyph glyph-name="ccedilla" unicode="&#xe7;" horiz-adv-x="590" 
d="M288 -222c-34 0 -61.166 8.00293 -81.499 24.0029s-32.166 38 -35.499 66h74c4 -20.667 16.667 -31 38 -31c23.333 0 35 11 35 33c0 20.667 -11.333 31 -34 31c-11.333 0 -21.666 -3.33301 -30.999 -10l-36 35l40 67c-64.667 9.33301 -117 36.333 -157 81
c-41.333 45.333 -62 105.666 -62 180.999v8c0 82 26.333 148.667 79 200c50 48 113.667 72 191 72c67.333 0 122 -15 164 -45c48 -34.667 75.333 -87.334 82 -158.001h-137c-8.66699 59.333 -44 89 -106 89c-38.667 0 -69.167 -13.667 -91.5 -41
s-33.5 -65.666 -33.5 -114.999v-8c0 -52 11.167 -91.5 33.5 -118.5s53.833 -40.5 94.5 -40.5c30.667 0 56.167 8.66699 76.5 26s32.166 42.333 35.499 75h131c-4 -61.333 -26.833 -111 -68.5 -149s-97.834 -58.333 -168.501 -61l-22 -37
c28.667 3.33301 52.667 -2.33398 72 -17.001c21.333 -14.667 32 -37 32 -67c0 -28.667 -10.333 -50.834 -31 -66.501s-48.334 -23.5 -83.001 -23.5z" />
    <glyph glyph-name="egrave" unicode="&#xe8;" horiz-adv-x="599" 
d="M311 -11c-81.333 0 -146.334 23.668 -195.001 71.001c-52 48 -78 113 -78 195v8c0 81.333 26 147.333 78 198c50.667 49.333 114.334 74 191.001 74c72.667 0 132 -21 178 -63c51.333 -46.667 77 -114.334 77 -203.001v-40h-377c2 -44 14.167 -77.833 36.5 -101.5
s53.5 -35.5 93.5 -35.5c62.667 0 99 24.333 109 73h137c-8.66699 -56.667 -34.5 -100.167 -77.5 -130.5s-100.5 -45.5 -172.5 -45.5zM420.999 318.001c-4.66699 78 -42.667 116.999 -114 116.999c-32.667 0 -59.5 -10.167 -80.5 -30.5s-34.167 -49.166 -39.5 -86.499h234z
M152.999 753h152l57 -159h-105z" />
    <glyph glyph-name="eacute" unicode="&#xe9;" horiz-adv-x="599" 
d="M311 -11c-81.333 0 -146.334 23.668 -195.001 71.001c-52 48 -78 113 -78 195v8c0 81.333 26 147.333 78 198c50.667 49.333 114.334 74 191.001 74c72.667 0 132 -21 178 -63c51.333 -46.667 77 -114.334 77 -203.001v-40h-377c2 -44 14.167 -77.833 36.5 -101.5
s53.5 -35.5 93.5 -35.5c62.667 0 99 24.333 109 73h137c-8.66699 -56.667 -34.5 -100.167 -77.5 -130.5s-100.5 -45.5 -172.5 -45.5zM420.999 318.001c-4.66699 78 -42.667 116.999 -114 116.999c-32.667 0 -59.5 -10.167 -80.5 -30.5s-34.167 -49.166 -39.5 -86.499h234z
M302.999 753h152l-104 -159h-105z" />
    <glyph glyph-name="ecircumflex" unicode="&#xea;" horiz-adv-x="599" 
d="M311 -11c-81.333 0 -146.334 23.668 -195.001 71.001c-52 48 -78 113 -78 195v8c0 81.333 26 147.333 78 198c50.667 49.333 114.334 74 191.001 74c72.667 0 132 -21 178 -63c51.333 -46.667 77 -114.334 77 -203.001v-40h-377c2 -44 14.167 -77.833 36.5 -101.5
s53.5 -35.5 93.5 -35.5c62.667 0 99 24.333 109 73h137c-8.66699 -56.667 -34.5 -100.167 -77.5 -130.5s-100.5 -45.5 -172.5 -45.5zM420.999 318.001c-4.66699 78 -42.667 116.999 -114 116.999c-32.667 0 -59.5 -10.167 -80.5 -30.5s-34.167 -49.166 -39.5 -86.499h234z
M250.999 751h109l114 -156h-102l-69 63l-70 -63h-99z" />
    <glyph glyph-name="edieresis" unicode="&#xeb;" horiz-adv-x="599" 
d="M311 -11c-81.333 0 -146.334 23.668 -195.001 71.001c-52 48 -78 113 -78 195v8c0 81.333 26 147.333 78 198c50.667 49.333 114.334 74 191.001 74c72.667 0 132 -21 178 -63c51.333 -46.667 77 -114.334 77 -203.001v-40h-377c2 -44 14.167 -77.833 36.5 -101.5
s53.5 -35.5 93.5 -35.5c62.667 0 99 24.333 109 73h137c-8.66699 -56.667 -34.5 -100.167 -77.5 -130.5s-100.5 -45.5 -172.5 -45.5zM420.999 318.001c-4.66699 78 -42.667 116.999 -114 116.999c-32.667 0 -59.5 -10.167 -80.5 -30.5s-34.167 -49.166 -39.5 -86.499h234z
M201.999 600c-20.667 0 -38.167 7 -52.5 21s-21.5 31 -21.5 51s7.16699 37 21.5 51s31.833 21 52.5 21s38.167 -7 52.5 -21s21.5 -31 21.5 -51s-7.16699 -37 -21.5 -51s-31.833 -21 -52.5 -21zM405.999 600c-20.667 0 -38.167 7 -52.5 21s-21.5 31 -21.5 51
s7.16699 37 21.5 51s31.833 21 52.5 21s38.167 -7 52.5 -21s21.5 -31 21.5 -51s-7.16699 -37 -21.5 -51s-31.833 -21 -52.5 -21z" />
    <glyph glyph-name="igrave" unicode="&#xec;" horiz-adv-x="293" 
d="M74 523h144v-523h-144v523zM-4 753h152l57 -159h-105z" />
    <glyph glyph-name="iacute" unicode="&#xed;" horiz-adv-x="293" 
d="M74 523h144v-523h-144v523zM146 753h152l-104 -159h-105z" />
    <glyph glyph-name="icircumflex" unicode="&#xee;" horiz-adv-x="293" 
d="M74 523h144v-523h-144v523zM94 751h109l114 -156h-102l-69 63l-70 -63h-99z" />
    <glyph glyph-name="idieresis" unicode="&#xef;" horiz-adv-x="293" 
d="M46 600c-20 0 -37.167 7 -51.5 21s-21.5 31 -21.5 51s7.16699 37 21.5 51s31.5 21 51.5 21c20.667 0 38.167 -7 52.5 -21s21.5 -31 21.5 -51s-7.16699 -37 -21.5 -51s-31.833 -21 -52.5 -21zM245 600c-20 0 -37.167 7 -51.5 21s-21.5 31 -21.5 51s7.16699 37 21.5 51
s31.5 21 51.5 21c20.667 0 38.167 -7 52.5 -21s21.5 -31 21.5 -51s-7.16699 -37 -21.5 -51s-31.833 -21 -52.5 -21zM74 523h144v-523h-144v523z" />
    <glyph glyph-name="eth" unicode="&#xf0;" horiz-adv-x="628" 
d="M137 619l106.002 46c-32.667 28 -73.667 59.667 -123 95h165c24.667 -14 48 -29.667 70 -47l99 43l25 -58l-69 -30c53.333 -50.667 94.666 -103.334 123.999 -158.001c36.667 -70 55 -141 55 -213v-22c0 -87.333 -25.667 -156.666 -77 -207.999
c-50 -52 -117 -78 -201 -78c-79.333 0 -144.333 24.667 -195 74c-52 50 -78 116 -78 198v10c0 76 24.333 139 73 189c45.333 46.667 99.666 70 162.999 70c50 0 91 -18 123 -54c-21.333 46 -56 93.333 -104 142l-130 -56zM314.002 99c40.667 0 72.167 14 94.5 42
s33.5 67 33.5 117v7c0 50 -11.167 89.167 -33.5 117.5s-53.5 42.5 -93.5 42.5s-71.5 -13.833 -94.5 -41.5s-34.5 -66.5 -34.5 -116.5v-8c0 -50.667 11 -90 33 -118s53.667 -42 95 -42z" />
    <glyph glyph-name="ntilde" unicode="&#xf1;" horiz-adv-x="627" 
d="M70 523h144.999v-83c32.667 63.333 89.334 95 170.001 95c52.667 0 95 -16 127 -48c32.667 -34.667 49 -86 49 -154v-333h-145v312c0 36 -7.33301 62.5 -22 79.5s-38 25.5 -70 25.5c-32.667 0 -59 -9.83301 -79 -29.5s-30 -48.167 -30 -85.5v-302h-145v523zM372.999 598
c-18.667 0 -40.001 6.33398 -64.001 19.001l-26 13c-8 4 -15.667 6 -23 6c-8.66699 0 -16.167 -3.5 -22.5 -10.5s-10.5 -15.833 -12.5 -26.5h-83c3.33301 45.333 14.833 80.166 34.5 104.499s44.834 36.5 75.501 36.5c14 0 35.333 -6 64 -18
c26.667 -12.667 43.667 -19 51 -19c18.667 0 30 12.333 34 37h84c-4 -45.333 -16.333 -80.333 -37 -105s-45.667 -37 -75 -37z" />
    <glyph glyph-name="ograve" unicode="&#xf2;" horiz-adv-x="628" 
d="M314 99c40.667 0 72.167 14 94.5 42s33.5 67 33.5 117v7c0 50 -11.167 89.167 -33.5 117.5s-53.833 42.5 -94.5 42.5c-40 0 -71.333 -13.833 -94 -41.5s-34 -66.5 -34 -116.5v-8c0 -50.667 11 -90 33 -118s53.667 -42 95 -42zM313 -11c-80 0 -145.333 24.332 -196 72.999
c-52.667 48.667 -79 113.334 -79 194.001v8c0 80.667 26.333 146.334 79 197.001c51.333 49.333 117 74 197 74c80.667 0 146.334 -24.333 197.001 -73c52 -50.667 78 -115.667 78 -195v-8c0 -80.667 -26.333 -146.334 -79 -197.001
c-50.667 -48.667 -116.334 -73 -197.001 -73zM162 752.999h152l57 -159h-105z" />
    <glyph glyph-name="oacute" unicode="&#xf3;" horiz-adv-x="628" 
d="M314 99c40.667 0 72.167 14 94.5 42s33.5 67 33.5 117v7c0 50 -11.167 89.167 -33.5 117.5s-53.833 42.5 -94.5 42.5c-40 0 -71.333 -13.833 -94 -41.5s-34 -66.5 -34 -116.5v-8c0 -50.667 11 -90 33 -118s53.667 -42 95 -42zM313 -11c-80 0 -145.333 24.332 -196 72.999
c-52.667 48.667 -79 113.334 -79 194.001v8c0 80.667 26.333 146.334 79 197.001c51.333 49.333 117 74 197 74c80.667 0 146.334 -24.333 197.001 -73c52 -50.667 78 -115.667 78 -195v-8c0 -80.667 -26.333 -146.334 -79 -197.001
c-50.667 -48.667 -116.334 -73 -197.001 -73zM312 752.999h152l-104 -159h-105z" />
    <glyph glyph-name="ocircumflex" unicode="&#xf4;" horiz-adv-x="628" 
d="M314 99c40.667 0 72.167 14 94.5 42s33.5 67 33.5 117v7c0 50 -11.167 89.167 -33.5 117.5s-53.833 42.5 -94.5 42.5c-40 0 -71.333 -13.833 -94 -41.5s-34 -66.5 -34 -116.5v-8c0 -50.667 11 -90 33 -118s53.667 -42 95 -42zM313 -11c-80 0 -145.333 24.332 -196 72.999
c-52.667 48.667 -79 113.334 -79 194.001v8c0 80.667 26.333 146.334 79 197.001c51.333 49.333 117 74 197 74c80.667 0 146.334 -24.333 197.001 -73c52 -50.667 78 -115.667 78 -195v-8c0 -80.667 -26.333 -146.334 -79 -197.001
c-50.667 -48.667 -116.334 -73 -197.001 -73zM260 750.999h109l114 -156h-102l-69 63l-70 -63h-99z" />
    <glyph glyph-name="otilde" unicode="&#xf5;" horiz-adv-x="628" 
d="M314 99c40.667 0 72.167 14 94.5 42s33.5 67 33.5 117v7c0 50 -11.167 89.167 -33.5 117.5s-53.833 42.5 -94.5 42.5c-40 0 -71.333 -13.833 -94 -41.5s-34 -66.5 -34 -116.5v-8c0 -50.667 11 -90 33 -118s53.667 -42 95 -42zM313 -11c-80 0 -145.333 24.332 -196 72.999
c-52.667 48.667 -79 113.334 -79 194.001v8c0 80.667 26.333 146.334 79 197.001c51.333 49.333 117 74 197 74c80.667 0 146.334 -24.333 197.001 -73c52 -50.667 78 -115.667 78 -195v-8c0 -80.667 -26.333 -146.334 -79 -197.001
c-50.667 -48.667 -116.334 -73 -197.001 -73zM373 597.999c-18.667 0 -40.001 6.33398 -64.001 19.001l-26 13c-8 4 -15.667 6 -23 6c-8.66699 0 -16.167 -3.5 -22.5 -10.5s-10.5 -15.833 -12.5 -26.5h-83c3.33301 45.333 14.833 80.166 34.5 104.499
s44.834 36.5 75.501 36.5c14 0 35.333 -6 64 -18c26.667 -12.667 43.667 -19 51 -19c18.667 0 30 12.333 34 37h84c-4 -45.333 -16.333 -80.333 -37 -105s-45.667 -37 -75 -37z" />
    <glyph glyph-name="odieresis" unicode="&#xf6;" horiz-adv-x="628" 
d="M314 99c40.667 0 72.167 14 94.5 42s33.5 67 33.5 117v7c0 50 -11.167 89.167 -33.5 117.5s-53.833 42.5 -94.5 42.5c-40 0 -71.333 -13.833 -94 -41.5s-34 -66.5 -34 -116.5v-8c0 -50.667 11 -90 33 -118s53.667 -42 95 -42zM313 -11c-80 0 -145.333 24.332 -196 72.999
c-52.667 48.667 -79 113.334 -79 194.001v8c0 80.667 26.333 146.334 79 197.001c51.333 49.333 117 74 197 74c80.667 0 146.334 -24.333 197.001 -73c52 -50.667 78 -115.667 78 -195v-8c0 -80.667 -26.333 -146.334 -79 -197.001
c-50.667 -48.667 -116.334 -73 -197.001 -73zM211 599.999c-20.667 0 -38.167 7 -52.5 21s-21.5 31 -21.5 51s7.16699 37 21.5 51s31.833 21 52.5 21s38.167 -7 52.5 -21s21.5 -31 21.5 -51s-7.16699 -37 -21.5 -51s-31.833 -21 -52.5 -21zM415 599.999
c-20.667 0 -38.167 7 -52.5 21s-21.5 31 -21.5 51s7.16699 37 21.5 51s31.833 21 52.5 21s38.167 -7 52.5 -21s21.5 -31 21.5 -51s-7.16699 -37 -21.5 -51s-31.833 -21 -52.5 -21z" />
    <glyph glyph-name="divide" unicode="&#xf7;" horiz-adv-x="565" 
d="M282 60c-23.333 0 -43 7.83301 -59 23.5s-24 35.167 -24 58.5c0 22.667 8 42 24 58s35.667 24 59 24s43 -8 59 -24s24 -35.333 24 -58c0 -23.333 -8 -42.833 -24 -58.5s-35.667 -23.5 -59 -23.5zM43 393h479v-104h-479v104zM282 458c-23.333 0 -43 7.83301 -59 23.5
s-24 35.167 -24 58.5s8 42.833 24 58.5s35.667 23.5 59 23.5s43 -7.83301 59 -23.5s24 -35.167 24 -58.5s-8 -42.833 -24 -58.5s-35.667 -23.5 -59 -23.5z" />
    <glyph glyph-name="oslash" unicode="&#xf8;" horiz-adv-x="628" 
d="M28 6l70.001 75c-40 46 -60 104.333 -60 175v8c0 80.667 26.333 146.334 79 197.001c51.333 49.333 117 74 197 74c64 0 117.667 -15.333 161 -46l66 71l49 -44l-65 -70c42.667 -48 64 -107.667 64 -179v-8c0 -80.667 -26.333 -146.334 -79 -197.001
c-50.667 -48.667 -116.334 -73 -197.001 -73c-64 0 -119.333 16 -166 48l-70 -75zM314.001 98c41.333 0 73.167 14 95.5 42s33.5 67.333 33.5 118v7c0 27.333 -4.33301 53.333 -13 78l-200 -216c21.333 -19.333 49.333 -29 84 -29zM185.002 259
c0 -29.333 3.33398 -53.667 10.001 -73l197 213c-20.667 17.333 -46.667 26 -78 26c-40.667 0 -72.334 -13.833 -95.001 -41.5s-34 -66.5 -34 -116.5v-8z" />
    <glyph glyph-name="ugrave" unicode="&#xf9;" horiz-adv-x="624" 
d="M244 -11c-53.333 0 -95.668 15.667 -127.001 47c-34 34 -51 84 -51 150v337h144v-317c0 -70 30.333 -105 91 -105c32 0 58.167 9.83301 78.5 29.5s30.5 48.167 30.5 85.5v307h144v-523h-144v82c-31.333 -62 -86.666 -93 -165.999 -93zM159.998 753h152l57 -159h-105z" />
    <glyph glyph-name="uacute" unicode="&#xfa;" horiz-adv-x="624" 
d="M244 -11c-53.333 0 -95.668 15.667 -127.001 47c-34 34 -51 84 -51 150v337h144v-317c0 -70 30.333 -105 91 -105c32 0 58.167 9.83301 78.5 29.5s30.5 48.167 30.5 85.5v307h144v-523h-144v82c-31.333 -62 -86.666 -93 -165.999 -93zM309.998 753h152l-104 -159h-105z
" />
    <glyph glyph-name="ucircumflex" unicode="&#xfb;" horiz-adv-x="624" 
d="M244 -11c-53.333 0 -95.668 15.667 -127.001 47c-34 34 -51 84 -51 150v337h144v-317c0 -70 30.333 -105 91 -105c32 0 58.167 9.83301 78.5 29.5s30.5 48.167 30.5 85.5v307h144v-523h-144v82c-31.333 -62 -86.666 -93 -165.999 -93zM257.998 751h109l114 -156h-102
l-69 63l-70 -63h-99z" />
    <glyph glyph-name="udieresis" unicode="&#xfc;" horiz-adv-x="624" 
d="M244 -11c-53.333 0 -95.668 15.667 -127.001 47c-34 34 -51 84 -51 150v337h144v-317c0 -70 30.333 -105 91 -105c32 0 58.167 9.83301 78.5 29.5s30.5 48.167 30.5 85.5v307h144v-523h-144v82c-31.333 -62 -86.666 -93 -165.999 -93zM208.998 600
c-20.667 0 -38.167 7 -52.5 21s-21.5 31 -21.5 51s7.16699 37 21.5 51s31.833 21 52.5 21s38.167 -7 52.5 -21s21.5 -31 21.5 -51s-7.16699 -37 -21.5 -51s-31.833 -21 -52.5 -21zM412.998 600c-20.667 0 -38.167 7 -52.5 21s-21.5 31 -21.5 51s7.16699 37 21.5 51
s31.833 21 52.5 21s38.167 -7 52.5 -21s21.5 -31 21.5 -51s-7.16699 -37 -21.5 -51s-31.833 -21 -52.5 -21z" />
    <glyph glyph-name="yacute" unicode="&#xfd;" horiz-adv-x="579" 
d="M228 53l-208 470h156l127 -314l117 314h139l-283 -701h-140zM298 753h152l-104 -159h-105z" />
    <glyph glyph-name="thorn" unicode="&#xfe;" horiz-adv-x="649" 
d="M70 760h144.998v-319c15.333 27.333 37.833 49.833 67.5 67.5s62.834 26.5 99.501 26.5c66 0 120 -23 162 -69c44 -48 66 -114.333 66 -199v-8c0 -84 -21.667 -150.333 -65 -199c-41.333 -47.333 -95.666 -71 -162.999 -71c-38.667 0 -72.667 8.5 -102 25.5
s-51 38.833 -65 65.5v-258h-145v938zM338.998 102c40 0 70.666 13.167 91.999 39.5s32 65.166 32 116.499v8c0 52 -11.333 91.333 -34 118s-53 40 -91 40c-39.333 0 -70.5 -13.5 -93.5 -40.5s-34.5 -66.167 -34.5 -117.5v-8c0 -51.333 11.333 -90.166 34 -116.499
s54.334 -39.5 95.001 -39.5z" />
    <glyph glyph-name="ydieresis" unicode="&#xff;" horiz-adv-x="579" 
d="M228 53l-208 470h156l127 -314l117 314h139l-283 -701h-140zM197 600c-20.667 0 -38.167 7 -52.5 21s-21.5 31 -21.5 51s7.16699 37 21.5 51s31.833 21 52.5 21s38.167 -7 52.5 -21s21.5 -31 21.5 -51s-7.16699 -37 -21.5 -51s-31.833 -21 -52.5 -21zM401 600
c-20.667 0 -38.167 7 -52.5 21s-21.5 31 -21.5 51s7.16699 37 21.5 51s31.833 21 52.5 21s38.167 -7 52.5 -21s21.5 -31 21.5 -51s-7.16699 -37 -21.5 -51s-31.833 -21 -52.5 -21z" />
    <glyph glyph-name="Amacron" unicode="&#x100;" horiz-adv-x="720" 
d="M262 715h211l232 -715h-169l-49 159h-259l-49 -159h-152zM263 274h189l-94 309zM214 868h302v-91h-302v91z" />
    <glyph glyph-name="amacron" unicode="&#x101;" horiz-adv-x="564" 
d="M211 -11c-50.667 0 -91.666 12.334 -122.999 37.001c-34.667 27.333 -52 67 -52 119c0 58 25.333 101.333 76 130c45.333 25.333 110.666 38 195.999 38h59v21c0 33.333 -6.16699 57.666 -18.5 72.999s-34.5 23 -66.5 23c-51.333 0 -81 -24.667 -89 -74h-137
c4 58.667 28.333 104 73 136c40.667 28.667 94.667 43 162 43s120 -14.667 158 -44c40.667 -32 61 -82 61 -150v-341h-141v63c-35.333 -49.333 -88 -74 -158 -74zM254.001 90.001c32.667 0 59.667 8.33203 81 24.999s32 39.334 32 68.001v44h-56
c-44 0 -77.167 -5.66699 -99.5 -17s-33.5 -30.333 -33.5 -57c0 -42 25.333 -63 76 -63zM144.001 712h291v-87h-291v87z" />
    <glyph glyph-name="Abreve" unicode="&#x102;" horiz-adv-x="720" 
d="M262 715h211l232 -715h-169l-49 159h-259l-49 -159h-152zM263 274h189l-94 309zM364 757c-44 0 -79.832 13.333 -107.499 40s-42.834 62 -45.501 106h97c5.33301 -34.667 24 -52 56 -52s51.667 17.333 59 52h96c-3.33301 -44 -19 -79.333 -47 -106s-64 -40 -108 -40z" />
    <glyph glyph-name="abreve" unicode="&#x103;" horiz-adv-x="564" 
d="M211 -11c-50.667 0 -91.666 12.334 -122.999 37.001c-34.667 27.333 -52 67 -52 119c0 58 25.333 101.333 76 130c45.333 25.333 110.666 38 195.999 38h59v21c0 33.333 -6.16699 57.666 -18.5 72.999s-34.5 23 -66.5 23c-51.333 0 -81 -24.667 -89 -74h-137
c4 58.667 28.333 104 73 136c40.667 28.667 94.667 43 162 43s120 -14.667 158 -44c40.667 -32 61 -82 61 -150v-341h-141v63c-35.333 -49.333 -88 -74 -158 -74zM254.001 90.001c32.667 0 59.667 8.33203 81 24.999s32 39.334 32 68.001v44h-56
c-44 0 -77.167 -5.66699 -99.5 -17s-33.5 -30.333 -33.5 -57c0 -42 25.333 -63 76 -63zM289.001 598c-44 0 -79.667 13.333 -107 40s-42.333 63 -45 109h95c4.66699 -36 23.667 -54 57 -54s53.666 18 60.999 54h93c-2.66699 -45.333 -18.167 -81.5 -46.5 -108.5
s-64.166 -40.5 -107.499 -40.5z" />
    <glyph glyph-name="Aogonek" unicode="&#x104;" horiz-adv-x="720" 
d="M618 -182c-36 0 -64.5 7.16797 -85.5 21.501s-31.5 34.166 -31.5 59.499c0 40 27.667 73.667 83 101h-54l-49 159h-259l-49 -159h-152l235 715h211l229 -705c-45.333 -26 -68 -52.333 -68 -79c0 -20 11 -30 33 -30c16 0 28.667 2.33301 38 7v-75c-24 -10 -51 -15 -81 -15
zM257 274.001h189l-94 309z" />
    <glyph glyph-name="aogonek" unicode="&#x105;" horiz-adv-x="564" 
d="M430 -182c-34.667 0 -62 7 -82 21s-30 33.667 -30 59c0 42 27.667 76 83 102h-38v63c-35.333 -49.333 -88 -74 -158 -74c-50.667 0 -92.5 13 -125.5 39s-49.5 65 -49.5 117c0 112 90.667 168 272 168h59v21c0 33.333 -6.16699 57.666 -18.5 72.999s-34.5 23 -66.5 23
c-51.333 0 -81 -24.667 -89 -74h-137c4 59.333 27.333 104 70 134s97.667 45 165 45c146 0 219 -64.667 219 -194v-333c-42.667 -27.333 -64 -53.666 -64 -78.999c0 -20.667 11 -31 33 -31c16 0 28.667 2.33301 38 7v-72c-24 -10 -51 -15 -81 -15zM248 90
c32.667 0 59.667 8.33203 81 24.999s32 39.334 32 68.001v44h-56c-44 0 -77.167 -5.66699 -99.5 -17s-33.5 -30.333 -33.5 -57c0 -42 25.333 -63 76 -63z" />
    <glyph glyph-name="Cacute" unicode="&#x106;" horiz-adv-x="748" 
d="M405 -11c-115.333 0 -204.331 33.334 -266.998 100.001c-61.333 63.333 -92 151.333 -92 264v8c0 108 34 196 102 264c66 67.333 150.333 101 253 101c89.333 0 161.666 -21.333 216.999 -64c58.667 -46 92 -111.333 100 -196h-166c-12 88 -62 132 -150 132
c-56.667 0 -101.667 -20.833 -135 -62.5s-50 -99.5 -50 -173.5v-8c0 -74.667 16.167 -132.334 48.5 -173.001s78.166 -61 137.499 -61c45.333 0 82.333 11.5 111 34.5s46.334 57.167 53.001 102.5h159c-8.66699 -87.333 -42.334 -154 -101.001 -200
c-56.667 -45.333 -130 -68 -220 -68zM391.002 902.001h157l-101 -139h-109z" />
    <glyph glyph-name="cacute" unicode="&#x107;" horiz-adv-x="578" 
d="M307 -11c-78.667 0 -142.666 23 -191.999 69c-51.333 48 -77 113.667 -77 197v8c0 82 26.333 148.667 79 200c50 48 113.667 72 191 72c67.333 0 122 -15 164 -45c48 -34.667 75.333 -87.334 82 -158.001h-137c-8.66699 59.333 -44 89 -106 89
c-38.667 0 -69.167 -13.667 -91.5 -41s-33.5 -65.666 -33.5 -114.999v-8c0 -52 11.167 -91.5 33.5 -118.5s53.833 -40.5 94.5 -40.5c30.667 0 56.167 8.66699 76.5 26s32.166 42.333 35.499 75h131c-4 -64.667 -27.667 -115 -71 -151c-46 -39.333 -105.667 -59 -179 -59z
M303.001 753h152l-104 -159h-105z" />
    <glyph glyph-name="Ccircumflex" unicode="&#x108;" horiz-adv-x="748" 
d="M405 -11c-115.333 0 -204.331 33.334 -266.998 100.001c-61.333 63.333 -92 151.333 -92 264v8c0 108 34 196 102 264c66 67.333 150.333 101 253 101c89.333 0 161.666 -21.333 216.999 -64c58.667 -46 92 -111.333 100 -196h-166c-12 88 -62 132 -150 132
c-56.667 0 -101.667 -20.833 -135 -62.5s-50 -99.5 -50 -173.5v-8c0 -74.667 16.167 -132.334 48.5 -173.001s78.166 -61 137.499 -61c45.333 0 82.333 11.5 111 34.5s46.334 57.167 53.001 102.5h159c-8.66699 -87.333 -42.334 -154 -101.001 -200
c-56.667 -45.333 -130 -68 -220 -68zM340.002 902.001h123l108 -139h-104l-68 53l-69 -53h-102z" />
    <glyph glyph-name="ccircumflex" unicode="&#x109;" horiz-adv-x="578" 
d="M307 -11c-78.667 0 -142.666 23 -191.999 69c-51.333 48 -77 113.667 -77 197v8c0 82 26.333 148.667 79 200c50 48 113.667 72 191 72c67.333 0 122 -15 164 -45c48 -34.667 75.333 -87.334 82 -158.001h-137c-8.66699 59.333 -44 89 -106 89
c-38.667 0 -69.167 -13.667 -91.5 -41s-33.5 -65.666 -33.5 -114.999v-8c0 -52 11.167 -91.5 33.5 -118.5s53.833 -40.5 94.5 -40.5c30.667 0 56.167 8.66699 76.5 26s32.166 42.333 35.499 75h131c-4 -64.667 -27.667 -115 -71 -151c-46 -39.333 -105.667 -59 -179 -59z
M252.001 751h109l114 -156h-102l-69 63l-70 -63h-99z" />
    <glyph glyph-name="Cdotaccent" unicode="&#x10a;" horiz-adv-x="748" 
d="M405 -11c-115.333 0 -204.331 33.334 -266.998 100.001c-61.333 63.333 -92 151.333 -92 264v8c0 108 34 196 102 264c66 67.333 150.333 101 253 101c89.333 0 161.666 -21.333 216.999 -64c58.667 -46 92 -111.333 100 -196h-166c-12 88 -62 132 -150 132
c-56.667 0 -101.667 -20.833 -135 -62.5s-50 -99.5 -50 -173.5v-8c0 -74.667 16.167 -132.334 48.5 -173.001s78.166 -61 137.499 -61c45.333 0 82.333 11.5 111 34.5s46.334 57.167 53.001 102.5h159c-8.66699 -87.333 -42.334 -154 -101.001 -200
c-56.667 -45.333 -130 -68 -220 -68zM398.002 768.001c-23.333 0 -42.666 7.33301 -57.999 22s-23 33 -23 55s7.66699 40.333 23 55s34.666 22 57.999 22c22.667 0 41.667 -7.5 57 -22.5s23 -33.167 23 -54.5s-7.66699 -39.5 -23 -54.5s-34.333 -22.5 -57 -22.5z" />
    <glyph glyph-name="cdotaccent" unicode="&#x10b;" horiz-adv-x="578" 
d="M307 -11c-78.667 0 -142.666 23 -191.999 69c-51.333 48 -77 113.667 -77 197v8c0 82 26.333 148.667 79 200c50 48 113.667 72 191 72c67.333 0 122 -15 164 -45c48 -34.667 75.333 -87.334 82 -158.001h-137c-8.66699 59.333 -44 89 -106 89
c-38.667 0 -69.167 -13.667 -91.5 -41s-33.5 -65.666 -33.5 -114.999v-8c0 -52 11.167 -91.5 33.5 -118.5s53.833 -40.5 94.5 -40.5c30.667 0 56.167 8.66699 76.5 26s32.166 42.333 35.499 75h131c-4 -64.667 -27.667 -115 -71 -151c-46 -39.333 -105.667 -59 -179 -59z
M306.001 598c-23.333 0 -42.666 7.33301 -57.999 22s-23 33 -23 55s7.66699 40.333 23 55s34.666 22 57.999 22c22.667 0 41.667 -7.5 57 -22.5s23 -33.167 23 -54.5s-7.66699 -39.5 -23 -54.5s-34.333 -22.5 -57 -22.5z" />
    <glyph glyph-name="Ccaron" unicode="&#x10c;" horiz-adv-x="748" 
d="M405 -11c-115.333 0 -204.331 33.334 -266.998 100.001c-61.333 63.333 -92 151.333 -92 264v8c0 108 34 196 102 264c66 67.333 150.333 101 253 101c89.333 0 161.666 -21.333 216.999 -64c58.667 -46 92 -111.333 100 -196h-166c-12 88 -62 132 -150 132
c-56.667 0 -101.667 -20.833 -135 -62.5s-50 -99.5 -50 -173.5v-8c0 -74.667 16.167 -132.334 48.5 -173.001s78.166 -61 137.499 -61c45.333 0 82.333 11.5 111 34.5s46.334 57.167 53.001 102.5h159c-8.66699 -87.333 -42.334 -154 -101.001 -200
c-56.667 -45.333 -130 -68 -220 -68zM228.002 902.001h104l69 -52l68 52h102l-112 -139h-123z" />
    <glyph glyph-name="ccaron" unicode="&#x10d;" horiz-adv-x="578" 
d="M307 -11c-78.667 0 -142.666 23 -191.999 69c-51.333 48 -77 113.667 -77 197v8c0 82 26.333 148.667 79 200c50 48 113.667 72 191 72c67.333 0 122 -15 164 -45c48 -34.667 75.333 -87.334 82 -158.001h-137c-8.66699 59.333 -44 89 -106 89
c-38.667 0 -69.167 -13.667 -91.5 -41s-33.5 -65.666 -33.5 -114.999v-8c0 -52 11.167 -91.5 33.5 -118.5s53.833 -40.5 94.5 -40.5c30.667 0 56.167 8.66699 76.5 26s32.166 42.333 35.499 75h131c-4 -64.667 -27.667 -115 -71 -151c-46 -39.333 -105.667 -59 -179 -59z
M135.001 751h102l69 -63l69 63h100l-117 -156h-109z" />
    <glyph glyph-name="Dcaron" unicode="&#x10e;" horiz-adv-x="726" 
d="M311 126c141.333 0 212 76.333 212 229v8c0 75.333 -17.167 131.833 -51.5 169.5s-88.5 56.5 -162.5 56.5h-64v-463h66zM83 715h234c122 0 216 -31.333 282 -94c62 -62 93 -147.333 93 -256v-8c0 -110 -31.333 -196.333 -94 -259c-65.333 -65.333 -159.333 -98 -282 -98
h-233v715zM163 902h104l69 -52l68 52h102l-112 -139h-123z" />
    <glyph glyph-name="dcaron" unicode="&#x10f;" horiz-adv-x="637" 
d="M266 -11c-66 0 -119.666 22.667 -160.999 68c-44 47.333 -66 113 -66 197v8c0 83.333 22 150.333 66 201c42 48 96.667 72 164 72c77.333 0 132.333 -30 165 -90v315h144v-760h-144v87c-14 -28 -36.333 -51.333 -67 -70s-64.334 -28 -101.001 -28zM309.001 102
c39.333 0 70.668 13.167 94.001 39.5s35 65.5 35 117.5v8c0 51.333 -10.667 90.333 -32 117s-52.333 40 -93 40s-71.834 -13.5 -93.501 -40.5s-32.5 -66.5 -32.5 -118.5v-8c0 -50.667 11 -89.167 33 -115.5s51.667 -39.5 89 -39.5zM629.003 760h119l-49 -174h-80z" />
    <glyph glyph-name="Dcroat" unicode="&#x110;" horiz-adv-x="753" 
d="M31 415h64.999v300h234c122.667 0 215.834 -31 279.501 -93s95.5 -147.667 95.5 -257v-8c0 -110 -32 -197 -96 -261s-157.333 -96 -280 -96h-233v303h-65v112zM323.999 126c141.333 0 212 76.333 212 229v8c0 75.333 -17 131.833 -51 169.5s-88 56.5 -162 56.5h-67v-174
h151v-112h-151v-177h68z" />
    <glyph glyph-name="dcroat" unicode="&#x111;" horiz-adv-x="637" 
d="M265 680h163.001v80h144v-80h64v-83h-64v-597h-144v87c-14 -28 -36.333 -51.333 -67 -70s-64.334 -28 -101.001 -28c-66 0 -120.333 23.333 -163 70s-64 111.667 -64 195v8c0 84 21.5 150.5 64.5 199.5s98.167 73.5 165.5 73.5c77.333 0 132.333 -30 165 -90v152h-163v83
zM303.001 102c39.333 0 70.668 13.167 94.001 39.5s35 65.5 35 117.5v8c0 51.333 -10.667 90.333 -32 117s-52.333 40 -93 40s-71.834 -13.5 -93.501 -40.5s-32.5 -66.5 -32.5 -118.5v-8c0 -50.667 11 -89.167 33 -115.5s51.667 -39.5 89 -39.5z" />
    <glyph glyph-name="Emacron" unicode="&#x112;" horiz-adv-x="595" 
d="M83 715h466v-126h-305v-167h244v-118h-244v-178h321v-126h-482v715zM172 868h302v-91h-302v91z" />
    <glyph glyph-name="emacron" unicode="&#x113;" horiz-adv-x="587" 
d="M311 -11c-81.333 0 -146.334 23.668 -195.001 71.001c-52 48 -78 113 -78 195v8c0 81.333 26 147.333 78 198c50.667 49.333 114.334 74 191.001 74c72.667 0 132 -21 178 -63c51.333 -46.667 77 -114.334 77 -203.001v-40h-377c2 -44 14.167 -77.833 36.5 -101.5
s53.5 -35.5 93.5 -35.5c62.667 0 99 24.333 109 73h137c-8.66699 -56.667 -34.5 -100.167 -77.5 -130.5s-100.5 -45.5 -172.5 -45.5zM420.999 318.001c-4.66699 78 -42.667 116.999 -114 116.999c-32.667 0 -59.5 -10.167 -80.5 -30.5s-34.167 -49.166 -39.5 -86.499h234z
M157.999 712h291v-87h-291v87z" />
    <glyph glyph-name="Ebreve" unicode="&#x114;" horiz-adv-x="595" 
d="M83 715h466v-126h-305v-167h244v-118h-244v-178h321v-126h-482v715zM324 757c-44 0 -79.832 13.333 -107.499 40s-42.834 62 -45.501 106h97c5.33301 -34.667 24 -52 56 -52s51.667 17.333 59 52h96c-3.33301 -44 -19 -79.333 -47 -106s-64 -40 -108 -40z" />
    <glyph glyph-name="ebreve" unicode="&#x115;" horiz-adv-x="587" 
d="M311 -11c-81.333 0 -146.334 23.668 -195.001 71.001c-52 48 -78 113 -78 195v8c0 81.333 26 147.333 78 198c50.667 49.333 114.334 74 191.001 74c72.667 0 132 -21 178 -63c51.333 -46.667 77 -114.334 77 -203.001v-40h-377c2 -44 14.167 -77.833 36.5 -101.5
s53.5 -35.5 93.5 -35.5c62.667 0 99 24.333 109 73h137c-8.66699 -56.667 -34.5 -100.167 -77.5 -130.5s-100.5 -45.5 -172.5 -45.5zM420.999 318.001c-4.66699 78 -42.667 116.999 -114 116.999c-32.667 0 -59.5 -10.167 -80.5 -30.5s-34.167 -49.166 -39.5 -86.499h234z
M296.999 598c-44 0 -79.667 13.333 -107 40s-42.333 63 -45 109h95c4.66699 -36 23.667 -54 57 -54s53.666 18 60.999 54h93c-2.66699 -45.333 -18.167 -81.5 -46.5 -108.5s-64.166 -40.5 -107.499 -40.5z" />
    <glyph glyph-name="Edotaccent" unicode="&#x116;" horiz-adv-x="595" 
d="M83 715h466v-126h-305v-167h244v-118h-244v-178h321v-126h-482v715zM323 768c-23.333 0 -42.666 7.33301 -57.999 22s-23 33 -23 55s7.66699 40.333 23 55s34.666 22 57.999 22c22.667 0 41.667 -7.5 57 -22.5s23 -33.167 23 -54.5s-7.66699 -39.5 -23 -54.5
s-34.333 -22.5 -57 -22.5z" />
    <glyph glyph-name="edotaccent" unicode="&#x117;" horiz-adv-x="587" 
d="M311 -11c-81.333 0 -146.334 23.668 -195.001 71.001c-52 48 -78 113 -78 195v8c0 81.333 26 147.333 78 198c50.667 49.333 114.334 74 191.001 74c72.667 0 132 -21 178 -63c51.333 -46.667 77 -114.334 77 -203.001v-40h-377c2 -44 14.167 -77.833 36.5 -101.5
s53.5 -35.5 93.5 -35.5c62.667 0 99 24.333 109 73h137c-8.66699 -56.667 -34.5 -100.167 -77.5 -130.5s-100.5 -45.5 -172.5 -45.5zM420.999 318.001c-4.66699 78 -42.667 116.999 -114 116.999c-32.667 0 -59.5 -10.167 -80.5 -30.5s-34.167 -49.166 -39.5 -86.499h234z
M304.999 598c-23.333 0 -42.666 7.33301 -57.999 22s-23 33 -23 55s7.66699 40.333 23 55s34.666 22 57.999 22c22.667 0 41.667 -7.5 57 -22.5s23 -33.167 23 -54.5s-7.66699 -39.5 -23 -54.5s-34.333 -22.5 -57 -22.5z" />
    <glyph glyph-name="Eogonek" unicode="&#x118;" horiz-adv-x="595" 
d="M462 -182c-36 0 -64.167 7.16797 -84.5 21.501s-30.5 34.166 -30.5 59.499c0 40 27.667 73.667 83 101h-353v715h466v-126h-305v-167h244v-118h-244v-178h321v-126h-34c-34 -24 -51 -47 -51 -69c0 -20 11 -30 33 -30c16 0 28.667 2.33301 38 7v-75
c-24 -10 -51.667 -15 -83 -15z" />
    <glyph glyph-name="eogonek" unicode="&#x119;" horiz-adv-x="587" 
d="M399 -182c-34.667 0 -62.167 6.83398 -82.5 20.501s-30.5 33.167 -30.5 58.5c0 34 25.667 66 77 96c-15.333 -2.66699 -34.666 -4 -57.999 -4c-80 0 -145.5 23.833 -196.5 71.5s-76.5 112.5 -76.5 194.5v8c0 80.667 25.5 146.167 76.5 196.5s115.167 75.5 192.5 75.5
c73.333 0 134.166 -22.333 182.499 -67s72.5 -111 72.5 -199v-40h-377c2 -44 14.167 -77.833 36.5 -101.5s53.5 -35.5 93.5 -35.5c62.667 0 99 24.333 109 73h137c-3.33301 -22.667 -10.333 -44 -21 -64s-19.334 -33.5 -26.001 -40.5l-32 -32.5
c-24 -22.667 -41.5 -41.334 -52.5 -56.001s-16.5 -29 -16.5 -43c0 -20.667 11 -31 33 -31c16 0 28.667 2.33301 38 7v-72c-21.333 -10 -47.666 -15 -78.999 -15zM415 318.001c-4.66699 78 -42.667 116.999 -114 116.999c-32.667 0 -59.5 -10.167 -80.5 -30.5
s-34.167 -49.166 -39.5 -86.499h234z" />
    <glyph glyph-name="Ecaron" unicode="&#x11a;" horiz-adv-x="595" 
d="M83 715h466v-126h-305v-167h244v-118h-244v-178h321v-126h-482v715zM153 902h104l69 -52l68 52h102l-112 -139h-123z" />
    <glyph glyph-name="ecaron" unicode="&#x11b;" horiz-adv-x="587" 
d="M311 -11c-81.333 0 -146.334 23.668 -195.001 71.001c-52 48 -78 113 -78 195v8c0 81.333 26 147.333 78 198c50.667 49.333 114.334 74 191.001 74c72.667 0 132 -21 178 -63c51.333 -46.667 77 -114.334 77 -203.001v-40h-377c2 -44 14.167 -77.833 36.5 -101.5
s53.5 -35.5 93.5 -35.5c62.667 0 99 24.333 109 73h137c-8.66699 -56.667 -34.5 -100.167 -77.5 -130.5s-100.5 -45.5 -172.5 -45.5zM420.999 318.001c-4.66699 78 -42.667 116.999 -114 116.999c-32.667 0 -59.5 -10.167 -80.5 -30.5s-34.167 -49.166 -39.5 -86.499h234z
M133.999 751h102l69 -63l69 63h100l-117 -156h-109z" />
    <glyph glyph-name="Gcircumflex" unicode="&#x11c;" horiz-adv-x="780" 
d="M410 -11c-114.667 0 -204.331 34.334 -268.998 103.001c-63.333 64.667 -95 151.667 -95 261v8c0 108 34.333 195.667 103 263c68 68 155 102 261 102c86 0 156.667 -19.333 212 -58c63.333 -45.333 98.666 -109.333 105.999 -192h-161
c-14.667 81.333 -66.334 122 -155.001 122c-62 0 -110.333 -21.333 -145 -64s-52 -101 -52 -175v-8c0 -73.333 15.667 -130 47 -170c33.333 -44.667 84 -67 152 -67c56.667 0 100 15 130 45c26.667 26 40.667 61.333 42 106h-161v118h321v-76
c0 -96.667 -29.333 -173.334 -88 -230.001c-60 -58.667 -142.667 -88 -248 -88zM346.003 902.001h123l108 -139h-104l-68 53l-69 -53h-102z" />
    <glyph glyph-name="gcircumflex" unicode="&#x11d;" horiz-adv-x="636" 
d="M302 -193c-82.667 0 -145.331 16.667 -187.998 50c-40.667 30 -64.667 74 -72 132h144c10 -50.667 48.667 -76 116 -76c88 0 132 42.667 132 128v79c-17.333 -29.333 -39.333 -51.666 -66 -66.999c-30.667 -20 -64.667 -30 -102 -30c-66 0 -119.667 22.333 -161 67
c-44.667 46.667 -67 107.667 -67 183v7c0 74.667 22 136 66 184c44 47.333 98.667 71 164 71c75.333 0 130.666 -30 165.999 -90v78h144v-482c-0.666992 -76.667 -24.834 -134.834 -72.501 -174.501s-115.5 -59.5 -203.5 -59.5zM309.003 132
c38.667 0 69.832 12.832 93.499 38.499s35.5 60.5 35.5 104.5v7c0 44.667 -11 79.667 -33 105s-53 38 -93 38s-71 -13 -93 -39s-33 -61 -33 -105v-8c0 -43.333 11.333 -77.666 34 -102.999s52.334 -38 89.001 -38zM254.001 750.999h109l114 -156h-102l-69 63l-70 -63h-99z
" />
    <glyph glyph-name="Gbreve" unicode="&#x11e;" horiz-adv-x="780" 
d="M410 -11c-114.667 0 -204.331 34.334 -268.998 103.001c-63.333 64.667 -95 151.667 -95 261v8c0 108 34.333 195.667 103 263c68 68 155 102 261 102c86 0 156.667 -19.333 212 -58c63.333 -45.333 98.666 -109.333 105.999 -192h-161
c-14.667 81.333 -66.334 122 -155.001 122c-62 0 -110.333 -21.333 -145 -64s-52 -101 -52 -175v-8c0 -73.333 15.667 -130 47 -170c33.333 -44.667 84 -67 152 -67c56.667 0 100 15 130 45c26.667 26 40.667 61.333 42 106h-161v118h321v-76
c0 -96.667 -29.333 -173.334 -88 -230.001c-60 -58.667 -142.667 -88 -248 -88zM405.003 757.001c-44 0 -79.832 13.333 -107.499 40s-42.834 62 -45.501 106h97c5.33301 -34.667 24 -52 56 -52s51.667 17.333 59 52h96c-3.33301 -44 -19 -79.333 -47 -106s-64 -40 -108 -40
z" />
    <glyph glyph-name="gbreve" unicode="&#x11f;" horiz-adv-x="636" 
d="M302 -193c-82.667 0 -145.331 16.667 -187.998 50c-40.667 30 -64.667 74 -72 132h144c10 -50.667 48.667 -76 116 -76c88 0 132 42.667 132 128v79c-17.333 -29.333 -39.333 -51.666 -66 -66.999c-30.667 -20 -64.667 -30 -102 -30c-66 0 -119.667 22.333 -161 67
c-44.667 46.667 -67 107.667 -67 183v7c0 74.667 22 136 66 184c44 47.333 98.667 71 164 71c75.333 0 130.666 -30 165.999 -90v78h144v-482c-0.666992 -76.667 -24.834 -134.834 -72.501 -174.501s-115.5 -59.5 -203.5 -59.5zM309.003 132
c38.667 0 69.832 12.832 93.499 38.499s35.5 60.5 35.5 104.5v7c0 44.667 -11 79.667 -33 105s-53 38 -93 38s-71 -13 -93 -39s-33 -61 -33 -105v-8c0 -43.333 11.333 -77.666 34 -102.999s52.334 -38 89.001 -38zM306.001 597.999c-44 0 -79.667 13.333 -107 40
s-42.333 63 -45 109h95c4.66699 -36 23.667 -54 57 -54s53.666 18 60.999 54h93c-2.66699 -45.333 -18.167 -81.5 -46.5 -108.5s-64.166 -40.5 -107.499 -40.5z" />
    <glyph glyph-name="Gdotaccent" unicode="&#x120;" horiz-adv-x="780" 
d="M410 -11c-114.667 0 -204.331 34.334 -268.998 103.001c-63.333 64.667 -95 151.667 -95 261v8c0 108 34.333 195.667 103 263c68 68 155 102 261 102c86 0 156.667 -19.333 212 -58c63.333 -45.333 98.666 -109.333 105.999 -192h-161
c-14.667 81.333 -66.334 122 -155.001 122c-62 0 -110.333 -21.333 -145 -64s-52 -101 -52 -175v-8c0 -73.333 15.667 -130 47 -170c33.333 -44.667 84 -67 152 -67c56.667 0 100 15 130 45c26.667 26 40.667 61.333 42 106h-161v118h321v-76
c0 -96.667 -29.333 -173.334 -88 -230.001c-60 -58.667 -142.667 -88 -248 -88zM406.003 768.001c-23.333 0 -42.666 7.33301 -57.999 22s-23 33 -23 55s7.66699 40.333 23 55s34.666 22 57.999 22c22.667 0 41.667 -7.5 57 -22.5s23 -33.167 23 -54.5
s-7.66699 -39.5 -23 -54.5s-34.333 -22.5 -57 -22.5z" />
    <glyph glyph-name="gdotaccent" unicode="&#x121;" horiz-adv-x="636" 
d="M302 -193c-82.667 0 -145.331 16.667 -187.998 50c-40.667 30 -64.667 74 -72 132h144c10 -50.667 48.667 -76 116 -76c88 0 132 42.667 132 128v79c-17.333 -29.333 -39.333 -51.666 -66 -66.999c-30.667 -20 -64.667 -30 -102 -30c-66 0 -119.667 22.333 -161 67
c-44.667 46.667 -67 107.667 -67 183v7c0 74.667 22 136 66 184c44 47.333 98.667 71 164 71c75.333 0 130.666 -30 165.999 -90v78h144v-482c-0.666992 -76.667 -24.834 -134.834 -72.501 -174.501s-115.5 -59.5 -203.5 -59.5zM309.003 132
c38.667 0 69.832 12.832 93.499 38.499s35.5 60.5 35.5 104.5v7c0 44.667 -11 79.667 -33 105s-53 38 -93 38s-71 -13 -93 -39s-33 -61 -33 -105v-8c0 -43.333 11.333 -77.666 34 -102.999s52.334 -38 89.001 -38zM307.001 597.999c-23.333 0 -42.666 7.33301 -57.999 22
s-23 33 -23 55s7.66699 40.333 23 55s34.666 22 57.999 22c22.667 0 41.667 -7.5 57 -22.5s23 -33.167 23 -54.5s-7.66699 -39.5 -23 -54.5s-34.333 -22.5 -57 -22.5z" />
    <glyph glyph-name="uni0122" unicode="&#x122;" horiz-adv-x="780" 
d="M410 -11c-114.667 0 -204.331 34.334 -268.998 103.001c-63.333 64.667 -95 151.667 -95 261v8c0 108 34.333 195.667 103 263c68 68 155 102 261 102c86 0 156.667 -19.333 212 -58c63.333 -45.333 98.666 -109.333 105.999 -192h-161
c-14.667 81.333 -66.334 122 -155.001 122c-62 0 -110.333 -21.333 -145 -64s-52 -101 -52 -175v-8c0 -73.333 15.667 -130 47 -170c33.333 -44.667 84 -67 152 -67c56.667 0 100 15 130 45c26.667 26 40.667 61.333 42 106h-161v118h321v-76
c0 -96.667 -29.333 -173.334 -88 -230.001c-60 -58.667 -142.667 -88 -248 -88zM302.003 -200.999l47 170l130 -21l-95 -176z" />
    <glyph glyph-name="uni0123" unicode="&#x123;" horiz-adv-x="636" 
d="M302 -193c-82.667 0 -145.331 16.667 -187.998 50c-40.667 30 -64.667 74 -72 132h144c10 -50.667 48.667 -76 116 -76c88 0 132 42.667 132 128v79c-17.333 -29.333 -39.333 -51.666 -66 -66.999c-30.667 -20 -64.667 -30 -102 -30c-66 0 -119.667 22.333 -161 67
c-44.667 46.667 -67 107.667 -67 183v7c0 74.667 22 136 66 184c44 47.333 98.667 71 164 71c75.333 0 130.666 -30 165.999 -90v78h144v-482c-0.666992 -76.667 -24.834 -134.834 -72.501 -174.501s-115.5 -59.5 -203.5 -59.5zM309.003 132
c38.667 0 69.832 12.832 93.499 38.499s35.5 60.5 35.5 104.5v7c0 44.667 -11 79.667 -33 105s-53 38 -93 38s-71 -13 -93 -39s-33 -61 -33 -105v-8c0 -43.333 11.333 -77.666 34 -102.999s52.334 -38 89.001 -38zM244.001 599.999l95 175l82 -26l-47 -170z" />
    <glyph glyph-name="Hcircumflex" unicode="&#x124;" horiz-adv-x="764" 
d="M83 715h162v-292h287v292h162v-715h-162v295h-287v-295h-162v715zM328 902h123l108 -139h-104l-68 53l-69 -53h-102z" />
    <glyph glyph-name="hcircumflex" unicode="&#x125;" horiz-adv-x="615" 
d="M70 760h144.999v-320c32.667 63.333 89.334 95 170.001 95c52.667 0 95 -16 127 -48c32.667 -34.667 49 -86 49 -154v-333h-145v312c0 36 -7.33301 62.5 -22 79.5s-38 25.5 -70 25.5c-32.667 0 -59 -9.83301 -79 -29.5s-30 -48.167 -30 -85.5v-302h-145v760zM260.999 937
h123l108 -139h-104l-68 53l-69 -53h-102z" />
    <glyph glyph-name="Hbar" unicode="&#x126;" horiz-adv-x="764" 
d="M13 596h64v119h162v-119h287v119h162v-119h64v-85h-64v-511h-162v295h-287v-295h-162v511h-64v85zM526 423v88h-287v-88h287z" />
    <glyph glyph-name="hbar" unicode="&#x127;" horiz-adv-x="615" 
d="M1 680h62.999v80h145v-80h163v-83h-163v-157c32.667 63.333 89.334 95 170.001 95c54 0 96.833 -16.833 128.5 -50.5s47.5 -84.167 47.5 -151.5v-333h-145v312c0 36 -7.33301 62.5 -22 79.5s-38 25.5 -70 25.5c-32.667 0 -59 -9.83301 -79 -29.5s-30 -48.167 -30 -85.5
v-302h-145v597h-63v83z" />
    <glyph glyph-name="Itilde" unicode="&#x128;" horiz-adv-x="325" 
d="M87 715h163v-715h-163v715zM231 764c-17.333 0 -39.3301 6.33203 -65.9971 18.999c-3.33301 1.33301 -8.83301 3.83301 -16.5 7.5s-13.834 6.33398 -18.501 8.00098s-9.33398 2.5 -14.001 2.5c-18.667 0 -30.334 -12.333 -35.001 -37h-86
c3.33301 44.667 15.5 79.167 36.5 103.5s46.833 36.5 77.5 36.5c15.333 0 37 -6.33301 65 -19c26.667 -12.667 43.667 -19 51 -19c18 0 29.333 12.333 34 37h87c-4 -44 -16.667 -78.167 -38 -102.5s-47 -36.5 -77 -36.5z" />
    <glyph glyph-name="itilde" unicode="&#x129;" horiz-adv-x="281" 
d="M74 523h144v-523h-144v523zM207 598c-18.667 0 -40.001 6.33398 -64.001 19.001l-26 13c-8 4 -15.667 6 -23 6c-8.66699 0 -16.167 -3.5 -22.5 -10.5s-10.5 -15.833 -12.5 -26.5h-83c3.33301 45.333 14.833 80.166 34.5 104.499s44.834 36.5 75.501 36.5
c14 0 35.333 -6 64 -18c26.667 -12.667 43.667 -19 51 -19c18.667 0 30 12.333 34 37h84c-4 -45.333 -16.333 -80.333 -37 -105s-45.667 -37 -75 -37z" />
    <glyph glyph-name="Imacron" unicode="&#x12a;" horiz-adv-x="325" 
d="M87 715h163v-715h-163v715zM17 868h302v-91h-302v91z" />
    <glyph glyph-name="imacron" unicode="&#x12b;" horiz-adv-x="281" 
d="M27 712h226v-87h-226v87zM68 523h144v-523h-144v523z" />
    <glyph glyph-name="Ibreve" unicode="&#x12c;" horiz-adv-x="325" 
d="M87 715h163v-715h-163v715zM169 757c-44 0 -79.832 13.333 -107.499 40s-42.834 62 -45.501 106h97c5.33301 -34.667 24 -52 56 -52s51.667 17.333 59 52h96c-3.33301 -44 -19 -79.333 -47 -106s-64 -40 -108 -40z" />
    <glyph glyph-name="ibreve" unicode="&#x12d;" horiz-adv-x="281" 
d="M74 523h144v-523h-144v523zM146 598c-44 0 -79.667 13.333 -107 40s-42.333 63 -45 109h95c4.66699 -36 23.667 -54 57 -54s53.666 18 60.999 54h93c-2.66699 -45.333 -18.167 -81.5 -46.5 -108.5s-64.166 -40.5 -107.499 -40.5z" />
    <glyph glyph-name="Iogonek" unicode="&#x12e;" horiz-adv-x="325" 
d="M170 -182c-36 0 -64.333 7.16797 -85 21.501s-31 34.166 -31 59.499c0 40 27.667 73.667 83 101h-56v715h163v-706c-42 -27.333 -63 -53.333 -63 -78c0 -20 11 -30 33 -30c16 0 28.667 2.33301 38 7v-75c-24 -10 -51.333 -15 -82 -15z" />
    <glyph glyph-name="iogonek" unicode="&#x12f;" horiz-adv-x="281" 
d="M142 -182c-34 0 -61.167 7.16797 -81.5 21.501s-30.5 34.166 -30.5 59.499c0 40 27.667 73.667 83 101h-45v523h144v-516c-40.667 -28.667 -61 -54.667 -61 -78c0 -20.667 11.333 -31 34 -31c14.667 0 27 2.33301 37 7v-72c-21.333 -10 -48 -15 -80 -15zM139 594.001
c-23.333 0 -42.833 7.5 -58.5 22.5s-23.5 33.833 -23.5 56.5s7.83301 41.5 23.5 56.5s35.167 22.5 58.5 22.5s43 -7.5 59 -22.5s24 -33.833 24 -56.5s-8 -41.5 -24 -56.5s-35.667 -22.5 -59 -22.5z" />
    <glyph glyph-name="Idotaccent" unicode="&#x130;" horiz-adv-x="325" 
d="M87 715h163v-715h-163v715zM169 768c-23.333 0 -42.666 7.33301 -57.999 22s-23 33 -23 55s7.66699 40.333 23 55s34.666 22 57.999 22c22.667 0 41.667 -7.5 57 -22.5s23 -33.167 23 -54.5s-7.66699 -39.5 -23 -54.5s-34.333 -22.5 -57 -22.5z" />
    <glyph glyph-name="dotlessi" unicode="&#x131;" horiz-adv-x="293" 
d="M74 523h144v-523h-144v523z" />
    <glyph glyph-name="IJ" unicode="&#x132;" horiz-adv-x="750" 
d="M87 715h163v-715h-163v715zM453 -9c-51.333 0 -91 7.33301 -119 22v124c30 -11.333 60 -17 90 -17c67.333 0 101 37.667 101 113v482h163v-484c0 -80 -20.333 -140 -61 -180s-98.667 -60 -174 -60z" />
    <glyph glyph-name="ij" unicode="&#x133;" horiz-adv-x="281" 
d="M145 594c-23.333 0 -42.833 7.5 -58.5 22.5s-23.5 33.833 -23.5 56.5s7.83301 41.5 23.5 56.5s35.167 22.5 58.5 22.5s43 -7.5 59 -22.5s24 -33.833 24 -56.5s-8 -41.5 -24 -56.5s-35.667 -22.5 -59 -22.5zM74 523h144v-523h-144v523zM285 -79
c24.667 2 42.333 8.5 53 19.5s16 27.5 16 49.5v533h144v-532c0 -56.667 -15 -99.667 -45 -129c-34 -32 -90 -48.333 -168 -49v108zM424.999 594c-23.333 0 -42.833 7.5 -58.5 22.5s-23.5 33.833 -23.5 56.5s7.83301 41.5 23.5 56.5s35.167 22.5 58.5 22.5s43 -7.5 59 -22.5
s24 -33.833 24 -56.5s-8 -41.5 -24 -56.5s-35.667 -22.5 -59 -22.5z" />
    <glyph glyph-name="Jcircumflex" unicode="&#x134;" horiz-adv-x="457" 
d="M160 -9c-51.333 0 -91 7.33301 -119 22v124c30 -11.333 60 -17 90 -17c67.333 0 101 37.667 101 113v482h163v-484c0 -80 -20.333 -140 -61 -180s-98.667 -60 -174 -60zM251 902h123l108 -139h-104l-68 53l-69 -53h-102z" />
    <glyph glyph-name="jcircumflex" unicode="&#x135;" horiz-adv-x="281" 
d="M-1 -79c24.667 2 42.333 8.5 53 19.5s16 27.5 16 49.5v533h144v-532c0 -58 -16 -101.833 -48 -131.5s-87 -45.167 -165 -46.5v108zM92.999 751h109l114 -156h-102l-69 63l-70 -63h-99z" />
    <glyph glyph-name="uni0136" unicode="&#x136;" horiz-adv-x="686" 
d="M83 715h162v-308l250 309h172l-283 -339l297 -377h-189l-247 321v-321h-162v715zM256 -201l47 170l130 -21l-95 -176z" />
    <glyph glyph-name="uni0137" unicode="&#x137;" horiz-adv-x="555" 
d="M70 760h145v-458l168 221h154l-190 -238l205 -285h-164l-173 247v-247h-145v760zM192 -201l47 170l130 -21l-95 -176z" />
    <glyph glyph-name="Lacute" unicode="&#x139;" horiz-adv-x="560" 
d="M83 715h162v-588h291v-127h-453v715zM158 902h157l-101 -139h-109z" />
    <glyph glyph-name="lacute" unicode="&#x13a;" horiz-adv-x="280" 
d="M74 760h144v-760h-144v760zM140 937h157l-101 -139h-109z" />
    <glyph glyph-name="uni013B" unicode="&#x13b;" horiz-adv-x="560" 
d="M83 715h162v-588h291v-127h-453v715zM204 -201l47 170l130 -21l-95 -176z" />
    <glyph glyph-name="uni013C" unicode="&#x13c;" horiz-adv-x="280" 
d="M74 760h144v-760h-144v760zM43 -201l47 170l130 -21l-95 -176z" />
    <glyph glyph-name="Lcaron" unicode="&#x13d;" horiz-adv-x="560" 
d="M344 715h128l-60 -169h-87zM77 715h162v-588h291v-127h-453v715z" />
    <glyph glyph-name="lcaron" unicode="&#x13e;" horiz-adv-x="280" 
d="M74 760h144v-760h-144v760zM269 760h119l-49 -174h-80z" />
    <glyph glyph-name="Ldot" unicode="&#x13f;" horiz-adv-x="577" 
d="M83 715h162v-588h291v-127h-453v715z" />
    <glyph glyph-name="ldot" unicode="&#x140;" horiz-adv-x="409" 
d="M74 760h144v-760h-144v760z" />
    <glyph glyph-name="Lslash" unicode="&#x141;" horiz-adv-x="591" 
d="M37 330l65 23v362h162v-305l187 67v-94l-187 -66v-190h291v-127h-453v260l-65 -23v93z" />
    <glyph glyph-name="lslash" unicode="&#x142;" horiz-adv-x="325" 
d="M24 378l66 33v349h144v-275l70 36v-99l-70 -36v-386h-144v312l-66 -33v99z" />
    <glyph glyph-name="Nacute" unicode="&#x143;" horiz-adv-x="758" 
d="M83 715h188l272 -471v471h144v-715h-162l-298 509v-509h-144v715zM391 902h157l-101 -139h-109z" />
    <glyph glyph-name="nacute" unicode="&#x144;" horiz-adv-x="615" 
d="M70 523h144.999v-83c32.667 63.333 89.334 95 170.001 95c52.667 0 95 -16 127 -48c32.667 -34.667 49 -86 49 -154v-333h-145v312c0 36 -7.33301 62.5 -22 79.5s-38 25.5 -70 25.5c-32.667 0 -59 -9.83301 -79 -29.5s-30 -48.167 -30 -85.5v-302h-145v523zM311.999 753
h152l-104 -159h-105z" />
    <glyph glyph-name="uni0145" unicode="&#x145;" horiz-adv-x="758" 
d="M83 715h188l272 -471v471h144v-715h-162l-298 509v-509h-144v715zM274 -201l47 170l130 -21l-95 -176z" />
    <glyph glyph-name="uni0146" unicode="&#x146;" horiz-adv-x="615" 
d="M70 523h144.999v-83c32.667 63.333 89.334 95 170.001 95c52.667 0 95 -16 127 -48c32.667 -34.667 49 -86 49 -154v-333h-145v312c0 36 -7.33301 62.5 -22 79.5s-38 25.5 -70 25.5c-32.667 0 -59 -9.83301 -79 -29.5s-30 -48.167 -30 -85.5v-302h-145v523zM208.999 -201
l47 170l130 -21l-95 -176z" />
    <glyph glyph-name="Ncaron" unicode="&#x147;" horiz-adv-x="758" 
d="M83 715h188l272 -471v471h144v-715h-162l-298 509v-509h-144v715zM228 902h104l69 -52l68 52h102l-112 -139h-123z" />
    <glyph glyph-name="ncaron" unicode="&#x148;" horiz-adv-x="615" 
d="M70 523h144.999v-83c32.667 63.333 89.334 95 170.001 95c52.667 0 95 -16 127 -48c32.667 -34.667 49 -86 49 -154v-333h-145v312c0 36 -7.33301 62.5 -22 79.5s-38 25.5 -70 25.5c-32.667 0 -59 -9.83301 -79 -29.5s-30 -48.167 -30 -85.5v-302h-145v523zM142.999 751
h102l69 -63l69 63h100l-117 -156h-109z" />
    <glyph glyph-name="napostrophe" unicode="&#x149;" horiz-adv-x="690" 
d="M145 523h144.999v-83c32.667 63.333 89.334 95 170.001 95c52.667 0 95 -16 127 -48c32.667 -34.667 49 -86 49 -154v-333h-145v312c0 36 -7.33301 62.5 -22 79.5s-38 25.5 -70 25.5c-32.667 0 -59 -9.83301 -79 -29.5s-30 -48.167 -30 -85.5v-302h-145v523z" />
    <glyph glyph-name="Eng" unicode="&#x14a;" horiz-adv-x="758" 
d="M456 -193c-46 0 -84.333 7.33301 -115 22v119c30 -11.333 58 -17 84 -17c56.667 0 88.334 26.333 95.001 79l-296 509v-519h-147v715h190l267 -469v469h147v-697c0 -67.333 -19.833 -119.333 -59.5 -156s-94.834 -55 -165.501 -55z" />
    <glyph glyph-name="eng" unicode="&#x14b;" horiz-adv-x="615" 
d="M342 -79c24.667 2 42.166 8.5 52.499 19.5s15.5 27.5 15.5 49.5v322c0 36 -7.33301 62.5 -22 79.5s-38 25.5 -70 25.5c-32.667 0 -59 -9.83301 -79 -29.5s-30 -48.167 -30 -85.5v-302h-145v523h145v-83c32.667 63.333 89.334 95 170.001 95
c54 0 96.833 -16.833 128.5 -50.5s47.5 -84.167 47.5 -151.5v-342c0 -58 -16 -101.833 -48 -131.5s-87 -45.167 -165 -46.5v108z" />
    <glyph glyph-name="Omacron" unicode="&#x14c;" horiz-adv-x="816" 
d="M416 118c59.333 0 107.334 21.667 144.001 65c35.333 42.667 53 100 53 172v8c0 69.333 -17.333 125.666 -52 168.999c-36.667 43.333 -85.667 65 -147 65c-60.667 0 -109.334 -21 -146.001 -63c-35.333 -41.333 -53 -98.666 -53 -171.999v-8c0 -72.667 19 -130 57 -172
c36.667 -42.667 84.667 -64 144 -64zM413.001 -11c-110.667 0 -199.667 34.666 -267 103.999c-66.667 66.667 -100 153.334 -100 260.001v8c0 108 35 195.333 105 262c69.333 68 157 102 263 102c108.667 0 197 -33 265 -99c68.667 -68.667 103 -155.667 103 -261v-8
c0 -107.333 -33.667 -195.333 -101 -264c-68 -69.333 -157.333 -104 -268 -104zM262.001 867.999h302v-91h-302v91z" />
    <glyph glyph-name="omacron" unicode="&#x14d;" horiz-adv-x="616" 
d="M314 99c40.667 0 72.167 14 94.5 42s33.5 67 33.5 117v7c0 50 -11.167 89.167 -33.5 117.5s-53.833 42.5 -94.5 42.5c-40 0 -71.333 -13.833 -94 -41.5s-34 -66.5 -34 -116.5v-8c0 -50.667 11 -90 33 -118s53.667 -42 95 -42zM313 -11c-80 0 -145.333 24.332 -196 72.999
c-52.667 48.667 -79 113.334 -79 194.001v8c0 80.667 26.333 146.334 79 197.001c51.333 49.333 117 74 197 74c80.667 0 146.334 -24.333 197.001 -73c52 -50.667 78 -115.667 78 -195v-8c0 -80.667 -26.333 -146.334 -79 -197.001
c-50.667 -48.667 -116.334 -73 -197.001 -73zM167 711.999h291v-87h-291v87z" />
    <glyph glyph-name="Obreve" unicode="&#x14e;" horiz-adv-x="816" 
d="M416 118c59.333 0 107.334 21.667 144.001 65c35.333 42.667 53 100 53 172v8c0 69.333 -17.333 125.666 -52 168.999c-36.667 43.333 -85.667 65 -147 65c-60.667 0 -109.334 -21 -146.001 -63c-35.333 -41.333 -53 -98.666 -53 -171.999v-8c0 -72.667 19 -130 57 -172
c36.667 -42.667 84.667 -64 144 -64zM413.001 -11c-110.667 0 -199.667 34.666 -267 103.999c-66.667 66.667 -100 153.334 -100 260.001v8c0 108 35 195.333 105 262c69.333 68 157 102 263 102c108.667 0 197 -33 265 -99c68.667 -68.667 103 -155.667 103 -261v-8
c0 -107.333 -33.667 -195.333 -101 -264c-68 -69.333 -157.333 -104 -268 -104zM412.001 756.999c-44 0 -79.832 13.333 -107.499 40s-42.834 62 -45.501 106h97c5.33301 -34.667 24 -52 56 -52s51.667 17.333 59 52h96c-3.33301 -44 -19 -79.333 -47 -106s-64 -40 -108 -40
z" />
    <glyph glyph-name="obreve" unicode="&#x14f;" horiz-adv-x="616" 
d="M314 99c40.667 0 72.167 14 94.5 42s33.5 67 33.5 117v7c0 50 -11.167 89.167 -33.5 117.5s-53.833 42.5 -94.5 42.5c-40 0 -71.333 -13.833 -94 -41.5s-34 -66.5 -34 -116.5v-8c0 -50.667 11 -90 33 -118s53.667 -42 95 -42zM313 -11c-80 0 -145.333 24.332 -196 72.999
c-52.667 48.667 -79 113.334 -79 194.001v8c0 80.667 26.333 146.334 79 197.001c51.333 49.333 117 74 197 74c80.667 0 146.334 -24.333 197.001 -73c52 -50.667 78 -115.667 78 -195v-8c0 -80.667 -26.333 -146.334 -79 -197.001
c-50.667 -48.667 -116.334 -73 -197.001 -73zM312 597.999c-44 0 -79.667 13.333 -107 40s-42.333 63 -45 109h95c4.66699 -36 23.667 -54 57 -54s53.666 18 60.999 54h93c-2.66699 -45.333 -18.167 -81.5 -46.5 -108.5s-64.166 -40.5 -107.499 -40.5z" />
    <glyph glyph-name="Ohungarumlaut" unicode="&#x150;" horiz-adv-x="816" 
d="M416 118c59.333 0 107.334 21.667 144.001 65c35.333 42.667 53 100 53 172v8c0 69.333 -17.333 125.666 -52 168.999c-36.667 43.333 -85.667 65 -147 65c-60.667 0 -109.334 -21 -146.001 -63c-35.333 -41.333 -53 -98.666 -53 -171.999v-8c0 -72.667 19 -130 57 -172
c36.667 -42.667 84.667 -64 144 -64zM413.001 -11c-110.667 0 -199.667 34.666 -267 103.999c-66.667 66.667 -100 153.334 -100 260.001v8c0 108 35 195.333 105 262c69.333 68 157 102 263 102c108.667 0 197 -33 265 -99c68.667 -68.667 103 -155.667 103 -261v-8
c0 -107.333 -33.667 -195.333 -101 -264c-68 -69.333 -157.333 -104 -268 -104zM304.001 901.999h132l-73 -139h-98zM484.001 901.999h132l-74 -139h-97z" />
    <glyph glyph-name="ohungarumlaut" unicode="&#x151;" horiz-adv-x="616" 
d="M314 99c40.667 0 72.167 14 94.5 42s33.5 67 33.5 117v7c0 50 -11.167 89.167 -33.5 117.5s-53.833 42.5 -94.5 42.5c-40 0 -71.333 -13.833 -94 -41.5s-34 -66.5 -34 -116.5v-8c0 -50.667 11 -90 33 -118s53.667 -42 95 -42zM313 -11c-80 0 -145.333 24.332 -196 72.999
c-52.667 48.667 -79 113.334 -79 194.001v8c0 80.667 26.333 146.334 79 197.001c51.333 49.333 117 74 197 74c80.667 0 146.334 -24.333 197.001 -73c52 -50.667 78 -115.667 78 -195v-8c0 -80.667 -26.333 -146.334 -79 -197.001
c-50.667 -48.667 -116.334 -73 -197.001 -73zM217 752.999h123l-76 -159h-89zM385 752.999h124l-76 -159h-90z" />
    <glyph glyph-name="OE" unicode="&#x152;" horiz-adv-x="982" 
d="M46 358c0 110 31.332 196.333 93.999 259c65.333 65.333 159 98 281 98h503v-126h-289v-167h228v-118h-228v-178h306v-126h-521c-123.333 0 -216.666 31.667 -279.999 95c-62.667 60 -94 145 -94 255v8zM425.999 589c-140.667 0 -211 -76.333 -211 -229v-8
c0 -75.333 17 -131.833 51 -169.5s88 -56.5 162 -56.5h46v463h-48z" />
    <glyph glyph-name="oe" unicode="&#x153;" horiz-adv-x="1001" 
d="M313 -11c-80 0 -145.333 24.332 -196 72.999c-52.667 48.667 -79 113.334 -79 194.001v8c0 80.667 26.333 146.334 79 197.001c51.333 49.333 117 74 197 74c87.333 0 154 -30.667 200 -92c46 61.333 111 92 195 92c72.667 0 132 -21 178 -63
c51.333 -46.667 77 -114.334 77 -203.001v-40h-378c2.66699 -44 15.167 -77.833 37.5 -101.5s53.5 -35.5 93.5 -35.5c63.333 0 99.333 24.333 108 73h137c-8 -56.667 -33.5 -100.167 -76.5 -130.5s-100.5 -45.5 -172.5 -45.5c-89.333 0 -156.333 30 -201 90
c-46 -60 -112.333 -90 -199 -90zM314 98.999c40.667 0 72.167 14 94.5 42s33.5 67 33.5 117v7c0 50 -11.167 89.167 -33.5 117.5s-53.833 42.5 -94.5 42.5c-40 0 -71.333 -13.833 -94 -41.5s-34 -66.5 -34 -116.5v-8c0 -50.667 11 -90 33 -118s53.667 -42 95 -42z
M822 317.999c-4.66699 78 -42.333 116.999 -113 116.999c-32.667 0 -59.5 -10.167 -80.5 -30.5s-34.167 -49.166 -39.5 -86.499h233z" />
    <glyph glyph-name="Racute" unicode="&#x154;" horiz-adv-x="672" 
d="M83 715h256c86.667 0 153.667 -17.667 201 -53c50 -37.333 75 -92 75 -164v-4c0 -52 -14 -94 -42 -126c-26 -30 -61 -51.333 -105 -64l189 -304h-172l-171 276h-70v-276h-161v715zM335 386c81.333 0 122 34.333 122 103v4c0 35.333 -10 60.5 -30 75.5
s-50.667 22.5 -92 22.5h-91v-205h91zM324 902h157l-101 -139h-109z" />
    <glyph glyph-name="racute" unicode="&#x155;" horiz-adv-x="409" 
d="M70 523l145.001 0.000976562v-100c33.333 71.333 89.666 107.333 168.999 108v-135c-56 0.666992 -98.167 -9.33301 -126.5 -30s-42.5 -55.334 -42.5 -104.001v-262h-145v523zM228.001 753.001h152l-104 -159h-105z" />
    <glyph glyph-name="uni0156" unicode="&#x156;" horiz-adv-x="672" 
d="M83 715h256c86.667 0 153.667 -17.667 201 -53c50 -37.333 75 -92 75 -164v-4c0 -52 -14 -94 -42 -126c-26 -30 -61 -51.333 -105 -64l189 -304h-172l-171 276h-70v-276h-161v715zM335 386c81.333 0 122 34.333 122 103v4c0 35.333 -10 60.5 -30 75.5
s-50.667 22.5 -92 22.5h-91v-205h91zM248 -201l47 170l130 -21l-95 -176z" />
    <glyph glyph-name="uni0157" unicode="&#x157;" horiz-adv-x="409" 
d="M70 523l145.001 0.000976562v-100c33.333 71.333 89.666 107.333 168.999 108v-135c-56 0.666992 -98.167 -9.33301 -126.5 -30s-42.5 -55.334 -42.5 -104.001v-262h-145v523zM40.001 -200.999l47 170l130 -21l-95 -176z" />
    <glyph glyph-name="Rcaron" unicode="&#x158;" horiz-adv-x="672" 
d="M83 715h256c86.667 0 153.667 -17.667 201 -53c50 -37.333 75 -92 75 -164v-4c0 -52 -14 -94 -42 -126c-26 -30 -61 -51.333 -105 -64l189 -304h-172l-171 276h-70v-276h-161v715zM335 386c81.333 0 122 34.333 122 103v4c0 35.333 -10 60.5 -30 75.5
s-50.667 22.5 -92 22.5h-91v-205h91zM161 902h104l69 -52l68 52h102l-112 -139h-123z" />
    <glyph glyph-name="rcaron" unicode="&#x159;" horiz-adv-x="409" 
d="M70 523l145.001 0.000976562v-100c33.333 71.333 89.666 107.333 168.999 108v-135c-56 0.666992 -98.167 -9.33301 -126.5 -30s-42.5 -55.334 -42.5 -104.001v-262h-145v523zM59.001 751.001h102l69 -63l69 63h100l-117 -156h-109z" />
    <glyph glyph-name="Sacute" unicode="&#x15a;" horiz-adv-x="640" 
d="M333 -11c-95.333 0 -167.997 21.333 -217.997 64c-47.333 40.667 -73 97.667 -77 171h155c4.66699 -38 15.667 -65.333 33 -82c23.333 -23.333 59 -35 107 -35c36 0 64.667 8.83301 86 26.5s32 40.5 32 68.5c0 27.333 -9.33301 48 -28 62
c-20.667 12.667 -56.334 23 -107.001 31c-94 12 -159.667 34 -197 66c-40.667 31.333 -61 81.666 -61 150.999c0 60.667 23.667 111.667 71 153c48.667 40 111.667 60 189 60c81.333 0 144.666 -18 189.999 -54s71.333 -89.333 78 -160h-149
c-8.66699 63.333 -48.334 95 -119.001 95c-34.667 0 -61.167 -7.33301 -79.5 -22s-27.5 -34.334 -27.5 -59.001c0 -27.333 8.66699 -46.666 26 -57.999c18 -14 53.667 -25 107 -33c90.667 -11.333 156 -31.666 196 -60.999c44 -33.333 66 -85.333 66 -156
c0 -66 -24.333 -119.667 -73 -161c-51.333 -44.667 -118 -67 -200 -67zM311.003 902h157l-101 -139h-109z" />
    <glyph glyph-name="sacute" unicode="&#x15b;" horiz-adv-x="502" 
d="M260 -11c-70.667 0 -125.668 15.001 -165.001 45.001s-60.333 73.333 -63 130h135c4 -25.333 12.667 -44 26 -56s35.333 -18 66 -18c54.667 0 82 19 82 57c0 18 -8 31.5 -24 40.5s-43.333 16.167 -82 21.5c-70.667 11.333 -120 28.333 -148 51
c-30 23.333 -45 60.666 -45 111.999s21.333 92.333 64 123c36.667 26.667 84.334 40 143.001 40c60.667 0 109.667 -12 147 -36c39.333 -26.667 62.333 -68.667 69 -126h-133c-4 22 -12.333 38 -25 48s-31.667 15 -57 15c-23.333 0 -41.5 -5 -54.5 -15s-19.5 -23 -19.5 -39
c0 -16.667 7.16699 -29 21.5 -37s40.833 -14.667 79.5 -20c68.667 -9.33301 119 -25 151 -47c34.667 -26 52 -65 52 -117c0 -56 -19.167 -98.667 -57.5 -128s-92.5 -44 -162.5 -44zM253.999 753.001h152l-104 -159h-105z" />
    <glyph glyph-name="Scircumflex" unicode="&#x15c;" horiz-adv-x="640" 
d="M333 -11c-95.333 0 -167.997 21.333 -217.997 64c-47.333 40.667 -73 97.667 -77 171h155c4.66699 -38 15.667 -65.333 33 -82c23.333 -23.333 59 -35 107 -35c36 0 64.667 8.83301 86 26.5s32 40.5 32 68.5c0 27.333 -9.33301 48 -28 62
c-20.667 12.667 -56.334 23 -107.001 31c-94 12 -159.667 34 -197 66c-40.667 31.333 -61 81.666 -61 150.999c0 60.667 23.667 111.667 71 153c48.667 40 111.667 60 189 60c81.333 0 144.666 -18 189.999 -54s71.333 -89.333 78 -160h-149
c-8.66699 63.333 -48.334 95 -119.001 95c-34.667 0 -61.167 -7.33301 -79.5 -22s-27.5 -34.334 -27.5 -59.001c0 -27.333 8.66699 -46.666 26 -57.999c18 -14 53.667 -25 107 -33c90.667 -11.333 156 -31.666 196 -60.999c44 -33.333 66 -85.333 66 -156
c0 -66 -24.333 -119.667 -73 -161c-51.333 -44.667 -118 -67 -200 -67zM260.003 902h123l108 -139h-104l-68 53l-69 -53h-102z" />
    <glyph glyph-name="scircumflex" unicode="&#x15d;" horiz-adv-x="502" 
d="M260 -11c-70.667 0 -125.668 15.001 -165.001 45.001s-60.333 73.333 -63 130h135c4 -25.333 12.667 -44 26 -56s35.333 -18 66 -18c54.667 0 82 19 82 57c0 18 -8 31.5 -24 40.5s-43.333 16.167 -82 21.5c-70.667 11.333 -120 28.333 -148 51
c-30 23.333 -45 60.666 -45 111.999s21.333 92.333 64 123c36.667 26.667 84.334 40 143.001 40c60.667 0 109.667 -12 147 -36c39.333 -26.667 62.333 -68.667 69 -126h-133c-4 22 -12.333 38 -25 48s-31.667 15 -57 15c-23.333 0 -41.5 -5 -54.5 -15s-19.5 -23 -19.5 -39
c0 -16.667 7.16699 -29 21.5 -37s40.833 -14.667 79.5 -20c68.667 -9.33301 119 -25 151 -47c34.667 -26 52 -65 52 -117c0 -56 -19.167 -98.667 -57.5 -128s-92.5 -44 -162.5 -44zM200.999 751.001h109l114 -156h-102l-69 63l-70 -63h-99z" />
    <glyph glyph-name="uni015E" unicode="&#x15e;" horiz-adv-x="640" 
d="M299 -222c-34 0 -61.168 7.99902 -81.501 23.999s-32.166 38 -35.499 66h74c4 -20.667 16.667 -31 38 -31c23.333 0 35 11 35 33c0 20.667 -11.333 31 -34 31c-11.333 0 -21.666 -3.33301 -30.999 -10l-36 35l40 66c-75.333 8 -132.5 32.167 -171.5 72.5
s-60.5 93.5 -64.5 159.5h155c4.66699 -37.333 17 -66.166 37 -86.499s54.333 -30.5 103 -30.5c36 0 64.667 8.83301 86 26.5s32 40.5 32 68.5s-9.5 48.5 -28.5 61.5s-54.5 23.5 -106.5 31.5c-93.333 12 -159.666 34.167 -198.999 66.5s-59 82.5 -59 150.5
c0 62 23.833 113 71.5 153s110.5 60 188.5 60c81.333 0 144.666 -18 189.999 -54s71.333 -89.333 78 -160h-149c-10 63.333 -49.667 95 -119 95c-34.667 0 -61.167 -7.33301 -79.5 -22s-27.5 -34.334 -27.5 -59.001c0 -26.667 9 -46.5 27 -59.5s53.333 -23.5 106 -31.5
c91.333 -11.333 157.833 -32.666 199.5 -63.999s62.5 -82.333 62.5 -153c0 -64.667 -24.333 -118.5 -73 -161.5s-114 -65.167 -196 -66.5l-22 -37c28 2.66699 52.333 -3.16602 73 -17.499s31 -36.5 31 -66.5c0 -28.667 -10.333 -50.834 -31 -66.501
s-48.334 -23.5 -83.001 -23.5z" />
    <glyph glyph-name="uni015F" unicode="&#x15f;" horiz-adv-x="502" 
d="M235 -222c-34 0 -61.167 8 -81.5 24s-32.166 38 -35.499 66h74c4 -20.667 16.667 -31 38 -31c23.333 0 35 11 35 33c0 20.667 -11.333 31 -34 31c-11.333 0 -21.666 -3.33301 -30.999 -10l-36 35l40 66c-56 6.66699 -99.167 24.5 -129.5 53.5s-46.5 68.5 -48.5 118.5h135
c4 -25.333 12.667 -44 26 -56s35.333 -18 66 -18c54.667 0 82 19 82 57c0 18 -8 31.5 -24 40.5s-43.333 16.167 -82 21.5c-70.667 10.667 -120.5 28 -149.5 52s-43.5 61 -43.5 111c0 52 20.167 92.167 60.5 120.5s89.166 42.5 146.499 42.5c132 0 204 -54 216 -162h-133
c-4 22 -12.333 38 -25 48s-31.667 15 -57 15c-23.333 0 -41.5 -5 -54.5 -15s-19.5 -23 -19.5 -39c0 -16.667 7.16699 -29 21.5 -37s40.833 -14.667 79.5 -20c70.667 -10 122.167 -26.667 154.5 -50s48.5 -61.333 48.5 -114c0 -54 -18 -95.667 -54 -125s-87 -45 -153 -47
l-22 -37c28 2.66699 52.333 -3.16602 73 -17.499s31 -36.5 31 -66.5c0 -28.667 -10.333 -50.834 -31 -66.501s-48.334 -23.5 -83.001 -23.5z" />
    <glyph glyph-name="Scaron" unicode="&#x160;" horiz-adv-x="652" 
d="M333 -11c-95.333 0 -167.997 21.333 -217.997 64c-47.333 40.667 -73 97.667 -77 171h155c4.66699 -38 15.667 -65.333 33 -82c23.333 -23.333 59 -35 107 -35c36 0 64.667 8.83301 86 26.5s32 40.5 32 68.5c0 27.333 -9.33301 48 -28 62
c-20.667 12.667 -56.334 23 -107.001 31c-94 12 -159.667 34 -197 66c-40.667 31.333 -61 81.666 -61 150.999c0 60.667 23.667 111.667 71 153c48.667 40 111.667 60 189 60c81.333 0 144.666 -18 189.999 -54s71.333 -89.333 78 -160h-149
c-8.66699 63.333 -48.334 95 -119.001 95c-34.667 0 -61.167 -7.33301 -79.5 -22s-27.5 -34.334 -27.5 -59.001c0 -27.333 8.66699 -46.666 26 -57.999c18 -14 53.667 -25 107 -33c90.667 -11.333 156 -31.666 196 -60.999c44 -33.333 66 -85.333 66 -156
c0 -66 -24.333 -119.667 -73 -161c-51.333 -44.667 -118 -67 -200 -67zM148.003 902h104l69 -52l68 52h102l-112 -139h-123z" />
    <glyph glyph-name="scaron" unicode="&#x161;" horiz-adv-x="514" 
d="M260 -11c-70.667 0 -125.668 15.001 -165.001 45.001s-60.333 73.333 -63 130h135c4 -25.333 12.667 -44 26 -56s35.333 -18 66 -18c54.667 0 82 19 82 57c0 18 -8 31.5 -24 40.5s-43.333 16.167 -82 21.5c-70.667 11.333 -120 28.333 -148 51
c-30 23.333 -45 60.666 -45 111.999s21.333 92.333 64 123c36.667 26.667 84.334 40 143.001 40c60.667 0 109.667 -12 147 -36c39.333 -26.667 62.333 -68.667 69 -126h-133c-4 22 -12.333 38 -25 48s-31.667 15 -57 15c-23.333 0 -41.5 -5 -54.5 -15s-19.5 -23 -19.5 -39
c0 -16.667 7.16699 -29 21.5 -37s40.833 -14.667 79.5 -20c68.667 -9.33301 119 -25 151 -47c34.667 -26 52 -65 52 -117c0 -56 -19.167 -98.667 -57.5 -128s-92.5 -44 -162.5 -44zM81.999 751.001h102l69 -63l69 63h100l-117 -156h-109z" />
    <glyph glyph-name="Tcommaaccent" unicode="&#x162;" horiz-adv-x="598" 
d="M223 589h-193v126h549v-126h-193v-589h-163v589zM200 -201l47 170l130 -21l-95 -176z" />
    <glyph glyph-name="tcommaaccent" unicode="&#x163;" horiz-adv-x="377" 
d="M261 -10c-112.667 0 -168.999 55 -168.999 165v265h-67v103h67v113h144v-113h110v-103h-110v-252c0 -41.333 19.333 -62 58 -62c21.333 0 39.666 3.33301 54.999 10v-112c-26.667 -9.33301 -56 -14 -88 -14zM105.001 -201l47 170l130 -21l-95 -176z" />
    <glyph glyph-name="Tcaron" unicode="&#x164;" horiz-adv-x="597" 
d="M223 589h-193v126h549v-126h-193v-589h-163v589zM132 902h104l69 -52l68 52h102l-112 -139h-123z" />
    <glyph glyph-name="tcaron" unicode="&#x165;" horiz-adv-x="377" 
d="M261 -10c-112.667 0 -168.999 55 -168.999 165v265h-67v103h67v113h144v-113h110v-103h-110v-252c0 -41.333 19.333 -62 58 -62c21.333 0 39.666 3.33301 54.999 10v-112c-26.667 -9.33301 -56 -14 -88 -14zM301.001 760h119l-49 -174h-80z" />
    <glyph glyph-name="Tbar" unicode="&#x166;" horiz-adv-x="597" 
d="M84 406h133v183h-193v126h549v-126h-193v-183h133v-106h-133v-300h-163v300h-133v106z" />
    <glyph glyph-name="tbar" unicode="&#x167;" horiz-adv-x="377" 
d="M19 335h67.001v85h-67v103h67v113h144v-113h110v-103h-110v-85h110v-85h-110v-82c0 -41.333 19.333 -62 58 -62c20.667 0 39 3 55 9v-112c-26 -8.66699 -55.667 -13 -89 -13c-54.667 0 -96.334 14 -125.001 42s-43 69 -43 123v95h-67v85z" />
    <glyph glyph-name="Utilde" unicode="&#x168;" horiz-adv-x="739" 
d="M372 -11c-95.333 0 -168.334 24.667 -219.001 74s-76 121.333 -76 216v436h163v-426c0 -60.667 10 -104.334 30 -131.001s54.333 -40 103 -40s83.834 13.333 105.501 40s32.5 72.334 32.5 137.001v420h163v-430c0 -97.333 -25.833 -171 -77.5 -221s-126.5 -75 -224.5 -75
zM434.999 764c-17.333 0 -39.3301 6.33203 -65.9971 18.999c-3.33301 1.33301 -8.83301 3.83301 -16.5 7.5s-13.834 6.33398 -18.501 8.00098s-9.33398 2.5 -14.001 2.5c-18.667 0 -30.334 -12.333 -35.001 -37h-86c3.33301 44.667 15.5 79.167 36.5 103.5
s46.833 36.5 77.5 36.5c15.333 0 37 -6.33301 65 -19c26.667 -12.667 43.667 -19 51 -19c18 0 29.333 12.333 34 37h87c-4 -44 -16.667 -78.167 -38 -102.5s-47 -36.5 -77 -36.5z" />
    <glyph glyph-name="utilde" unicode="&#x169;" 
d="M244 -11c-53.333 0 -95.668 15.667 -127.001 47c-34 34 -51 84 -51 150v337h144v-317c0 -70 30.333 -105 91 -105c32 0 58.167 9.83301 78.5 29.5s30.5 48.167 30.5 85.5v307h144v-523h-144v82c-31.333 -62 -86.666 -93 -165.999 -93zM370.998 598
c-18.667 0 -40.001 6.33398 -64.001 19.001l-26 13c-8 4 -15.667 6 -23 6c-8.66699 0 -16.167 -3.5 -22.5 -10.5s-10.5 -15.833 -12.5 -26.5h-83c3.33301 45.333 14.833 80.166 34.5 104.499s44.834 36.5 75.501 36.5c14 0 35.333 -6 64 -18
c26.667 -12.667 43.667 -19 51 -19c18.667 0 30 12.333 34 37h84c-4 -45.333 -16.333 -80.333 -37 -105s-45.667 -37 -75 -37z" />
    <glyph glyph-name="Umacron" unicode="&#x16a;" horiz-adv-x="739" 
d="M372 -11c-95.333 0 -168.334 24.667 -219.001 74s-76 121.333 -76 216v436h163v-426c0 -60.667 10 -104.334 30 -131.001s54.333 -40 103 -40s83.834 13.333 105.501 40s32.5 72.334 32.5 137.001v420h163v-430c0 -97.333 -25.833 -171 -77.5 -221s-126.5 -75 -224.5 -75
zM222.999 868h302v-91h-302v91z" />
    <glyph glyph-name="umacron" unicode="&#x16b;" 
d="M244 -11c-53.333 0 -95.668 15.667 -127.001 47c-34 34 -51 84 -51 150v337h144v-317c0 -70 30.333 -105 91 -105c32 0 58.167 9.83301 78.5 29.5s30.5 48.167 30.5 85.5v307h144v-523h-144v82c-31.333 -62 -86.666 -93 -165.999 -93zM164.998 712h291v-87h-291v87z" />
    <glyph glyph-name="Ubreve" unicode="&#x16c;" horiz-adv-x="739" 
d="M372 -11c-95.333 0 -168.334 24.667 -219.001 74s-76 121.333 -76 216v436h163v-426c0 -60.667 10 -104.334 30 -131.001s54.333 -40 103 -40s83.834 13.333 105.501 40s32.5 72.334 32.5 137.001v420h163v-430c0 -97.333 -25.833 -171 -77.5 -221s-126.5 -75 -224.5 -75
zM372.999 757c-44 0 -79.832 13.333 -107.499 40s-42.834 62 -45.501 106h97c5.33301 -34.667 24 -52 56 -52s51.667 17.333 59 52h96c-3.33301 -44 -19 -79.333 -47 -106s-64 -40 -108 -40z" />
    <glyph glyph-name="ubreve" unicode="&#x16d;" 
d="M244 -11c-53.333 0 -95.668 15.667 -127.001 47c-34 34 -51 84 -51 150v337h144v-317c0 -70 30.333 -105 91 -105c32 0 58.167 9.83301 78.5 29.5s30.5 48.167 30.5 85.5v307h144v-523h-144v82c-31.333 -62 -86.666 -93 -165.999 -93zM309.998 598
c-44 0 -79.667 13.333 -107 40s-42.333 63 -45 109h95c4.66699 -36 23.667 -54 57 -54s53.666 18 60.999 54h93c-2.66699 -45.333 -18.167 -81.5 -46.5 -108.5s-64.166 -40.5 -107.499 -40.5z" />
    <glyph glyph-name="Uring" unicode="&#x16e;" horiz-adv-x="739" 
d="M372 -11c-95.333 0 -168.334 24.667 -219.001 74s-76 121.333 -76 216v436h163v-426c0 -60.667 10 -104.334 30 -131.001s54.333 -40 103 -40s83.834 13.333 105.501 40s32.5 72.334 32.5 137.001v420h163v-430c0 -97.333 -25.833 -171 -77.5 -221s-126.5 -75 -224.5 -75
zM373.999 788c14 0 25.667 5 35 15s14 22.667 14 38s-4.66699 28.166 -14 38.499s-21 15.5 -35 15.5c-14.667 0 -26.5 -5.16699 -35.5 -15.5s-13.5 -23.166 -13.5 -38.499s4.5 -28 13.5 -38s20.833 -15 35.5 -15zM373.999 730c-30.667 0 -57.667 11 -81 33
c-22.667 21.333 -34 47.333 -34 78c0 31.333 11.333 57.666 34 78.999c23.333 22 50.333 33 81 33s57.667 -11 81 -33c22.667 -21.333 34 -47.666 34 -78.999c0 -30.667 -11.333 -56.667 -34 -78c-23.333 -22 -50.333 -33 -81 -33z" />
    <glyph glyph-name="uring" unicode="&#x16f;" 
d="M244 -11c-53.333 0 -95.668 15.667 -127.001 47c-34 34 -51 84 -51 150v337h144v-317c0 -70 30.333 -105 91 -105c32 0 58.167 9.83301 78.5 29.5s30.5 48.167 30.5 85.5v307h144v-523h-144v82c-31.333 -62 -86.666 -93 -165.999 -93zM309.998 618c14 0 25.667 5 35 15
s14 22.667 14 38s-4.66699 28.166 -14 38.499s-21 15.5 -35 15.5c-14.667 0 -26.5 -5.16699 -35.5 -15.5s-13.5 -23.166 -13.5 -38.499s4.5 -28 13.5 -38s20.833 -15 35.5 -15zM309.998 560c-30.667 0 -57.667 11 -81 33c-22.667 21.333 -34 47.333 -34 78
c0 31.333 11.333 57.666 34 78.999c23.333 22 50.333 33 81 33s57.667 -11 81 -33c22.667 -21.333 34 -47.666 34 -78.999c0 -30.667 -11.333 -56.667 -34 -78c-23.333 -22 -50.333 -33 -81 -33z" />
    <glyph glyph-name="Uhungarumlaut" unicode="&#x170;" horiz-adv-x="739" 
d="M372 -11c-95.333 0 -168.334 24.667 -219.001 74s-76 121.333 -76 216v436h163v-426c0 -60.667 10 -104.334 30 -131.001s54.333 -40 103 -40s83.834 13.333 105.501 40s32.5 72.334 32.5 137.001v420h163v-430c0 -97.333 -25.833 -171 -77.5 -221s-126.5 -75 -224.5 -75
zM264.999 902h132l-73 -139h-98zM444.999 902h132l-74 -139h-97z" />
    <glyph glyph-name="uhungarumlaut" unicode="&#x171;" 
d="M244 -11c-53.333 0 -95.668 15.667 -127.001 47c-34 34 -51 84 -51 150v337h144v-317c0 -70 30.333 -105 91 -105c32 0 58.167 9.83301 78.5 29.5s30.5 48.167 30.5 85.5v307h144v-523h-144v82c-31.333 -62 -86.666 -93 -165.999 -93zM214.998 753h123l-76 -159h-89z
M382.998 753h124l-76 -159h-90z" />
    <glyph glyph-name="Uogonek" unicode="&#x172;" horiz-adv-x="739" 
d="M407 -182c-34.667 0 -62.334 7.00098 -83.001 21.001s-31 33.667 -31 59c0 35.333 21 65.666 63 90.999c-92 1.33301 -162.5 26.666 -211.5 75.999s-73.5 120.666 -73.5 213.999v436h163v-426c0 -60.667 10 -104.334 30 -131.001s54.333 -40 103 -40
s83.834 13.333 105.501 40s32.5 72.334 32.5 137.001v420h163v-430c0 -132.667 -49 -221.667 -147 -267c-3.33301 -2 -9.33301 -5 -18 -9s-14.667 -6.83301 -18 -8.5l-15 -7.5c-6.66699 -3.33301 -11.5 -6.16602 -14.5 -8.49902s-7 -5.16602 -12 -8.49902
s-8.5 -6.5 -10.5 -9.5l-7 -10c-2.66699 -3.66699 -4.5 -7.66699 -5.5 -12s-1.5 -8.83301 -1.5 -13.5c0 -20 11 -30 33 -30c16 0 28.667 2.33301 38 7v-75c-21.333 -10 -49 -15 -83 -15z" />
    <glyph glyph-name="uogonek" unicode="&#x173;" 
d="M476 -182c-34 0 -61.168 7.16797 -81.501 21.501s-30.5 34.166 -30.5 59.499c0 40 27.667 73.667 83 101h-43v82c-31.333 -62 -86.666 -93 -165.999 -93c-53.333 0 -96.333 16.5 -129 49.5s-49 82.167 -49 147.5v337h144v-317c0 -70 30.333 -105 91 -105
c32 0 58.167 9.83301 78.5 29.5s30.5 48.167 30.5 85.5v307h144v-514c-42 -30 -63 -56.667 -63 -80c0 -20.667 11.333 -31 34 -31c14.667 0 27 2.33301 37 7v-72c-21.333 -10 -48 -15 -80 -15z" />
    <glyph glyph-name="Wcircumflex" unicode="&#x174;" horiz-adv-x="971" 
d="M27 715h164l112 -494l122 494h138l127 -497l116 497h150l-174 -715h-165l-129 494l-131 -494h-156zM432 902h123l108 -139h-104l-68 53l-69 -53h-102z" />
    <glyph glyph-name="wcircumflex" unicode="&#x175;" horiz-adv-x="826" 
d="M22 523h152l93 -352l101 352h119l92 -352l99 352h139l-165 -523h-142l-89 328l-96 -328h-144zM365 751h109l114 -156h-102l-69 63l-70 -63h-99z" />
    <glyph glyph-name="Ycircumflex" unicode="&#x176;" horiz-adv-x="648" 
d="M255 308l-236 407h178l145 -274l142 274h157l-223 -407v-308h-163v308zM274 902h123l108 -139h-104l-68 53l-69 -53h-102z" />
    <glyph glyph-name="ycircumflex" unicode="&#x177;" horiz-adv-x="567" 
d="M228 53l-208 470h156l127 -314l117 314h139l-283 -701h-140zM241 751h109l114 -156h-102l-69 63l-70 -63h-99z" />
    <glyph glyph-name="Ydieresis" unicode="&#x178;" horiz-adv-x="660" 
d="M255 308l-236 407h178l145 -274l142 274h157l-223 -407v-308h-163v308zM226 769c-20.667 0 -38.167 7.16699 -52.5 21.5s-21.5 31.5 -21.5 51.5s7.16699 37 21.5 51s31.833 21 52.5 21c20 0 37.333 -7 52 -21s22 -31 22 -51s-7.33301 -37.167 -22 -51.5
s-32 -21.5 -52 -21.5zM441 769c-20 0 -37.167 7.16699 -51.5 21.5s-21.5 31.5 -21.5 51.5s7.16699 37 21.5 51s31.5 21 51.5 21c20.667 0 38.167 -7 52.5 -21s21.5 -31 21.5 -51s-7.16699 -37.167 -21.5 -51.5s-31.833 -21.5 -52.5 -21.5z" />
    <glyph glyph-name="Zacute" unicode="&#x179;" horiz-adv-x="615" 
d="M24 20l341 569h-303v126h532v-19l-334 -569h322v-127h-558v20zM308 902h157l-101 -139h-109z" />
    <glyph glyph-name="zacute" unicode="&#x17a;" horiz-adv-x="499" 
d="M20 16l258 395h-232v112h442v-18l-260 -393h250v-112h-458v16zM260 753h152l-104 -159h-105z" />
    <glyph glyph-name="Zdotaccent" unicode="&#x17b;" horiz-adv-x="615" 
d="M24 20l341 569h-303v126h532v-19l-334 -569h322v-127h-558v20zM318 768c-23.333 0 -42.666 7.33301 -57.999 22s-23 33 -23 55s7.66699 40.333 23 55s34.666 22 57.999 22c22.667 0 41.667 -7.5 57 -22.5s23 -33.167 23 -54.5s-7.66699 -39.5 -23 -54.5
s-34.333 -22.5 -57 -22.5z" />
    <glyph glyph-name="zdotaccent" unicode="&#x17c;" horiz-adv-x="499" 
d="M20 16l258 395h-232v112h442v-18l-260 -393h250v-112h-458v16zM262 598c-23.333 0 -42.666 7.33301 -57.999 22s-23 33 -23 55s7.66699 40.333 23 55s34.666 22 57.999 22c22.667 0 41.667 -7.5 57 -22.5s23 -33.167 23 -54.5s-7.66699 -39.5 -23 -54.5
s-34.333 -22.5 -57 -22.5z" />
    <glyph glyph-name="Zcaron" unicode="&#x17d;" horiz-adv-x="627" 
d="M24 20l341 569h-303v126h532v-19l-334 -569h322v-127h-558v20zM145 902h104l69 -52l68 52h102l-112 -139h-123z" />
    <glyph glyph-name="zcaron" unicode="&#x17e;" horiz-adv-x="511" 
d="M20 16l258 395h-232v112h442v-18l-260 -393h250v-112h-458v16zM91 751h102l69 -63l69 63h100l-117 -156h-109z" />
    <glyph glyph-name="uni0192" unicode="&#x192;" horiz-adv-x="429" 
d="M25 414h93l20 134c16 117.333 83 176 201 176c28.667 0 53.667 -3.66699 75 -11v-110c-18 6 -37 9 -57 9c-44 0 -69.667 -25 -77 -75l-18 -123h120v-102h-135l-72 -494h-144l72 494h-78v102z" />
    <glyph glyph-name="Aringacute" unicode="&#x1fa;" horiz-adv-x="720" 
d="M262 715h211l232 -715h-169l-49 159h-259l-49 -159h-152zM263 274h189l-94 309zM370 803c14 0 25.667 5 35 15s14 22.667 14 38s-4.66699 28.166 -14 38.499s-21 15.5 -35 15.5c-14.667 0 -26.5 -5.16699 -35.5 -15.5s-13.5 -23.166 -13.5 -38.499s4.5 -28 13.5 -38
s20.833 -15 35.5 -15zM370 745c-30.667 0 -57.667 11 -81 33c-22.667 21.333 -34 47.333 -34 78c0 31.333 11.333 57.666 34 78.999c23.333 22 50.333 33 81 33s57.667 -11 81 -33c22.667 -21.333 34 -47.666 34 -78.999c0 -30.667 -11.333 -56.667 -34 -78
c-23.333 -22 -50.333 -33 -81 -33zM367 1128h157l-101 -139h-109z" />
    <glyph glyph-name="aringacute" unicode="&#x1fb;" horiz-adv-x="564" 
d="M211 -11c-50.667 0 -91.666 12.334 -122.999 37.001c-34.667 27.333 -52 67 -52 119c0 58 25.333 101.333 76 130c45.333 25.333 110.666 38 195.999 38h59v21c0 33.333 -6.16699 57.666 -18.5 72.999s-34.5 23 -66.5 23c-51.333 0 -81 -24.667 -89 -74h-137
c4 58.667 28.333 104 73 136c40.667 28.667 94.667 43 162 43s120 -14.667 158 -44c40.667 -32 61 -82 61 -150v-341h-141v63c-35.333 -49.333 -88 -74 -158 -74zM254.001 90.001c32.667 0 59.667 8.33203 81 24.999s32 39.334 32 68.001v44h-56
c-44 0 -77.167 -5.66699 -99.5 -17s-33.5 -30.333 -33.5 -57c0 -42 25.333 -63 76 -63zM292.001 632c14 0 25.667 5 35 15s14 22.667 14 38s-4.66699 28.166 -14 38.499s-21 15.5 -35 15.5c-14.667 0 -26.5 -5.16699 -35.5 -15.5s-13.5 -23.166 -13.5 -38.499
s4.5 -28 13.5 -38s20.833 -15 35.5 -15zM292.001 574c-30.667 0 -57.667 11 -81 33c-22.667 21.333 -34 47.333 -34 78c0 31.333 11.333 57.666 34 78.999c23.333 22 50.333 33 81 33s57.667 -11 81 -33c22.667 -21.333 34 -47.666 34 -78.999
c0 -30.667 -11.333 -56.667 -34 -78c-23.333 -22 -50.333 -33 -81 -33zM294.001 967h157l-101 -139h-109z" />
    <glyph glyph-name="AEacute" unicode="&#x1fc;" horiz-adv-x="983" 
d="M363 715h574v-126h-300v-167h239v-118h-239v-178h317v-126h-479v168h-218l-77 -168h-157zM309 280h166v309h-24zM609 902h157l-101 -139h-109z" />
    <glyph glyph-name="aeacute" unicode="&#x1fd;" horiz-adv-x="898" 
d="M629 -11c-92.667 0 -159.664 32.332 -200.997 96.999c-45.333 -64.667 -114 -97 -206 -97c-54.667 0 -98.334 12.333 -131.001 37c-36.667 26 -55 65.667 -55 119c0 58.667 25.333 102.667 76 132c45.333 26 110 39 194 39h62v18c0 32.667 -6.5 56.834 -19.5 72.501
s-34.833 23.5 -65.5 23.5c-52.667 0 -82.667 -24.667 -90 -74h-137c4 58.667 28.333 104 73 136c39.333 28.667 91.666 43 156.999 43c82 0 137.667 -23.333 167 -70c44.667 46.667 101.667 70 171 70c72.667 0 130.667 -20.667 174 -62c50 -48 75 -115.333 75 -202v-39
h-367c5.33301 -93.333 46.666 -140 123.999 -140c61.333 0 96.333 24.333 105 73h136c-8 -56.667 -33 -100.167 -75 -130.5s-97.667 -45.5 -167 -45.5zM254.003 89.999c34.667 0 62.333 8.16797 83 24.501s31 39.166 31 68.499v46h-59c-43.333 0 -76 -5.5 -98 -16.5
s-33 -29.833 -33 -56.5c0 -44 25.333 -66 76 -66zM732.002 318c-5.33301 78 -41.333 117.001 -108 117.001c-32 0 -58.167 -10.333 -78.5 -31s-32.833 -49.334 -37.5 -86.001h224zM465.002 753.001h152l-104 -159h-105z" />
    <glyph glyph-name="Oslashacute" unicode="&#x1fe;" horiz-adv-x="816" 
d="M39 21l87 92.999c-53.333 64.667 -80 144.334 -80 239.001v8c0 108 35 195.333 105 262c69.333 68 157 102 263 102c84.667 0 158.667 -21.667 222 -65l76 81l54 -54l-73 -78c59.333 -66.667 89 -148 89 -244v-8c0 -107.333 -33.667 -195.333 -101 -264
c-68 -69.333 -157.333 -104 -268 -104c-93.333 0 -171 24 -233 72l-87 -93zM416 117.999c60 0 108.333 21.668 145 65.001c36 41.333 54 98.666 54 171.999v8c0 51.333 -9.33301 95.333 -28 132l-306 -327c36.667 -33.333 81.667 -50 135 -50zM213 354
c0 -45.333 7.66797 -86 23.001 -122l303 324c-32 27.333 -73.667 41 -125 41c-62.667 0 -111.834 -21 -147.501 -63s-53.5 -99.333 -53.5 -172v-8zM405.001 902h157l-101 -139h-109z" />
    <glyph glyph-name="oslashacute" unicode="&#x1ff;" horiz-adv-x="616" 
d="M28 6l70.001 75c-40 46 -60 104.333 -60 175v8c0 80.667 26.333 146.334 79 197.001c51.333 49.333 117 74 197 74c64 0 117.667 -15.333 161 -46l66 71l49 -44l-65 -70c42.667 -48 64 -107.667 64 -179v-8c0 -80.667 -26.333 -146.334 -79 -197.001
c-50.667 -48.667 -116.334 -73 -197.001 -73c-64 0 -119.333 16 -166 48l-70 -75zM314.001 98c41.333 0 73.167 14 95.5 42s33.5 67.333 33.5 118v7c0 27.333 -4.33301 53.333 -13 78l-200 -216c21.333 -19.333 49.333 -29 84 -29zM185.002 259
c0 -29.333 3.33398 -53.667 10.001 -73l197 213c-20.667 17.333 -46.667 26 -78 26c-40.667 0 -72.334 -13.833 -95.001 -41.5s-34 -66.5 -34 -116.5v-8zM312.003 752.999h152l-104 -159h-105z" />
    <glyph glyph-name="uni0218" unicode="&#x218;" horiz-adv-x="642" 
d="M333 -11c-95.333 0 -167.997 21.333 -217.997 64c-47.333 40.667 -73 97.667 -77 171h155c4.66699 -38 15.667 -65.333 33 -82c23.333 -23.333 59 -35 107 -35c36 0 64.667 8.83301 86 26.5s32 40.5 32 68.5c0 27.333 -9.33301 48 -28 62
c-20.667 12.667 -56.334 23 -107.001 31c-94 12 -159.667 34 -197 66c-40.667 31.333 -61 81.666 -61 150.999c0 60.667 23.667 111.667 71 153c48.667 40 111.667 60 189 60c81.333 0 144.666 -18 189.999 -54s71.333 -89.333 78 -160h-149
c-8.66699 63.333 -48.334 95 -119.001 95c-34.667 0 -61.167 -7.33301 -79.5 -22s-27.5 -34.334 -27.5 -59.001c0 -27.333 8.66699 -46.666 26 -57.999c18 -14 53.667 -25 107 -33c90.667 -11.333 156 -31.666 196 -60.999c44 -33.333 66 -85.333 66 -156
c0 -66 -24.333 -119.667 -73 -161c-51.333 -44.667 -118 -67 -200 -67zM216.003 -201l47 170l130 -21l-95 -176z" />
    <glyph glyph-name="uni0219" unicode="&#x219;" horiz-adv-x="502" 
d="M259 -11c-70.667 0 -125.668 15.001 -165.001 45.001s-60.333 73.333 -63 130h135c4 -25.333 12.667 -44 26 -56s35.333 -18 66 -18c54.667 0 82 19 82 57c0 18 -8 31.5 -24 40.5s-43.333 16.167 -82 21.5c-70.667 11.333 -120 28.333 -148 51
c-30 23.333 -45 60.666 -45 111.999s21.333 92.333 64 123c36.667 26.667 84.334 40 143.001 40c60.667 0 109.667 -12 147 -36c39.333 -26.667 62.333 -68.667 69 -126h-133c-4 22 -12.333 38 -25 48s-31.667 15 -57 15c-23.333 0 -41.5 -5 -54.5 -15s-19.5 -23 -19.5 -39
c0 -16.667 7.16699 -29 21.5 -37s40.833 -14.667 79.5 -20c68.667 -9.33301 119 -25 151 -47c34.667 -26 52 -65 52 -117c0 -56 -19.167 -98.667 -57.5 -128s-92.5 -44 -162.5 -44zM149.999 -200.999l47 170l130 -21l-95 -176z" />
    <glyph glyph-name="uni021A" unicode="&#x21a;" horiz-adv-x="598" 
d="M223 589h-193v126h549v-126h-193v-589h-163v589zM200 -201l47 170l130 -21l-95 -176z" />
    <glyph glyph-name="uni021B" unicode="&#x21b;" horiz-adv-x="377" 
d="M261 -10c-112.667 0 -168.999 55 -168.999 165v265h-67v103h67v113h144v-113h110v-103h-110v-252c0 -41.333 19.333 -62 58 -62c21.333 0 39.666 3.33301 54.999 10v-112c-26.667 -9.33301 -56 -14 -88 -14zM105.001 -201l47 170l130 -21l-95 -176z" />
    <glyph glyph-name="uni0237" unicode="&#x237;" horiz-adv-x="281" 
d="M-1 -79c24.667 2 42.333 8.5 53 19.5s16 27.5 16 49.5v533h144v-532c0 -58 -16 -101.833 -48 -131.5s-87 -45.167 -165 -46.5v108z" />
    <glyph glyph-name="uni02BC" unicode="&#x2bc;" horiz-adv-x="302" 
d="M50 484l83 244l129 -47l-130 -231z" />
    <glyph glyph-name="circumflex" unicode="&#x2c6;" horiz-adv-x="412" 
d="M153 751h109l114 -156h-102l-69 63l-70 -63h-99z" />
    <glyph glyph-name="caron" unicode="&#x2c7;" horiz-adv-x="412" 
d="M36 751h102l69 -63l69 63h100l-117 -156h-109z" />
    <glyph glyph-name="breve" unicode="&#x2d8;" horiz-adv-x="412" 
d="M205 598c-44 0 -79.667 13.333 -107 40s-42.333 63 -45 109h95c4.66699 -36 23.667 -54 57 -54s53.666 18 60.999 54h93c-2.66699 -45.333 -18.167 -81.5 -46.5 -108.5s-64.166 -40.5 -107.499 -40.5z" />
    <glyph glyph-name="dotaccent" unicode="&#x2d9;" horiz-adv-x="412" 
d="M206 598c-23.333 0 -42.666 7.33301 -57.999 22s-23 33 -23 55s7.66699 40.333 23 55s34.666 22 57.999 22c22.667 0 41.667 -7.5 57 -22.5s23 -33.167 23 -54.5s-7.66699 -39.5 -23 -54.5s-34.333 -22.5 -57 -22.5z" />
    <glyph glyph-name="ring" unicode="&#x2da;" horiz-adv-x="412" 
d="M207 643c14 0 25.667 5 35 15s14 22.667 14 38s-4.66699 28.166 -14 38.499s-21 15.5 -35 15.5c-14.667 0 -26.5 -5.16699 -35.5 -15.5s-13.5 -23.166 -13.5 -38.499s4.5 -28 13.5 -38s20.833 -15 35.5 -15zM207 585c-30.667 0 -57.667 11 -81 33
c-22.667 21.333 -34 47.333 -34 78c0 31.333 11.333 57.666 34 78.999c23.333 22 50.333 33 81 33s57.667 -11 81 -33c22.667 -21.333 34 -47.666 34 -78.999c0 -30.667 -11.333 -56.667 -34 -78c-23.333 -22 -50.333 -33 -81 -33z" />
    <glyph glyph-name="ogonek" unicode="&#x2db;" horiz-adv-x="412" 
d="M213 -182c-33.333 0 -60.334 7.00195 -81.001 21.002s-31 33.333 -31 58c0 23.333 8.66699 43.666 26 60.999c14.667 15.333 34 29.333 58 42h90c-34.667 -24.667 -52 -48.334 -52 -71.001c0 -20.667 11 -31 33 -31c16.667 0 29.334 2.33301 38.001 7v-72
c-21.333 -10 -48.333 -15 -81 -15z" />
    <glyph glyph-name="tilde" unicode="&#x2dc;" horiz-adv-x="412" 
d="M266 598c-18.667 0 -40.001 6.33398 -64.001 19.001l-26 13c-8 4 -15.667 6 -23 6c-8.66699 0 -16.167 -3.5 -22.5 -10.5s-10.5 -15.833 -12.5 -26.5h-83c3.33301 45.333 14.833 80.166 34.5 104.499s44.834 36.5 75.501 36.5c14 0 35.333 -6 64 -18
c26.667 -12.667 43.667 -19 51 -19c18.667 0 30 12.333 34 37h84c-4 -45.333 -16.333 -80.333 -37 -105s-45.667 -37 -75 -37z" />
    <glyph glyph-name="hungarumlaut" unicode="&#x2dd;" horiz-adv-x="412" 
d="M118 753h123l-76 -159h-89zM286 753h124l-76 -159h-90z" />
    <glyph glyph-name="uni037E" unicode="&#x37e;" horiz-adv-x="310" 
d="M20 -86l88 247l136 -51l-136 -233zM174 281c-25.333 0 -46.5 8.5 -63.5 25.5s-25.5 37.833 -25.5 62.5c0 24 8.5 44.5 25.5 61.5s38.167 25.5 63.5 25.5s46.666 -8.5 63.999 -25.5s26 -37.5 26 -61.5s-8.66699 -44.667 -26 -62s-38.666 -26 -63.999 -26z" />
    <glyph glyph-name="tonos" unicode="&#x384;" horiz-adv-x="400" 
d="M203 753h152l-104 -159h-105z" />
    <glyph glyph-name="dieresistonos" unicode="&#x385;" horiz-adv-x="450" 
d="M201 776h121l-81 -167h-84zM378 604c-18.667 0 -34.5 6.5 -47.5 19.5s-19.5 28.833 -19.5 47.5c0 18 6.5 33.5 19.5 46.5s28.833 19.5 47.5 19.5c19.333 0 35.5 -6.5 48.5 -19.5s19.5 -28.5 19.5 -46.5c0 -18.667 -6.5 -34.5 -19.5 -47.5s-29.167 -19.5 -48.5 -19.5z
M72 604c-19.333 0 -35.5 6.5 -48.5 19.5s-19.5 28.833 -19.5 47.5c0 18 6.5 33.5 19.5 46.5s29.167 19.5 48.5 19.5s35.333 -6.5 48 -19.5s19 -28.5 19 -46.5c0 -18.667 -6.33301 -34.5 -19 -47.5s-28.667 -19.5 -48 -19.5z" />
    <glyph glyph-name="Alphatonos" unicode="&#x386;" horiz-adv-x="720" 
d="M262 715h211l232 -715h-169l-49 159h-259l-49 -159h-152zM263 274h189l-94 309zM33 715h152l-104 -159h-105z" />
    <glyph glyph-name="anoteleia" unicode="&#x387;" horiz-adv-x="293" 
 />
    <glyph glyph-name="Epsilontonos" unicode="&#x388;" horiz-adv-x="595" 
d="M83 715h466v-126h-305v-167h244v-118h-244v-178h321v-126h-482v715zM-103 715h152l-104 -159h-105z" />
    <glyph glyph-name="Etatonos" unicode="&#x389;" horiz-adv-x="764" 
d="M83 715h162v-292h287v292h162v-715h-162v295h-287v-295h-162v715zM-103 715h152l-104 -159h-105z" />
    <glyph glyph-name="Iotatonos" unicode="&#x38a;" horiz-adv-x="325" 
d="M87 715h163v-715h-163v715zM-103 715h152l-104 -159h-105z" />
    <glyph glyph-name="Omicrontonos" unicode="&#x38c;" horiz-adv-x="816" 
d="M416 118c59.333 0 107.334 21.667 144.001 65c35.333 42.667 53 100 53 172v8c0 69.333 -17.333 125.666 -52 168.999c-36.667 43.333 -85.667 65 -147 65c-60.667 0 -109.334 -21 -146.001 -63c-35.333 -41.333 -53 -98.666 -53 -171.999v-8c0 -72.667 19 -130 57 -172
c36.667 -42.667 84.667 -64 144 -64zM413.001 -11c-110.667 0 -199.667 34.666 -267 103.999c-66.667 66.667 -100 153.334 -100 260.001v8c0 108 35 195.333 105 262c69.333 68 157 102 263 102c108.667 0 197 -33 265 -99c68.667 -68.667 103 -155.667 103 -261v-8
c0 -107.333 -33.667 -195.333 -101 -264c-68 -69.333 -157.333 -104 -268 -104zM-37.999 714.999h152l-104 -159h-105z" />
    <glyph glyph-name="Upsilontonos" unicode="&#x38e;" horiz-adv-x="648" 
d="M255 308l-236 407h178l145 -274l142 274h157l-223 -407v-308h-163v308zM-148 715h152l-104 -159h-105z" />
    <glyph glyph-name="Omegatonos" unicode="&#x38f;" horiz-adv-x="822" 
d="M209 357c0 -118.667 50.3359 -211.668 151.003 -279.001v-78h-316v121h121c-34.667 22.667 -63.834 56.5 -87.501 101.5s-35.5 93.5 -35.5 145.5v6c0 97.333 34 180.166 102 248.499s157 102.5 267 102.5c111.333 0 200.666 -33.167 267.999 -99.5
s101 -149.166 101 -248.499v-7c0 -55.333 -11.833 -104.666 -35.5 -147.999s-52.834 -77 -87.501 -101h121v-121h-316v78c100.667 62.667 151 155.667 151 279v8c0 68.667 -17.333 124.667 -52 168s-84.667 65 -150 65s-115.333 -21.333 -150 -64s-52 -99 -52 -169v-8z
M-37.9971 714.999h152l-104 -159h-105z" />
    <glyph glyph-name="iotadieresistonos" unicode="&#x390;" horiz-adv-x="280" 
d="M68 523h144v-523h-144v523zM139 776h121l-81 -167h-84zM316 604c-18.667 0 -34.5 6.5 -47.5 19.5s-19.5 28.833 -19.5 47.5c0 18 6.5 33.5 19.5 46.5s28.833 19.5 47.5 19.5c19.333 0 35.5 -6.5 48.5 -19.5s19.5 -28.5 19.5 -46.5c0 -18.667 -6.5 -34.5 -19.5 -47.5
s-29.167 -19.5 -48.5 -19.5zM10 604c-19.333 0 -35.5 6.5 -48.5 19.5s-19.5 28.833 -19.5 47.5c0 18 6.5 33.5 19.5 46.5s29.167 19.5 48.5 19.5s35.333 -6.5 48 -19.5s19 -28.5 19 -46.5c0 -18.667 -6.33301 -34.5 -19 -47.5s-28.667 -19.5 -48 -19.5z" />
    <glyph glyph-name="Alpha" unicode="&#x391;" horiz-adv-x="720" 
d="M262 715h211l232 -715h-169l-49 159h-259l-49 -159h-152zM263 274h189l-94 309z" />
    <glyph glyph-name="Beta" unicode="&#x392;" horiz-adv-x="658" 
d="M83 715h281c158 0 237 -62 237 -186v-4c0 -80 -38.667 -131 -116 -153c95.333 -19.333 143 -75.333 143 -168v-4c0 -133.333 -83.667 -200 -251 -200h-294v715zM352 112c77.333 0 116 33.667 116 101v4c0 34 -9.83301 59.167 -29.5 75.5s-51.167 24.5 -94.5 24.5h-103
v-205h111zM338 421c39.333 0 67.333 7.16699 84 21.5s25 37.833 25 70.5v4c0 30 -8.83301 52 -26.5 66s-45.5 21 -83.5 21h-96v-183h97z" />
    <glyph glyph-name="Gamma" unicode="&#x393;" horiz-adv-x="554" 
d="M77 715h454v-127h-292v-588h-162v715z" />
    <glyph glyph-name="uni0394" unicode="&#x394;" horiz-adv-x="730" 
d="M28 20l226 695h225l223 -695v-20h-674v20zM209 127h297l-148 475z" />
    <glyph glyph-name="Epsilon" unicode="&#x395;" horiz-adv-x="595" 
d="M83 715h466v-126h-305v-167h244v-118h-244v-178h321v-126h-482v715z" />
    <glyph glyph-name="Zeta" unicode="&#x396;" horiz-adv-x="615" 
d="M24 20l341 569h-303v126h532v-19l-334 -569h322v-127h-558v20z" />
    <glyph glyph-name="Eta" unicode="&#x397;" horiz-adv-x="764" 
d="M83 715h162v-292h287v292h162v-715h-162v295h-287v-295h-162v715z" />
    <glyph glyph-name="Theta" unicode="&#x398;" horiz-adv-x="826" 
d="M412 -11c-112.667 0 -202.833 33.668 -270.5 101.001s-101.5 155 -101.5 263v8c0 107.333 35 194.833 105 262.5s159.333 101.5 268 101.5c110.667 0 200.5 -32.833 269.5 -98.5s103.5 -152.834 103.5 -261.501v-8c0 -109.333 -34.167 -198 -102.5 -266
s-158.833 -102 -271.5 -102zM415.001 115.001c62.667 0 112.333 21.8311 149 65.498s55 101.834 55 174.501v8c0 70.667 -18.5 127.834 -55.5 171.501s-87.167 65.5 -150.5 65.5s-113.5 -21.5 -150.5 -64.5s-55.5 -100.833 -55.5 -173.5v-8c0 -72 19.333 -129.833 58 -173.5
s88.667 -65.5 150 -65.5zM301 413.999h223v-107h-223v107z" />
    <glyph glyph-name="Iota" unicode="&#x399;" horiz-adv-x="325" 
d="M87 715h163v-715h-163v715z" />
    <glyph glyph-name="Kappa" unicode="&#x39a;" horiz-adv-x="686" 
d="M83 715h162v-308l250 309h172l-283 -339l297 -377h-189l-247 321v-321h-162v715z" />
    <glyph glyph-name="Lambda" unicode="&#x39b;" horiz-adv-x="706" 
d="M684 0h-170l-170 546l-171 -546h-152l238 715h189z" />
    <glyph glyph-name="Mu" unicode="&#x39c;" horiz-adv-x="910" 
d="M83 715h214l167 -445l165 445h210v-715h-161v502l-198 -502h-53l-199 502v-502h-145v715z" />
    <glyph glyph-name="Nu" unicode="&#x39d;" horiz-adv-x="758" 
d="M83 715h188l272 -471v471h144v-715h-162l-298 509v-509h-144v715z" />
    <glyph glyph-name="Xi" unicode="&#x39e;" horiz-adv-x="606" 
d="M564 715v-131h-521v131h521zM515 421v-123h-424v123h424zM36 131h535v-131h-535v131z" />
    <glyph glyph-name="Omicron" unicode="&#x39f;" horiz-adv-x="816" 
d="M416 118c59.333 0 107.334 21.667 144.001 65c35.333 42.667 53 100 53 172v8c0 69.333 -17.333 125.666 -52 168.999c-36.667 43.333 -85.667 65 -147 65c-60.667 0 -109.334 -21 -146.001 -63c-35.333 -41.333 -53 -98.666 -53 -171.999v-8c0 -72.667 19 -130 57 -172
c36.667 -42.667 84.667 -64 144 -64zM413.001 -11c-110.667 0 -199.667 34.666 -267 103.999c-66.667 66.667 -100 153.334 -100 260.001v8c0 108 35 195.333 105 262c69.333 68 157 102 263 102c108.667 0 197 -33 265 -99c68.667 -68.667 103 -155.667 103 -261v-8
c0 -107.333 -33.667 -195.333 -101 -264c-68 -69.333 -157.333 -104 -268 -104z" />
    <glyph glyph-name="Pi" unicode="&#x3a0;" horiz-adv-x="755" 
d="M77 715h602v-715h-162v584h-278v-584h-162v715z" />
    <glyph glyph-name="Rho" unicode="&#x3a1;" horiz-adv-x="626" 
d="M83 715l246.999 -0.000976562c88.667 0 156.334 -19.167 203.001 -57.5s70 -95.166 70 -170.499v-4c0 -74 -24.333 -130 -73 -168c-46.667 -36.667 -111.667 -55 -195 -55h-91v-260h-161v715zM325.999 372.999c80.667 0 121 36.333 121 109v4
c0 70.667 -40.333 106 -121 106h-82v-219h82z" />
    <glyph glyph-name="Sigma" unicode="&#x3a3;" horiz-adv-x="596" 
d="M49 590v125h495v-124h-310l184 -220l-184 -241h326v-130h-515v105l194 255z" />
    <glyph glyph-name="Tau" unicode="&#x3a4;" horiz-adv-x="597" 
d="M223 589h-193v126h549v-126h-193v-589h-163v589z" />
    <glyph glyph-name="Upsilon" unicode="&#x3a5;" horiz-adv-x="648" 
d="M255 308l-236 407h178l145 -274l142 274h157l-223 -407v-308h-163v308z" />
    <glyph glyph-name="Phi" unicode="&#x3a6;" horiz-adv-x="922" 
d="M387 46c-108.667 5.33301 -193.667 37.501 -255 96.501s-92 130.833 -92 215.5v6c0 85.333 31.333 157.166 94 215.499s147 90.166 253 95.499v64h148v-64c106.667 -5.33301 191.167 -36.333 253.5 -93s93.5 -128 93.5 -214v-6c0 -86.667 -30.5 -159.667 -91.5 -219
s-146.167 -91.666 -255.5 -96.999v-70h-148v70zM201 359.001c0 -52.667 16.168 -96 48.501 -130s78.166 -54.667 137.499 -62v389c-62 -6 -108.5 -25.833 -139.5 -59.5s-46.5 -77.5 -46.5 -131.5v-6zM721.001 366.001c0 52 -15.667 95.167 -47 129.5
s-77.666 54.5 -138.999 60.5v-390c61.333 6.66699 107.666 27 138.999 61s47 78 47 132v7z" />
    <glyph glyph-name="Chi" unicode="&#x3a7;" horiz-adv-x="719" 
d="M263 367l-210 348h183l136 -238l135 238h166l-204 -343l226 -372h-184l-155 266l-154 -266h-166z" />
    <glyph glyph-name="Psi" unicode="&#x3a8;" horiz-adv-x="852" 
d="M353 172c-100 5.33301 -174.833 33.833 -224.5 85.5s-74.5 119.5 -74.5 203.5v254h155v-243c0 -55.333 11 -97 33 -125s59 -44.333 111 -49v417h148v-416c50.667 6 88.334 23.167 113.001 51.5s37 72.5 37 132.5v232h147v-243c0 -86 -24.333 -155.333 -73 -208
s-123.334 -83 -224.001 -91v-173h-148v172z" />
    <glyph glyph-name="uni03A9" unicode="&#x3a9;" horiz-adv-x="822" 
d="M209 357c0 -118.667 50.3359 -211.668 151.003 -279.001v-78h-316v121h121c-34.667 22.667 -63.834 56.5 -87.501 101.5s-35.5 93.5 -35.5 145.5v6c0 97.333 34 180.166 102 248.499s157 102.5 267 102.5c111.333 0 200.666 -33.167 267.999 -99.5
s101 -149.166 101 -248.499v-7c0 -55.333 -11.833 -104.666 -35.5 -147.999s-52.834 -77 -87.501 -101h121v-121h-316v78c100.667 62.667 151 155.667 151 279v8c0 68.667 -17.333 124.667 -52 168s-84.667 65 -150 65s-115.333 -21.333 -150 -64s-52 -99 -52 -169v-8z" />
    <glyph glyph-name="Iotadieresis" unicode="&#x3aa;" horiz-adv-x="325" 
d="M87 715h163v-715h-163v715zM61 769c-20.667 0 -38.167 7.16699 -52.5 21.5s-21.5 31.5 -21.5 51.5s7.16699 37 21.5 51s31.833 21 52.5 21c20 0 37.333 -7 52 -21s22 -31 22 -51s-7.33301 -37.167 -22 -51.5s-32 -21.5 -52 -21.5zM276 769
c-20 0 -37.167 7.16699 -51.5 21.5s-21.5 31.5 -21.5 51.5s7.16699 37 21.5 51s31.5 21 51.5 21c20.667 0 38.167 -7 52.5 -21s21.5 -31 21.5 -51s-7.16699 -37.167 -21.5 -51.5s-31.833 -21.5 -52.5 -21.5z" />
    <glyph glyph-name="Upsilondieresis" unicode="&#x3ab;" horiz-adv-x="648" 
d="M255 308l-236 407h178l145 -274l142 274h157l-223 -407v-308h-163v308zM231 769c-20.667 0 -38.167 7.16699 -52.5 21.5s-21.5 31.5 -21.5 51.5s7.16699 37 21.5 51s31.833 21 52.5 21c20 0 37.333 -7 52 -21s22 -31 22 -51s-7.33301 -37.167 -22 -51.5
s-32 -21.5 -52 -21.5zM446 769c-20 0 -37.167 7.16699 -51.5 21.5s-21.5 31.5 -21.5 51.5s7.16699 37 21.5 51s31.5 21 51.5 21c20.667 0 38.167 -7 52.5 -21s21.5 -31 21.5 -51s-7.16699 -37.167 -21.5 -51.5s-31.833 -21.5 -52.5 -21.5z" />
    <glyph glyph-name="alphatonos" unicode="&#x3ac;" horiz-adv-x="627" 
d="M298 102c37.333 0 67.5 13.332 90.5 39.999s34.5 65.667 34.5 117v8c0 52 -10.667 91.167 -32 117.5s-50.666 39.5 -87.999 39.5c-38.667 0 -68.667 -13.667 -90 -41s-32 -66.666 -32 -117.999v-8c0 -50.667 10.667 -89.167 32 -115.5s49.666 -39.5 84.999 -39.5z
M256 -11.001c-62.667 0 -115.5 23.5 -158.5 70.5s-64.5 111.833 -64.5 194.5v8c0 83.333 21.833 149.666 65.5 198.999s97.5 74 161.5 74c71.333 0 124.333 -29.667 159 -89v77h144v-523h-144v85c-14.667 -27.333 -36.5 -50.166 -65.5 -68.499s-61.5 -27.5 -97.5 -27.5z
M329 752.999h152l-104 -159h-105z" />
    <glyph glyph-name="epsilontonos" unicode="&#x3ad;" horiz-adv-x="569" 
d="M148 273c-29.333 4.66699 -53.6631 17.333 -72.9961 38s-29 45 -29 73c0 42.667 19.333 78.5 58 107.5s99.667 43.5 183 43.5c151.333 0 234.333 -54.667 249 -164h-136c-2.66699 20.667 -11.334 36.5 -26.001 47.5s-41.334 16.5 -80.001 16.5c-34 0 -59.333 -5 -76 -15
s-25 -26.667 -25 -50c0 -14.667 5.66699 -27.667 17 -39s29.333 -17 54 -17h98v-90h-97c-56.667 0 -85 -21.667 -85 -65c0 -44 37 -66 111 -66c73.333 0 112.666 24.667 117.999 74h132c-4.66699 -58 -29 -102.167 -73 -132.5s-104.333 -45.5 -181 -45.5
c-83.333 0 -146.333 13.667 -189 41s-64 66 -64 116c0 32 10.167 59.333 30.5 82s48.166 37.667 83.499 45zM304.003 752.999h152l-104 -159h-105z" />
    <glyph glyph-name="etatonos" unicode="&#x3ae;" horiz-adv-x="614" 
d="M64 523h144v-84c32.667 64 89.667 96 171 96c54 0 96.667 -16.667 128 -50s47 -84 47 -152v-511h-143v490c0 36 -7.5 62.5 -22.5 79.5s-38.5 25.5 -70.5 25.5c-32.667 0 -59.167 -9.83301 -79.5 -29.5s-30.5 -48.167 -30.5 -85.5v-302h-144v523zM316 753h152l-104 -159
h-105z" />
    <glyph glyph-name="iotatonos" unicode="&#x3af;" horiz-adv-x="280" 
d="M68 523h144v-523h-144v523zM150 753h152l-104 -159h-105z" />
    <glyph glyph-name="upsilondieresistonos" unicode="&#x3b0;" horiz-adv-x="605" 
d="M302 -11c-76 0 -135.5 20.5 -178.5 61.5s-64.5 98.5 -64.5 172.5v300h144v-305c0 -78 33.333 -117 100 -117s100 38.667 100 116v306h144v-299c0 -73.333 -21.833 -130.833 -65.5 -172.5s-103.5 -62.5 -179.5 -62.5zM283 776h121l-81 -167h-84zM460 604
c-18.667 0 -34.5 6.5 -47.5 19.5s-19.5 28.833 -19.5 47.5c0 18 6.5 33.5 19.5 46.5s28.833 19.5 47.5 19.5c19.333 0 35.5 -6.5 48.5 -19.5s19.5 -28.5 19.5 -46.5c0 -18.667 -6.5 -34.5 -19.5 -47.5s-29.167 -19.5 -48.5 -19.5zM154 604c-19.333 0 -35.5 6.5 -48.5 19.5
s-19.5 28.833 -19.5 47.5c0 18 6.5 33.5 19.5 46.5s29.167 19.5 48.5 19.5s35.333 -6.5 48 -19.5s19 -28.5 19 -46.5c0 -18.667 -6.33301 -34.5 -19 -47.5s-28.667 -19.5 -48 -19.5z" />
    <glyph glyph-name="alpha" unicode="&#x3b1;" horiz-adv-x="627" 
d="M298 102c37.333 0 67.5 13.332 90.5 39.999s34.5 65.667 34.5 117v8c0 52 -10.667 91.167 -32 117.5s-50.666 39.5 -87.999 39.5c-38.667 0 -68.667 -13.667 -90 -41s-32 -66.666 -32 -117.999v-8c0 -50.667 10.667 -89.167 32 -115.5s49.666 -39.5 84.999 -39.5z
M256 -11.001c-62.667 0 -115.5 23.5 -158.5 70.5s-64.5 111.833 -64.5 194.5v8c0 83.333 21.833 149.666 65.5 198.999s97.5 74 161.5 74c71.333 0 124.333 -29.667 159 -89v77h144v-523h-144v85c-14.667 -27.333 -36.5 -50.166 -65.5 -68.499s-61.5 -27.5 -97.5 -27.5z" />
    <glyph glyph-name="beta" unicode="&#x3b2;" horiz-adv-x="625" 
d="M296 455c43.333 -1.33301 75.833 7.66699 97.5 27s32.5 45.666 32.5 78.999v5c0 29.333 -9.5 52.666 -28.5 69.999s-45.5 26 -79.5 26c-32.667 0 -59.167 -10.833 -79.5 -32.5s-30.5 -51.167 -30.5 -88.5v-302c0 -44 12.167 -77.833 36.5 -101.5s52.5 -35.5 84.5 -35.5
c36 0 64.833 10.333 86.5 31s32.5 51.334 32.5 92.001v6c0 40.667 -12.833 71.334 -38.5 92.001s-63.5 30 -113.5 28v104zM440 412c46 -10.667 83.333 -32.499 112 -65.499s43 -74.5 43 -124.5v-7c0 -66.667 -21.833 -120.5 -65.5 -161.5s-98.834 -61.5 -165.501 -61.5
c-33.333 0 -64.166 8 -92.499 24s-49.5 37.667 -63.5 65v-259h-144v711c0 75.333 23 133.166 69 173.499s107.333 60.5 184 60.5c73.333 0 132.166 -17.333 176.499 -52s66.5 -81 66.5 -139v-4c0 -38 -10.667 -71.333 -32 -100s-50.666 -48.667 -87.999 -60z" />
    <glyph glyph-name="gamma" unicode="&#x3b3;" horiz-adv-x="585" 
d="M432 523h141l-208 -516v-185h-143v185l-209 516h155l132 -357z" />
    <glyph glyph-name="delta" unicode="&#x3b4;" horiz-adv-x="610" 
d="M111 760h417.999v-111h-227l152 -159c43.333 -46.667 74.833 -86.667 94.5 -120s29.5 -72 29.5 -116v-8c0 -75.333 -26 -137 -78 -185s-117.333 -72 -196 -72c-79.333 0 -144.5 23.5 -195.5 70.5s-76.5 108.833 -76.5 185.5v6c0 64.667 20.667 119.667 62 165
s94 68 158 68c16.667 0 31.334 -1.66699 44.001 -5l-185 190v91zM430.999 254c0 42.667 -11.332 77 -33.999 103s-53.334 39 -92.001 39c-39.333 0 -70 -12.833 -92 -38.5s-33 -59.834 -33 -102.501v-6c0 -45.333 10.667 -81.666 32 -108.999s52.333 -41 93 -41
c40 0 71 13.167 93 39.5s33 62.5 33 108.5v7z" />
    <glyph glyph-name="epsilon" unicode="&#x3b5;" horiz-adv-x="569" 
d="M148 273c-29.333 4.66699 -53.6631 17.333 -72.9961 38s-29 45 -29 73c0 42.667 19.333 78.5 58 107.5s99.667 43.5 183 43.5c151.333 0 234.333 -54.667 249 -164h-136c-2.66699 20.667 -11.334 36.5 -26.001 47.5s-41.334 16.5 -80.001 16.5c-34 0 -59.333 -5 -76 -15
s-25 -26.667 -25 -50c0 -14.667 5.66699 -27.667 17 -39s29.333 -17 54 -17h98v-90h-97c-56.667 0 -85 -21.667 -85 -65c0 -44 37 -66 111 -66c73.333 0 112.666 24.667 117.999 74h132c-4.66699 -58 -29 -102.167 -73 -132.5s-104.333 -45.5 -181 -45.5
c-83.333 0 -146.333 13.667 -189 41s-64 66 -64 116c0 32 10.167 59.333 30.5 82s48.166 37.667 83.499 45z" />
    <glyph glyph-name="zeta" unicode="&#x3b6;" horiz-adv-x="511" 
d="M261 0c-70 0 -125.666 18.999 -166.999 56.999s-62 89 -62 153c0 71.333 23 145.333 69 222s101.667 145.334 167 206.001h-202v122h439v-32c-98.667 -92 -177.334 -182.833 -236.001 -272.5s-88 -167.167 -88 -232.5c0 -69.333 36 -104 108 -104h58
c50.667 0 89 -12 115 -36s39 -56.667 39 -98c0 -36.667 -8.33301 -81.667 -25 -135h-116c10.667 36 16 67.333 16 94c0 37.333 -19 56 -57 56h-58z" />
    <glyph glyph-name="eta" unicode="&#x3b7;" horiz-adv-x="614" 
d="M64 523h144v-84c32.667 64 89.667 96 171 96c54 0 96.667 -16.667 128 -50s47 -84 47 -152v-511h-143v490c0 36 -7.5 62.5 -22.5 79.5s-38.5 25.5 -70.5 25.5c-32.667 0 -59.167 -9.83301 -79.5 -29.5s-30.5 -48.167 -30.5 -85.5v-302h-144v523z" />
    <glyph glyph-name="theta" unicode="&#x3b8;" horiz-adv-x="631" 
d="M582 362c0 -118 -22.833 -209.665 -68.5 -274.998s-111.834 -98 -198.501 -98s-152.667 32.167 -198 96.5s-68 155.166 -68 272.499v41c0 115.333 23.5 205.5 70.5 270.5s112.167 97.5 195.5 97.5c84.667 0 150.334 -31.333 197.001 -94s70 -153.334 70 -272.001v-39z
M315 657.002c-81.333 0 -123.667 -74.333 -127 -223h253c-3.33301 148.667 -45.333 223 -126 223zM315.999 97.002c80.667 0 122.669 76.999 126.002 230.999h-254c1.33301 -77.333 12.166 -135.166 32.499 -173.499s52.166 -57.5 95.499 -57.5z" />
    <glyph glyph-name="iota" unicode="&#x3b9;" horiz-adv-x="280" 
d="M68 523h144v-523h-144v523z" />
    <glyph glyph-name="kappa" unicode="&#x3ba;" horiz-adv-x="557" 
d="M208 289l181 234h154l-201 -249l209 -274h-163l-180 239v-239h-144v523h144v-234z" />
    <glyph glyph-name="lambda" unicode="&#x3bb;" horiz-adv-x="581" 
d="M179 605c-7.33301 18.667 -16.001 31.667 -26.001 39s-23.667 11 -41 11c-14.667 0 -36 -3.66699 -64 -11v108c30 10 64.667 15 104 15c36 0 66.667 -9.83301 92 -29.5s47 -53.5 65 -101.5l177 -482c10 -29.333 26.333 -44 49 -44c6.66699 0 19.334 1.33301 38.001 4
v-111c-18 -6.66699 -42.667 -10 -74 -10c-65.333 0 -110.333 36.333 -135 109l-86 251l-119 -353h-149l201 517z" />
    <glyph glyph-name="uni03BC" unicode="&#x3bc;" horiz-adv-x="615" 
d="M64 523h144.001v-323c0 -67.333 30.333 -101 91 -101c32.667 0 59.167 9.83301 79.5 29.5s30.5 48.167 30.5 85.5v309h143v-523h-142v75c-20.667 -51.333 -60.334 -77 -119.001 -77c-38 0 -65.667 14.333 -83 43v-219h-144v701z" />
    <glyph glyph-name="nu" unicode="&#x3bd;" horiz-adv-x="571" 
d="M20 523h155l125 -374l124 374h140l-190 -523h-163z" />
    <glyph glyph-name="xi" unicode="&#x3be;" horiz-adv-x="527" 
d="M360 118c50.667 0 88.5 -11.832 113.5 -35.499s37.5 -56.5 37.5 -98.5c0 -36 -8.33301 -80.667 -25 -134h-116c11.333 40 17 71.333 17 94c0 37.333 -19 56 -57 56h-46c-76 0 -137 18.5 -183 55.5s-69 88.167 -69 153.5c0 49.333 14.5 91 43.5 125
s65.833 55.667 110.5 65c-69.333 24 -104 67.667 -104 131c0 62 32.667 104 98 126h-135v104h451v-115h-131c-42 0 -75.667 -8.5 -101 -25.5s-38 -42.5 -38 -76.5c0 -26.667 9.83301 -48 29.5 -64s47.167 -24 82.5 -24h113v-119h-133c-44 0 -78 -10.333 -102 -31
s-36 -50 -36 -88c0 -32.667 11.333 -57.334 34 -74.001s53.667 -25 93 -25h53z" />
    <glyph glyph-name="omicron" unicode="&#x3bf;" horiz-adv-x="615" 
d="M314 99c40.667 0 72.167 14 94.5 42s33.5 67 33.5 117v7c0 50 -11.167 89.167 -33.5 117.5s-53.833 42.5 -94.5 42.5c-40 0 -71.333 -13.833 -94 -41.5s-34 -66.5 -34 -116.5v-8c0 -50.667 11 -90 33 -118s53.667 -42 95 -42zM313 -11c-80 0 -145.333 24.332 -196 72.999
c-52.667 48.667 -79 113.334 -79 194.001v8c0 80.667 26.333 146.334 79 197.001c51.333 49.333 117 74 197 74c80.667 0 146.334 -24.333 197.001 -73c52 -50.667 78 -115.667 78 -195v-8c0 -80.667 -26.333 -146.334 -79 -197.001
c-50.667 -48.667 -116.334 -73 -197.001 -73z" />
    <glyph glyph-name="pi" unicode="&#x3c0;" horiz-adv-x="634" 
d="M403 415h-172v-415h-143v415h-69v108h596v-108h-69v-415h-143v415z" />
    <glyph glyph-name="rho" unicode="&#x3c1;" horiz-adv-x="620" 
d="M318 100c40 0 70.334 13.667 91.001 41s31 66.333 31 117v7c0 50.667 -10.833 90 -32.5 118s-52.5 42 -92.5 42c-40.667 0 -71.834 -13.833 -93.501 -41.5s-32.5 -66.5 -32.5 -116.5v-8c0 -52 11 -91.5 33 -118.5s54 -40.5 96 -40.5zM342.001 -6
c-30.667 0 -59.832 7.66797 -87.499 23.001s-48.5 36 -62.5 62v-257h-144v443c0 81.333 24.667 146.666 74 195.999s113.666 74 192.999 74s144.5 -24.5 195.5 -73.5s76.5 -113.833 76.5 -194.5v-8c0 -80 -22.833 -144.167 -68.5 -192.5s-104.5 -72.5 -176.5 -72.5z" />
    <glyph glyph-name="uni03C2" unicode="&#x3c2;" horiz-adv-x="578" 
d="M180 260c0 -44 11 -79.167 33 -105.5s55 -39.5 99 -39.5h35c51.333 0 90.666 -11.5 117.999 -34.5s41 -55.167 41 -96.5c0 -34 -8.66699 -78.667 -26 -134h-116c11.333 44 17 75.667 17 95c0 36.667 -19 55 -57 55h-31c-76.667 0 -139.334 23.167 -188.001 69.5
s-73 108.166 -73 185.499v8c0 82 25.833 147.833 77.5 197.5s115.834 74.5 192.501 74.5c66.667 0 122.834 -16.5 168.501 -49.5s71.5 -84.167 77.5 -153.5h-138c-8.66699 60 -44.667 90 -108 90c-36.667 0 -66.167 -13.667 -88.5 -41s-33.5 -64.666 -33.5 -111.999v-9z" />
    <glyph glyph-name="sigma" unicode="&#x3c3;" horiz-adv-x="637" 
d="M307 -11c-79.333 0 -144.999 24.501 -196.999 73.501s-78 113.5 -78 193.5v8c0 80.667 25 144 75 190s116.333 69 199 69h311v-108h-126c27.333 -14 49.166 -34.833 65.499 -62.5s24.5 -58.834 24.5 -93.501v-7c0 -79.333 -25.667 -143 -77 -191s-117 -72 -197 -72z
M308.001 99.001c40.667 0 72.167 14 94.5 42s33.5 67 33.5 117v8c0 50 -11 88.167 -33 114.5s-53.667 39.5 -95 39.5c-42 0 -73.833 -13.167 -95.5 -39.5s-32.5 -63.833 -32.5 -112.5v-9c0 -50.667 11 -90 33 -118s53.667 -42 95 -42z" />
    <glyph glyph-name="tau" unicode="&#x3c4;" horiz-adv-x="491" 
d="M340 -8c-59.333 0 -103.334 16.332 -132.001 48.999s-43 77.334 -43 134.001v240h-146v108h445v-108h-154v-230c0 -28 5.5 -48.333 16.5 -61s28.833 -19 53.5 -19c20.667 0 41.334 3 62.001 9v-111c-26 -7.33301 -60 -11 -102 -11z" />
    <glyph glyph-name="upsilon" unicode="&#x3c5;" horiz-adv-x="605" 
d="M302 -11c-76 0 -135.5 20.5 -178.5 61.5s-64.5 98.5 -64.5 172.5v300h144v-305c0 -78 33.333 -117 100 -117s100 38.667 100 116v306h144v-299c0 -73.333 -21.833 -130.833 -65.5 -172.5s-103.5 -62.5 -179.5 -62.5z" />
    <glyph glyph-name="phi" unicode="&#x3c6;" horiz-adv-x="800" 
d="M768 264c0 -85.333 -27.332 -151.334 -81.999 -198.001s-126.667 -70.667 -216 -72v-172h-142v172c-92.667 2.66699 -165.167 26.834 -217.5 72.501s-78.5 109.167 -78.5 190.5v8c0 74 20.667 134.167 62 180.5s99.333 74.5 174 84.5v-108
c-61.333 -20.667 -92 -73.667 -92 -159v-8c0 -49.333 11.833 -86.833 35.5 -112.5s62.5 -40.5 116.5 -44.5v432c25.333 3.33301 60.666 5 105.999 5c105.333 0 187.333 -24.333 246 -73s88 -112 88 -190v-8zM624.001 269.999c0 48.667 -12.667 86.832 -38 114.499
s-64 41.834 -116 42.501v-329c102.667 2.66699 154 57.667 154 165v7z" />
    <glyph glyph-name="chi" unicode="&#x3c7;" horiz-adv-x="575" 
d="M211 189l-101.998 191c-12.667 23.333 -30.334 35 -53.001 35c-10.667 0 -23 -2.33301 -37 -7v107c23.333 10.667 50 16 80 16c29.333 0 54.166 -5.66699 74.499 -17s37.833 -31.333 52.5 -60l80 -156l104 225h148l-182 -344l110 -204
c14.667 -27.333 33.334 -41 56.001 -41c10.667 0 21 1.33301 31 4v-110c-22 -7.33301 -47 -11 -75 -11c-56.667 0 -102.334 33 -137.001 99l-80 155l-121 -249h-143z" />
    <glyph glyph-name="psi" unicode="&#x3c8;" horiz-adv-x="798" 
d="M196 250c0 -91.333 44 -140.667 132 -148v421h142v-421c88 8 132 57.333 132 148v273h143v-271c0 -77.333 -24.333 -138.333 -73 -183s-116 -69 -202 -73v-174h-142v174c-89.333 4 -157.5 28 -204.5 72s-70.5 106.333 -70.5 187v268h143v-273z" />
    <glyph glyph-name="omega" unicode="&#x3c9;" horiz-adv-x="805" 
d="M473 203c0 -34 6.33008 -60 18.9971 -78s30.334 -27 53.001 -27c26 0 46 12.333 60 37s21 60 21 106v7c0 106 -36.667 165.667 -110 179v109c84 -6 147.667 -34.833 191 -86.5s65 -118.834 65 -201.501v-8c0 -74.667 -18.667 -135.167 -56 -181.5
s-88.333 -69.5 -153 -69.5c-81.333 0 -134.666 35.333 -159.999 106c-11.333 -30.667 -30.666 -56 -57.999 -76s-61.333 -30 -102 -30c-66 0 -117.667 23 -155 69s-56 106.667 -56 182v8c0 82 22 148.833 66 200.5s107.667 80.834 191 87.501v-109
c-72.667 -14 -109 -73.333 -109 -178v-8c0 -95.333 27 -143 81 -143c22 0 39.167 9 51.5 27s18.5 44 18.5 78v147h142v-147z" />
    <glyph glyph-name="iotadieresis" unicode="&#x3ca;" horiz-adv-x="280" 
d="M68 523h144v-523h-144v523zM45 600c-20.667 0 -38.167 7 -52.5 21s-21.5 31 -21.5 51s7.16699 37 21.5 51s31.833 21 52.5 21s38.167 -7 52.5 -21s21.5 -31 21.5 -51s-7.16699 -37 -21.5 -51s-31.833 -21 -52.5 -21zM249 600c-20.667 0 -38.167 7 -52.5 21
s-21.5 31 -21.5 51s7.16699 37 21.5 51s31.833 21 52.5 21s38.167 -7 52.5 -21s21.5 -31 21.5 -51s-7.16699 -37 -21.5 -51s-31.833 -21 -52.5 -21z" />
    <glyph glyph-name="upsilondieresis" unicode="&#x3cb;" horiz-adv-x="605" 
d="M302 -11c-76 0 -135.5 20.5 -178.5 61.5s-64.5 98.5 -64.5 172.5v300h144v-305c0 -78 33.333 -117 100 -117s100 38.667 100 116v306h144v-299c0 -73.333 -21.833 -130.833 -65.5 -172.5s-103.5 -62.5 -179.5 -62.5zM206 600c-20.667 0 -38.167 7 -52.5 21
s-21.5 31 -21.5 51s7.16699 37 21.5 51s31.833 21 52.5 21s38.167 -7 52.5 -21s21.5 -31 21.5 -51s-7.16699 -37 -21.5 -51s-31.833 -21 -52.5 -21zM410 600c-20.667 0 -38.167 7 -52.5 21s-21.5 31 -21.5 51s7.16699 37 21.5 51s31.833 21 52.5 21s38.167 -7 52.5 -21
s21.5 -31 21.5 -51s-7.16699 -37 -21.5 -51s-31.833 -21 -52.5 -21z" />
    <glyph glyph-name="omicrontonos" unicode="&#x3cc;" horiz-adv-x="615" 
d="M314 99c40.667 0 72.167 14 94.5 42s33.5 67 33.5 117v7c0 50 -11.167 89.167 -33.5 117.5s-53.833 42.5 -94.5 42.5c-40 0 -71.333 -13.833 -94 -41.5s-34 -66.5 -34 -116.5v-8c0 -50.667 11 -90 33 -118s53.667 -42 95 -42zM313 -11c-80 0 -145.333 24.332 -196 72.999
c-52.667 48.667 -79 113.334 -79 194.001v8c0 80.667 26.333 146.334 79 197.001c51.333 49.333 117 74 197 74c80.667 0 146.334 -24.333 197.001 -73c52 -50.667 78 -115.667 78 -195v-8c0 -80.667 -26.333 -146.334 -79 -197.001
c-50.667 -48.667 -116.334 -73 -197.001 -73zM317 752.999h152l-104 -159h-105z" />
    <glyph glyph-name="upsilontonos" unicode="&#x3cd;" horiz-adv-x="605" 
d="M302 -11c-76 0 -135.5 20.5 -178.5 61.5s-64.5 98.5 -64.5 172.5v300h144v-305c0 -78 33.333 -117 100 -117s100 38.667 100 116v306h144v-299c0 -73.333 -21.833 -130.833 -65.5 -172.5s-103.5 -62.5 -179.5 -62.5zM309 753h152l-104 -159h-105z" />
    <glyph glyph-name="omegatonos" unicode="&#x3ce;" horiz-adv-x="805" 
d="M473 203c0 -34 6.33008 -60 18.9971 -78s30.334 -27 53.001 -27c26 0 46 12.333 60 37s21 60 21 106v7c0 106 -36.667 165.667 -110 179v109c84 -6 147.667 -34.833 191 -86.5s65 -118.834 65 -201.501v-8c0 -74.667 -18.667 -135.167 -56 -181.5
s-88.333 -69.5 -153 -69.5c-81.333 0 -134.666 35.333 -159.999 106c-11.333 -30.667 -30.666 -56 -57.999 -76s-61.333 -30 -102 -30c-66 0 -117.667 23 -155 69s-56 106.667 -56 182v8c0 82 22 148.833 66 200.5s107.667 80.834 191 87.501v-109
c-72.667 -14 -109 -73.333 -109 -178v-8c0 -95.333 27 -143 81 -143c22 0 39.167 9 51.5 27s18.5 44 18.5 78v147h142v-147zM413.997 753h152l-104 -159h-105z" />
    <glyph glyph-name="uni0401" unicode="&#x401;" horiz-adv-x="595" 
d="M83 715h466v-126h-305v-167h244v-118h-244v-178h321v-126h-482v715zM215 769c-20.667 0 -38.167 7.16699 -52.5 21.5s-21.5 31.5 -21.5 51.5s7.16699 37 21.5 51s31.833 21 52.5 21c20 0 37.333 -7 52 -21s22 -31 22 -51s-7.33301 -37.167 -22 -51.5s-32 -21.5 -52 -21.5
zM430 769c-20 0 -37.167 7.16699 -51.5 21.5s-21.5 31.5 -21.5 51.5s7.16699 37 21.5 51s31.5 21 51.5 21c20.667 0 38.167 -7 52.5 -21s21.5 -31 21.5 -51s-7.16699 -37.167 -21.5 -51.5s-31.833 -21.5 -52.5 -21.5z" />
    <glyph glyph-name="uni0402" unicode="&#x402;" horiz-adv-x="809" 
d="M380 392c10.667 10.667 30.832 22.167 60.499 34.5s65.834 18.5 108.501 18.5c74 0 129.833 -20.5 167.5 -61.5s56.5 -97.167 56.5 -168.5c0 -76 -17.833 -133.667 -53.5 -173s-87.5 -59 -155.5 -59c-39.333 0 -73 7 -101 21v124c20 -10.667 43.333 -16 70 -16
c52 0 78 34 78 102c0 69.333 -37.333 104 -112 104c-28 0 -52.833 -5.5 -74.5 -16.5s-36.5 -21.833 -44.5 -32.5v-269h-163v589h-193v126h553v-126h-197v-197z" />
    <glyph glyph-name="uni0403" unicode="&#x403;" horiz-adv-x="557" 
d="M77 715h449v-128h-287v-587h-162v715zM303 902h157l-101 -139h-109z" />
    <glyph glyph-name="uni0404" unicode="&#x404;" horiz-adv-x="748" 
d="M720 254c-12 -86.667 -46.168 -152.499 -102.501 -197.499s-129.166 -67.5 -218.499 -67.5c-115.333 0 -204 32.667 -266 98s-93 154 -93 266v8c0 107.333 33.5 195 100.5 263s151.833 102 254.5 102c89.333 0 162 -21.5 218 -64.5s89 -107.167 99 -192.5h-166
c-6.66699 44 -22 76.5 -46 97.5s-58.667 31.5 -104 31.5c-48 0 -87.833 -15.333 -119.5 -46s-51.834 -73.334 -60.501 -128.001h275v-121h-276c6 -58.667 24.833 -104 56.5 -136s73.5 -48 125.5 -48c94.667 0 149.334 45 164.001 135h159z" />
    <glyph glyph-name="uni0405" unicode="&#x405;" horiz-adv-x="640" 
d="M333 -11c-95.333 0 -167.997 21.333 -217.997 64c-47.333 40.667 -73 97.667 -77 171h155c4.66699 -38 15.667 -65.333 33 -82c23.333 -23.333 59 -35 107 -35c36 0 64.667 8.83301 86 26.5s32 40.5 32 68.5c0 27.333 -9.33301 48 -28 62
c-20.667 12.667 -56.334 23 -107.001 31c-94 12 -159.667 34 -197 66c-40.667 31.333 -61 81.666 -61 150.999c0 60.667 23.667 111.667 71 153c48.667 40 111.667 60 189 60c81.333 0 144.666 -18 189.999 -54s71.333 -89.333 78 -160h-149
c-8.66699 63.333 -48.334 95 -119.001 95c-34.667 0 -61.167 -7.33301 -79.5 -22s-27.5 -34.334 -27.5 -59.001c0 -27.333 8.66699 -46.666 26 -57.999c18 -14 53.667 -25 107 -33c90.667 -11.333 156 -31.666 196 -60.999c44 -33.333 66 -85.333 66 -156
c0 -66 -24.333 -119.667 -73 -161c-51.333 -44.667 -118 -67 -200 -67z" />
    <glyph glyph-name="uni0406" unicode="&#x406;" horiz-adv-x="325" 
d="M87 715h163v-715h-163v715z" />
    <glyph glyph-name="uni0407" unicode="&#x407;" horiz-adv-x="325" 
d="M87 715h163v-715h-163v715zM60 769c-20.667 0 -38.167 7.16699 -52.5 21.5s-21.5 31.5 -21.5 51.5s7.16699 37 21.5 51s31.833 21 52.5 21c20 0 37.333 -7 52 -21s22 -31 22 -51s-7.33301 -37.167 -22 -51.5s-32 -21.5 -52 -21.5zM275 769
c-20 0 -37.167 7.16699 -51.5 21.5s-21.5 31.5 -21.5 51.5s7.16699 37 21.5 51s31.5 21 51.5 21c20.667 0 38.167 -7 52.5 -21s21.5 -31 21.5 -51s-7.16699 -37.167 -21.5 -51.5s-31.833 -21.5 -52.5 -21.5z" />
    <glyph glyph-name="uni0408" unicode="&#x408;" horiz-adv-x="457" 
d="M160 -9c-51.333 0 -91 7.33301 -119 22v124c30 -11.333 60 -17 90 -17c67.333 0 101 37.667 101 113v482h163v-484c0 -80 -20.333 -140 -61 -180s-98.667 -60 -174 -60z" />
    <glyph glyph-name="uni0409" unicode="&#x409;" horiz-adv-x="1028" 
d="M488 587l-191.002 -0.000976562c-5.33301 -156 -9.33301 -251.333 -12 -286c-2.66699 -38.667 -6.66699 -73 -12 -103s-13.166 -58.5 -23.499 -85.5s-23 -49.333 -38 -67s-33.667 -31.5 -56 -41.5s-48.166 -15 -77.499 -15c-15.333 0 -29 1.66699 -41 5l-15 6v132
c0.666992 -0.666992 1.66699 -1 3 -1c1.33301 -0.666992 2.33301 -1 3 -1c6.66699 -1.33301 14 -2 22 -2c26.667 0 46.834 15.167 60.501 45.5s23.5 76.833 29.5 139.5c7.33301 90.667 11 224.667 11 402h498v-266h82c84 0 149.5 -18.167 196.5 -54.5
s70.5 -91.166 70.5 -164.499v-4c0 -75.333 -23.333 -131.833 -70 -169.5s-114.334 -56.5 -203.001 -56.5h-237v587zM721.998 122.999c80.667 0 121 34.667 121 104v4c0 69.333 -40.667 104 -122 104h-72v-212h73z" />
    <glyph glyph-name="uni040A" unicode="&#x40a;" horiz-adv-x="1042" 
d="M737 123c80 0 120 34.667 120 104v4c0 69.333 -40.333 104 -121 104h-72v-212h73zM503 295l-264 -0.000976562v-295h-162v715h162v-292h264v292h161v-266h81c84 0 149.667 -18.167 197 -54.5s71 -91.166 71 -164.499v-4c0 -75.333 -23.333 -131.833 -70 -169.5
s-114.667 -56.5 -204 -56.5h-236v295z" />
    <glyph glyph-name="uni040B" unicode="&#x40b;" horiz-adv-x="819" 
d="M380 393c12 10.667 26.002 19.333 42.002 26c37.333 17.333 78.666 26 123.999 26c148.667 0 223 -83 223 -249v-196h-162v190c0 44 -8 76.333 -24 97s-44.333 31 -85 31c-32.667 0 -62.334 -7.66699 -89.001 -23c-12 -7.33301 -21.667 -15 -29 -23v-272h-163v589h-193
v126h553v-126h-197v-196z" />
    <glyph glyph-name="uni040C" unicode="&#x40c;" horiz-adv-x="686" 
d="M353 902h157l-101 -139h-109zM83 715h162v-308l250 309h172l-283 -339l297 -377h-189l-247 321v-321h-162v715z" />
    <glyph glyph-name="uni040D" unicode="&#x40d;" horiz-adv-x="778" 
d="M77 0v715h162v-500l300 500h162v-715h-162v504l-300 -504h-162zM250 902h156l52 -139h-109z" />
    <glyph glyph-name="uni040E" unicode="&#x40e;" horiz-adv-x="635" 
d="M333 757c-45.333 0 -81.5 13.167 -108.5 39.5s-41.833 61.833 -44.5 106.5h103c4 -40 20.667 -60 50 -60c31.333 0 49.333 20 54 60h102c-3.33301 -44.667 -18.833 -80.167 -46.5 -106.5s-64.167 -39.5 -109.5 -39.5zM166 -9c-28 0 -48.999 4.00098 -62.999 12.001v129
c0.666992 0 3.66699 -0.666992 9 -2s11.666 -2.5 18.999 -3.5s15 -1.5 23 -1.5c42.667 0 77 24.333 103 73l-245 517h170l151 -340l142 340h156l-237 -538c-28 -62.667 -58.5 -109.334 -91.5 -140.001s-78.5 -46 -136.5 -46z" />
    <glyph glyph-name="uni040F" unicode="&#x40f;" horiz-adv-x="754" 
d="M77 0v715h162v-587h277v587h162v-715h-230l-2 -130h-137l-2 130h-230z" />
    <glyph glyph-name="uni0410" unicode="&#x410;" horiz-adv-x="720" 
d="M262 715h211l232 -715h-169l-49 159h-259l-49 -159h-152zM263 274h189l-94 309z" />
    <glyph glyph-name="uni0411" unicode="&#x411;" horiz-adv-x="639" 
d="M607 221c0 -71.333 -22.5 -126 -67.5 -164s-111.833 -57 -200.5 -57h-262v715h466v-126h-305l-1 -150h107c84.667 0 149.667 -17.833 195 -53.5s68 -89.167 68 -160.5v-4zM333 123c79.333 0 119 33 119 99v4c0 66 -41 99 -123 99h-92v-202h96z" />
    <glyph glyph-name="uni0412" unicode="&#x412;" horiz-adv-x="658" 
d="M83 715h281c158 0 237 -62 237 -186v-4c0 -80 -38.667 -131 -116 -153c95.333 -19.333 143 -75.333 143 -168v-4c0 -133.333 -83.667 -200 -251 -200h-294v715zM352 112c77.333 0 116 33.667 116 101v4c0 34 -9.83301 59.167 -29.5 75.5s-51.167 24.5 -94.5 24.5h-103
v-205h111zM338 421c39.333 0 67.333 7.16699 84 21.5s25 37.833 25 70.5v4c0 30 -8.83301 52 -26.5 66s-45.5 21 -83.5 21h-96v-183h97z" />
    <glyph glyph-name="uni0413" unicode="&#x413;" horiz-adv-x="557" 
d="M77 715h449v-128h-287v-587h-162v715z" />
    <glyph glyph-name="uni0414" unicode="&#x414;" horiz-adv-x="740" 
d="M264 308c-8 -80.667 -22.332 -140.667 -42.999 -180h264v459h-207c-4.66699 -123.333 -9.33398 -216.333 -14.001 -279zM139.001 -130h-141v258h45c22.667 9.33301 39.667 29 51 59s20 73.333 26 130c8 96 12 228.667 12 398h514v-587h87v-258h-141l-5 130h-443z" />
    <glyph glyph-name="uni0415" unicode="&#x415;" horiz-adv-x="595" 
d="M83 715h466v-126h-305v-167h244v-118h-244v-178h321v-126h-482v715z" />
    <glyph glyph-name="uni0416" unicode="&#x416;" horiz-adv-x="973" 
d="M406 325l-219 -325h-175l262 373l-250 342h168l214 -313v313h159v-314l217 314h165l-250 -336l264 -379h-179l-217 327v-327h-159v325z" />
    <glyph glyph-name="uni0417" unicode="&#x417;" horiz-adv-x="645" 
d="M317 -11c-82 0 -148.327 21.999 -198.994 65.999s-80.667 106 -90 186h154c13.333 -81.333 59 -122 137 -122c39.333 0 69.166 9 89.499 27s30.5 43.333 30.5 76s-8.83301 56.334 -26.5 71.001s-47.167 22 -88.5 22h-76v107h72c35.333 0 60.666 7.33301 75.999 22
s23 37.334 23 68.001c0 27.333 -8.66699 48.333 -26 63s-41.333 22 -72 22c-36.667 0 -64.334 -9 -83.001 -27s-31.334 -45.333 -38.001 -82h-153c9.33301 77.333 38.166 136.166 86.499 176.499s112.166 60.5 191.499 60.5c76.667 0 138.667 -18.167 186 -54.5
s71 -83.5 71 -141.5c0 -40.667 -10.167 -74.5 -30.5 -101.5s-50.166 -45.833 -89.499 -56.5c97.333 -16 146 -69.667 146 -161c0 -66.667 -26.833 -120.167 -80.5 -160.5s-123.834 -60.5 -210.501 -60.5z" />
    <glyph glyph-name="uni0418" unicode="&#x418;" horiz-adv-x="778" 
d="M77 0v715h162v-500l300 500h162v-715h-162v504l-300 -504h-162z" />
    <glyph glyph-name="uni0419" unicode="&#x419;" horiz-adv-x="778" 
d="M387 757c-45.333 0 -81.501 13.167 -108.501 39.5s-41.833 61.833 -44.5 106.5h103c4 -40 20.667 -60 50 -60c30.667 0 48.334 20 53.001 60h102c-3.33301 -44 -19 -79.333 -47 -106s-64 -40 -108 -40zM76.999 0v715h162v-500l300 500h162v-715h-162v504l-300 -504h-162z
" />
    <glyph glyph-name="uni041A" unicode="&#x41a;" horiz-adv-x="686" 
d="M83 715h162v-308l250 309h172l-283 -339l297 -377h-189l-247 321v-321h-162v715z" />
    <glyph glyph-name="uni041B" unicode="&#x41b;" horiz-adv-x="730" 
d="M281 264c-8.66699 -88 -28.333 -155.834 -59 -203.501s-78.667 -71.5 -144 -71.5c-15.333 0 -29 1.66699 -41 5l-15 6v132c0.666992 -0.666992 1.66699 -1 3 -1c1.33301 -0.666992 2.33301 -1 3 -1c6.66699 -1.33301 14 -2 22 -2c26 0 45.667 13.833 59 41.5
s23 70.834 29 129.501c8.66699 89.333 13 228 13 416h503v-715h-162v587h-195c-4.66699 -160 -10 -267.667 -16 -323z" />
    <glyph glyph-name="uni041C" unicode="&#x41c;" horiz-adv-x="911" 
d="M83 715h214l167 -445l165 445h210v-715h-161v502l-198 -502h-53l-199 502v-502h-145v715z" />
    <glyph glyph-name="uni041D" unicode="&#x41d;" horiz-adv-x="764" 
d="M83 715h162v-292h287v292h162v-715h-162v295h-287v-295h-162v715z" />
    <glyph glyph-name="uni041E" unicode="&#x41e;" horiz-adv-x="816" 
d="M416 118c59.333 0 107.334 21.667 144.001 65c35.333 42.667 53 100 53 172v8c0 69.333 -17.333 125.666 -52 168.999c-36.667 43.333 -85.667 65 -147 65c-60.667 0 -109.334 -21 -146.001 -63c-35.333 -41.333 -53 -98.666 -53 -171.999v-8c0 -72.667 19 -130 57 -172
c36.667 -42.667 84.667 -64 144 -64zM413.001 -11c-110.667 0 -199.667 34.666 -267 103.999c-66.667 66.667 -100 153.334 -100 260.001v8c0 108 35 195.333 105 262c69.333 68 157 102 263 102c108.667 0 197 -33 265 -99c68.667 -68.667 103 -155.667 103 -261v-8
c0 -107.333 -33.667 -195.333 -101 -264c-68 -69.333 -157.333 -104 -268 -104z" />
    <glyph glyph-name="uni041F" unicode="&#x41f;" horiz-adv-x="754" 
d="M516 587h-277v-587h-162v715h601v-715h-162v587z" />
    <glyph glyph-name="uni0420" unicode="&#x420;" horiz-adv-x="626" 
d="M83 715l246.999 -0.000976562c88.667 0 156.334 -19.167 203.001 -57.5s70 -95.166 70 -170.499v-4c0 -74 -24.333 -130 -73 -168c-46.667 -36.667 -111.667 -55 -195 -55h-91v-260h-161v715zM325.999 372.999c80.667 0 121 36.333 121 109v4
c0 70.667 -40.333 106 -121 106h-82v-219h82z" />
    <glyph glyph-name="uni0421" unicode="&#x421;" horiz-adv-x="748" 
d="M405 -11c-115.333 0 -204.331 33.334 -266.998 100.001c-61.333 63.333 -92 151.333 -92 264v8c0 108 34 196 102 264c66 67.333 150.333 101 253 101c89.333 0 161.666 -21.333 216.999 -64c58.667 -46 92 -111.333 100 -196h-166c-12 88 -62 132 -150 132
c-56.667 0 -101.667 -20.833 -135 -62.5s-50 -99.5 -50 -173.5v-8c0 -74.667 16.167 -132.334 48.5 -173.001s78.166 -61 137.499 -61c45.333 0 82.333 11.5 111 34.5s46.334 57.167 53.001 102.5h159c-8.66699 -87.333 -42.334 -154 -101.001 -200
c-56.667 -45.333 -130 -68 -220 -68z" />
    <glyph glyph-name="uni0422" unicode="&#x422;" horiz-adv-x="597" 
d="M223 589h-193v126h549v-126h-193v-589h-163v589z" />
    <glyph glyph-name="uni0423" unicode="&#x423;" horiz-adv-x="635" 
d="M166 -9c-28 0 -48.999 4.00098 -62.999 12.001v129c0.666992 0 3.66699 -0.666992 9 -2s11.666 -2.5 18.999 -3.5s15 -1.5 23 -1.5c42.667 0 77 24.333 103 73l-245 517h170l151 -340l142 340h156l-237 -538c-28 -62.667 -58.5 -109.334 -91.5 -140.001
s-78.5 -46 -136.5 -46z" />
    <glyph glyph-name="uni0424" unicode="&#x424;" horiz-adv-x="894" 
d="M527 641c100 -2.66699 180 -27.502 240 -74.502s90 -113.833 90 -200.5v-8c0 -86.667 -31 -153.667 -93 -201s-141 -72.333 -237 -75v-92h-161v92c-100 2.66699 -180 27.5 -240 74.5s-90 113.833 -90 200.5v7c0 86.667 31 153.834 93 201.501s141 72.834 237 75.501v90
h161v-90zM366 524.998c-112 -6 -167.999 -59.6689 -167.999 -161.002v-7c0 -53.333 15.167 -92.666 45.5 -117.999s71.166 -38.666 122.499 -39.999v326zM527.001 197.996c50.667 1.33301 91.5 14.833 122.5 40.5s46.5 65.5 46.5 119.5v8c0 99.333 -56.333 152 -169 158
v-326z" />
    <glyph glyph-name="uni0425" unicode="&#x425;" horiz-adv-x="719" 
d="M263 367l-210 348h183l136 -238l135 238h166l-204 -343l226 -372h-184l-155 266l-154 -266h-166z" />
    <glyph glyph-name="uni0426" unicode="&#x426;" horiz-adv-x="771" 
d="M623 -130l-5 130h-541v715h162v-587h277v587h162v-587h86v-258h-141z" />
    <glyph glyph-name="uni0427" unicode="&#x427;" horiz-adv-x="716" 
d="M477 0l-0.000976562 300.001c-13.333 -10 -28 -18.333 -44 -25c-37.333 -16.667 -80.666 -25 -129.999 -25c-166.667 0 -250 94 -250 282v183h162v-186c0 -52.667 10 -91 30 -115s51 -36 93 -36c40.667 0 75.667 8.33301 105 25c12.667 7.33301 24 15.666 34 24.999v287
h162v-715h-162z" />
    <glyph glyph-name="uni0428" unicode="&#x428;" horiz-adv-x="1044" 
d="M77 715h162v-587h202v587h163v-587h202v587h162v-715h-891v715z" />
    <glyph glyph-name="uni0429" unicode="&#x429;" horiz-adv-x="1061" 
d="M913 -130l-5 130h-831v715h162v-587h202v587h163v-587h202v587h162v-587h86v-258h-141z" />
    <glyph glyph-name="uni042A" unicode="&#x42a;" horiz-adv-x="749" 
d="M200 588l-176 -0.000976562v127h337v-259h91c84 0 149.667 -18.667 197 -56s71 -92.666 71 -165.999v-4c0 -75.333 -23.5 -132.5 -70.5 -171.5s-114.833 -58.5 -203.5 -58.5h-246v588zM444 122.999c80 0 120 35.667 120 107v4c0 72 -40.333 108 -121 108h-82v-219h83z
" />
    <glyph glyph-name="uni042B" unicode="&#x42b;" horiz-adv-x="892" 
d="M816 0h-162v715h162v-715zM77 715l161 -0.000976562v-259h83c84 0 149.667 -18.667 197 -56s71 -92.666 71 -165.999v-4c0 -75.333 -23.5 -132.5 -70.5 -171.5s-114.833 -58.5 -203.5 -58.5h-238v715zM312 122.999c80.667 0 121 35.667 121 107v4
c0 72 -40.333 108 -121 108h-74v-219h74z" />
    <glyph glyph-name="uni042C" unicode="&#x42c;" horiz-adv-x="626" 
d="M77 715l161 -0.000976562v-259h91c84 0 149.667 -18.667 197 -56s71 -92.666 71 -165.999v-4c0 -75.333 -23.5 -132.5 -70.5 -171.5s-114.5 -58.5 -202.5 -58.5h-247v715zM321 122.999c80 0 120 35.667 120 107v4c0 72 -40.333 108 -121 108h-82v-219h83z" />
    <glyph glyph-name="uni042D" unicode="&#x42d;" horiz-adv-x="748" 
d="M349 -11c-88.667 0 -161.837 22.501 -219.504 67.501s-91.167 109.5 -100.5 193.5h161c14.667 -87.333 68.334 -131 161.001 -131c50.667 0 91.834 15.5 123.501 46.5s51.167 76.167 58.5 135.5h-276v122h277c-7.33301 56 -26.333 99 -57 129s-70 45 -118 45
c-91.333 0 -143.666 -44 -156.999 -132h-164c11.333 87.333 44.833 152.666 100.5 195.999s129.834 65 222.501 65c102 0 185.333 -32.667 250 -98s97 -150.666 97 -255.999v-8c0 -114.667 -31.667 -205.834 -95 -273.501s-151.333 -101.5 -264 -101.5z" />
    <glyph glyph-name="uni042E" unicode="&#x42e;" horiz-adv-x="1070" 
d="M674 -11c-97.333 0 -177.333 28.001 -240 84.001s-100 130 -112 222h-83v-295h-162v715h162v-292h85c13.333 90 52 162.833 116 218.5s142.333 83.5 235 83.5c104.667 0 190 -33.333 256 -100s99 -153.334 99 -260.001v-8c0 -107.333 -32.667 -195.5 -98 -264.5
s-151.333 -103.5 -258 -103.5zM676 118.001c57.333 0 102.5 21.3311 135.5 63.998s49.5 100.334 49.5 173.001v8c0 70.667 -16.5 127.334 -49.5 170.001s-78.5 64 -136.5 64c-59.333 0 -105.333 -20.833 -138 -62.5s-49 -99.167 -49 -172.5v-8
c0 -72 17.333 -129.333 52 -172s80 -64 136 -64z" />
    <glyph glyph-name="uni042F" unicode="&#x42f;" horiz-adv-x="675" 
d="M350 592c-40 0 -70.333 -7.83301 -91 -23.5s-31 -41.5 -31 -77.5v-4c0 -70 41 -105 123 -105h86v210h-87zM192 0l-172.999 -0.000976562l199 302c-45.333 10.667 -81.333 31.834 -108 63.501s-40 73.834 -40 126.501v4c0 73.333 24.667 128.166 74 164.499
s116.666 54.5 201.999 54.5h252v-715h-161v272h-73z" />
    <glyph glyph-name="uni0430" unicode="&#x430;" horiz-adv-x="564" 
d="M211 -11c-50.667 0 -91.666 12.334 -122.999 37.001c-34.667 27.333 -52 67 -52 119c0 58 25.333 101.333 76 130c45.333 25.333 110.666 38 195.999 38h59v21c0 33.333 -6.16699 57.666 -18.5 72.999s-34.5 23 -66.5 23c-51.333 0 -81 -24.667 -89 -74h-137
c4 58.667 28.333 104 73 136c40.667 28.667 94.667 43 162 43s120 -14.667 158 -44c40.667 -32 61 -82 61 -150v-341h-141v63c-35.333 -49.333 -88 -74 -158 -74zM254.001 90.001c32.667 0 59.667 8.33203 81 24.999s32 39.334 32 68.001v44h-56
c-44 0 -77.167 -5.66699 -99.5 -17s-33.5 -30.333 -33.5 -57c0 -42 25.333 -63 76 -63z" />
    <glyph glyph-name="uni0431" unicode="&#x431;" horiz-adv-x="618" 
d="M310 -11c-87.333 0 -155 26.668 -203 80.001s-72 135.666 -72 246.999v33c0 260 103.667 395.333 311 406l39 1c79.333 4 130 10.333 152 19v-110c-32.667 -14.667 -84.667 -24 -156 -28l-33 -1c-64 -4 -112.167 -24.5 -144.5 -61.5s-51.833 -89.5 -58.5 -157.5h6
c40 70 104.333 105 193 105c71.333 0 129.5 -24.5 174.5 -73.5s67.5 -111.167 67.5 -186.5v-7c0 -80.667 -26 -145.167 -78 -193.5s-118 -72.5 -198 -72.5zM311 99.001c40.667 0 72.167 13.5 94.5 40.5s33.5 65.167 33.5 114.5v6c0 48.667 -10.667 86.167 -32 112.5
s-52 39.5 -92 39.5c-42 0 -74.5 -13.5 -97.5 -40.5s-34.5 -64.833 -34.5 -113.5v-5c0 -48.667 11 -86.5 33 -113.5s53.667 -40.5 95 -40.5z" />
    <glyph glyph-name="uni0432" unicode="&#x432;" horiz-adv-x="544" 
d="M65 523h228c61.333 0 109.333 -10.5 144 -31.5s52 -53.5 52 -97.5v-2c0 -62 -33.333 -101 -100 -117c80.667 -14 121 -53.667 121 -119v-1c0 -50 -17 -88.333 -51 -115s-84 -40 -150 -40h-244v523zM208 432v-119h57c50.667 0 76 20.667 76 62v1
c0 21.333 -6.66699 36 -20 44s-34 12 -62 12h-51zM208 223v-133h69c57.333 0 86 22 86 66v1c0 44 -26.333 66 -79 66h-76z" />
    <glyph glyph-name="uni0433" unicode="&#x433;" horiz-adv-x="445" 
d="M208 420v-420h-143v523h359v-103h-216z" />
    <glyph glyph-name="uni0434" unicode="&#x434;" horiz-adv-x="607" 
d="M227 234c-5.33301 -58 -15.001 -101.667 -29.001 -131h179v318h-140c-1.33301 -82 -4.66602 -144.333 -9.99902 -187zM136.999 -127l-125.002 0.000976562v230h30c16.667 7.33301 29.334 22.166 38.001 44.499s15.334 54.833 20.001 97.5c8 68 12 160.667 12 278h407
v-420h74v-230h-125l-2 127h-327z" />
    <glyph glyph-name="uni0435" unicode="&#x435;" horiz-adv-x="587" 
d="M311 -11c-81.333 0 -146.334 23.668 -195.001 71.001c-52 48 -78 113 -78 195v8c0 81.333 26 147.333 78 198c50.667 49.333 114.334 74 191.001 74c72.667 0 132 -21 178 -63c51.333 -46.667 77 -114.334 77 -203.001v-40h-377c2 -44 14.167 -77.833 36.5 -101.5
s53.5 -35.5 93.5 -35.5c62.667 0 99 24.333 109 73h137c-8.66699 -56.667 -34.5 -100.167 -77.5 -130.5s-100.5 -45.5 -172.5 -45.5zM420.999 318.001c-4.66699 78 -42.667 116.999 -114 116.999c-32.667 0 -59.5 -10.167 -80.5 -30.5s-34.167 -49.166 -39.5 -86.499h234z
" />
    <glyph glyph-name="uni0436" unicode="&#x436;" horiz-adv-x="770" 
d="M313 250l-149 -250h-155l178 281l-165 242h149l142 -227v227h142v-228l143 228h148l-165 -239l180 -284h-158l-148 252v-252h-142v250z" />
    <glyph glyph-name="uni0437" unicode="&#x437;" horiz-adv-x="524" 
d="M473 392c0 -63.333 -33.334 -102.334 -100.001 -117.001c78.667 -12.667 118 -51.667 118 -117v-3c0 -48 -20.667 -87.667 -62 -119s-95.333 -47 -162 -47c-72 0 -127.833 16.5 -167.5 49.5s-63.5 79.5 -71.5 139.5h129c6.66699 -28 18.5 -48.833 35.5 -62.5
s41.167 -20.5 72.5 -20.5c52 0 78 22 78 66v3c0 39.333 -25.667 59 -77 59h-68v90h59c45.333 0 68 18.667 68 56v2c0 35.333 -23 53 -69 53c-46.667 0 -76 -22.667 -88 -68h-129c6 59.333 29.833 104 71.5 134s91.5 45 149.5 45c62.667 0 113.834 -12.667 153.501 -38
s59.5 -59.666 59.5 -102.999v-2z" />
    <glyph glyph-name="uni0438" unicode="&#x438;" horiz-adv-x="615" 
d="M65 0v523h143v-349l202 349h143v-523h-143v349l-202 -349h-143z" />
    <glyph glyph-name="uni0439" unicode="&#x439;" horiz-adv-x="615" 
d="M305 599c-45.333 0 -81.333 13.167 -108 39.5s-41.667 61.833 -45 106.5h104c4 -40 20.333 -60 49 -60c31.333 0 49.333 20 54 60h102c-3.33301 -44.667 -18.833 -80.167 -46.5 -106.5s-64.167 -39.5 -109.5 -39.5zM65 0v523h143v-349l202 349h143v-523h-143v349
l-202 -349h-143z" />
    <glyph glyph-name="uni043A" unicode="&#x43a;" horiz-adv-x="555" 
d="M208 247v-247h-144v523h144v-224l169 224h154l-191 -239l206 -284h-164z" />
    <glyph glyph-name="uni043B" unicode="&#x43b;" horiz-adv-x="585" 
d="M232 215c-8.66699 -76.667 -24.6689 -133.331 -48.002 -169.998s-60.333 -55 -111 -55c-18 0 -30.667 1.33301 -38 4l-12 4v115c0.666992 -0.666992 2.33398 -1.33398 5.00098 -2.00098c5.33301 -1.33301 11 -2 17 -2c18.667 0 32.667 11.167 42 33.5
s16 56.166 20 101.499l2.5 42c1 17.333 2 38.5 3 63.5s1.83301 44.833 2.5 59.5c1.33301 48 2 86 2 114h403v-523h-143v420h-135c-1.33301 -90 -4.66602 -158.333 -9.99902 -205z" />
    <glyph glyph-name="uni043C" unicode="&#x43c;" horiz-adv-x="741" 
d="M173 374v-374h-109v523h191l119 -322l122 322h178v-523h-142v374l-144 -374h-73z" />
    <glyph glyph-name="uni043D" unicode="&#x43d;" horiz-adv-x="610" 
d="M402 215h-194v-215h-143v523h143v-205h194v205h143v-523h-143v215z" />
    <glyph glyph-name="uni043E" unicode="&#x43e;" horiz-adv-x="615" 
d="M314 99c40.667 0 72.167 14 94.5 42s33.5 67 33.5 117v7c0 50 -11.167 89.167 -33.5 117.5s-53.833 42.5 -94.5 42.5c-40 0 -71.333 -13.833 -94 -41.5s-34 -66.5 -34 -116.5v-8c0 -50.667 11 -90 33 -118s53.667 -42 95 -42zM313 -11c-80 0 -145.333 24.332 -196 72.999
c-52.667 48.667 -79 113.334 -79 194.001v8c0 80.667 26.333 146.334 79 197.001c51.333 49.333 117 74 197 74c80.667 0 146.334 -24.333 197.001 -73c52 -50.667 78 -115.667 78 -195v-8c0 -80.667 -26.333 -146.334 -79 -197.001
c-50.667 -48.667 -116.334 -73 -197.001 -73z" />
    <glyph glyph-name="uni043F" unicode="&#x43f;" horiz-adv-x="600" 
d="M392 420h-184v-420h-143v523h470v-523h-143v420z" />
    <glyph glyph-name="uni0440" unicode="&#x440;" horiz-adv-x="637" 
d="M70 523h144.998v-82c15.333 27.333 37.833 49.833 67.5 67.5s62.834 26.5 99.501 26.5c66 0 120 -23 162 -69c44 -48 66 -114.333 66 -199v-8c0 -84 -21.667 -150.333 -65 -199c-41.333 -47.333 -95.666 -71 -162.999 -71c-38.667 0 -72.667 8.5 -102 25.5
s-51 38.833 -65 65.5v-258h-145v701zM338.998 102c40 0 70.666 13.167 91.999 39.5s32 65.166 32 116.499v8c0 52 -11.333 91.333 -34 118s-53 40 -91 40c-39.333 0 -70.5 -13.5 -93.5 -40.5s-34.5 -66.167 -34.5 -117.5v-8c0 -51.333 11.333 -90.166 34 -116.499
s54.334 -39.5 95.001 -39.5z" />
    <glyph glyph-name="uni0441" unicode="&#x441;" horiz-adv-x="578" 
d="M307 -11c-78.667 0 -142.666 23 -191.999 69c-51.333 48 -77 113.667 -77 197v8c0 82 26.333 148.667 79 200c50 48 113.667 72 191 72c67.333 0 122 -15 164 -45c48 -34.667 75.333 -87.334 82 -158.001h-137c-8.66699 59.333 -44 89 -106 89
c-38.667 0 -69.167 -13.667 -91.5 -41s-33.5 -65.666 -33.5 -114.999v-8c0 -52 11.167 -91.5 33.5 -118.5s53.833 -40.5 94.5 -40.5c30.667 0 56.167 8.66699 76.5 26s32.166 42.333 35.499 75h131c-4 -64.667 -27.667 -115 -71 -151c-46 -39.333 -105.667 -59 -179 -59z
" />
    <glyph glyph-name="uni0442" unicode="&#x442;" horiz-adv-x="488" 
d="M471 420h-155v-420h-144v420h-155v103h454v-103z" />
    <glyph glyph-name="uni0443" unicode="&#x443;" horiz-adv-x="567" 
d="M228 53l-208 470h156l127 -314l117 314h139l-283 -701h-140z" />
    <glyph glyph-name="uni0444" unicode="&#x444;" horiz-adv-x="779" 
d="M461 534c82.667 -4 150 -28.834 202 -74.501s78 -109.167 78 -190.5v-8c0 -81.333 -26.333 -146.166 -79 -194.499s-119.667 -73.833 -201 -76.5v-168h-142v168c-82.667 4 -150 29 -202 75s-78 109.667 -78 191v8c0 81.333 26.333 146 79 194s119.667 73.333 201 76v226
h142v-226zM319 429.999c-42 -2.66699 -74.833 -18.168 -98.5 -46.501s-35.5 -67.166 -35.5 -116.499v-7c0 -50 11.667 -89.333 35 -118s56.333 -44.667 99 -48v336zM461 93.998c41.333 3.33301 73.833 19.333 97.5 48s35.5 67 35.5 115v8c0 49.333 -11.667 88.333 -35 117
s-56 44.667 -98 48v-336z" />
    <glyph glyph-name="uni0445" unicode="&#x445;" horiz-adv-x="574" 
d="M202 267l-167 256h166l98 -157l96 157h150l-167 -245l184 -278h-167l-110 176l-113 -176h-149z" />
    <glyph glyph-name="uni0446" unicode="&#x446;" horiz-adv-x="622" 
d="M488 -127l-6 127h-417v523h143v-420h184v420h143v-420h74v-230h-121z" />
    <glyph glyph-name="uni0447" unicode="&#x447;" horiz-adv-x="577" 
d="M368 0v225c-6 -6.66699 -13.5 -13.667 -22.5 -21s-25.833 -15.5 -50.5 -24.5s-51.667 -13.5 -81 -13.5c-52 0 -93.167 16.333 -123.5 49s-45.5 81.667 -45.5 147v161h144v-141c0 -36.667 6.33301 -63.167 19 -79.5s33.667 -24.5 63 -24.5c42 0 74.333 14.667 97 44v201
h144v-523h-144z" />
    <glyph glyph-name="uni0448" unicode="&#x448;" horiz-adv-x="833" 
d="M65 523h143v-420h137v420h143v-420h137v420h143v-523h-703v523z" />
    <glyph glyph-name="uni0449" unicode="&#x449;" horiz-adv-x="856" 
d="M721 -127l-6 127h-650v523h143v-420h137v420h143v-420h137v420h143v-420h74v-230h-121z" />
    <glyph glyph-name="uni044A" unicode="&#x44a;" horiz-adv-x="613" 
d="M146 420h-129v103h272v-166h95c62.667 0 112 -15.333 148 -46s54 -74.667 54 -132v-3c0 -57.333 -17.833 -101 -53.5 -131s-86.5 -45 -152.5 -45h-234v420zM352 102c30.667 0 53 5.66797 67 17.001s21 30.666 21 57.999v3c0 50.667 -29.333 76 -88 76h-63v-154h63z" />
    <glyph glyph-name="uni044B" unicode="&#x44b;" horiz-adv-x="754" 
d="M546 523h143v-523h-143v523zM65 523h143.001v-166h88c62 0 111.167 -15.5 147.5 -46.5s54.5 -74.833 54.5 -131.5v-3c0 -57.333 -17.833 -101 -53.5 -131s-86.834 -45 -153.501 -45h-226v523zM265.001 102c30 0 52 5.83203 66 17.499s21 30.834 21 57.501v3
c0 50.667 -29 76 -87 76h-57v-154h57z" />
    <glyph glyph-name="uni044C" unicode="&#x44c;" horiz-adv-x="532" 
d="M65 523l143 -0.00195312v-166h95c62.667 0 112 -15.667 148 -47s54 -75.666 54 -132.999v-3c0 -57.333 -17.833 -100.666 -53.5 -129.999s-86.5 -44 -152.5 -44h-234v523zM271 100.998c58.667 0 88 24.667 88 74v3c0 52 -29.333 78 -88 78h-63v-155h63z" />
    <glyph glyph-name="uni044D" unicode="&#x44d;" horiz-adv-x="578" 
d="M281 -11c-151.333 0 -235.333 66.334 -252 199.001h132c14 -60 51.667 -90 113 -90c32 0 58.667 10.333 80 31s35 50 41 88h-196v95h196c-11.333 73.333 -51.666 110 -120.999 110c-60 0 -96.333 -29.667 -109 -89h-135c5.33301 64 31.166 113.667 77.499 149
s102.833 53 169.5 53c79.333 0 144 -23.833 194 -71.5s75 -112.834 75 -195.501v-8c0 -82.667 -25.167 -148.5 -75.5 -197.5s-113.5 -73.5 -189.5 -73.5z" />
    <glyph glyph-name="uni044E" unicode="&#x44e;" horiz-adv-x="822" 
d="M524 -10c-68 0 -124.833 18.5 -170.5 55.5s-74.167 88.167 -85.5 153.5c-1.33301 9.33301 -2 14.666 -2 15.999h-58v-215h-143v523h143v-205h59c10.667 66 39.5 118.833 86.5 158.5s104.167 59.5 171.5 59.5c78 0 141.667 -24.5 191 -73.5s74 -113.833 74 -194.5v-8
c0 -81.333 -24.833 -146.666 -74.5 -195.999s-113.5 -74 -191.5 -74zM525 99c38 0 67.167 14 87.5 42s30.5 67 30.5 117v8c0 50 -10.167 89 -30.5 117s-49.5 42 -87.5 42c-37.333 0 -66.333 -13.667 -87 -41s-31 -66 -31 -116v-8c0 -50.667 10.167 -90.167 30.5 -118.5
s49.5 -42.5 87.5 -42.5z" />
    <glyph glyph-name="uni044F" unicode="&#x44f;" horiz-adv-x="541" 
d="M282 421c-58.667 0 -88 -23 -88 -69v-3c0 -46.667 29.333 -70 88 -70h59v142h-59zM170 0h-157l134 213c-66 23.333 -99 69.333 -99 138v3c0 53.333 17.833 94.833 53.5 124.5s86.5 44.5 152.5 44.5h231v-523h-144v183h-61z" />
    </font>
</defs>
</svg>
