<?xml version="1.0" standalone="no"?>
<!DOCTYPE svg PUBLIC "-//W3C//DTD SVG 1.1//EN" "http://www.w3.org/Graphics/SVG/1.1/DTD/svg11.dtd" >
<svg>
<metadata>
Created by FontForge 20090914 at Tue Jun 28 21:53:06 2022
 By www-data
Copyright &#194;&#169; 2012 Christian Schwartz for Commercial Type.
</metadata>
<defs>
<font id="GraphikLCG-Regular" horiz-adv-x="612" >
  <font-face 
    font-family="Graphik LCG"
    font-weight="400"
    font-stretch="normal"
    units-per-em="1000"
    panose-1="2 11 5 3 3 2 2 6 2 3"
    ascent="818"
    descent="-182"
    x-height="523"
    cap-height="715"
    bbox="-224 -220.002 1098 1113"
    underline-thickness="50"
    underline-position="-150"
    unicode-range="U+000D-U+FB02"
  />
<missing-glyph horiz-adv-x="500" 
 />
    <glyph glyph-name="f_f" unicode="ff" horiz-adv-x="646" 
d="M108 453h-74.998v70h75v78c0 54 13.167 95.5 39.5 124.5s65.166 43.5 116.499 43.5c21.333 0 42 -3.33301 62 -10v-70c-16 7.33301 -35.667 11 -59 11c-50.667 0 -76 -30 -76 -90v-87h205v85c0 54 13.167 95.5 39.5 124.5s65.166 43.5 116.499 43.5
c21.333 0 42 -3.33301 62 -10v-70c-16 7.33301 -35.667 11 -59 11c-50.667 0 -76 -30 -76 -90v-94h128v-70h-128v-453h-83v453h-205v-453h-83v453z" />
    <glyph glyph-name=".notdef" horiz-adv-x="500" 
 />
    <glyph glyph-name="NULL" horiz-adv-x="0" 
 />
    <glyph glyph-name="NULL" horiz-adv-x="0" 
 />
    <glyph glyph-name="CR" unicode="&#xd;" horiz-adv-x="265" 
 />
    <glyph glyph-name="space" unicode=" " horiz-adv-x="265" 
 />
    <glyph glyph-name="exclam" unicode="!" horiz-adv-x="298" 
d="M149 -5c-17.333 0 -32.333 6.16699 -45 18.5s-19 27.5 -19 45.5s6.33301 33.167 19 45.5s27.667 18.5 45 18.5s32.333 -6.16699 45 -18.5s19 -27.5 19 -45.5s-6.33301 -33.167 -19 -45.5s-27.667 -18.5 -45 -18.5zM104 715h92l-14 -513h-64z" />
    <glyph glyph-name="quotedbl" unicode="&#x22;" horiz-adv-x="387" 
d="M67 715h90l-15 -245h-60zM230 715h90l-15 -245h-60z" />
    <glyph glyph-name="numbersign" unicode="#" horiz-adv-x="515" 
d="M284 282h-97l-26 -183h-68l26 183h-83v70h94l19 132h-85v70h95l24 161h68l-24 -161h97l24 161h68l-24 -161h87v-70h-97l-19 -132h88v-70h-99l-26 -183h-68zM198 352h97l19 132h-97z" />
    <glyph glyph-name="dollar" unicode="$" horiz-adv-x="639" 
d="M291 -8c-146.667 9.33301 -226.669 84.666 -240.002 225.999h84c3.33301 -22.667 7.33301 -41.5 12 -56.5s12.5 -30.5 23.5 -46.5s26.5 -28.5 46.5 -37.5s44.667 -14.833 74 -17.5v278c-70 12.667 -122.667 33.667 -158 63s-53 72.333 -53 129
c0 52 19.667 96.167 59 132.5s90 56.5 152 60.5v90h59v-91c60.667 -5.33301 108.834 -24.666 144.501 -57.999s56.834 -79 63.501 -137h-78c-7.33301 38.667 -21.5 68.167 -42.5 88.5s-50.167 33.166 -87.5 38.499v-250c78 -14 134.667 -35.667 170 -65s53 -75 53 -137
c0 -57.333 -20.833 -105.666 -62.5 -144.999s-95.167 -61 -160.5 -65v-127h-59v127zM489.998 196c0 37.333 -10 65.667 -30 85s-56.667 35 -110 47v-268c40.667 4 74.167 18.5 100.5 43.5s39.5 55.833 39.5 92.5zM158.998 538.001
c0 -34.667 8.83105 -61.1689 26.498 -79.502s52.834 -33.166 105.501 -44.499v241c-41.333 -3.33301 -73.666 -15.666 -96.999 -36.999s-35 -48 -35 -80z" />
    <glyph glyph-name="percent" unicode="%" horiz-adv-x="796" 
d="M204 448c28 0 49.667 8.99902 65 26.999s23 43.667 23 77c0 32 -7.83301 57.333 -23.5 76s-37.167 28 -64.5 28c-26.667 0 -48 -9.16699 -64 -27.5s-24 -44.166 -24 -77.499s7.83301 -58.833 23.5 -76.5s37.167 -26.5 64.5 -26.5zM204 382.999
c-44 0 -82.333 15.999 -115 47.999s-49 71.667 -49 119c0 48.667 16.167 89.334 48.5 122.001s70.833 49 115.5 49s83.167 -16.333 115.5 -49s48.5 -72.667 48.5 -120c0 -48 -16.333 -88.167 -49 -120.5s-71 -48.5 -115 -48.5zM578 714.998h76l-437 -715h-76zM592 56.998
c28 0 49.667 8.99902 65 26.999s23 43.667 23 77c0 32 -7.83301 57.333 -23.5 76s-37.167 28 -64.5 28c-26.667 0 -48 -9.16699 -64 -27.5s-24 -44.166 -24 -77.499s7.83301 -58.833 23.5 -76.5s37.167 -26.5 64.5 -26.5zM592 -8.00293c-44 0 -82.333 15.999 -115 47.999
s-49 71.667 -49 119c0 48.667 16.167 89.334 48.5 122.001s70.833 49 115.5 49s83.167 -16.333 115.5 -49s48.5 -72.667 48.5 -120c0 -48 -16.333 -88.167 -49 -120.5s-71 -48.5 -115 -48.5z" />
    <glyph glyph-name="ampersand" unicode="&#x26;" horiz-adv-x="698" 
d="M533 146l120 -146h-101l-71 86c-53.333 -62 -119.333 -93 -198 -93c-66 0 -120.167 18 -162.5 54s-63.5 83.333 -63.5 142c0 52 14.333 94.5 43 127.5s69 62.167 121 87.5c-42 54 -63 104.333 -63 151c0 51.333 17 91.5 51 120.5s75.333 43.5 124 43.5
c44 0 81 -14 111 -42s45 -63 45 -105c0 -79.333 -51 -141 -153 -185l150 -183l87 165h77zM286 61c58.667 0 109.333 26.001 152 78.001l-178 217c-39.333 -20 -69 -41.833 -89 -65.5s-30 -54.834 -30 -93.501c0 -43.333 12.667 -76.833 38 -100.5s61 -35.5 107 -35.5z
M237.999 554.001c0 -28.667 20.666 -69 61.999 -121c40.667 18 69.334 37.5 86.001 58.5s25 48.5 25 82.5c0 23.333 -7.5 42.5 -22.5 57.5s-34.5 22.5 -58.5 22.5c-27.333 0 -49.5 -8.16699 -66.5 -24.5s-25.5 -41.5 -25.5 -75.5z" />
    <glyph glyph-name="quotesingle" unicode="'" horiz-adv-x="224" 
d="M67 715h90l-15 -245h-60z" />
    <glyph glyph-name="parenleft" unicode="(" horiz-adv-x="334" 
d="M225 -148c-110.667 126 -166 279.334 -166 460.001c0 177.333 55.333 331 166 461h83c-108 -132.667 -162 -286.334 -162 -461.001c0 -172 54 -325.333 162 -460h-83z" />
    <glyph glyph-name="parenright" unicode=")" horiz-adv-x="334" 
d="M26 -148c108 132.667 162 286.333 162 461c0 172 -54 325.333 -162 460h83c110.667 -134 166 -287.333 166 -460c0 -177.333 -55.333 -331 -166 -461h-83z" />
    <glyph glyph-name="asterisk" unicode="*" horiz-adv-x="434" 
d="M88 450l83 111l-123 29l22 67l118 -48l-7 134h73l-7 -134l117 48l22 -67l-124 -29l83 -111l-56 -41l-74 120l-70 -120z" />
    <glyph glyph-name="plus" unicode="+" horiz-adv-x="531" 
d="M229 307h-187v70h187v202h73v-202h187v-70h-187v-202h-73v202z" />
    <glyph glyph-name="comma" unicode="," horiz-adv-x="294" 
d="M42 -95l96 219l81 -38l-123 -209z" />
    <glyph glyph-name="hyphen" unicode="-" horiz-adv-x="346" 
d="M66 314h214v-78h-214v78z" />
    <glyph glyph-name="period" unicode="." horiz-adv-x="294" 
d="M147 -5c-17.333 0 -32.333 6.16699 -45 18.5s-19 27.5 -19 45.5s6.33301 33.167 19 45.5s27.667 18.5 45 18.5s32.333 -6.16699 45 -18.5s19 -27.5 19 -45.5s-6.33301 -33.167 -19 -45.5s-27.667 -18.5 -45 -18.5z" />
    <glyph glyph-name="slash" unicode="/" horiz-adv-x="415" 
d="M303 776h76l-291 -924h-76z" />
    <glyph glyph-name="zero" unicode="0" horiz-adv-x="693" 
d="M350 63c126 0 188.999 92.333 188.999 277v40c0 83.333 -17 149.833 -51 199.5s-80.667 74.5 -140 74.5c-60.667 0 -108 -24 -142 -72s-51 -116 -51 -204v-40c0 -88.667 17.333 -156.667 52 -204s82.334 -71 143.001 -71zM349.999 -9c-85.333 0 -154 31.665 -206 94.998
s-78 147 -78 251v40c0 106 25.167 190.333 75.5 253s119.166 94 206.499 94c86.667 0 154.834 -31.667 204.501 -95s74.5 -146.666 74.5 -249.999v-40c0 -105.333 -24.5 -189.666 -73.5 -252.999s-116.833 -95 -203.5 -95z" />
    <glyph glyph-name="one" unicode="1" horiz-adv-x="411" 
d="M199 629l-160 -115v81l166 120h81v-715h-87v629z" />
    <glyph glyph-name="two" unicode="2" horiz-adv-x="566" 
d="M25 20l284 299c68.667 72.667 103 141.667 103 207c0 40 -11.167 71.333 -33.5 94s-53.833 34 -94.5 34c-86.667 0 -137 -53 -151 -159h-81c5.33301 70.667 28.5 126.5 69.5 167.5s95.167 61.5 162.5 61.5c66 0 118.5 -18.167 157.5 -54.5s58.5 -85.166 58.5 -146.499
c0 -78.667 -48 -165.334 -144 -260.001l-197 -192h345v-71h-479v20z" />
    <glyph glyph-name="three" unicode="3" horiz-adv-x="616" 
d="M296 -9c-74 0 -133.5 20.6689 -178.5 62.002s-68.833 94 -71.5 158h80c4 -45.333 20.333 -81.666 49 -108.999s69.667 -41 123 -41c54.667 0 95.5 12.167 122.5 36.5s40.5 58.166 40.5 101.499c0 92.667 -50.333 139 -151 139h-54v73h50c89.333 0 134 40.667 134 122
c0 35.333 -11 64.166 -33 86.499s-54.333 33.5 -97 33.5c-44 0 -80.167 -12.333 -108.5 -37s-44.833 -57.334 -49.5 -98.001h-76c2.66699 57.333 25.667 106 69 146s98.333 60 165 60c65.333 0 117.5 -18.5 156.5 -55.5s58.5 -81.5 58.5 -133.5
c0 -72.667 -37.667 -124.667 -113 -156c92 -25.333 138 -85.333 138 -180c0 -64.667 -23.5 -115.5 -70.5 -152.5s-108.167 -55.5 -183.5 -55.5z" />
    <glyph glyph-name="four" unicode="4" horiz-adv-x="629" 
d="M403 150h-358v28l327 537h116v-494h99v-71h-99v-150h-85v150zM403 221v428l-248 -428h248z" />
    <glyph glyph-name="five" unicode="5" horiz-adv-x="599" 
d="M287 -9c-74 0 -130.666 18.165 -169.999 54.498s-62 85.5 -68 147.5h83c8 -43.333 23 -76.166 45 -98.499s58.333 -33.5 109 -33.5c48.667 0 87 15.333 115 46s42 73 42 127c0 50.667 -13.5 91.167 -40.5 121.5s-63.5 45.5 -109.5 45.5c-40 0 -73 -5.66699 -99 -17
s-49.333 -28.666 -70 -51.999h-32v383h402v-75h-330v-218c35.333 32.667 84 49 146 49c65.333 0 118.666 -21.5 159.999 -64.5s62 -100.5 62 -172.5c0 -74 -23.333 -133 -70 -177s-105 -66 -175 -66z" />
    <glyph glyph-name="six" unicode="6" horiz-adv-x="631" 
d="M323 -9c-171.333 0 -256.997 108.331 -256.997 324.998v17c0 125.333 25.5 221.833 76.5 289.5s118.833 101.5 203.5 101.5c57.333 0 104.166 -14.667 140.499 -44s59.166 -72.333 68.499 -129h-83c-8 34.667 -22.333 60.334 -43 77.001s-50.334 25 -89.001 25
c-55.333 0 -100 -24.667 -134 -74s-52 -120 -54 -212c38.667 64.667 100 97 184 97c70 0 126.5 -22.167 169.5 -66.5s64.5 -100.166 64.5 -167.499c0 -72 -22.333 -129.833 -67 -173.5s-104.667 -65.5 -180 -65.5zM323.003 58.998c46.667 0 84.6689 15.333 114.002 46
s44 71 44 121c0 52 -14.333 93.333 -43 124s-67.334 46 -116.001 46c-48 0 -87.333 -14.667 -118 -44s-46 -67.333 -46 -114c0 -56.667 15.167 -100.667 45.5 -132s70.166 -47 119.499 -47z" />
    <glyph glyph-name="seven" unicode="7" horiz-adv-x="537" 
d="M401 645h-363v70h471v-12l-268 -703h-89z" />
    <glyph glyph-name="eight" unicode="8" horiz-adv-x="619" 
d="M310 -9c-40.667 0 -79.334 7.49902 -116.001 22.499s-67.667 39.167 -93 72.5s-38 72.333 -38 117c0 46 12.333 84.667 37 116s57.334 54.333 98.001 69c-72 28.667 -108 78.667 -108 150c0 54.667 22.167 99.334 66.5 134.001s95.5 52 153.5 52s109 -17.167 153 -51.5
s66 -78.5 66 -132.5c0 -68.667 -36.667 -119 -110 -151c91.333 -34 137 -95.333 137 -184c0 -67.333 -24.5 -119.833 -73.5 -157.5s-106.5 -56.5 -172.5 -56.5zM310 61.999c46 0 83.667 12.834 113 38.501s44 61.5 44 107.5c0 44.667 -14.833 79.5 -44.5 104.5
s-66.5 37.5 -110.5 37.5c-45.333 0 -83.333 -12.5 -114 -37.5s-46 -60.5 -46 -106.5c0 -44.667 15.333 -79.834 46 -105.501s68 -38.5 112 -38.5zM313 419c38.667 0 69.668 10.668 93.001 32.001s35 50.666 35 87.999c0 34 -12.333 62 -37 84s-56 33 -94 33
c-38.667 0 -70.334 -10.667 -95.001 -32s-37 -50.333 -37 -87c0 -36 13 -64.667 39 -86s58 -32 96 -32z" />
    <glyph glyph-name="nine" unicode="9" horiz-adv-x="632" 
d="M296 -8c-65.333 0 -117.667 16 -157 48s-63.666 77.333 -72.999 136h84c8.66699 -37.333 24.5 -65.5 47.5 -84.5s56.5 -28.5 100.5 -28.5c58 0 102.667 23.667 134 71s47.666 118.333 48.999 213c-18 -30 -43 -53.333 -75 -70s-68.667 -25 -110 -25
c-69.333 0 -125.833 22 -169.5 66s-65.5 100 -65.5 168c0 72 22.333 129.833 67 173.5s104.667 65.5 180 65.5c84.667 0 148.667 -27.333 192 -82s65 -134 65 -238v-45c0 -119.333 -23.167 -210.5 -69.5 -273.5s-112.833 -94.5 -199.5 -94.5zM308.999 320
c48 0 87.3311 14.333 117.998 43s46 66 46 112c0 57.333 -15.167 102 -45.5 134s-70.166 48 -119.499 48c-46.667 0 -84.667 -15.333 -114 -46s-44 -71 -44 -121c0 -52 14.333 -93.333 43 -124s67.334 -46 116.001 -46z" />
    <glyph glyph-name="colon" unicode=":" horiz-adv-x="304" 
d="M152 -5c-17.333 0 -32.333 6.16699 -45 18.5s-19 27.5 -19 45.5s6.33301 33.167 19 45.5s27.667 18.5 45 18.5s32.333 -6.16699 45 -18.5s19 -27.5 19 -45.5s-6.33301 -33.167 -19 -45.5s-27.667 -18.5 -45 -18.5zM152 292c-17.333 0 -32.333 6.16699 -45 18.5
s-19 27.5 -19 45.5s6.33301 33.167 19 45.5s27.667 18.5 45 18.5s32.333 -6.16699 45 -18.5s19 -27.5 19 -45.5s-6.33301 -33.167 -19 -45.5s-27.667 -18.5 -45 -18.5z" />
    <glyph glyph-name="semicolon" unicode=";" horiz-adv-x="304" 
d="M27 -95l96 219l81 -38l-123 -209zM161 292c-17.333 0 -32.333 6.16699 -45 18.5s-19 27.5 -19 45.5s6.33301 33.167 19 45.5s27.667 18.5 45 18.5s32.333 -6.16699 45 -18.5s19 -27.5 19 -45.5s-6.33301 -33.167 -19 -45.5s-27.667 -18.5 -45 -18.5z" />
    <glyph glyph-name="less" unicode="&#x3c;" horiz-adv-x="516" 
d="M59 312v20l384 217v-80l-263 -147l263 -147v-80z" />
    <glyph glyph-name="equal" unicode="=" horiz-adv-x="496" 
d="M46 268h404v-72h-404v72zM46 448h404v-72h-404v72z" />
    <glyph glyph-name="greater" unicode="&#x3e;" horiz-adv-x="516" 
d="M73 175l263 147l-263 147v80l384 -217v-20l-384 -217v80z" />
    <glyph glyph-name="question" unicode="?" horiz-adv-x="501" 
d="M185 252c0 24.667 5.66406 48.8301 16.9971 72.4971s23 42.334 35 56.001s29 30.834 51 51.501c16 16 28.333 29.167 37 39.5s16.834 23 24.501 38s11.5 30.167 11.5 45.5c0 66.667 -35.667 100 -107 100c-38 0 -68.833 -11.667 -92.5 -35s-37.167 -55 -40.5 -95h-78
c4 59.333 25.167 107.333 63.5 144s87.833 55 148.5 55c63.333 0 110.833 -16 142.5 -48s47.5 -71.333 47.5 -118c0 -23.333 -5.5 -45.833 -16.5 -67.5s-22 -38.667 -33 -51s-27.167 -28.5 -48.5 -48.5c-19.333 -18 -34.166 -32.833 -44.499 -44.5
s-20.166 -26.667 -29.499 -45s-14 -37.166 -14 -56.499v-43h-74v50zM219.997 -5.00391c-17.333 0 -32.333 6.16699 -45 18.5s-19 27.5 -19 45.5s6.33301 33.167 19 45.5s27.667 18.5 45 18.5s32.333 -6.16699 45 -18.5s19 -27.5 19 -45.5s-6.33301 -33.167 -19 -45.5
s-27.667 -18.5 -45 -18.5z" />
    <glyph glyph-name="at" unicode="@" horiz-adv-x="927" 
d="M465 -147c-86 0 -160.997 19.333 -224.997 58s-111.5 88.334 -142.5 149.001s-46.5 127.334 -46.5 200.001c0 80 19.333 152.833 58 218.5s90.667 117 156 154s136.333 55.5 213 55.5c118 0 213.833 -34.833 287.5 -104.5s110.5 -156.834 110.5 -261.501
c0 -44.667 -6 -84.167 -18 -118.5s-27.5 -61 -46.5 -80s-39 -33.167 -60 -42.5s-42.167 -14 -63.5 -14c-38 0 -65.5 7.33301 -82.5 22s-27.833 36 -32.5 64c-15.333 -27.333 -36.333 -49.666 -63 -66.999s-55.334 -26 -86.001 -26c-48.667 0 -87.667 15.667 -117 47
s-44 73.666 -44 126.999c0 66 19.167 121.167 57.5 165.5s84.833 66.5 139.5 66.5c32.667 0 59.167 -6.5 79.5 -19.5s34.166 -29.167 41.499 -48.5l7 60h83l-30 -252c-6.66699 -52.667 9.33301 -79 48 -79c31.333 0 58.333 16.333 81 49s34 80.667 34 144
c0 90.667 -29 163.667 -87 219s-137.667 83 -239 83s-185 -33.667 -251 -101s-99 -153.666 -99 -258.999c0 -46 7.16699 -89.5 21.5 -130.5s35.166 -77.333 62.499 -109s62.833 -56.834 106.5 -75.501s92.5 -28 146.5 -28c95.333 0 174 27 236 81h77
c-26 -44.667 -66.833 -80.334 -122.5 -107.001s-119.167 -40 -190.5 -40zM442.003 124c33.333 0 63 14.6689 89 44.002s39 69 39 119c0 37.333 -9 65.5 -27 84.5s-43.667 28.5 -77 28.5c-32.667 0 -60.5 -14.833 -83.5 -44.5s-34.5 -69.834 -34.5 -120.501
c0 -34.667 8.66699 -61.834 26 -81.501s40 -29.5 68 -29.5z" />
    <glyph glyph-name="A" unicode="A" horiz-adv-x="686" 
d="M288 715h114l242 -715h-86l-70 206h-295l-69 -206h-82zM217 275h248l-124 368z" />
    <glyph glyph-name="B" unicode="B" horiz-adv-x="634" 
d="M96 715l215 -0.000976562c153.333 0 230 -61.667 230 -185v-4c0 -76 -36 -126.333 -108 -151c51.333 -12 88 -31.667 110 -59s33 -64.666 33 -111.999v-4c0 -66 -20.833 -115.833 -62.5 -149.5s-99.167 -50.5 -172.5 -50.5h-245v715zM339 67.999
c101.333 0 152 44.333 152 133v4c0 44.667 -13 77.5 -39 98.5s-67.667 31.5 -125 31.5h-146v-267h158zM311 402.999c52 0 89.168 9.83203 111.501 29.499s33.5 51.834 33.5 96.501v4c0 40 -11.833 69 -35.5 87s-60.834 27 -111.501 27h-128v-244h130z" />
    <glyph glyph-name="C" unicode="C" horiz-adv-x="742" 
d="M395 -9c-103.333 0 -184.833 32.6699 -244.5 98.0029s-89.5 153.333 -89.5 264v8c0 106 31.667 193.333 95 262s143.666 103 240.999 103c78 0 143.833 -20.333 197.5 -61s84.5 -98.334 92.5 -173.001h-86c-10 55.333 -31.167 96.666 -63.5 123.999s-78.833 41 -139.5 41
c-74 0 -133.667 -26.833 -179 -80.5s-68 -125.167 -68 -214.5v-8c0 -91.333 21.833 -162.833 65.5 -214.5s103.834 -77.5 180.501 -77.5c59.333 0 107.833 14.833 145.5 44.5s61.167 73.167 70.5 130.5h81c-12 -80.667 -44.333 -141.834 -97 -183.501s-120 -62.5 -202 -62.5
z" />
    <glyph glyph-name="D" unicode="D" horiz-adv-x="708" 
d="M281 71c90 0 158.5 25.168 205.5 75.501s70.5 120.166 70.5 209.499v8c0 87.333 -22.5 156 -67.5 206s-114.833 75 -209.5 75h-97v-574h98zM96 715.001l189 0.000976562c118 0 207.833 -32.333 269.5 -97s92.5 -149.334 92.5 -254.001v-9
c0 -104.667 -30.667 -190 -92 -256s-152 -99 -272 -99h-187v715z" />
    <glyph glyph-name="E" unicode="E" horiz-adv-x="578" 
d="M96 715h417v-71h-330v-243h266v-71h-266v-259h348v-71h-435v715z" />
    <glyph glyph-name="F" unicode="F" horiz-adv-x="558" 
d="M96 715h418v-71h-331v-253h258v-71h-258v-320h-87v715z" />
    <glyph glyph-name="G" unicode="G" horiz-adv-x="779" 
d="M407 -9c-107.333 0 -191.833 33.5 -253.5 100.5s-92.5 154.167 -92.5 261.5v8c0 105.333 32.167 192.5 96.5 261.5s147.5 103.5 249.5 103.5c76 0 141 -18.833 195 -56.5s86 -94.5 96 -170.5h-87c-18.667 105.333 -86 158 -202 158
c-81.333 0 -144.666 -26.833 -189.999 -80.5s-68 -125.167 -68 -214.5v-8c0 -90.667 22 -162.167 66 -214.5s107.333 -78.5 190 -78.5c74 0 129.667 21 167 63s56.666 97 57.999 165h-209v72h294v-53c0 -101.333 -28.167 -179.5 -84.5 -234.5s-131.5 -82.5 -225.5 -82.5z
" />
    <glyph glyph-name="H" unicode="H" horiz-adv-x="742" 
d="M96 715h87v-324h376v324h87v-715h-87v318h-376v-318h-87v715z" />
    <glyph glyph-name="I" unicode="I" horiz-adv-x="289" 
d="M101 715h87v-715h-87v715z" />
    <glyph glyph-name="J" unicode="J" horiz-adv-x="432" 
d="M144 -9c-44.667 0 -78 6.33301 -100 19v72c32.667 -13.333 64.334 -20 95.001 -20c77.333 0 116 45.333 116 136v517h87v-521c0 -68 -18.333 -118.833 -55 -152.5s-84.334 -50.5 -143.001 -50.5z" />
    <glyph glyph-name="K" unicode="K" horiz-adv-x="628" 
d="M96 715h87v-344l311 345h97l-318 -348l334 -368h-105l-319 349v-349h-87v715z" />
    <glyph glyph-name="L" unicode="L" horiz-adv-x="547" 
d="M96 715h87v-644h327v-71h-414v715z" />
    <glyph glyph-name="M" unicode="M" horiz-adv-x="868" 
d="M96 715h121l221 -557l214 557h120v-715h-87v602l-237 -602h-27l-245 602v-602h-80v715z" />
    <glyph glyph-name="N" unicode="N" horiz-adv-x="736" 
d="M96 715h113l348 -591v591h83v-715h-100l-361 613v-613h-83v715z" />
    <glyph glyph-name="O" unicode="O" horiz-adv-x="823" 
d="M415 63c78.667 0 141.168 26.999 187.501 80.999s69.5 124.667 69.5 212v8c0 82.667 -23.333 151.667 -70 207s-109.667 83 -189 83c-81.333 0 -145.333 -26.833 -192 -80.5s-70 -124.167 -70 -211.5v-8c0 -85.333 25.167 -155.166 75.5 -209.499
s113.166 -81.5 188.499 -81.5zM415.001 -9.00098c-104 0 -189 34.834 -255 104.501s-99 155.5 -99 257.5v8c0 103.333 32.833 189.666 98.5 258.999s150.167 104 253.5 104s187.333 -34.5 252 -103.5s97 -154.833 97 -257.5v-8c0 -102.667 -32.333 -189 -97 -259
s-148 -105 -250 -105z" />
    <glyph glyph-name="P" unicode="P" horiz-adv-x="593" 
d="M96 715h203c73.333 0 133.333 -17.167 180 -51.5s70 -86.833 70 -157.5v-4c0 -72 -23.167 -125.167 -69.5 -159.5s-106.5 -51.5 -180.5 -51.5h-116v-291h-87v715zM305 360c51.333 0 90.333 12.167 117 36.5s40 59.5 40 105.5v4c0 92.667 -52.333 139 -157 139h-122v-285
h122z" />
    <glyph glyph-name="Q" unicode="Q" horiz-adv-x="823" 
d="M565 23c-46 -21.333 -96 -31.999 -150 -31.999c-104 0 -189 34.833 -255 104.5s-99 155.5 -99 257.5v8c0 103.333 32.833 189.666 98.5 258.999s150.167 104 253.5 104s187.333 -34.5 252 -103.5s97 -154.833 97 -257.5v-8c0 -60 -11.667 -115.333 -35 -166
s-56.333 -93 -99 -127l90 -100l-53 -51zM415 63.001c36.667 0 69.334 5.99902 98.001 17.999l-80 90l53 51l91 -103c63.333 54 95 133 95 237v8c0 82.667 -23.333 151.667 -70 207s-109.667 83 -189 83c-81.333 0 -145.333 -26.833 -192 -80.5s-70 -124.167 -70 -211.5v-8
c0 -85.333 25.167 -155.166 75.5 -209.499s113.166 -81.5 188.499 -81.5z" />
    <glyph glyph-name="R" unicode="R" horiz-adv-x="640" 
d="M96 715l215.001 -0.000976562c74 0 134.167 -16.333 180.5 -49s69.5 -82.667 69.5 -150v-4c0 -55.333 -16.333 -99.166 -49 -131.499s-75.334 -53.5 -128.001 -63.5l219 -317h-97l-213 311h-110v-311h-87v715zM317.001 379.999c104.667 0 157 43.999 157 131.999v4
c0 46.667 -13.333 79.834 -40 99.501s-65.667 29.5 -117 29.5h-134v-265h134z" />
    <glyph glyph-name="S" unicode="S" horiz-adv-x="639" 
d="M327 -9c-88.667 0 -154.498 20.8311 -197.498 62.498s-68.167 96.5 -75.5 164.5h84c3.33301 -23.333 8.16602 -43.666 14.499 -60.999s16.333 -33.666 30 -48.999s32.5 -27 56.5 -35s53.333 -12 88 -12c46.667 0 85.5 12.5 116.5 37.5s46.5 57.5 46.5 97.5
c0 41.333 -12.167 72 -36.5 92s-69.833 35 -136.5 45c-80.667 12.667 -140.667 33.5 -180 62.5s-59 73.833 -59 134.5c0 55.333 21.667 101.5 65 138.5s98.333 55.5 165 55.5c72 0 129.167 -16.833 171.5 -50.5s67.166 -82.5 74.499 -146.5h-78
c-8.66699 45.333 -26.167 77.833 -52.5 97.5s-64.833 29.5 -115.5 29.5c-48 0 -84.833 -10.5 -110.5 -31.5s-38.5 -49.167 -38.5 -84.5c0 -37.333 11.333 -65.5 34 -84.5s68.667 -33.5 138 -43.5c84 -12.667 145.5 -34.5 184.5 -65.5s58.5 -78.5 58.5 -142.5
c0 -60 -23.5 -110.167 -70.5 -150.5s-105.833 -60.5 -176.5 -60.5z" />
    <glyph glyph-name="T" unicode="T" horiz-adv-x="573" 
d="M243 644h-208v71h503v-71h-208v-644h-87v644z" />
    <glyph glyph-name="U" unicode="U" horiz-adv-x="708" 
d="M347 -9c-82.667 0 -146.167 23.168 -190.5 69.501s-66.5 113.166 -66.5 200.499v454h87v-444c0 -74 13.5 -127.167 40.5 -159.5s70.833 -48.5 131.5 -48.5c61.333 0 107 16 137 48s45 89.667 45 173v431h87v-443c0 -89.333 -22.667 -158.5 -68 -207.5
s-113 -73.5 -203 -73.5z" />
    <glyph glyph-name="V" unicode="V" horiz-adv-x="666" 
d="M36 715h86l213 -631l213 631h82l-247 -715h-104z" />
    <glyph glyph-name="W" unicode="W" horiz-adv-x="940" 
d="M40 715h89l145 -577l168 577h62l168 -579l147 579h81l-186 -715h-80l-162 565l-167 -565h-79z" />
    <glyph glyph-name="X" unicode="X" horiz-adv-x="669" 
d="M287 367l-220 348h96l178 -281l177 281h89l-222 -348l233 -367h-98l-191 301l-191 -301h-87z" />
    <glyph glyph-name="Y" unicode="Y" horiz-adv-x="610" 
d="M268 312l-239 403h98l187 -332l180 332h87l-226 -404v-311h-87v312z" />
    <glyph glyph-name="Z" unicode="Z" horiz-adv-x="607" 
d="M34 14l405 630h-369v71h489v-13l-394 -628h388v-74h-519v14z" />
    <glyph glyph-name="bracketleft" unicode="[" horiz-adv-x="368" 
d="M94 776h224v-66h-141v-792h141v-66h-224v924z" />
    <glyph glyph-name="backslash" unicode="\" horiz-adv-x="415" 
d="M36 776h76l291 -924h-76z" />
    <glyph glyph-name="bracketright" unicode="]" horiz-adv-x="368" 
d="M50 -82h141v792h-141v66h224v-924h-224v66z" />
    <glyph glyph-name="asciicircum" unicode="^" horiz-adv-x="519" 
d="M217 715h85l167 -307h-84l-127 236l-126 -236h-82z" />
    <glyph glyph-name="underscore" unicode="_" horiz-adv-x="406" 
d="M5 -92h396v-66h-396v66z" />
    <glyph glyph-name="grave" unicode="`" horiz-adv-x="412" 
d="M79 760h104l62 -147h-62z" />
    <glyph glyph-name="a" unicode="a" horiz-adv-x="552" 
d="M221 -9c-51.333 0 -93.165 12.832 -125.498 38.499s-48.5 64.167 -48.5 115.5c0 28.667 7.16699 53.834 21.5 75.501s34.166 38.667 59.499 51s53 21.333 83 27s62.667 8.5 98 8.5h75v38c0 42 -8.66699 72.167 -26 90.5s-46 27.5 -86 27.5c-72 0 -112 -31.333 -120 -94
h-83c5.33301 56 27.166 97.167 65.499 123.5s85.5 39.5 141.5 39.5c127.333 0 191 -62.333 191 -187v-345h-83v66c-40 -50 -94.333 -75 -163 -75zM229.001 56.999c45.333 0 82.5 11.168 111.5 33.501s43.5 53.166 43.5 92.499v65h-72c-121.333 0 -182 -34.333 -182 -103
c0 -58.667 33 -88 99 -88z" />
    <glyph glyph-name="b" unicode="b" horiz-adv-x="639" 
d="M350 -9c-40 0 -75.332 8.83398 -105.999 26.501s-54.334 40.5 -71.001 68.5v-86h-83v773h83v-338c15.333 26.667 39.333 49.5 72 68.5s67.667 28.5 105 28.5c70 0 127.167 -23.667 171.5 -71s66.5 -111.333 66.5 -192v-8c0 -80.667 -21.833 -145.834 -65.5 -195.501
s-101.167 -74.5 -172.5 -74.5zM342.001 60.001c52 0 91.668 16.835 119.001 50.502s41 82.5 41 146.5v8c0 63.333 -15.167 112.166 -45.5 146.499s-68.833 51.5 -115.5 51.5c-50.667 0 -91.834 -16.833 -123.501 -50.5s-47.5 -82.834 -47.5 -147.501v-8
c0 -64.667 15.5 -113.667 46.5 -147s72.833 -50 125.5 -50z" />
    <glyph glyph-name="c" unicode="c" horiz-adv-x="582" 
d="M307 -9c-74.667 0 -135.999 24.168 -183.999 72.501s-72 112.5 -72 192.5v8c0 78.667 24.5 143 73.5 193s109.167 75 180.5 75c60 0 111 -14.833 153 -44.5s66.667 -75.834 74 -138.501h-82c-12 76 -60.333 114 -145 114c-48.667 0 -88.834 -18.167 -120.501 -54.5
s-47.5 -84.5 -47.5 -144.5v-8c0 -62.667 15.5 -111 46.5 -145s72.5 -51 124.5 -51c39.333 0 73.166 11.167 101.499 33.5s44.5 53.833 48.5 94.5h77c-5.33301 -57.333 -29.166 -104.5 -71.499 -141.5s-94.5 -55.5 -156.5 -55.5z" />
    <glyph glyph-name="d" unicode="d" horiz-adv-x="639" 
d="M287 -9c-70 0 -126.833 23.168 -170.5 69.501s-65.5 109.833 -65.5 190.5v8c0 80 22.667 145.5 68 196.5s104 76.5 176 76.5c76 0 133 -31 171 -93v334h83v-773h-83v90c-15.333 -26.667 -40 -49.834 -74 -69.501s-69 -29.5 -105 -29.5zM296 60.001
c51.333 0 92.999 16.8311 124.999 50.498s48 82.834 48 147.501v8c0 66 -14.5 115.333 -43.5 148s-69.833 49 -122.5 49c-52 0 -92.667 -17.333 -122 -52s-44 -84 -44 -148v-8c0 -63.333 14.833 -111.666 44.5 -144.999s67.834 -50 114.501 -50z" />
    <glyph glyph-name="e" unicode="e" horiz-adv-x="580" 
d="M304 -9c-74.667 0 -135.501 24.333 -182.501 73s-70.5 112.667 -70.5 192v8c0 78.667 22.833 143 68.5 193s104.5 75 176.5 75c66.667 0 122.5 -21.5 167.5 -64.5s67.5 -108.167 67.5 -195.5v-27h-394c4 -123.333 60 -185 168 -185c82 0 128.333 30.333 139 91h83
c-9.33301 -52 -33.666 -91.667 -72.999 -119s-89.333 -41 -150 -41zM445.999 312c-7.33301 100.667 -57.334 151 -150.001 151c-42 0 -76.667 -13.333 -104 -40s-44.666 -63.667 -51.999 -111h306z" />
    <glyph glyph-name="f" unicode="f" horiz-adv-x="358" 
d="M108 453h-74.999v70h75v85c0 54 13.167 95.5 39.5 124.5s65.166 43.5 116.499 43.5c21.333 0 42 -3.33301 62 -10v-70c-16 7.33301 -35.667 11 -59 11c-50.667 0 -76 -30 -76 -90v-94h128v-70h-128v-453h-83v453z" />
    <glyph glyph-name="g" unicode="g" horiz-adv-x="639" 
d="M299 -191c-73.333 0 -129.333 14.834 -168 44.501s-61.667 68.5 -69 116.5h85c12 -60.667 62.333 -91 151 -91c53.333 0 94.666 13.167 123.999 39.5s44 66.833 44 121.5v76c-15.333 -26.667 -39.666 -49.834 -72.999 -69.501s-68 -29.5 -104 -29.5
c-68.667 0 -125.5 23.333 -170.5 70s-67.5 106 -67.5 178v7c0 72.667 23 134.167 69 184.5s104.333 75.5 175 75.5c76 0 133 -31 171 -93v84h83v-488c0 -73.333 -22.833 -129.333 -68.5 -168s-106.167 -58 -181.5 -58zM298 86.001c50 0 91 16.5 123 49.5s48 78.167 48 135.5
v7c0 58 -14.667 103.333 -44 136s-70 49 -122 49c-51.333 0 -91.833 -17.333 -121.5 -52s-44.5 -79.667 -44.5 -135v-8c0 -55.333 15.5 -99.5 46.5 -132.5s69.167 -49.5 114.5 -49.5z" />
    <glyph glyph-name="h" unicode="h" horiz-adv-x="610" 
d="M90 773h83v-333c13.333 26.667 34.333 48.667 63 66s63.667 26 105 26c57.333 0 102.333 -17 135 -51s49 -87.333 49 -160v-321h-83v327c0 46 -10 79.667 -30 101s-51 32 -93 32c-40.667 0 -75.167 -12.667 -103.5 -38s-42.5 -60.333 -42.5 -105v-317h-83v773z" />
    <glyph glyph-name="i" unicode="i" horiz-adv-x="267" 
d="M92 523h83v-523h-83v523zM132 632c-15.333 0 -28.333 5.33301 -39 16s-16 23.667 -16 39s5.33301 28.333 16 39s23.667 16 39 16s28.333 -5.33301 39 -16s16 -23.667 16 -39s-5.33301 -28.333 -16 -39s-23.667 -16 -39 -16z" />
    <glyph glyph-name="j" unicode="j" horiz-adv-x="267" 
d="M15 -121c28.667 2.66699 48.667 10.5 60 23.5s17 32.167 17 57.5v563h83v-556c0 -51.333 -12.5 -90 -37.5 -116s-65.833 -40 -122.5 -42v70zM132 632c-15.333 0 -28.333 5.33301 -39 16s-16 23.667 -16 39s5.33301 28.333 16 39s23.667 16 39 16s28.333 -5.33301 39 -16
s16 -23.667 16 -39s-5.33301 -28.333 -16 -39s-23.667 -16 -39 -16z" />
    <glyph glyph-name="k" unicode="k" horiz-adv-x="528" 
d="M90 773h83v-491l217 241h97l-224 -243l243 -280h-101l-232 271v-271h-83v773z" />
    <glyph glyph-name="l" unicode="l" horiz-adv-x="268" 
d="M92 773h84v-773h-84v773z" />
    <glyph glyph-name="m" unicode="m" horiz-adv-x="922" 
d="M90 523h82.998v-80c12.667 26 32.667 47.333 60 64s59.333 25 96 25c77.333 0 128.333 -32.667 153 -98c16.667 31.333 42 55.5 76 72.5s68.333 25.5 103 25.5c51.333 0 93.5 -16.833 126.5 -50.5s49.5 -86.167 49.5 -157.5v-324h-83v330c0 86.667 -37 130 -111 130
c-37.333 0 -69.666 -12.333 -96.999 -37s-41 -59 -41 -103v-320h-83v330c0 86.667 -37 130 -111 130c-37.333 0 -69.666 -12.333 -96.999 -37s-41 -59 -41 -103v-320h-83v523z" />
    <glyph glyph-name="n" unicode="n" horiz-adv-x="610" 
d="M90 523h83v-83c13.333 26.667 34.333 48.667 63 66s63.667 26 105 26c57.333 0 102.333 -17 135 -51s49 -87.333 49 -160v-321h-83v327c0 46 -10 79.667 -30 101s-51 32 -93 32c-40.667 0 -75.167 -12.667 -103.5 -38s-42.5 -60.333 -42.5 -105v-317h-83v523z" />
    <glyph glyph-name="o" unicode="o" horiz-adv-x="616" 
d="M308 60c52 0 93.502 18 124.502 54s46.5 83.667 46.5 143v7c0 60.667 -15.5 109 -46.5 145s-72.5 54 -124.5 54c-52.667 0 -94.334 -18 -125.001 -54s-46 -84 -46 -144v-8c0 -60.667 15.167 -108.667 45.5 -144s72.166 -53 125.499 -53zM307.002 -9
c-74 0 -135.166 25.168 -183.499 75.501s-72.5 113.833 -72.5 190.5v8c0 78 24.167 142 72.5 192s109.833 75 184.5 75s136.167 -24.833 184.5 -74.5s72.5 -113.5 72.5 -191.5v-8c0 -78.667 -24.333 -142.834 -73 -192.501s-110.334 -74.5 -185.001 -74.5z" />
    <glyph glyph-name="p" unicode="p" horiz-adv-x="639" 
d="M90 523l83 0.000976562v-88c15.333 26.667 39.333 49.5 72 68.5s67.667 28.5 105 28.5c70 0 127.167 -23.667 171.5 -71s66.5 -111.333 66.5 -192v-8c0 -80.667 -21.833 -145.834 -65.5 -195.501s-101.167 -74.5 -172.5 -74.5c-80 0 -139 31.667 -177 95v-268h-83v705z
M342 60.001c52 0 91.668 16.835 119.001 50.502s41 82.5 41 146.5v8c0 63.333 -15.167 112.166 -45.5 146.499s-68.833 51.5 -115.5 51.5c-50.667 0 -91.834 -16.833 -123.501 -50.5s-47.5 -82.834 -47.5 -147.501v-8c0 -64.667 15.5 -113.667 46.5 -147
s72.833 -50 125.5 -50z" />
    <glyph glyph-name="q" unicode="q" horiz-adv-x="639" 
d="M466 90c-15.333 -26.667 -40 -49.833 -74 -69.5s-69 -29.5 -105 -29.5c-70 0 -126.833 23.167 -170.5 69.5s-65.5 109.833 -65.5 190.5v8c0 80 22.667 145.5 68 196.5s104 76.5 176 76.5c76 0 133 -31 171 -93v84h83v-705h-83v272zM296 60.001
c51.333 0 92.999 16.8311 124.999 50.498s48 82.834 48 147.501v8c0 66 -14.5 115.333 -43.5 148s-69.833 49 -122.5 49c-52 0 -92.667 -17.333 -122 -52s-44 -84 -44 -148v-8c0 -63.333 14.833 -111.666 44.5 -144.999s67.834 -50 114.501 -50z" />
    <glyph glyph-name="r" unicode="r" horiz-adv-x="388" 
d="M90 523h83v-94c17.333 32 39.333 56.833 66 74.5s62 27.167 106 28.5v-78c-57.333 -2.66699 -100.333 -16 -129 -40s-43 -66.333 -43 -127v-287h-83v523z" />
    <glyph glyph-name="s" unicode="s" horiz-adv-x="492" 
d="M252 -9c-62.667 0 -111.827 14.834 -147.494 44.501s-54.834 71.5 -57.501 125.5h81c4 -33.333 15.5 -58.5 34.5 -75.5s48.5 -25.5 88.5 -25.5c39.333 0 68.166 6.83301 86.499 20.5s27.5 34.5 27.5 62.5c0 26 -9.5 45.167 -28.5 57.5s-50.167 22.5 -93.5 30.5
c-68 12 -115.333 29.333 -142 52s-40 56.667 -40 102s18.167 81.166 54.5 107.499s77.166 39.5 122.499 39.5c51.333 0 94.166 -12 128.499 -36s54.5 -62.333 60.5 -115h-80c-6 28.667 -17.5 49.5 -34.5 62.5s-42.167 19.5 -75.5 19.5c-30 0 -54 -6.83301 -72 -20.5
s-27 -31.834 -27 -54.501c0 -23.333 8.5 -41 25.5 -53s49.167 -22 96.5 -30c26 -5.33301 46.5 -10 61.5 -14s31.333 -9.83301 49 -17.5s31.167 -16.667 40.5 -27s17.166 -23.5 23.499 -39.5s9.5 -35 9.5 -57c0 -49.333 -16.333 -88.166 -49 -116.499
s-80.334 -42.5 -143.001 -42.5z" />
    <glyph glyph-name="t" unicode="t" horiz-adv-x="367" 
d="M249 -7c-46.667 0 -81.833 12.332 -105.5 36.999s-35.5 58.334 -35.5 101.001v322h-75v70h75v119h83v-119h122v-70h-122v-314c0 -50.667 21.667 -76 65 -76c22.667 0 44 3.66699 64 11v-70c-18 -7.33301 -41.667 -11 -71 -11z" />
    <glyph glyph-name="u" unicode="u" horiz-adv-x="606" 
d="M267 -9c-55.333 0 -99.5 16.332 -132.5 48.999s-49.5 83.334 -49.5 152.001v331h83v-327c0 -46 9.83301 -79.667 29.5 -101s50.167 -32 91.5 -32c40 0 74 12.667 102 38s42 60.333 42 105v317h83v-523h-83v83c-12.667 -26.667 -33.5 -48.667 -62.5 -66
s-63.5 -26 -103.5 -26z" />
    <glyph glyph-name="v" unicode="v" horiz-adv-x="546" 
d="M31 523h90l155 -439l153 439h86l-188 -523h-106z" />
    <glyph glyph-name="w" unicode="w" horiz-adv-x="806" 
d="M34 523h90l122 -421l127 421h72l119 -421l123 421h85l-163 -523h-92l-109 392l-122 -392h-91z" />
    <glyph glyph-name="x" unicode="x" horiz-adv-x="540" 
d="M221 269l-175 254h97l128 -190l127 190h90l-173 -248l191 -275h-98l-141 211l-144 -211h-89z" />
    <glyph glyph-name="y" unicode="y" horiz-adv-x="541" 
d="M236 54l-205 469h89l160 -375l145 375h85l-289 -705h-84z" />
    <glyph glyph-name="z" unicode="z" horiz-adv-x="495" 
d="M27 12l309 441h-279v70h407v-15l-302 -435h298v-73h-433v12z" />
    <glyph glyph-name="braceleft" unicode="{" horiz-adv-x="393" 
d="M343 -148c-77.333 0 -133 16.333 -167 49s-44.333 85.667 -31 159l19 104c6 33.333 -0.333008 61.666 -19 84.999s-51.667 35 -99 35v62c47.333 0 80.333 11.667 99 35s25 51.666 19 84.999l-19 104c-13.333 73.333 -3 126.333 31 159s89.667 49 167 49v-63
c-50.667 0 -85.334 -10.667 -104.001 -32s-23.667 -59.666 -15 -114.999l19 -115c6 -36.667 0 -66.667 -18 -90s-44.667 -39.333 -80 -48c35.333 -8.66699 62 -24.667 80 -48s24 -53.333 18 -90l-19 -115c-8.66699 -55.333 -3.66699 -93.666 15 -114.999
s53.334 -32 104.001 -32v-63z" />
    <glyph glyph-name="bar" unicode="|" horiz-adv-x="265" 
d="M99 776h67v-924h-67v924z" />
    <glyph glyph-name="braceright" unicode="}" horiz-adv-x="393" 
d="M50 -85c50.667 0 85.334 10.667 104.001 32s23.667 59.666 15 114.999l-19 115c-6 36.667 0 66.667 18 90s44.667 39.333 80 48c-35.333 8.66699 -62 24.667 -80 48s-24 53.333 -18 90l19 115c8.66699 55.333 3.66699 93.666 -15 114.999s-53.334 32 -104.001 32v63
c76.667 0 132.167 -16.333 166.5 -49s44.833 -85.667 31.5 -159l-19 -104c-6 -33.333 0.333008 -61.666 19 -84.999s51.667 -35 99 -35v-62c-47.333 0 -80.333 -11.667 -99 -35s-25 -51.666 -19 -84.999l19 -104c13.333 -73.333 2.83301 -126.333 -31.5 -159
s-89.833 -49 -166.5 -49v63z" />
    <glyph glyph-name="asciitilde" unicode="~" horiz-adv-x="457" 
d="M50 223c4 41.333 15.8311 73 35.498 95s43.167 33 70.5 33c24.667 0 52.167 -8.5 82.5 -25.5s49.5 -25.5 57.5 -25.5c11.333 0 21.333 4.5 30 13.5s13.667 22.167 15 39.5h66c-2.66699 -41.333 -14 -73 -34 -95s-43 -33 -69 -33c-26.667 0 -55.167 8.5 -85.5 25.5
s-49.166 25.5 -56.499 25.5c-25.333 0 -40.666 -17.667 -45.999 -53h-66z" />
    <glyph glyph-name="uni00A0" unicode="&#xa0;" horiz-adv-x="280" 
 />
    <glyph glyph-name="exclamdown" unicode="&#xa1;" horiz-adv-x="300" 
d="M150 603c18 0 33.167 -6 45.5 -18s18.5 -27 18.5 -45s-6.33301 -33.167 -19 -45.5s-27.667 -18.5 -45 -18.5s-32.333 6.16699 -45 18.5s-19 27.5 -19 45.5s6.16699 33 18.5 45s27.5 18 45.5 18zM195 -116h-92l14 513h64z" />
    <glyph glyph-name="cent" unicode="&#xa2;" horiz-adv-x="577" 
d="M273 -7c-66 6.66699 -119.497 33.668 -160.497 81.001s-61.5 108 -61.5 182v8c0 72.667 21 133.167 63 181.5s95 76.5 159 84.5v99h59v-99c53.333 -4 98.166 -20.833 134.499 -50.5s58.166 -73.167 65.499 -130.5h-82c-10 65.333 -49.333 102.666 -118 111.999v-399
c33.333 4 61.666 17 84.999 39s37 51 41 87h77c-5.33301 -52.667 -26.5 -97 -63.5 -133s-83.5 -56.667 -139.5 -62v-128h-59v128zM137.003 256.001c0 -56 11.833 -100.333 35.5 -133s57.167 -53 100.5 -61v398c-40.667 -7.33301 -73.5 -28.5 -98.5 -63.5
s-37.5 -79.167 -37.5 -132.5v-8z" />
    <glyph glyph-name="sterling" unicode="&#xa3;" horiz-adv-x="608" 
d="M54 377l65.0029 0.000976562c-12 46.667 -18 93.667 -18 141c0 60.667 21 110.167 63 148.5s94.333 57.5 157 57.5c63.333 0 113.666 -16.833 150.999 -50.5s58.333 -79.834 63 -138.501h-84c-6.66699 39.333 -20 68.833 -40 88.5s-50 29.5 -90 29.5
c-38.667 0 -70.334 -12.333 -95.001 -37s-37 -57.667 -37 -99c0 -39.333 5.66699 -86 17 -140h213v-62h-199c10 -50 15 -94 15 -132c0 -23.333 -4.33301 -45 -13 -65c18.667 -4.66699 48 -14.834 88 -30.501s68 -23.5 84 -23.5c57.333 0 87.666 28.667 90.999 86h73
c-3.33301 -48 -18.333 -86.5 -45 -115.5s-63 -43.5 -109 -43.5c-32 0 -73 10.5 -123 31.5s-83 31.5 -99 31.5c-20.667 0 -36.167 -5.16699 -46.5 -15.5s-16.5 -23.166 -18.5 -38.499h-73c2 26 11.833 51.333 29.5 76s42.167 40 73.5 46c8 19.333 12 40 12 62
c0 30 -7.66699 73.667 -23 131h-82v62z" />
    <glyph glyph-name="yen" unicode="&#xa5;" horiz-adv-x="588" 
d="M90 339h156l-212 376h94l175 -324l167 324h84l-200 -376h157v-58h-168v-78h168v-58h-168v-145h-85v145h-168v58h168v78h-168v58z" />
    <glyph glyph-name="brokenbar" unicode="&#xa6;" horiz-adv-x="272" 
d="M99 297h67v-445h-67v445zM99 776h67v-409h-67v409z" />
    <glyph glyph-name="section" unicode="&#xa7;" horiz-adv-x="551" 
d="M272 -137c-56.667 0 -101.833 14.3291 -135.5 42.9961s-51.167 68.667 -52.5 120h85c2.66699 -30.667 11.667 -53.834 27 -69.501s40 -23.5 74 -23.5s59.5 8.33301 76.5 25s25.5 38.334 25.5 65.001c0 27.333 -9.33301 48.333 -28 63s-56.334 29.334 -113.001 44.001
c-60 14.667 -105.5 35 -136.5 61s-46.5 62 -46.5 108c0 33.333 9.83301 61.666 29.5 84.999s47.5 40 83.5 50c-40.667 28.667 -61 71 -61 127c0 46 17.833 84.667 53.5 116s77.167 47 124.5 47c55.333 0 99.333 -13.667 132 -41s49.667 -66 51 -116h-84
c-2 28.667 -10.333 50.334 -25 65.001s-38.667 22 -72 22c-34 0 -59.167 -8.33301 -75.5 -25s-24.5 -38.667 -24.5 -66c0 -26.667 9 -47.667 27 -63s53.667 -29.333 107 -42c64.667 -17.333 112.334 -37.833 143.001 -61.5s46 -60.5 46 -110.5
c0 -29.333 -9.66699 -56.166 -29 -80.499s-46.333 -42.166 -81 -53.499c39.333 -28 59 -70.333 59 -127c0 -45.333 -17.5 -83.666 -52.5 -114.999s-77.5 -47 -127.5 -47zM332.001 184.996c59.333 14.667 89.001 46.002 89.001 94.002c0 27.333 -9.83301 48.166 -29.5 62.499
s-51.5 27.166 -95.5 38.499l-79 21c-26.667 -5.33301 -47.834 -16.5 -63.501 -33.5s-23.5 -37.5 -23.5 -61.5c0 -25.333 10 -45.333 30 -60s52.333 -28 97 -40z" />
    <glyph glyph-name="dieresis" unicode="&#xa8;" horiz-adv-x="412" 
d="M112 634c-14.667 0 -27.167 5.16699 -37.5 15.5s-15.5 22.833 -15.5 37.5s5.16699 27.167 15.5 37.5s22.833 15.5 37.5 15.5s27.167 -5.16699 37.5 -15.5s15.5 -22.833 15.5 -37.5s-5.16699 -27.167 -15.5 -37.5s-22.833 -15.5 -37.5 -15.5zM300 634
c-14.667 0 -27.167 5.16699 -37.5 15.5s-15.5 22.833 -15.5 37.5s5.16699 27.167 15.5 37.5s22.833 15.5 37.5 15.5s27.167 -5.16699 37.5 -15.5s15.5 -22.833 15.5 -37.5s-5.16699 -27.167 -15.5 -37.5s-22.833 -15.5 -37.5 -15.5z" />
    <glyph glyph-name="copyright" unicode="&#xa9;" horiz-adv-x="856" 
d="M429 155c-60 0 -106.999 17.834 -140.999 53.501s-51 83.834 -51 144.501v8c0 59.333 18 107.333 54 144s82 55 138 55c47.333 0 86.333 -11.833 117 -35.5s48 -57.834 52 -102.501h-76c-8 52 -39 78 -93 78c-34.667 0 -62.167 -12.333 -82.5 -37
s-30.5 -58.667 -30.5 -102v-7c0 -44 9.83301 -78 29.5 -102s47.5 -36 83.5 -36c59.333 0 93 27.667 101 83h72c-5.33301 -46.667 -23.333 -82.334 -54 -107.001s-70.334 -37 -119.001 -37zM427.001 33.001c87.333 0 162.498 30.833 225.498 92.5s94.5 139.5 94.5 233.5
c0 92.667 -31.167 169.667 -93.5 231s-137.166 92 -224.499 92c-89.333 0 -165 -30.667 -227 -92s-93 -139 -93 -233s31.333 -171.5 94 -232.5s137.334 -91.5 224.001 -91.5zM426.999 -8.99902c-102.667 0 -189.332 35.168 -259.999 105.501s-106 157.166 -106 260.499
c0 102 35.667 188.667 107 260s158.333 107 261 107c103.333 0 190.166 -35.333 260.499 -106s105.5 -157 105.5 -259c0 -104 -35.5 -191.333 -106.5 -262s-158.167 -106 -261.5 -106z" />
    <glyph glyph-name="ordfeminine" unicode="&#xaa;" horiz-adv-x="431" 
d="M176 290c-40.667 0 -74.168 10.5 -100.501 31.5s-39.5 51.833 -39.5 92.5c0 45.333 19.833 78.5 59.5 99.5s90.5 31.5 152.5 31.5h58v26c0 32 -6.66699 55 -20 69s-35 21 -65 21c-52.667 0 -82.667 -22.667 -90 -68h-77c4 44 21.833 76.833 53.5 98.5
s70.834 32.5 117.501 32.5c106 0 159 -50.667 159 -152v-274h-78v52c-30 -40 -73.333 -60 -130 -60zM189.999 351c34.667 0 62.667 8.16699 84 24.5s32 39.5 32 69.5v46h-56c-90 0 -135 -25 -135 -75c0 -43.333 25 -65 75 -65z" />
    <glyph glyph-name="guillemotleft" unicode="&#xab;" horiz-adv-x="512" 
d="M65 261l130 178h82l-125 -178l125 -178h-82zM243 261l130 178h82l-125 -178l125 -178h-82z" />
    <glyph glyph-name="uni00AD" unicode="&#xad;" horiz-adv-x="346" 
d="M66 314h214v-78h-214v78z" />
    <glyph glyph-name="registered" unicode="&#xae;" horiz-adv-x="526" 
d="M187 615l77 0.000976562c56 0 84 -22 84 -66v-1c0 -30.667 -15 -50.334 -45 -59.001l58 -93h-50l-53 85h-23v-85h-48v219zM263 514.001c25.333 0 38 10.667 38 32v1c0 20.667 -12.667 31 -38 31h-28v-64h28zM263 318.001c52 0 95.333 17.334 130 52.001s52 79 52 133
c0 54.667 -17 99.167 -51 133.5s-77.667 51.5 -131 51.5s-97 -17.333 -131 -52s-51 -79.334 -51 -134.001c0 -54 17.333 -98.167 52 -132.5s78 -51.5 130 -51.5zM263 282.002c-62 0 -114.501 21.167 -157.501 63.5s-64.5 94.5 -64.5 156.5s21.5 114.5 64.5 157.5
s95.5 64.5 157.5 64.5c62.667 0 115.334 -21.333 158.001 -64s64 -95 64 -157s-21.5 -114.333 -64.5 -157s-95.5 -64 -157.5 -64z" />
    <glyph glyph-name="macron" unicode="&#xaf;" horiz-adv-x="412" 
d="M75 712h262v-64h-262v64z" />
    <glyph glyph-name="degree" unicode="&#xb0;" horiz-adv-x="439" 
d="M220 464c26 0 47.333 9.49902 64 28.499s25 42.833 25 71.5c0 30 -8.33301 54.5 -25 73.5s-38 28.5 -64 28.5c-27.333 0 -49.666 -9.66699 -66.999 -29s-26 -43.666 -26 -72.999c0 -28.667 8.66699 -52.5 26 -71.5s39.666 -28.5 66.999 -28.5zM220 405.999
c-45.333 0 -84 15.5 -116 46.5s-48 68.167 -48 111.5c0 44 16 81.667 48 113s70.667 47 116 47c44.667 0 83 -15.667 115 -47s48 -69 48 -113c0 -43.333 -16 -80.5 -48 -111.5s-70.333 -46.5 -115 -46.5z" />
    <glyph glyph-name="plusminus" unicode="&#xb1;" horiz-adv-x="531" 
d="M229 327h-187v70h187v182h73v-182h187v-70h-187v-182h-73v182zM42 70h447v-70h-447v70z" />
    <glyph glyph-name="twosuperior" unicode="&#xb2;" horiz-adv-x="298" 
d="M14 384l128 136.001c36 38 54 70.333 54 97c0 15.333 -4.33301 27.5 -13 36.5s-21 13.5 -37 13.5c-33.333 0 -53.333 -22 -60 -66h-61c2 38 13.833 67.167 35.5 87.5s50.834 30.5 87.501 30.5c35.333 0 63.166 -9.16699 83.499 -27.5s30.5 -42.833 30.5 -73.5
c0 -38.667 -22 -79.334 -66 -122.001l-73 -72h142v-51h-251v11z" />
    <glyph glyph-name="threesuperior" unicode="&#xb3;" horiz-adv-x="323" 
d="M158 368c-41.333 0 -73.1689 9.83301 -95.502 29.5s-34.166 46.834 -35.499 81.501h61c4.66699 -40.667 27.334 -61 68.001 -61c42 0 63 18 63 54s-20 54 -60 54h-26v47h25c37.333 0 56 16.333 56 49c0 14 -4.5 25.333 -13.5 34s-21.833 13 -38.5 13
c-17.333 0 -31.5 -4.83301 -42.5 -14.5s-17.5 -23.167 -19.5 -40.5h-61c2 31.333 14 56.666 36 75.999s51.333 29 88 29c35.333 0 63.333 -8.66699 84 -26s31 -39.333 31 -66c0 -36 -19 -60.667 -57 -74c44.667 -10 67 -37.333 67 -82c0 -32 -11.667 -57.167 -35 -75.5
s-55 -27.5 -95 -27.5z" />
    <glyph glyph-name="acute" unicode="&#xb4;" horiz-adv-x="412" 
d="M229 760h104l-104 -147h-62z" />
    <glyph glyph-name="mu" unicode="&#xb5;" horiz-adv-x="599" 
d="M84 523h83.001v-334c0 -84 40.333 -126 121 -126c40 0 74 12.667 102 38s42 60.333 42 105v317h83v-523h-83v83c-12.667 -26 -32.667 -47.333 -60 -64s-60 -25 -98 -25c-50.667 0 -86.334 18.333 -107.001 55v-231h-83v705z" />
    <glyph glyph-name="paragraph" unicode="&#xb6;" horiz-adv-x="600" 
d="M282 346h-14c-65.333 0 -117.833 15.5 -157.5 46.5s-59.5 75.833 -59.5 134.5c0 61.333 20 108 60 140s92.333 48 157 48h232v-815h-69v758h-81v-758h-68v446z" />
    <glyph glyph-name="periodcentered" unicode="&#xb7;" horiz-adv-x="294" 
d="M147 263c-17.333 0 -32.333 6.16699 -45 18.5s-19 27.5 -19 45.5s6.33301 33.167 19 45.5s27.667 18.5 45 18.5s32.333 -6.16699 45 -18.5s19 -27.5 19 -45.5s-6.33301 -33.167 -19 -45.5s-27.667 -18.5 -45 -18.5z" />
    <glyph glyph-name="cedilla" unicode="&#xb8;" horiz-adv-x="412" 
d="M214 -214c-29.333 0 -52.8311 7.49902 -70.498 22.499s-27.5 35.5 -29.5 61.5h54c5.33301 -24 19.666 -36 42.999 -36c12 0 21.667 3.33301 29 10s11 15.334 11 26.001s-3.33301 19 -10 25s-15.334 9 -26.001 9c-10 0 -19.333 -2.66699 -28 -8l-32 28l42 76h53l-29 -53
c25.333 2.66699 47.333 -2.83301 66 -16.5s28 -35.167 28 -64.5c0 -25.333 -9.66699 -45 -29 -59s-43.333 -21 -72 -21z" />
    <glyph glyph-name="onesuperior" unicode="&#xb9;" horiz-adv-x="243" 
d="M111 649l-81 -54v59l89 61h60v-342h-68v276z" />
    <glyph glyph-name="ordmasculine" unicode="&#xba;" horiz-adv-x="505" 
d="M253 354c39.333 0 70.333 13.5 93 40.5s34 63.5 34 109.5v6c0 46 -11.333 82.5 -34 109.5s-53.667 40.5 -93 40.5c-40 0 -71.333 -13.5 -94 -40.5s-34 -63.5 -34 -109.5v-6c0 -46 11.333 -82.5 34 -109.5s54 -40.5 94 -40.5zM252 290
c-60.667 0 -110.667 20.001 -150 60.001s-59 91 -59 153v6c0 63.333 19.833 115 59.5 155s89.834 60 150.501 60s110.667 -19.833 150 -59.5s59 -90.834 59 -153.501v-6c0 -64 -19.833 -115.833 -59.5 -155.5s-89.834 -59.5 -150.501 -59.5z" />
    <glyph glyph-name="guillemotright" unicode="&#xbb;" horiz-adv-x="512" 
d="M182 261l-125 178h82l130 -178l-130 -178h-82zM360 261l-125 178h82l130 -178l-130 -178h-82z" />
    <glyph glyph-name="onequarter" unicode="&#xbc;" horiz-adv-x="690" 
d="M114 649l-81 -54v59l89 61h60v-342h-68v276zM562 715h66l-507 -715h-66zM552 69h-172v24l153 249h83v-224h45v-49h-45v-69h-64v69zM553 118v173l-101 -173h101z" />
    <glyph glyph-name="onehalf" unicode="&#xbd;" horiz-adv-x="689" 
d="M114 649l-81 -54v59l89 61h60v-342h-68v276zM549 715h66l-507 -715h-66zM401 11l128 136.001c36 38 54 70.333 54 97c0 15.333 -4.33301 27.5 -13 36.5s-21 13.5 -37 13.5c-33.333 0 -53.333 -22 -60 -66h-61c2 38 13.833 67.167 35.5 87.5s50.834 30.5 87.501 30.5
c35.333 0 63.166 -9.16699 83.499 -27.5s30.5 -42.833 30.5 -73.5c0 -38.667 -22 -79.334 -66 -122.001l-73 -72h142v-51h-251v11z" />
    <glyph glyph-name="threequarters" unicode="&#xbe;" horiz-adv-x="693" 
d="M161 368c-41.333 0 -73.1689 9.83301 -95.502 29.5s-34.166 46.834 -35.499 81.501h61c4.66699 -40.667 27.334 -61 68.001 -61c42 0 63 18 63 54s-20 54 -60 54h-26v47h25c37.333 0 56 16.333 56 49c0 14 -4.5 25.333 -13.5 34s-21.833 13 -38.5 13
c-17.333 0 -31.5 -4.83301 -42.5 -14.5s-17.5 -23.167 -19.5 -40.5h-61c2 31.333 14 56.666 36 75.999s51.333 29 88 29c35.333 0 63.333 -8.66699 84 -26s31 -39.333 31 -66c0 -36 -19 -60.667 -57 -74c44.667 -10 67 -37.333 67 -82c0 -32 -11.667 -57.167 -35 -75.5
s-55 -27.5 -95 -27.5zM597.997 715h66l-507 -715h-66zM551.997 69h-172v24l153 249h83v-224h45v-49h-45v-69h-64v69zM552.997 118v173l-101 -173h101z" />
    <glyph glyph-name="questiondown" unicode="&#xbf;" horiz-adv-x="501" 
d="M316 346c0 -24.667 -5.66406 -48.8301 -16.9971 -72.4971s-23 -42.334 -35 -56.001s-29 -30.834 -51 -51.501c-16 -16 -28.333 -29.167 -37 -39.5s-16.834 -23 -24.501 -38s-11.5 -30.167 -11.5 -45.5c0 -66.667 35.667 -100 107 -100c38 0 68.833 11.667 92.5 35
s37.167 55 40.5 95h78c-4 -59.333 -25.167 -107.333 -63.5 -144s-87.833 -55 -148.5 -55c-63.333 0 -110.833 16 -142.5 48s-47.5 71.333 -47.5 118c0 23.333 5.5 45.833 16.5 67.5s22 38.667 33 51s27.167 28.5 48.5 48.5c19.333 18 34.166 32.833 44.499 44.5
s20.166 26.667 29.499 45s14 37.166 14 56.499v43h74v-50zM281.003 602.004c18 0 33.167 -6 45.5 -18s18.5 -27 18.5 -45s-6.33301 -33.167 -19 -45.5s-27.667 -18.5 -45 -18.5s-32.333 6.16699 -45 18.5s-19 27.5 -19 45.5s6.16699 33 18.5 45s27.5 18 45.5 18z" />
    <glyph glyph-name="Agrave" unicode="&#xc0;" horiz-adv-x="686" 
d="M288 715h114l242 -715h-86l-70 206h-295l-69 -206h-82zM217 275h248l-124 368zM220 898h104l56 -127h-62z" />
    <glyph glyph-name="Aacute" unicode="&#xc1;" horiz-adv-x="686" 
d="M288 715h114l242 -715h-86l-70 206h-295l-69 -206h-82zM217 275h248l-124 368zM362 898h104l-98 -127h-62z" />
    <glyph glyph-name="Acircumflex" unicode="&#xc2;" horiz-adv-x="686" 
d="M288 715h114l242 -715h-86l-70 206h-295l-69 -206h-82zM217 275h248l-124 368zM306 898h75l107 -127h-61l-85 58l-85 -58h-59z" />
    <glyph glyph-name="Atilde" unicode="&#xc3;" horiz-adv-x="686" 
d="M288 715h114l242 -715h-86l-70 206h-295l-69 -206h-82zM217 275h248l-124 368zM397 774c-15.333 0 -35.001 7.16699 -59.001 21.5s-40.333 21.5 -49 21.5c-9.33301 0 -17.666 -4.16699 -24.999 -12.5s-12.333 -19.166 -15 -32.499h-60c4 35.333 15.333 63.5 34 84.5
s41 31.5 67 31.5c15.333 0 34.833 -7.16699 58.5 -21.5s39.834 -21.5 48.501 -21.5c9.33301 0 17.666 4.16699 24.999 12.5s12.333 19.166 15 32.499h60c-4 -35.333 -15.167 -63.5 -33.5 -84.5s-40.5 -31.5 -66.5 -31.5z" />
    <glyph glyph-name="Adieresis" unicode="&#xc4;" horiz-adv-x="686" 
d="M288 715h114l242 -715h-86l-70 206h-295l-69 -206h-82zM217 275h248l-124 368zM241 789c-14.667 0 -27.167 5.16699 -37.5 15.5s-15.5 22.833 -15.5 37.5s5.16699 27.167 15.5 37.5s22.833 15.5 37.5 15.5s27.167 -5.16699 37.5 -15.5s15.5 -22.833 15.5 -37.5
s-5.16699 -27.167 -15.5 -37.5s-22.833 -15.5 -37.5 -15.5zM444 789c-14.667 0 -27.167 5.16699 -37.5 15.5s-15.5 22.833 -15.5 37.5s5.16699 27.167 15.5 37.5s22.833 15.5 37.5 15.5s27.167 -5.16699 37.5 -15.5s15.5 -22.833 15.5 -37.5s-5.16699 -27.167 -15.5 -37.5
s-22.833 -15.5 -37.5 -15.5z" />
    <glyph glyph-name="Aring" unicode="&#xc5;" horiz-adv-x="686" 
d="M288 715h114l242 -715h-86l-70 206h-295l-69 -206h-82zM217 275h248l-124 368zM343 805c15.333 0 28 5.5 38 16.5s15 24.833 15 41.5s-5 30.5 -15 41.5s-22.667 16.5 -38 16.5s-28 -5.5 -38 -16.5s-15 -24.833 -15 -41.5s5 -30.5 15 -41.5s22.667 -16.5 38 -16.5z
M343 759c-29.333 0 -54.5 10.167 -75.5 30.5s-31.5 44.833 -31.5 73.5s10.5 53.167 31.5 73.5s46.167 30.5 75.5 30.5s54.5 -10.167 75.5 -30.5s31.5 -44.833 31.5 -73.5s-10.5 -53.167 -31.5 -73.5s-46.167 -30.5 -75.5 -30.5z" />
    <glyph glyph-name="AE" unicode="&#xc6;" horiz-adv-x="962" 
d="M405 715h492v-71h-330v-243h266v-71h-266v-259h348v-71h-435v207h-252l-105 -207h-88zM262 275h218v369h-31z" />
    <glyph glyph-name="Ccedilla" unicode="&#xc7;" horiz-adv-x="742" 
d="M387 -214c-29.333 0 -52.8311 7.5 -70.498 22.5s-27.5 35.5 -29.5 61.5h54c5.33301 -24 19.666 -36 42.999 -36c12 0 21.667 3.33301 29 10s11 15.334 11 26.001s-3.33301 19 -10 25s-15.334 9 -26.001 9c-10 0 -19.333 -2.66699 -28 -8l-32 28l37 68
c-94.667 6.66699 -169 42.167 -223 106.5s-81 149.166 -81 254.499v8c0 106 31.667 193.333 95 262s143.666 103 240.999 103c78 0 143.833 -20.333 197.5 -61s84.5 -98.334 92.5 -173.001h-86c-10 55.333 -31.167 96.666 -63.5 123.999s-78.833 41 -139.5 41
c-74 0 -133.667 -26.833 -179 -80.5s-68 -125.167 -68 -214.5v-8c0 -91.333 21.833 -162.833 65.5 -214.5s103.834 -77.5 180.501 -77.5c59.333 0 107.833 14.833 145.5 44.5s61.167 73.167 70.5 130.5h81c-12 -77.333 -42 -136.666 -90 -177.999s-110 -63.666 -186 -66.999
l-24 -45c25.333 2.66699 47.333 -2.83301 66 -16.5s28 -35.167 28 -64.5c0 -25.333 -9.66699 -45 -29 -59s-43.333 -21 -72 -21z" />
    <glyph glyph-name="Egrave" unicode="&#xc8;" horiz-adv-x="578" 
d="M96 715h417v-71h-330v-243h266v-71h-266v-259h348v-71h-435v715zM189 898h104l56 -127h-62z" />
    <glyph glyph-name="Eacute" unicode="&#xc9;" horiz-adv-x="578" 
d="M96 715h417v-71h-330v-243h266v-71h-266v-259h348v-71h-435v715zM331 898h104l-98 -127h-62z" />
    <glyph glyph-name="Ecircumflex" unicode="&#xca;" horiz-adv-x="578" 
d="M96 715h417v-71h-330v-243h266v-71h-266v-259h348v-71h-435v715zM275 898h75l107 -127h-61l-85 58l-85 -58h-59z" />
    <glyph glyph-name="Edieresis" unicode="&#xcb;" horiz-adv-x="578" 
d="M96 715h417v-71h-330v-243h266v-71h-266v-259h348v-71h-435v715zM210 789c-14.667 0 -27.167 5.16699 -37.5 15.5s-15.5 22.833 -15.5 37.5s5.16699 27.167 15.5 37.5s22.833 15.5 37.5 15.5s27.167 -5.16699 37.5 -15.5s15.5 -22.833 15.5 -37.5
s-5.16699 -27.167 -15.5 -37.5s-22.833 -15.5 -37.5 -15.5zM413 789c-14.667 0 -27.167 5.16699 -37.5 15.5s-15.5 22.833 -15.5 37.5s5.16699 27.167 15.5 37.5s22.833 15.5 37.5 15.5s27.167 -5.16699 37.5 -15.5s15.5 -22.833 15.5 -37.5s-5.16699 -27.167 -15.5 -37.5
s-22.833 -15.5 -37.5 -15.5z" />
    <glyph glyph-name="Igrave" unicode="&#xcc;" horiz-adv-x="289" 
d="M101 715h87v-715h-87v715zM21 898h104l56 -127h-62z" />
    <glyph glyph-name="Iacute" unicode="&#xcd;" horiz-adv-x="289" 
d="M101 715h87v-715h-87v715zM163 898h104l-98 -127h-62z" />
    <glyph glyph-name="Icircumflex" unicode="&#xce;" horiz-adv-x="289" 
d="M101 715h87v-715h-87v715zM107 898h75l107 -127h-61l-85 58l-85 -58h-59z" />
    <glyph glyph-name="Idieresis" unicode="&#xcf;" horiz-adv-x="289" 
d="M101 715h87v-715h-87v715zM42 789c-14.667 0 -27.167 5.16699 -37.5 15.5s-15.5 22.833 -15.5 37.5s5.16699 27.167 15.5 37.5s22.833 15.5 37.5 15.5s27.167 -5.16699 37.5 -15.5s15.5 -22.833 15.5 -37.5s-5.16699 -27.167 -15.5 -37.5s-22.833 -15.5 -37.5 -15.5z
M245 789c-14.667 0 -27.167 5.16699 -37.5 15.5s-15.5 22.833 -15.5 37.5s5.16699 27.167 15.5 37.5s22.833 15.5 37.5 15.5s27.167 -5.16699 37.5 -15.5s15.5 -22.833 15.5 -37.5s-5.16699 -27.167 -15.5 -37.5s-22.833 -15.5 -37.5 -15.5z" />
    <glyph glyph-name="Eth" unicode="&#xd0;" horiz-adv-x="728" 
d="M40 392l76 0.000976562v323h189c118 0 207.833 -32.333 269.5 -97s92.5 -149.334 92.5 -254.001v-9c0 -104.667 -30.667 -190 -92 -256s-152 -99 -272 -99h-187v325h-76v67zM301 71.001c90 0 158.5 25.168 205.5 75.501s70.5 120.166 70.5 209.499v8
c0 87.333 -22.5 156 -67.5 206s-114.833 75 -209.5 75h-97v-253h207v-67h-207v-254h98z" />
    <glyph glyph-name="Ntilde" unicode="&#xd1;" horiz-adv-x="736" 
d="M96 715h113l348 -591v591h83v-715h-100l-361 613v-613h-83v715zM432 774c-15.333 0 -35.001 7.16699 -59.001 21.5s-40.333 21.5 -49 21.5c-9.33301 0 -17.666 -4.16699 -24.999 -12.5s-12.333 -19.166 -15 -32.499h-60c4 35.333 15.333 63.5 34 84.5s41 31.5 67 31.5
c15.333 0 34.833 -7.16699 58.5 -21.5s39.834 -21.5 48.501 -21.5c9.33301 0 17.666 4.16699 24.999 12.5s12.333 19.166 15 32.499h60c-4 -35.333 -15.167 -63.5 -33.5 -84.5s-40.5 -31.5 -66.5 -31.5z" />
    <glyph glyph-name="Ograve" unicode="&#xd2;" horiz-adv-x="823" 
d="M415 63c78.667 0 141.168 26.999 187.501 80.999s69.5 124.667 69.5 212v8c0 82.667 -23.333 151.667 -70 207s-109.667 83 -189 83c-81.333 0 -145.333 -26.833 -192 -80.5s-70 -124.167 -70 -211.5v-8c0 -85.333 25.167 -155.166 75.5 -209.499
s113.166 -81.5 188.499 -81.5zM415.001 -9.00098c-104 0 -189 34.834 -255 104.501s-99 155.5 -99 257.5v8c0 103.333 32.833 189.666 98.5 258.999s150.167 104 253.5 104s187.333 -34.5 252 -103.5s97 -154.833 97 -257.5v-8c0 -102.667 -32.333 -189 -97 -259
s-148 -105 -250 -105zM288.001 898h104l56 -127h-62z" />
    <glyph glyph-name="Oacute" unicode="&#xd3;" horiz-adv-x="823" 
d="M415 63c78.667 0 141.168 26.999 187.501 80.999s69.5 124.667 69.5 212v8c0 82.667 -23.333 151.667 -70 207s-109.667 83 -189 83c-81.333 0 -145.333 -26.833 -192 -80.5s-70 -124.167 -70 -211.5v-8c0 -85.333 25.167 -155.166 75.5 -209.499
s113.166 -81.5 188.499 -81.5zM415.001 -9.00098c-104 0 -189 34.834 -255 104.501s-99 155.5 -99 257.5v8c0 103.333 32.833 189.666 98.5 258.999s150.167 104 253.5 104s187.333 -34.5 252 -103.5s97 -154.833 97 -257.5v-8c0 -102.667 -32.333 -189 -97 -259
s-148 -105 -250 -105zM430.001 898h104l-98 -127h-62z" />
    <glyph glyph-name="Ocircumflex" unicode="&#xd4;" horiz-adv-x="823" 
d="M415 63c78.667 0 141.168 26.999 187.501 80.999s69.5 124.667 69.5 212v8c0 82.667 -23.333 151.667 -70 207s-109.667 83 -189 83c-81.333 0 -145.333 -26.833 -192 -80.5s-70 -124.167 -70 -211.5v-8c0 -85.333 25.167 -155.166 75.5 -209.499
s113.166 -81.5 188.499 -81.5zM415.001 -9.00098c-104 0 -189 34.834 -255 104.501s-99 155.5 -99 257.5v8c0 103.333 32.833 189.666 98.5 258.999s150.167 104 253.5 104s187.333 -34.5 252 -103.5s97 -154.833 97 -257.5v-8c0 -102.667 -32.333 -189 -97 -259
s-148 -105 -250 -105zM374.001 898h75l107 -127h-61l-85 58l-85 -58h-59z" />
    <glyph glyph-name="Otilde" unicode="&#xd5;" horiz-adv-x="823" 
d="M415 63c78.667 0 141.168 26.999 187.501 80.999s69.5 124.667 69.5 212v8c0 82.667 -23.333 151.667 -70 207s-109.667 83 -189 83c-81.333 0 -145.333 -26.833 -192 -80.5s-70 -124.167 -70 -211.5v-8c0 -85.333 25.167 -155.166 75.5 -209.499
s113.166 -81.5 188.499 -81.5zM415.001 -9.00098c-104 0 -189 34.834 -255 104.501s-99 155.5 -99 257.5v8c0 103.333 32.833 189.666 98.5 258.999s150.167 104 253.5 104s187.333 -34.5 252 -103.5s97 -154.833 97 -257.5v-8c0 -102.667 -32.333 -189 -97 -259
s-148 -105 -250 -105zM465.001 774c-15.333 0 -35.001 7.16699 -59.001 21.5s-40.333 21.5 -49 21.5c-9.33301 0 -17.666 -4.16699 -24.999 -12.5s-12.333 -19.166 -15 -32.499h-60c4 35.333 15.333 63.5 34 84.5s41 31.5 67 31.5c15.333 0 34.833 -7.16699 58.5 -21.5
s39.834 -21.5 48.501 -21.5c9.33301 0 17.666 4.16699 24.999 12.5s12.333 19.166 15 32.499h60c-4 -35.333 -15.167 -63.5 -33.5 -84.5s-40.5 -31.5 -66.5 -31.5z" />
    <glyph glyph-name="Odieresis" unicode="&#xd6;" horiz-adv-x="823" 
d="M415 63c78.667 0 141.168 26.999 187.501 80.999s69.5 124.667 69.5 212v8c0 82.667 -23.333 151.667 -70 207s-109.667 83 -189 83c-81.333 0 -145.333 -26.833 -192 -80.5s-70 -124.167 -70 -211.5v-8c0 -85.333 25.167 -155.166 75.5 -209.499
s113.166 -81.5 188.499 -81.5zM415.001 -9.00098c-104 0 -189 34.834 -255 104.501s-99 155.5 -99 257.5v8c0 103.333 32.833 189.666 98.5 258.999s150.167 104 253.5 104s187.333 -34.5 252 -103.5s97 -154.833 97 -257.5v-8c0 -102.667 -32.333 -189 -97 -259
s-148 -105 -250 -105zM309.001 789c-14.667 0 -27.167 5.16699 -37.5 15.5s-15.5 22.833 -15.5 37.5s5.16699 27.167 15.5 37.5s22.833 15.5 37.5 15.5s27.167 -5.16699 37.5 -15.5s15.5 -22.833 15.5 -37.5s-5.16699 -27.167 -15.5 -37.5s-22.833 -15.5 -37.5 -15.5z
M512.001 789c-14.667 0 -27.167 5.16699 -37.5 15.5s-15.5 22.833 -15.5 37.5s5.16699 27.167 15.5 37.5s22.833 15.5 37.5 15.5s27.167 -5.16699 37.5 -15.5s15.5 -22.833 15.5 -37.5s-5.16699 -27.167 -15.5 -37.5s-22.833 -15.5 -37.5 -15.5z" />
    <glyph glyph-name="multiply" unicode="&#xd7;" horiz-adv-x="481" 
d="M39 179l154 154l-154 154l47 48l154 -155l154 155l48 -48l-154 -154l154 -154l-48 -48l-154 155l-154 -155z" />
    <glyph glyph-name="Oslash" unicode="&#xd8;" horiz-adv-x="823" 
d="M41 12l98 107c-52 65.333 -78 143.333 -78 234v8c0 103.333 32.833 189.666 98.5 258.999s150.167 104 253.5 104c82 0 153.333 -23.333 214 -70l81 88l45 -45l-79 -87c58.667 -67.333 88 -149.666 88 -246.999v-8c0 -102.667 -32.333 -189 -97 -259s-148 -105 -250 -105
c-90.667 0 -168 27.333 -232 82l-97 -106zM415 63c78.667 0 141.167 26.999 187.5 80.999s69.5 124.667 69.5 212v8c0 74.667 -17.333 137.334 -52 188.001l-384 -421c47.333 -45.333 107 -68 179 -68zM151 353.999c0 -66 14.667 -123.667 44 -173l382 418
c-45.333 36.667 -100 55 -164 55c-81.333 0 -145.333 -26.833 -192 -80.5s-70 -124.167 -70 -211.5v-8z" />
    <glyph glyph-name="Ugrave" unicode="&#xd9;" horiz-adv-x="708" 
d="M347 -9c-82.667 0 -146.167 23.168 -190.5 69.501s-66.5 113.166 -66.5 200.499v454h87v-444c0 -74 13.5 -127.167 40.5 -159.5s70.833 -48.5 131.5 -48.5c61.333 0 107 16 137 48s45 89.667 45 173v431h87v-443c0 -89.333 -22.667 -158.5 -68 -207.5
s-113 -73.5 -203 -73.5zM231 898.001h104l56 -127h-62z" />
    <glyph glyph-name="Uacute" unicode="&#xda;" horiz-adv-x="708" 
d="M347 -9c-82.667 0 -146.167 23.168 -190.5 69.501s-66.5 113.166 -66.5 200.499v454h87v-444c0 -74 13.5 -127.167 40.5 -159.5s70.833 -48.5 131.5 -48.5c61.333 0 107 16 137 48s45 89.667 45 173v431h87v-443c0 -89.333 -22.667 -158.5 -68 -207.5
s-113 -73.5 -203 -73.5zM373 898.001h104l-98 -127h-62z" />
    <glyph glyph-name="Ucircumflex" unicode="&#xdb;" horiz-adv-x="708" 
d="M347 -9c-82.667 0 -146.167 23.168 -190.5 69.501s-66.5 113.166 -66.5 200.499v454h87v-444c0 -74 13.5 -127.167 40.5 -159.5s70.833 -48.5 131.5 -48.5c61.333 0 107 16 137 48s45 89.667 45 173v431h87v-443c0 -89.333 -22.667 -158.5 -68 -207.5
s-113 -73.5 -203 -73.5zM317 898.001h75l107 -127h-61l-85 58l-85 -58h-59z" />
    <glyph glyph-name="Udieresis" unicode="&#xdc;" horiz-adv-x="708" 
d="M347 -9c-82.667 0 -146.167 23.168 -190.5 69.501s-66.5 113.166 -66.5 200.499v454h87v-444c0 -74 13.5 -127.167 40.5 -159.5s70.833 -48.5 131.5 -48.5c61.333 0 107 16 137 48s45 89.667 45 173v431h87v-443c0 -89.333 -22.667 -158.5 -68 -207.5
s-113 -73.5 -203 -73.5zM252 789.001c-14.667 0 -27.167 5.16699 -37.5 15.5s-15.5 22.833 -15.5 37.5s5.16699 27.167 15.5 37.5s22.833 15.5 37.5 15.5s27.167 -5.16699 37.5 -15.5s15.5 -22.833 15.5 -37.5s-5.16699 -27.167 -15.5 -37.5s-22.833 -15.5 -37.5 -15.5z
M455 789.001c-14.667 0 -27.167 5.16699 -37.5 15.5s-15.5 22.833 -15.5 37.5s5.16699 27.167 15.5 37.5s22.833 15.5 37.5 15.5s27.167 -5.16699 37.5 -15.5s15.5 -22.833 15.5 -37.5s-5.16699 -27.167 -15.5 -37.5s-22.833 -15.5 -37.5 -15.5z" />
    <glyph glyph-name="Yacute" unicode="&#xdd;" horiz-adv-x="610" 
d="M268 312l-239 403h98l187 -332l180 332h87l-226 -404v-311h-87v312zM324 898h104l-98 -127h-62z" />
    <glyph glyph-name="Thorn" unicode="&#xde;" horiz-adv-x="593" 
d="M96 715l87 -0.000976562v-134h116c74 0 134.167 -16.667 180.5 -50s69.5 -85 69.5 -155v-4c0 -71.333 -23.167 -123.666 -69.5 -156.999s-106.5 -50 -180.5 -50h-116v-165h-87v715zM305 233.999c104.667 0 157 45.999 157 137.999v4c0 48.667 -13.333 83.334 -40 104.001
s-65.667 31 -117 31h-122v-277h122z" />
    <glyph glyph-name="germandbls" unicode="&#xdf;" horiz-adv-x="602" 
d="M341 -9c-38.667 0 -69.332 5.33203 -91.999 15.999v71c25.333 -12 54.666 -18 87.999 -18c86.667 0 130 50 130 150v7c0 54.667 -17.833 97.667 -53.5 129s-83.167 46.333 -142.5 45v71c51.333 -1.33301 89 11.167 113 37.5s36 57.5 36 93.5v4c0 74 -40.667 111 -122 111
c-38 0 -68.333 -12.5 -91 -37.5s-34 -58.5 -34 -100.5v-570h-83v566c0 62 20.333 112.5 61 151.5s90 58.5 148 58.5c59.333 0 107.5 -16.5 144.5 -49.5s55.5 -76.167 55.5 -129.5v-4c0 -34 -10.5 -66.167 -31.5 -96.5s-50.167 -51.833 -87.5 -64.5
c52 -13.333 93.833 -39.333 125.5 -78s47.5 -84 47.5 -136v-6c0 -53.333 -10.5 -97.166 -31.5 -131.499s-46.667 -57.833 -77 -70.5s-64.833 -19 -103.5 -19z" />
    <glyph glyph-name="agrave" unicode="&#xe0;" horiz-adv-x="552" 
d="M221 -9c-51.333 0 -93.165 12.832 -125.498 38.499s-48.5 64.167 -48.5 115.5c0 28.667 7.16699 53.834 21.5 75.501s34.166 38.667 59.499 51s53 21.333 83 27s62.667 8.5 98 8.5h75v38c0 42 -8.66699 72.167 -26 90.5s-46 27.5 -86 27.5c-72 0 -112 -31.333 -120 -94
h-83c5.33301 56 27.166 97.167 65.499 123.5s85.5 39.5 141.5 39.5c127.333 0 191 -62.333 191 -187v-345h-83v66c-40 -50 -94.333 -75 -163 -75zM229.001 56.999c45.333 0 82.5 11.168 111.5 33.501s43.5 53.166 43.5 92.499v65h-72c-121.333 0 -182 -34.333 -182 -103
c0 -58.667 33 -88 99 -88zM148.001 760h104l62 -147h-62z" />
    <glyph glyph-name="aacute" unicode="&#xe1;" horiz-adv-x="552" 
d="M221 -9c-51.333 0 -93.165 12.832 -125.498 38.499s-48.5 64.167 -48.5 115.5c0 28.667 7.16699 53.834 21.5 75.501s34.166 38.667 59.499 51s53 21.333 83 27s62.667 8.5 98 8.5h75v38c0 42 -8.66699 72.167 -26 90.5s-46 27.5 -86 27.5c-72 0 -112 -31.333 -120 -94
h-83c5.33301 56 27.166 97.167 65.499 123.5s85.5 39.5 141.5 39.5c127.333 0 191 -62.333 191 -187v-345h-83v66c-40 -50 -94.333 -75 -163 -75zM229.001 56.999c45.333 0 82.5 11.168 111.5 33.501s43.5 53.166 43.5 92.499v65h-72c-121.333 0 -182 -34.333 -182 -103
c0 -58.667 33 -88 99 -88zM302.001 760h104l-104 -147h-62z" />
    <glyph glyph-name="acircumflex" unicode="&#xe2;" horiz-adv-x="552" 
d="M221 -9c-51.333 0 -93.165 12.832 -125.498 38.499s-48.5 64.167 -48.5 115.5c0 28.667 7.16699 53.834 21.5 75.501s34.166 38.667 59.499 51s53 21.333 83 27s62.667 8.5 98 8.5h75v38c0 42 -8.66699 72.167 -26 90.5s-46 27.5 -86 27.5c-72 0 -112 -31.333 -120 -94
h-83c5.33301 56 27.166 97.167 65.499 123.5s85.5 39.5 141.5 39.5c127.333 0 191 -62.333 191 -187v-345h-83v66c-40 -50 -94.333 -75 -163 -75zM229.001 56.999c45.333 0 82.5 11.168 111.5 33.501s43.5 53.166 43.5 92.499v65h-72c-121.333 0 -182 -34.333 -182 -103
c0 -58.667 33 -88 99 -88zM229.001 757h75l107 -144h-61l-85 75l-85 -75h-59z" />
    <glyph glyph-name="atilde" unicode="&#xe3;" horiz-adv-x="552" 
d="M221 -9c-51.333 0 -93.165 12.832 -125.498 38.499s-48.5 64.167 -48.5 115.5c0 28.667 7.16699 53.834 21.5 75.501s34.166 38.667 59.499 51s53 21.333 83 27s62.667 8.5 98 8.5h75v38c0 42 -8.66699 72.167 -26 90.5s-46 27.5 -86 27.5c-72 0 -112 -31.333 -120 -94
h-83c5.33301 56 27.166 97.167 65.499 123.5s85.5 39.5 141.5 39.5c127.333 0 191 -62.333 191 -187v-345h-83v66c-40 -50 -94.333 -75 -163 -75zM229.001 56.999c45.333 0 82.5 11.168 111.5 33.501s43.5 53.166 43.5 92.499v65h-72c-121.333 0 -182 -34.333 -182 -103
c0 -58.667 33 -88 99 -88zM331.001 619c-15.333 0 -35.001 7.16699 -59.001 21.5s-40.333 21.5 -49 21.5c-9.33301 0 -17.666 -4.16699 -24.999 -12.5s-12.333 -19.166 -15 -32.499h-60c4 35.333 15.333 63.5 34 84.5s41 31.5 67 31.5c15.333 0 34.833 -7.16699 58.5 -21.5
s39.834 -21.5 48.501 -21.5c9.33301 0 17.666 4.16699 24.999 12.5s12.333 19.166 15 32.499h60c-4 -35.333 -15.167 -63.5 -33.5 -84.5s-40.5 -31.5 -66.5 -31.5z" />
    <glyph glyph-name="adieresis" unicode="&#xe4;" horiz-adv-x="552" 
d="M221 -9c-51.333 0 -93.165 12.832 -125.498 38.499s-48.5 64.167 -48.5 115.5c0 28.667 7.16699 53.834 21.5 75.501s34.166 38.667 59.499 51s53 21.333 83 27s62.667 8.5 98 8.5h75v38c0 42 -8.66699 72.167 -26 90.5s-46 27.5 -86 27.5c-72 0 -112 -31.333 -120 -94
h-83c5.33301 56 27.166 97.167 65.499 123.5s85.5 39.5 141.5 39.5c127.333 0 191 -62.333 191 -187v-345h-83v66c-40 -50 -94.333 -75 -163 -75zM229.001 56.999c45.333 0 82.5 11.168 111.5 33.501s43.5 53.166 43.5 92.499v65h-72c-121.333 0 -182 -34.333 -182 -103
c0 -58.667 33 -88 99 -88zM183.001 634c-14.667 0 -27.167 5.16699 -37.5 15.5s-15.5 22.833 -15.5 37.5s5.16699 27.167 15.5 37.5s22.833 15.5 37.5 15.5s27.167 -5.16699 37.5 -15.5s15.5 -22.833 15.5 -37.5s-5.16699 -27.167 -15.5 -37.5s-22.833 -15.5 -37.5 -15.5z
M371.001 634c-14.667 0 -27.167 5.16699 -37.5 15.5s-15.5 22.833 -15.5 37.5s5.16699 27.167 15.5 37.5s22.833 15.5 37.5 15.5s27.167 -5.16699 37.5 -15.5s15.5 -22.833 15.5 -37.5s-5.16699 -27.167 -15.5 -37.5s-22.833 -15.5 -37.5 -15.5z" />
    <glyph glyph-name="aring" unicode="&#xe5;" horiz-adv-x="552" 
d="M221 -9c-51.333 0 -93.165 12.832 -125.498 38.499s-48.5 64.167 -48.5 115.5c0 28.667 7.16699 53.834 21.5 75.501s34.166 38.667 59.499 51s53 21.333 83 27s62.667 8.5 98 8.5h75v38c0 42 -8.66699 72.167 -26 90.5s-46 27.5 -86 27.5c-72 0 -112 -31.333 -120 -94
h-83c5.33301 56 27.166 97.167 65.499 123.5s85.5 39.5 141.5 39.5c127.333 0 191 -62.333 191 -187v-345h-83v66c-40 -50 -94.333 -75 -163 -75zM229.001 56.999c45.333 0 82.5 11.168 111.5 33.501s43.5 53.166 43.5 92.499v65h-72c-121.333 0 -182 -34.333 -182 -103
c0 -58.667 33 -88 99 -88zM277.001 644c15.333 0 28 5.5 38 16.5s15 24.833 15 41.5s-5 30.5 -15 41.5s-22.667 16.5 -38 16.5s-28 -5.5 -38 -16.5s-15 -24.833 -15 -41.5s5 -30.5 15 -41.5s22.667 -16.5 38 -16.5zM277.001 598c-29.333 0 -54.5 10.167 -75.5 30.5
s-31.5 44.833 -31.5 73.5s10.5 53.167 31.5 73.5s46.167 30.5 75.5 30.5s54.5 -10.167 75.5 -30.5s31.5 -44.833 31.5 -73.5s-10.5 -53.167 -31.5 -73.5s-46.167 -30.5 -75.5 -30.5z" />
    <glyph glyph-name="ae" unicode="&#xe6;" horiz-adv-x="892" 
d="M622 -9c-88.667 0 -154.334 36.001 -197.001 108.001c-24 -38 -52 -65.5 -84 -82.5s-72 -25.5 -120 -25.5c-51.333 0 -93.166 12.833 -125.499 38.5s-48.5 64.167 -48.5 115.5c0 39.333 12.667 71.666 38 96.999s56.5 43 93.5 53s79.5 15 127.5 15h78v34
c0 42 -9 72.333 -27 91s-46.333 28 -85 28c-72 0 -112 -31.333 -120 -94h-83c5.33301 56 27.166 97.167 65.499 123.5s85.5 39.5 141.5 39.5c82 0 136.667 -29.667 164 -89c42.667 59.333 101.334 89 176.001 89c64.667 0 118.667 -21.333 162 -64s65 -108 65 -196v-25h-379
c4 -124.667 57 -187 159 -187c78 0 122.333 30.333 133 91h83c-9.33301 -51.333 -33.333 -90.833 -72 -118.5s-87 -41.5 -145 -41.5zM229 57.001c45.333 0 82.5 11.168 111.5 33.501s43.5 53.166 43.5 92.499v64h-75c-119.333 0 -179 -34 -179 -102c0 -58.667 33 -88 99 -88
zM758 310.002c-4 54 -17.833 93 -41.5 117s-57.167 36 -100.5 36c-40 0 -73.167 -13.5 -99.5 -40.5s-42.833 -64.5 -49.5 -112.5h291z" />
    <glyph glyph-name="ccedilla" unicode="&#xe7;" horiz-adv-x="582" 
d="M292 -214c-29.333 0 -52.8291 7.5 -70.4961 22.5s-27.5 35.5 -29.5 61.5h54c5.33301 -24 19.666 -36 42.999 -36c12 0 21.667 3.33301 29 10s11 15.334 11 26.001s-3.33301 19 -10 25s-15.334 9 -26.001 9c-10 0 -19.333 -2.66699 -28 -8l-32 28l38 69
c-65.333 8 -118.333 35.5 -159 82.5s-61 107.167 -61 180.5v8c0 78.667 24.5 143 73.5 193s109.167 75 180.5 75c60 0 111 -14.833 153 -44.5s66.667 -75.834 74 -138.501h-82c-12 76 -60.333 114 -145 114c-48.667 0 -88.834 -18.167 -120.501 -54.5
s-47.5 -84.5 -47.5 -144.5v-8c0 -62.667 15.5 -111 46.5 -145s72.5 -51 124.5 -51c39.333 0 73.166 11.167 101.499 33.5s44.5 53.833 48.5 94.5h77c-5.33301 -54.667 -27.5 -100 -66.5 -136s-87.5 -56 -145.5 -60l-24 -45c25.333 2.66699 47.333 -2.83301 66 -16.5
s28 -35.167 28 -64.5c0 -25.333 -9.66699 -45 -29 -59s-43.333 -21 -72 -21z" />
    <glyph glyph-name="egrave" unicode="&#xe8;" horiz-adv-x="580" 
d="M304 -9c-74.667 0 -135.501 24.333 -182.501 73s-70.5 112.667 -70.5 192v8c0 78.667 22.833 143 68.5 193s104.5 75 176.5 75c66.667 0 122.5 -21.5 167.5 -64.5s67.5 -108.167 67.5 -195.5v-27h-394c4 -123.333 60 -185 168 -185c82 0 128.333 30.333 139 91h83
c-9.33301 -52 -33.666 -91.667 -72.999 -119s-89.333 -41 -150 -41zM445.999 312c-7.33301 100.667 -57.334 151 -150.001 151c-42 0 -76.667 -13.333 -104 -40s-44.666 -63.667 -51.999 -111h306zM166.998 760h104l62 -147h-62z" />
    <glyph glyph-name="eacute" unicode="&#xe9;" horiz-adv-x="580" 
d="M304 -9c-74.667 0 -135.501 24.333 -182.501 73s-70.5 112.667 -70.5 192v8c0 78.667 22.833 143 68.5 193s104.5 75 176.5 75c66.667 0 122.5 -21.5 167.5 -64.5s67.5 -108.167 67.5 -195.5v-27h-394c4 -123.333 60 -185 168 -185c82 0 128.333 30.333 139 91h83
c-9.33301 -52 -33.666 -91.667 -72.999 -119s-89.333 -41 -150 -41zM445.999 312c-7.33301 100.667 -57.334 151 -150.001 151c-42 0 -76.667 -13.333 -104 -40s-44.666 -63.667 -51.999 -111h306zM320.998 760h104l-104 -147h-62z" />
    <glyph glyph-name="ecircumflex" unicode="&#xea;" horiz-adv-x="580" 
d="M304 -9c-74.667 0 -135.501 24.333 -182.501 73s-70.5 112.667 -70.5 192v8c0 78.667 22.833 143 68.5 193s104.5 75 176.5 75c66.667 0 122.5 -21.5 167.5 -64.5s67.5 -108.167 67.5 -195.5v-27h-394c4 -123.333 60 -185 168 -185c82 0 128.333 30.333 139 91h83
c-9.33301 -52 -33.666 -91.667 -72.999 -119s-89.333 -41 -150 -41zM445.999 312c-7.33301 100.667 -57.334 151 -150.001 151c-42 0 -76.667 -13.333 -104 -40s-44.666 -63.667 -51.999 -111h306zM258.998 757h75l107 -144h-61l-85 75l-85 -75h-59z" />
    <glyph glyph-name="edieresis" unicode="&#xeb;" horiz-adv-x="580" 
d="M304 -9c-74.667 0 -135.501 24.333 -182.501 73s-70.5 112.667 -70.5 192v8c0 78.667 22.833 143 68.5 193s104.5 75 176.5 75c66.667 0 122.5 -21.5 167.5 -64.5s67.5 -108.167 67.5 -195.5v-27h-394c4 -123.333 60 -185 168 -185c82 0 128.333 30.333 139 91h83
c-9.33301 -52 -33.666 -91.667 -72.999 -119s-89.333 -41 -150 -41zM445.999 312c-7.33301 100.667 -57.334 151 -150.001 151c-42 0 -76.667 -13.333 -104 -40s-44.666 -63.667 -51.999 -111h306zM201.998 634c-14.667 0 -27.167 5.16699 -37.5 15.5
s-15.5 22.833 -15.5 37.5s5.16699 27.167 15.5 37.5s22.833 15.5 37.5 15.5s27.167 -5.16699 37.5 -15.5s15.5 -22.833 15.5 -37.5s-5.16699 -27.167 -15.5 -37.5s-22.833 -15.5 -37.5 -15.5zM389.998 634c-14.667 0 -27.167 5.16699 -37.5 15.5s-15.5 22.833 -15.5 37.5
s5.16699 27.167 15.5 37.5s22.833 15.5 37.5 15.5s27.167 -5.16699 37.5 -15.5s15.5 -22.833 15.5 -37.5s-5.16699 -27.167 -15.5 -37.5s-22.833 -15.5 -37.5 -15.5z" />
    <glyph glyph-name="igrave" unicode="&#xec;" horiz-adv-x="267" 
d="M92 523h83v-523h-83v523zM4 760h104l62 -147h-62z" />
    <glyph glyph-name="iacute" unicode="&#xed;" horiz-adv-x="267" 
d="M92 523h83v-523h-83v523zM158 760h104l-104 -147h-62z" />
    <glyph glyph-name="icircumflex" unicode="&#xee;" horiz-adv-x="267" 
d="M92 523h83v-523h-83v523zM96 757h75l107 -144h-61l-85 75l-85 -75h-59z" />
    <glyph glyph-name="idieresis" unicode="&#xef;" horiz-adv-x="267" 
d="M43 634c-14.667 0 -27.167 5.16699 -37.5 15.5s-15.5 22.833 -15.5 37.5s5.16699 27.167 15.5 37.5s22.833 15.5 37.5 15.5s27.167 -5.16699 37.5 -15.5s15.5 -22.833 15.5 -37.5s-5.16699 -27.167 -15.5 -37.5s-22.833 -15.5 -37.5 -15.5zM223 634
c-14.667 0 -27.167 5.16699 -37.5 15.5s-15.5 22.833 -15.5 37.5s5.16699 27.167 15.5 37.5s22.833 15.5 37.5 15.5s27.167 -5.16699 37.5 -15.5s15.5 -22.833 15.5 -37.5s-5.16699 -27.167 -15.5 -37.5s-22.833 -15.5 -37.5 -15.5zM92 523h83v-523h-83v523z" />
    <glyph glyph-name="eth" unicode="&#xf0;" horiz-adv-x="616" 
d="M162 621l97 57c-36 31.333 -77.333 63 -124 95h107c34.667 -20.667 62.667 -39 84 -55l83 49l29 -49l-67 -39c129.333 -122.667 194 -254.334 194 -395.001v-22c0 -78.667 -24.5 -143.5 -73.5 -194.5s-110.5 -76.5 -184.5 -76.5s-135.167 25.167 -183.5 75.5
s-72.5 113.833 -72.5 190.5v8c0 76.667 23.333 140.334 70 191.001s102.667 76 168 76c62 0 112.333 -24 151 -72c-29.333 58 -75 117.667 -137 179l-112 -66zM308 60c52 0 93.501 18 124.501 54s46.5 83.667 46.5 143v7c0 60.667 -15.333 109 -46 145s-72 54 -124 54
c-52.667 0 -94.5 -18 -125.5 -54s-46.5 -84 -46.5 -144v-8c0 -60.667 15.167 -108.667 45.5 -144s72.166 -53 125.499 -53z" />
    <glyph glyph-name="ntilde" unicode="&#xf1;" horiz-adv-x="610" 
d="M90 523h83v-83c13.333 26.667 34.333 48.667 63 66s63.667 26 105 26c57.333 0 102.333 -17 135 -51s49 -87.333 49 -160v-321h-83v327c0 46 -10 79.667 -30 101s-51 32 -93 32c-40.667 0 -75.167 -12.667 -103.5 -38s-42.5 -60.333 -42.5 -105v-317h-83v523zM358 619
c-15.333 0 -35.001 7.16699 -59.001 21.5s-40.333 21.5 -49 21.5c-9.33301 0 -17.666 -4.16699 -24.999 -12.5s-12.333 -19.166 -15 -32.499h-60c4 35.333 15.333 63.5 34 84.5s41 31.5 67 31.5c15.333 0 34.833 -7.16699 58.5 -21.5s39.834 -21.5 48.501 -21.5
c9.33301 0 17.666 4.16699 24.999 12.5s12.333 19.166 15 32.499h60c-4 -35.333 -15.167 -63.5 -33.5 -84.5s-40.5 -31.5 -66.5 -31.5z" />
    <glyph glyph-name="ograve" unicode="&#xf2;" horiz-adv-x="616" 
d="M308 60c52 0 93.502 18 124.502 54s46.5 83.667 46.5 143v7c0 60.667 -15.5 109 -46.5 145s-72.5 54 -124.5 54c-52.667 0 -94.334 -18 -125.001 -54s-46 -84 -46 -144v-8c0 -60.667 15.167 -108.667 45.5 -144s72.166 -53 125.499 -53zM307.002 -9
c-74 0 -135.166 25.168 -183.499 75.501s-72.5 113.833 -72.5 190.5v8c0 78 24.167 142 72.5 192s109.833 75 184.5 75s136.167 -24.833 184.5 -74.5s72.5 -113.5 72.5 -191.5v-8c0 -78.667 -24.333 -142.834 -73 -192.501s-110.334 -74.5 -185.001 -74.5zM179.003 760.001
h104l62 -147h-62z" />
    <glyph glyph-name="oacute" unicode="&#xf3;" horiz-adv-x="616" 
d="M308 60c52 0 93.502 18 124.502 54s46.5 83.667 46.5 143v7c0 60.667 -15.5 109 -46.5 145s-72.5 54 -124.5 54c-52.667 0 -94.334 -18 -125.001 -54s-46 -84 -46 -144v-8c0 -60.667 15.167 -108.667 45.5 -144s72.166 -53 125.499 -53zM307.002 -9
c-74 0 -135.166 25.168 -183.499 75.501s-72.5 113.833 -72.5 190.5v8c0 78 24.167 142 72.5 192s109.833 75 184.5 75s136.167 -24.833 184.5 -74.5s72.5 -113.5 72.5 -191.5v-8c0 -78.667 -24.333 -142.834 -73 -192.501s-110.334 -74.5 -185.001 -74.5zM333.003 760.001
h104l-104 -147h-62z" />
    <glyph glyph-name="ocircumflex" unicode="&#xf4;" horiz-adv-x="616" 
d="M308 60c52 0 93.502 18 124.502 54s46.5 83.667 46.5 143v7c0 60.667 -15.5 109 -46.5 145s-72.5 54 -124.5 54c-52.667 0 -94.334 -18 -125.001 -54s-46 -84 -46 -144v-8c0 -60.667 15.167 -108.667 45.5 -144s72.166 -53 125.499 -53zM307.002 -9
c-74 0 -135.166 25.168 -183.499 75.501s-72.5 113.833 -72.5 190.5v8c0 78 24.167 142 72.5 192s109.833 75 184.5 75s136.167 -24.833 184.5 -74.5s72.5 -113.5 72.5 -191.5v-8c0 -78.667 -24.333 -142.834 -73 -192.501s-110.334 -74.5 -185.001 -74.5zM271.003 757.001
h75l107 -144h-61l-85 75l-85 -75h-59z" />
    <glyph glyph-name="otilde" unicode="&#xf5;" horiz-adv-x="616" 
d="M308 60c52 0 93.502 18 124.502 54s46.5 83.667 46.5 143v7c0 60.667 -15.5 109 -46.5 145s-72.5 54 -124.5 54c-52.667 0 -94.334 -18 -125.001 -54s-46 -84 -46 -144v-8c0 -60.667 15.167 -108.667 45.5 -144s72.166 -53 125.499 -53zM307.002 -9
c-74 0 -135.166 25.168 -183.499 75.501s-72.5 113.833 -72.5 190.5v8c0 78 24.167 142 72.5 192s109.833 75 184.5 75s136.167 -24.833 184.5 -74.5s72.5 -113.5 72.5 -191.5v-8c0 -78.667 -24.333 -142.834 -73 -192.501s-110.334 -74.5 -185.001 -74.5zM362.003 619.001
c-15.333 0 -35.001 7.16699 -59.001 21.5s-40.333 21.5 -49 21.5c-9.33301 0 -17.666 -4.16699 -24.999 -12.5s-12.333 -19.166 -15 -32.499h-60c4 35.333 15.333 63.5 34 84.5s41 31.5 67 31.5c15.333 0 34.833 -7.16699 58.5 -21.5s39.834 -21.5 48.501 -21.5
c9.33301 0 17.666 4.16699 24.999 12.5s12.333 19.166 15 32.499h60c-4 -35.333 -15.167 -63.5 -33.5 -84.5s-40.5 -31.5 -66.5 -31.5z" />
    <glyph glyph-name="odieresis" unicode="&#xf6;" horiz-adv-x="616" 
d="M308 60c52 0 93.502 18 124.502 54s46.5 83.667 46.5 143v7c0 60.667 -15.5 109 -46.5 145s-72.5 54 -124.5 54c-52.667 0 -94.334 -18 -125.001 -54s-46 -84 -46 -144v-8c0 -60.667 15.167 -108.667 45.5 -144s72.166 -53 125.499 -53zM307.002 -9
c-74 0 -135.166 25.168 -183.499 75.501s-72.5 113.833 -72.5 190.5v8c0 78 24.167 142 72.5 192s109.833 75 184.5 75s136.167 -24.833 184.5 -74.5s72.5 -113.5 72.5 -191.5v-8c0 -78.667 -24.333 -142.834 -73 -192.501s-110.334 -74.5 -185.001 -74.5zM214.003 634.001
c-14.667 0 -27.167 5.16699 -37.5 15.5s-15.5 22.833 -15.5 37.5s5.16699 27.167 15.5 37.5s22.833 15.5 37.5 15.5s27.167 -5.16699 37.5 -15.5s15.5 -22.833 15.5 -37.5s-5.16699 -27.167 -15.5 -37.5s-22.833 -15.5 -37.5 -15.5zM402.003 634.001
c-14.667 0 -27.167 5.16699 -37.5 15.5s-15.5 22.833 -15.5 37.5s5.16699 27.167 15.5 37.5s22.833 15.5 37.5 15.5s27.167 -5.16699 37.5 -15.5s15.5 -22.833 15.5 -37.5s-5.16699 -27.167 -15.5 -37.5s-22.833 -15.5 -37.5 -15.5z" />
    <glyph glyph-name="divide" unicode="&#xf7;" horiz-adv-x="531" 
d="M265 89c-17.333 0 -32.333 6.16699 -45 18.5s-19 27.5 -19 45.5s6.33301 33.167 19 45.5s27.667 18.5 45 18.5s32.333 -6.16699 45 -18.5s19 -27.5 19 -45.5s-6.33301 -33.167 -19 -45.5s-27.667 -18.5 -45 -18.5zM42 377h447v-70h-447v70zM265 467
c-17.333 0 -32.333 6.16699 -45 18.5s-19 27.5 -19 45.5s6.33301 33.167 19 45.5s27.667 18.5 45 18.5s32.333 -6.16699 45 -18.5s19 -27.5 19 -45.5s-6.33301 -33.167 -19 -45.5s-27.667 -18.5 -45 -18.5z" />
    <glyph glyph-name="oslash" unicode="&#xf8;" horiz-adv-x="616" 
d="M29 1l77.001 85.001c-36.667 47.333 -55 104.333 -55 171v8c0 78 24.167 142 72.5 192s109.833 75 184.5 75c59.333 0 111.333 -16.667 156 -50l68 74l44 -38l-70 -77c39.333 -50 59 -108.333 59 -175v-8c0 -78.667 -24.333 -142.834 -73 -192.501
s-110.334 -74.5 -185.001 -74.5c-62.667 0 -116 18 -160 54l-74 -82zM308.001 60.001c52 0 93.501 18 124.501 54s46.5 83.667 46.5 143v7c0 44 -9 83 -27 117l-256 -281c29.333 -26.667 66.666 -40 111.999 -40zM137.002 257.001c0 -43.333 8.00098 -80.333 24.001 -111
l253 280c-28.667 24.667 -64 37 -106 37c-52.667 0 -94.334 -18 -125.001 -54s-46 -84 -46 -144v-8z" />
    <glyph glyph-name="ugrave" unicode="&#xf9;" horiz-adv-x="606" 
d="M267 -9c-55.333 0 -99.5 16.332 -132.5 48.999s-49.5 83.334 -49.5 152.001v331h83v-327c0 -46 9.83301 -79.667 29.5 -101s50.167 -32 91.5 -32c40 0 74 12.667 102 38s42 60.333 42 105v317h83v-523h-83v83c-12.667 -26.667 -33.5 -48.667 -62.5 -66
s-63.5 -26 -103.5 -26zM174 759.999h104l62 -147h-62z" />
    <glyph glyph-name="uacute" unicode="&#xfa;" horiz-adv-x="606" 
d="M267 -9c-55.333 0 -99.5 16.332 -132.5 48.999s-49.5 83.334 -49.5 152.001v331h83v-327c0 -46 9.83301 -79.667 29.5 -101s50.167 -32 91.5 -32c40 0 74 12.667 102 38s42 60.333 42 105v317h83v-523h-83v83c-12.667 -26.667 -33.5 -48.667 -62.5 -66
s-63.5 -26 -103.5 -26zM328 759.999h104l-104 -147h-62z" />
    <glyph glyph-name="ucircumflex" unicode="&#xfb;" horiz-adv-x="606" 
d="M267 -9c-55.333 0 -99.5 16.332 -132.5 48.999s-49.5 83.334 -49.5 152.001v331h83v-327c0 -46 9.83301 -79.667 29.5 -101s50.167 -32 91.5 -32c40 0 74 12.667 102 38s42 60.333 42 105v317h83v-523h-83v83c-12.667 -26.667 -33.5 -48.667 -62.5 -66
s-63.5 -26 -103.5 -26zM266 756.999h75l107 -144h-61l-85 75l-85 -75h-59z" />
    <glyph glyph-name="udieresis" unicode="&#xfc;" horiz-adv-x="606" 
d="M267 -9c-55.333 0 -99.5 16.332 -132.5 48.999s-49.5 83.334 -49.5 152.001v331h83v-327c0 -46 9.83301 -79.667 29.5 -101s50.167 -32 91.5 -32c40 0 74 12.667 102 38s42 60.333 42 105v317h83v-523h-83v83c-12.667 -26.667 -33.5 -48.667 -62.5 -66
s-63.5 -26 -103.5 -26zM209 633.999c-14.667 0 -27.167 5.16699 -37.5 15.5s-15.5 22.833 -15.5 37.5s5.16699 27.167 15.5 37.5s22.833 15.5 37.5 15.5s27.167 -5.16699 37.5 -15.5s15.5 -22.833 15.5 -37.5s-5.16699 -27.167 -15.5 -37.5s-22.833 -15.5 -37.5 -15.5z
M397 633.999c-14.667 0 -27.167 5.16699 -37.5 15.5s-15.5 22.833 -15.5 37.5s5.16699 27.167 15.5 37.5s22.833 15.5 37.5 15.5s27.167 -5.16699 37.5 -15.5s15.5 -22.833 15.5 -37.5s-5.16699 -27.167 -15.5 -37.5s-22.833 -15.5 -37.5 -15.5z" />
    <glyph glyph-name="yacute" unicode="&#xfd;" horiz-adv-x="541" 
d="M236 54l-205 469h89l160 -375l145 375h85l-289 -705h-84zM303 760h104l-104 -147h-62z" />
    <glyph glyph-name="thorn" unicode="&#xfe;" horiz-adv-x="639" 
d="M90 773l83 0.000976562v-338c15.333 26.667 39.333 49.5 72 68.5s67.667 28.5 105 28.5c70 0 127.167 -23.667 171.5 -71s66.5 -111.333 66.5 -192v-8c0 -80.667 -21.833 -145.834 -65.5 -195.501s-101.167 -74.5 -172.5 -74.5c-80 0 -139 31.667 -177 95v-268h-83v955z
M342 60.001c52 0 91.668 16.835 119.001 50.502s41 82.5 41 146.5v8c0 63.333 -15.167 112.166 -45.5 146.499s-68.833 51.5 -115.5 51.5c-50.667 0 -91.834 -16.833 -123.501 -50.5s-47.5 -82.834 -47.5 -147.501v-8c0 -64.667 15.5 -113.667 46.5 -147
s72.833 -50 125.5 -50z" />
    <glyph glyph-name="ydieresis" unicode="&#xff;" horiz-adv-x="541" 
d="M236 54l-205 469h89l160 -375l145 375h85l-289 -705h-84zM184 634c-14.667 0 -27.167 5.16699 -37.5 15.5s-15.5 22.833 -15.5 37.5s5.16699 27.167 15.5 37.5s22.833 15.5 37.5 15.5s27.167 -5.16699 37.5 -15.5s15.5 -22.833 15.5 -37.5s-5.16699 -27.167 -15.5 -37.5
s-22.833 -15.5 -37.5 -15.5zM372 634c-14.667 0 -27.167 5.16699 -37.5 15.5s-15.5 22.833 -15.5 37.5s5.16699 27.167 15.5 37.5s22.833 15.5 37.5 15.5s27.167 -5.16699 37.5 -15.5s15.5 -22.833 15.5 -37.5s-5.16699 -27.167 -15.5 -37.5s-22.833 -15.5 -37.5 -15.5z" />
    <glyph glyph-name="Amacron" unicode="&#x100;" horiz-adv-x="674" 
d="M288 715h114l242 -715h-86l-70 206h-295l-69 -206h-82zM217 275h248l-124 368zM210 850h266v-64h-266v64z" />
    <glyph glyph-name="amacron" unicode="&#x101;" horiz-adv-x="540" 
d="M221 -9c-51.333 0 -93.165 12.832 -125.498 38.499s-48.5 64.167 -48.5 115.5c0 28.667 7.16699 53.834 21.5 75.501s34.166 38.667 59.499 51s53 21.333 83 27s62.667 8.5 98 8.5h75v38c0 42 -8.66699 72.167 -26 90.5s-46 27.5 -86 27.5c-72 0 -112 -31.333 -120 -94
h-83c5.33301 56 27.166 97.167 65.499 123.5s85.5 39.5 141.5 39.5c127.333 0 191 -62.333 191 -187v-345h-83v66c-40 -50 -94.333 -75 -163 -75zM229.001 56.999c45.333 0 82.5 11.168 111.5 33.501s43.5 53.166 43.5 92.499v65h-72c-121.333 0 -182 -34.333 -182 -103
c0 -58.667 33 -88 99 -88zM146.001 712h262v-64h-262v64z" />
    <glyph glyph-name="Abreve" unicode="&#x102;" horiz-adv-x="674" 
d="M288 715h114l242 -715h-86l-70 206h-295l-69 -206h-82zM217 275h248l-124 368zM341 767c-36 0 -66.666 12.5 -91.999 37.5s-38.666 56.5 -39.999 94.5h66c7.33301 -42.667 29.333 -64 66 -64c39.333 0 63.333 21.333 72 64h64c-2.66699 -38 -16.834 -69.5 -42.501 -94.5
s-56.834 -37.5 -93.501 -37.5z" />
    <glyph glyph-name="abreve" unicode="&#x103;" horiz-adv-x="540" 
d="M221 -9c-51.333 0 -93.165 12.832 -125.498 38.499s-48.5 64.167 -48.5 115.5c0 28.667 7.16699 53.834 21.5 75.501s34.166 38.667 59.499 51s53 21.333 83 27s62.667 8.5 98 8.5h75v38c0 42 -8.66699 72.167 -26 90.5s-46 27.5 -86 27.5c-72 0 -112 -31.333 -120 -94
h-83c5.33301 56 27.166 97.167 65.499 123.5s85.5 39.5 141.5 39.5c127.333 0 191 -62.333 191 -187v-345h-83v66c-40 -50 -94.333 -75 -163 -75zM229.001 56.999c45.333 0 82.5 11.168 111.5 33.501s43.5 53.166 43.5 92.499v65h-72c-121.333 0 -182 -34.333 -182 -103
c0 -58.667 33 -88 99 -88zM275.001 619c-36 0 -66.666 12.5 -91.999 37.5s-38.666 56.5 -39.999 94.5h66c7.33301 -42.667 29.333 -64 66 -64c39.333 0 63.333 21.333 72 64h64c-2.66699 -38 -16.834 -69.5 -42.501 -94.5s-56.834 -37.5 -93.501 -37.5z" />
    <glyph glyph-name="Aogonek" unicode="&#x104;" horiz-adv-x="674" 
d="M585 -182c-32 0 -57.332 7.00098 -75.999 21.001s-28 33.667 -28 59c0 20 6.66699 38.667 20 56s30.666 31.666 51.999 42.999l-71 209h-295l-69 -206h-82l246 715h114l241 -712c-51.333 -29.333 -77 -59 -77 -89c0 -24 12.667 -36 38 -36c20.667 0 38 3.66699 52 11v-59
c-19.333 -8 -41 -12 -65 -12zM211.001 275.001h248l-124 368z" />
    <glyph glyph-name="aogonek" unicode="&#x105;" horiz-adv-x="540" 
d="M407 -182c-32 0 -57.332 6.99805 -75.999 20.998s-28 33.667 -28 59c0 40.667 25 74.334 75 101.001v67c-40 -50 -94.333 -75 -163 -75c-51.333 0 -93.166 12.833 -125.499 38.5s-48.5 64.167 -48.5 115.5c0 28.667 7.16699 53.834 21.5 75.501s34.166 38.667 59.499 51
s53 21.333 83 27s62.667 8.5 98 8.5h75v38c0 42 -8.66699 72.167 -26 90.5s-46 27.5 -86 27.5c-72 0 -112 -31.333 -120 -94h-83c5.33301 56 27.166 97.167 65.499 123.5s85.5 39.5 141.5 39.5c127.333 0 191 -62.333 191 -187v-341c-52.667 -30 -79 -60 -79 -90
c0 -24 12.667 -36 38 -36c20.667 0 38 3.66699 52 11v-59c-19.333 -8 -41 -12 -65 -12zM223.001 56.998c45.333 0 82.5 11.168 111.5 33.501s43.5 53.166 43.5 92.499v65h-72c-121.333 0 -182 -34.333 -182 -103c0 -58.667 33 -88 99 -88z" />
    <glyph glyph-name="Cacute" unicode="&#x106;" horiz-adv-x="730" 
d="M395 -9c-103.333 0 -184.833 32.6699 -244.5 98.0029s-89.5 153.333 -89.5 264v8c0 106 31.667 193.333 95 262s143.666 103 240.999 103c78 0 143.833 -20.333 197.5 -61s84.5 -98.334 92.5 -173.001h-86c-10 55.333 -31.167 96.666 -63.5 123.999s-78.833 41 -139.5 41
c-74 0 -133.667 -26.833 -179 -80.5s-68 -125.167 -68 -214.5v-8c0 -91.333 21.833 -162.833 65.5 -214.5s103.834 -77.5 180.501 -77.5c59.333 0 107.833 14.833 145.5 44.5s61.167 73.167 70.5 130.5h81c-12 -80.667 -44.333 -141.834 -97 -183.501s-120 -62.5 -202 -62.5
zM418 898.003h104l-98 -127h-62z" />
    <glyph glyph-name="cacute" unicode="&#x107;" horiz-adv-x="570" 
d="M307 -9c-74.667 0 -135.999 24.168 -183.999 72.501s-72 112.5 -72 192.5v8c0 78.667 24.5 143 73.5 193s109.167 75 180.5 75c60 0 111 -14.833 153 -44.5s66.667 -75.834 74 -138.501h-82c-12 76 -60.333 114 -145 114c-48.667 0 -88.834 -18.167 -120.501 -54.5
s-47.5 -84.5 -47.5 -144.5v-8c0 -62.667 15.5 -111 46.5 -145s72.5 -51 124.5 -51c39.333 0 73.166 11.167 101.499 33.5s44.5 53.833 48.5 94.5h77c-5.33301 -57.333 -29.166 -104.5 -71.499 -141.5s-94.5 -55.5 -156.5 -55.5zM329.001 760.001h104l-104 -147h-62z" />
    <glyph glyph-name="Ccircumflex" unicode="&#x108;" horiz-adv-x="730" 
d="M395 -9c-103.333 0 -184.833 32.6699 -244.5 98.0029s-89.5 153.333 -89.5 264v8c0 106 31.667 193.333 95 262s143.666 103 240.999 103c78 0 143.833 -20.333 197.5 -61s84.5 -98.334 92.5 -173.001h-86c-10 55.333 -31.167 96.666 -63.5 123.999s-78.833 41 -139.5 41
c-74 0 -133.667 -26.833 -179 -80.5s-68 -125.167 -68 -214.5v-8c0 -91.333 21.833 -162.833 65.5 -214.5s103.834 -77.5 180.501 -77.5c59.333 0 107.833 14.833 145.5 44.5s61.167 73.167 70.5 130.5h81c-12 -80.667 -44.333 -141.834 -97 -183.501s-120 -62.5 -202 -62.5
zM362 898.003h75l107 -127h-61l-85 58l-85 -58h-59z" />
    <glyph glyph-name="ccircumflex" unicode="&#x109;" horiz-adv-x="570" 
d="M307 -9c-74.667 0 -135.999 24.168 -183.999 72.501s-72 112.5 -72 192.5v8c0 78.667 24.5 143 73.5 193s109.167 75 180.5 75c60 0 111 -14.833 153 -44.5s66.667 -75.834 74 -138.501h-82c-12 76 -60.333 114 -145 114c-48.667 0 -88.834 -18.167 -120.501 -54.5
s-47.5 -84.5 -47.5 -144.5v-8c0 -62.667 15.5 -111 46.5 -145s72.5 -51 124.5 -51c39.333 0 73.166 11.167 101.499 33.5s44.5 53.833 48.5 94.5h77c-5.33301 -57.333 -29.166 -104.5 -71.499 -141.5s-94.5 -55.5 -156.5 -55.5zM267.001 757.001h75l107 -144h-61l-85 75
l-85 -75h-59z" />
    <glyph glyph-name="Cdotaccent" unicode="&#x10a;" horiz-adv-x="730" 
d="M395 -9c-103.333 0 -184.833 32.6699 -244.5 98.0029s-89.5 153.333 -89.5 264v8c0 106 31.667 193.333 95 262s143.666 103 240.999 103c78 0 143.833 -20.333 197.5 -61s84.5 -98.334 92.5 -173.001h-86c-10 55.333 -31.167 96.666 -63.5 123.999s-78.833 41 -139.5 41
c-74 0 -133.667 -26.833 -179 -80.5s-68 -125.167 -68 -214.5v-8c0 -91.333 21.833 -162.833 65.5 -214.5s103.834 -77.5 180.501 -77.5c59.333 0 107.833 14.833 145.5 44.5s61.167 73.167 70.5 130.5h81c-12 -80.667 -44.333 -141.834 -97 -183.501s-120 -62.5 -202 -62.5
zM395 787.003c-15.333 0 -28.333 5.33301 -39 16s-16 23.667 -16 39s5.33301 28.333 16 39s23.667 16 39 16s28.333 -5.33301 39 -16s16 -23.667 16 -39s-5.33301 -28.333 -16 -39s-23.667 -16 -39 -16z" />
    <glyph glyph-name="cdotaccent" unicode="&#x10b;" horiz-adv-x="570" 
d="M307 -9c-74.667 0 -135.999 24.168 -183.999 72.501s-72 112.5 -72 192.5v8c0 78.667 24.5 143 73.5 193s109.167 75 180.5 75c60 0 111 -14.833 153 -44.5s66.667 -75.834 74 -138.501h-82c-12 76 -60.333 114 -145 114c-48.667 0 -88.834 -18.167 -120.501 -54.5
s-47.5 -84.5 -47.5 -144.5v-8c0 -62.667 15.5 -111 46.5 -145s72.5 -51 124.5 -51c39.333 0 73.166 11.167 101.499 33.5s44.5 53.833 48.5 94.5h77c-5.33301 -57.333 -29.166 -104.5 -71.499 -141.5s-94.5 -55.5 -156.5 -55.5zM304.001 632.001
c-15.333 0 -28.333 5.33301 -39 16s-16 23.667 -16 39s5.33301 28.333 16 39s23.667 16 39 16s28.333 -5.33301 39 -16s16 -23.667 16 -39s-5.33301 -28.333 -16 -39s-23.667 -16 -39 -16z" />
    <glyph glyph-name="Ccaron" unicode="&#x10c;" horiz-adv-x="730" 
d="M395 -9c-103.333 0 -184.833 32.6699 -244.5 98.0029s-89.5 153.333 -89.5 264v8c0 106 31.667 193.333 95 262s143.666 103 240.999 103c78 0 143.833 -20.333 197.5 -61s84.5 -98.334 92.5 -173.001h-86c-10 55.333 -31.167 96.666 -63.5 123.999s-78.833 41 -139.5 41
c-74 0 -133.667 -26.833 -179 -80.5s-68 -125.167 -68 -214.5v-8c0 -91.333 21.833 -162.833 65.5 -214.5s103.834 -77.5 180.501 -77.5c59.333 0 107.833 14.833 145.5 44.5s61.167 73.167 70.5 130.5h81c-12 -80.667 -44.333 -141.834 -97 -183.501s-120 -62.5 -202 -62.5
zM254 898.003h61l85 -58l85 58h59l-108 -127h-75z" />
    <glyph glyph-name="ccaron" unicode="&#x10d;" horiz-adv-x="570" 
d="M307 -9c-74.667 0 -135.999 24.168 -183.999 72.501s-72 112.5 -72 192.5v8c0 78.667 24.5 143 73.5 193s109.167 75 180.5 75c60 0 111 -14.833 153 -44.5s66.667 -75.834 74 -138.501h-82c-12 76 -60.333 114 -145 114c-48.667 0 -88.834 -18.167 -120.501 -54.5
s-47.5 -84.5 -47.5 -144.5v-8c0 -62.667 15.5 -111 46.5 -145s72.5 -51 124.5 -51c39.333 0 73.166 11.167 101.499 33.5s44.5 53.833 48.5 94.5h77c-5.33301 -57.333 -29.166 -104.5 -71.499 -141.5s-94.5 -55.5 -156.5 -55.5zM159.001 757.001h61l85 -75l85 75h59
l-108 -144h-75z" />
    <glyph glyph-name="Dcaron" unicode="&#x10e;" horiz-adv-x="696" 
d="M281 71c90 0 158.5 25.168 205.5 75.501s70.5 120.166 70.5 209.499v8c0 87.333 -22.5 156 -67.5 206s-114.833 75 -209.5 75h-97v-574h98zM96 715.001l189 0.000976562c118 0 207.833 -32.333 269.5 -97s92.5 -149.334 92.5 -254.001v-9
c0 -104.667 -30.667 -190 -92 -256s-152 -99 -272 -99h-187v715zM177 898.002h61l85 -58l85 58h59l-108 -127h-75z" />
    <glyph glyph-name="dcaron" unicode="&#x10f;" horiz-adv-x="627" 
d="M287 -9c-70 0 -126.833 23.168 -170.5 69.501s-65.5 109.833 -65.5 190.5v8c0 80 22.667 145.5 68 196.5s104 76.5 176 76.5c76 0 133 -31 171 -93v334h83v-773h-83v90c-15.333 -26.667 -40 -49.834 -74 -69.501s-69 -29.5 -105 -29.5zM296 60.001
c51.333 0 92.999 16.8311 124.999 50.498s48 82.834 48 147.501v8c0 66 -14.5 115.333 -43.5 148s-69.833 49 -122.5 49c-52 0 -92.667 -17.333 -122 -52s-44 -84 -44 -148v-8c0 -63.333 14.833 -111.666 44.5 -144.999s67.834 -50 114.501 -50zM608.999 772.999h94
l-48 -175h-58z" />
    <glyph glyph-name="Dcroat" unicode="&#x110;" horiz-adv-x="716" 
d="M34 392l76 0.000976562v323h189c118 0 207.833 -32.333 269.5 -97s92.5 -149.334 92.5 -254.001v-9c0 -104.667 -30.667 -190 -92 -256s-152 -99 -272 -99h-187v325h-76v67zM295 71.001c90 0 158.5 25.168 205.5 75.501s70.5 120.166 70.5 209.499v8
c0 87.333 -22.5 156 -67.5 206s-114.833 75 -209.5 75h-97v-253h207v-67h-207v-254h98z" />
    <glyph glyph-name="dcroat" unicode="&#x111;" horiz-adv-x="627" 
d="M282 676l178 0.000976562v97h83v-97h75v-61h-75v-615h-83v90c-15.333 -26.667 -40 -49.834 -74 -69.501s-69 -29.5 -105 -29.5c-70 0 -126.833 23.167 -170.5 69.5s-65.5 109.833 -65.5 190.5v8c0 80 22.667 145.5 68 196.5s104 76.5 176 76.5c76 0 133 -31 171 -93v176
h-178v61zM290 60.001c51.333 0 92.999 16.8311 124.999 50.498s48 82.834 48 147.501v8c0 66 -14.5 115.333 -43.5 148s-69.833 49 -122.5 49c-52 0 -92.667 -17.333 -122 -52s-44 -84 -44 -148v-8c0 -63.333 14.833 -111.666 44.5 -144.999s67.834 -50 114.501 -50z" />
    <glyph glyph-name="Emacron" unicode="&#x112;" horiz-adv-x="566" 
d="M96 715h417v-71h-330v-243h266v-71h-266v-259h348v-71h-435v715zM179 850h266v-64h-266v64z" />
    <glyph glyph-name="emacron" unicode="&#x113;" horiz-adv-x="568" 
d="M304 -9c-74.667 0 -135.501 24.333 -182.501 73s-70.5 112.667 -70.5 192v8c0 78.667 22.833 143 68.5 193s104.5 75 176.5 75c66.667 0 122.5 -21.5 167.5 -64.5s67.5 -108.167 67.5 -195.5v-27h-394c4 -123.333 60 -185 168 -185c82 0 128.333 30.333 139 91h83
c-9.33301 -52 -33.666 -91.667 -72.999 -119s-89.333 -41 -150 -41zM445.999 312c-7.33301 100.667 -57.334 151 -150.001 151c-42 0 -76.667 -13.333 -104 -40s-44.666 -63.667 -51.999 -111h306zM164.998 712h262v-64h-262v64z" />
    <glyph glyph-name="Ebreve" unicode="&#x114;" horiz-adv-x="566" 
d="M96 715h417v-71h-330v-243h266v-71h-266v-259h348v-71h-435v715zM317 767c-36 0 -66.666 12.5 -91.999 37.5s-38.666 56.5 -39.999 94.5h66c7.33301 -42.667 29.333 -64 66 -64c39.333 0 63.333 21.333 72 64h64c-2.66699 -38 -16.834 -69.5 -42.501 -94.5
s-56.834 -37.5 -93.501 -37.5z" />
    <glyph glyph-name="ebreve" unicode="&#x115;" horiz-adv-x="568" 
d="M304 -9c-74.667 0 -135.501 24.333 -182.501 73s-70.5 112.667 -70.5 192v8c0 78.667 22.833 143 68.5 193s104.5 75 176.5 75c66.667 0 122.5 -21.5 167.5 -64.5s67.5 -108.167 67.5 -195.5v-27h-394c4 -123.333 60 -185 168 -185c82 0 128.333 30.333 139 91h83
c-9.33301 -52 -33.666 -91.667 -72.999 -119s-89.333 -41 -150 -41zM445.999 312c-7.33301 100.667 -57.334 151 -150.001 151c-42 0 -76.667 -13.333 -104 -40s-44.666 -63.667 -51.999 -111h306zM285.998 619c-36 0 -66.666 12.5 -91.999 37.5s-38.666 56.5 -39.999 94.5
h66c7.33301 -42.667 29.333 -64 66 -64c39.333 0 63.333 21.333 72 64h64c-2.66699 -38 -16.834 -69.5 -42.501 -94.5s-56.834 -37.5 -93.501 -37.5z" />
    <glyph glyph-name="Edotaccent" unicode="&#x116;" horiz-adv-x="566" 
d="M96 715h417v-71h-330v-243h266v-71h-266v-259h348v-71h-435v715zM312 787c-15.333 0 -28.333 5.33301 -39 16s-16 23.667 -16 39s5.33301 28.333 16 39s23.667 16 39 16s28.333 -5.33301 39 -16s16 -23.667 16 -39s-5.33301 -28.333 -16 -39s-23.667 -16 -39 -16z" />
    <glyph glyph-name="edotaccent" unicode="&#x117;" horiz-adv-x="568" 
d="M304 -9c-74.667 0 -135.501 24.333 -182.501 73s-70.5 112.667 -70.5 192v8c0 78.667 22.833 143 68.5 193s104.5 75 176.5 75c66.667 0 122.5 -21.5 167.5 -64.5s67.5 -108.167 67.5 -195.5v-27h-394c4 -123.333 60 -185 168 -185c82 0 128.333 30.333 139 91h83
c-9.33301 -52 -33.666 -91.667 -72.999 -119s-89.333 -41 -150 -41zM445.999 312c-7.33301 100.667 -57.334 151 -150.001 151c-42 0 -76.667 -13.333 -104 -40s-44.666 -63.667 -51.999 -111h306zM295.998 632c-15.333 0 -28.333 5.33301 -39 16s-16 23.667 -16 39
s5.33301 28.333 16 39s23.667 16 39 16s28.333 -5.33301 39 -16s16 -23.667 16 -39s-5.33301 -28.333 -16 -39s-23.667 -16 -39 -16z" />
    <glyph glyph-name="Eogonek" unicode="&#x118;" horiz-adv-x="566" 
d="M454 -182c-32 0 -57.334 7 -76.001 21s-28 33.667 -28 59c0 20.667 7.33301 40 22 58s33.334 32.667 56.001 44h-338v715h417v-71h-330v-243h266v-71h-266v-259h348v-71h-28c-45.333 -31.333 -68 -60 -68 -86c0 -24 12.667 -36 38 -36c20.667 0 38 3.66699 52 11v-59
c-19.333 -8 -41 -12 -65 -12z" />
    <glyph glyph-name="eogonek" unicode="&#x119;" horiz-adv-x="568" 
d="M388 -182c-32 0 -57.334 7.00098 -76.001 21.001s-28 33.667 -28 59c0 19.333 6.33301 37.666 19 54.999s29.334 31.333 50.001 42c-16.667 -2.66699 -35 -4 -55 -4c-74.667 0 -135.5 24.333 -182.5 73s-70.5 112.667 -70.5 192v8c0 78.667 22.833 143 68.5 193
s104.5 75 176.5 75c66.667 0 122.5 -21.5 167.5 -64.5s67.5 -108.167 67.5 -195.5v-27h-394c4 -123.333 60 -185 168 -185c82 0 128.333 30.333 139 91h83c-4 -24.667 -12.5 -47.667 -25.5 -69s-23.333 -35.5 -31 -42.5s-19.167 -16.5 -34.5 -28.5
c-44.667 -38 -67 -70.333 -67 -97c0 -24 12.667 -36 38 -36c20.667 0 38 3.66699 52 11v-59c-19.333 -8 -41 -12 -65 -12zM439.999 312.001c-7.33301 100.667 -57.334 151 -150.001 151c-42 0 -76.667 -13.333 -104 -40s-44.666 -63.667 -51.999 -111h306z" />
    <glyph glyph-name="Ecaron" unicode="&#x11a;" horiz-adv-x="566" 
d="M96 715h417v-71h-330v-243h266v-71h-266v-259h348v-71h-435v715zM171 898h61l85 -58l85 58h59l-108 -127h-75z" />
    <glyph glyph-name="ecaron" unicode="&#x11b;" horiz-adv-x="568" 
d="M304 -9c-74.667 0 -135.501 24.333 -182.501 73s-70.5 112.667 -70.5 192v8c0 78.667 22.833 143 68.5 193s104.5 75 176.5 75c66.667 0 122.5 -21.5 167.5 -64.5s67.5 -108.167 67.5 -195.5v-27h-394c4 -123.333 60 -185 168 -185c82 0 128.333 30.333 139 91h83
c-9.33301 -52 -33.666 -91.667 -72.999 -119s-89.333 -41 -150 -41zM445.999 312c-7.33301 100.667 -57.334 151 -150.001 151c-42 0 -76.667 -13.333 -104 -40s-44.666 -63.667 -51.999 -111h306zM150.998 757h61l85 -75l85 75h59l-108 -144h-75z" />
    <glyph glyph-name="Gcircumflex" unicode="&#x11c;" horiz-adv-x="767" 
d="M407 -9c-107.333 0 -191.833 33.5 -253.5 100.5s-92.5 154.167 -92.5 261.5v8c0 105.333 32.167 192.5 96.5 261.5s147.5 103.5 249.5 103.5c76 0 141 -18.833 195 -56.5s86 -94.5 96 -170.5h-87c-18.667 105.333 -86 158 -202 158
c-81.333 0 -144.666 -26.833 -189.999 -80.5s-68 -125.167 -68 -214.5v-8c0 -90.667 22 -162.167 66 -214.5s107.333 -78.5 190 -78.5c74 0 129.667 21 167 63s56.666 97 57.999 165h-209v72h294v-53c0 -101.333 -28.167 -179.5 -84.5 -234.5s-131.5 -82.5 -225.5 -82.5z
M364 898h75l107 -127h-61l-85 58l-85 -58h-59z" />
    <glyph glyph-name="gcircumflex" unicode="&#x11d;" horiz-adv-x="627" 
d="M299 -191c-73.333 0 -129.333 14.834 -168 44.501s-61.667 68.5 -69 116.5h85c12 -60.667 62.333 -91 151 -91c53.333 0 94.666 13.167 123.999 39.5s44 66.833 44 121.5v76c-15.333 -26.667 -39.666 -49.834 -72.999 -69.501s-68 -29.5 -104 -29.5
c-68.667 0 -125.5 23.333 -170.5 70s-67.5 106 -67.5 178v7c0 72.667 23 134.167 69 184.5s104.333 75.5 175 75.5c76 0 133 -31 171 -93v84h83v-488c0 -73.333 -22.833 -129.333 -68.5 -168s-106.167 -58 -181.5 -58zM298 86.001c50 0 91 16.5 123 49.5s48 78.167 48 135.5
v7c0 58 -14.667 103.333 -44 136s-70 49 -122 49c-51.333 0 -91.833 -17.333 -121.5 -52s-44.5 -79.667 -44.5 -135v-8c0 -55.333 15.5 -99.5 46.5 -132.5s69.167 -49.5 114.5 -49.5zM263 757.001h75l107 -144h-61l-85 75l-85 -75h-59z" />
    <glyph glyph-name="Gbreve" unicode="&#x11e;" horiz-adv-x="767" 
d="M407 -9c-107.333 0 -191.833 33.5 -253.5 100.5s-92.5 154.167 -92.5 261.5v8c0 105.333 32.167 192.5 96.5 261.5s147.5 103.5 249.5 103.5c76 0 141 -18.833 195 -56.5s86 -94.5 96 -170.5h-87c-18.667 105.333 -86 158 -202 158
c-81.333 0 -144.666 -26.833 -189.999 -80.5s-68 -125.167 -68 -214.5v-8c0 -90.667 22 -162.167 66 -214.5s107.333 -78.5 190 -78.5c74 0 129.667 21 167 63s56.666 97 57.999 165h-209v72h294v-53c0 -101.333 -28.167 -179.5 -84.5 -234.5s-131.5 -82.5 -225.5 -82.5z
M399 767c-36 0 -66.666 12.5 -91.999 37.5s-38.666 56.5 -39.999 94.5h66c7.33301 -42.667 29.333 -64 66 -64c39.333 0 63.333 21.333 72 64h64c-2.66699 -38 -16.834 -69.5 -42.501 -94.5s-56.834 -37.5 -93.501 -37.5z" />
    <glyph glyph-name="gbreve" unicode="&#x11f;" horiz-adv-x="627" 
d="M299 -191c-73.333 0 -129.333 14.834 -168 44.501s-61.667 68.5 -69 116.5h85c12 -60.667 62.333 -91 151 -91c53.333 0 94.666 13.167 123.999 39.5s44 66.833 44 121.5v76c-15.333 -26.667 -39.666 -49.834 -72.999 -69.501s-68 -29.5 -104 -29.5
c-68.667 0 -125.5 23.333 -170.5 70s-67.5 106 -67.5 178v7c0 72.667 23 134.167 69 184.5s104.333 75.5 175 75.5c76 0 133 -31 171 -93v84h83v-488c0 -73.333 -22.833 -129.333 -68.5 -168s-106.167 -58 -181.5 -58zM298 86.001c50 0 91 16.5 123 49.5s48 78.167 48 135.5
v7c0 58 -14.667 103.333 -44 136s-70 49 -122 49c-51.333 0 -91.833 -17.333 -121.5 -52s-44.5 -79.667 -44.5 -135v-8c0 -55.333 15.5 -99.5 46.5 -132.5s69.167 -49.5 114.5 -49.5zM298 619.001c-36 0 -66.666 12.5 -91.999 37.5s-38.666 56.5 -39.999 94.5h66
c7.33301 -42.667 29.333 -64 66 -64c39.333 0 63.333 21.333 72 64h64c-2.66699 -38 -16.834 -69.5 -42.501 -94.5s-56.834 -37.5 -93.501 -37.5z" />
    <glyph glyph-name="Gdotaccent" unicode="&#x120;" horiz-adv-x="767" 
d="M407 -9c-107.333 0 -191.833 33.5 -253.5 100.5s-92.5 154.167 -92.5 261.5v8c0 105.333 32.167 192.5 96.5 261.5s147.5 103.5 249.5 103.5c76 0 141 -18.833 195 -56.5s86 -94.5 96 -170.5h-87c-18.667 105.333 -86 158 -202 158
c-81.333 0 -144.666 -26.833 -189.999 -80.5s-68 -125.167 -68 -214.5v-8c0 -90.667 22 -162.167 66 -214.5s107.333 -78.5 190 -78.5c74 0 129.667 21 167 63s56.666 97 57.999 165h-209v72h294v-53c0 -101.333 -28.167 -179.5 -84.5 -234.5s-131.5 -82.5 -225.5 -82.5z
M401 787c-15.333 0 -28.333 5.33301 -39 16s-16 23.667 -16 39s5.33301 28.333 16 39s23.667 16 39 16s28.333 -5.33301 39 -16s16 -23.667 16 -39s-5.33301 -28.333 -16 -39s-23.667 -16 -39 -16z" />
    <glyph glyph-name="gdotaccent" unicode="&#x121;" horiz-adv-x="627" 
d="M299 -191c-73.333 0 -129.333 14.834 -168 44.501s-61.667 68.5 -69 116.5h85c12 -60.667 62.333 -91 151 -91c53.333 0 94.666 13.167 123.999 39.5s44 66.833 44 121.5v76c-15.333 -26.667 -39.666 -49.834 -72.999 -69.501s-68 -29.5 -104 -29.5
c-68.667 0 -125.5 23.333 -170.5 70s-67.5 106 -67.5 178v7c0 72.667 23 134.167 69 184.5s104.333 75.5 175 75.5c76 0 133 -31 171 -93v84h83v-488c0 -73.333 -22.833 -129.333 -68.5 -168s-106.167 -58 -181.5 -58zM298 86.001c50 0 91 16.5 123 49.5s48 78.167 48 135.5
v7c0 58 -14.667 103.333 -44 136s-70 49 -122 49c-51.333 0 -91.833 -17.333 -121.5 -52s-44.5 -79.667 -44.5 -135v-8c0 -55.333 15.5 -99.5 46.5 -132.5s69.167 -49.5 114.5 -49.5zM300 632.001c-15.333 0 -28.333 5.33301 -39 16s-16 23.667 -16 39s5.33301 28.333 16 39
s23.667 16 39 16s28.333 -5.33301 39 -16s16 -23.667 16 -39s-5.33301 -28.333 -16 -39s-23.667 -16 -39 -16z" />
    <glyph glyph-name="uni0122" unicode="&#x122;" horiz-adv-x="767" 
d="M407 -9c-107.333 0 -191.833 33.5 -253.5 100.5s-92.5 154.167 -92.5 261.5v8c0 105.333 32.167 192.5 96.5 261.5s147.5 103.5 249.5 103.5c76 0 141 -18.833 195 -56.5s86 -94.5 96 -170.5h-87c-18.667 105.333 -86 158 -202 158
c-81.333 0 -144.666 -26.833 -189.999 -80.5s-68 -125.167 -68 -214.5v-8c0 -90.667 22 -162.167 66 -214.5s107.333 -78.5 190 -78.5c74 0 129.667 21 167 63s56.666 97 57.999 165h-209v72h294v-53c0 -101.333 -28.167 -179.5 -84.5 -234.5s-131.5 -82.5 -225.5 -82.5z
M317 -194l58 157l80 -24l-87 -159z" />
    <glyph glyph-name="uni0123" unicode="&#x123;" horiz-adv-x="627" 
d="M299 -191c-73.333 0 -129.333 14.834 -168 44.501s-61.667 68.5 -69 116.5h85c12 -60.667 62.333 -91 151 -91c53.333 0 94.666 13.167 123.999 39.5s44 66.833 44 121.5v76c-15.333 -26.667 -39.666 -49.834 -72.999 -69.501s-68 -29.5 -104 -29.5
c-68.667 0 -125.5 23.333 -170.5 70s-67.5 106 -67.5 178v7c0 72.667 23 134.167 69 184.5s104.333 75.5 175 75.5c76 0 133 -31 171 -93v84h83v-488c0 -73.333 -22.833 -129.333 -68.5 -168s-106.167 -58 -181.5 -58zM298 86.001c50 0 91 16.5 123 49.5s48 78.167 48 135.5
v7c0 58 -14.667 103.333 -44 136s-70 49 -122 49c-51.333 0 -91.833 -17.333 -121.5 -52s-44.5 -79.667 -44.5 -135v-8c0 -55.333 15.5 -99.5 46.5 -132.5s69.167 -49.5 114.5 -49.5zM260 626.001l87 159l51 -26l-58 -157z" />
    <glyph glyph-name="Hcircumflex" unicode="&#x124;" horiz-adv-x="730" 
d="M96 715h87v-324h376v324h87v-715h-87v318h-376v-318h-87v715zM334 898h75l107 -127h-61l-85 58l-85 -58h-59z" />
    <glyph glyph-name="hcircumflex" unicode="&#x125;" horiz-adv-x="598" 
d="M90 773h83v-333c13.333 26.667 34.333 48.667 63 66s63.667 26 105 26c57.333 0 102.333 -17 135 -51s49 -87.333 49 -160v-321h-83v327c0 46 -10 79.667 -30 101s-51 32 -93 32c-40.667 0 -75.167 -12.667 -103.5 -38s-42.5 -60.333 -42.5 -105v-317h-83v773zM282 948
h75l107 -127h-61l-85 58l-85 -58h-59z" />
    <glyph glyph-name="Hbar" unicode="&#x126;" horiz-adv-x="730" 
d="M20 560h70v155h87v-155h376v155h87v-155h70v-67h-70v-493h-87v318h-376v-318h-87v493h-70v67zM553 391v102h-376v-102h376z" />
    <glyph glyph-name="hbar" unicode="&#x127;" horiz-adv-x="598" 
d="M9 676h75v97h83v-97h178v-61h-178v-175c13.333 26.667 34.333 48.667 63 66s63.667 26 105 26c57.333 0 102.333 -17 135 -51s49 -87.333 49 -160v-321h-83v327c0 46 -10 79.667 -30 101s-51 32 -93 32c-40.667 0 -75.167 -12.667 -103.5 -38s-42.5 -60.333 -42.5 -105
v-317h-83v615h-75v61z" />
    <glyph glyph-name="Itilde" unicode="&#x128;" horiz-adv-x="277" 
d="M101 715h87v-715h-87v715zM200 774c-15.333 0 -35.001 7.16699 -59.001 21.5s-40.333 21.5 -49 21.5c-9.33301 0 -17.666 -4.16699 -24.999 -12.5s-12.333 -19.166 -15 -32.499h-60c4 35.333 15.333 63.5 34 84.5s41 31.5 67 31.5c15.333 0 34.833 -7.16699 58.5 -21.5
s39.834 -21.5 48.501 -21.5c9.33301 0 17.666 4.16699 24.999 12.5s12.333 19.166 15 32.499h60c-4 -35.333 -15.167 -63.5 -33.5 -84.5s-40.5 -31.5 -66.5 -31.5z" />
    <glyph glyph-name="itilde" unicode="&#x129;" horiz-adv-x="255" 
d="M92 523h83v-523h-83v523zM188 619c-15.333 0 -35.001 7.16699 -59.001 21.5s-40.333 21.5 -49 21.5c-9.33301 0 -17.666 -4.16699 -24.999 -12.5s-12.333 -19.166 -15 -32.499h-60c4 35.333 15.333 63.5 34 84.5s41 31.5 67 31.5c15.333 0 34.833 -7.16699 58.5 -21.5
s39.834 -21.5 48.501 -21.5c9.33301 0 17.666 4.16699 24.999 12.5s12.333 19.166 15 32.499h60c-4 -35.333 -15.167 -63.5 -33.5 -84.5s-40.5 -31.5 -66.5 -31.5z" />
    <glyph glyph-name="Imacron" unicode="&#x12a;" horiz-adv-x="277" 
d="M101 715h87v-715h-87v715zM11 850h266v-64h-266v64z" />
    <glyph glyph-name="imacron" unicode="&#x12b;" horiz-adv-x="255" 
d="M30 712h194v-64h-194v64zM86 523h83v-523h-83v523z" />
    <glyph glyph-name="Ibreve" unicode="&#x12c;" horiz-adv-x="277" 
d="M101 715h87v-715h-87v715zM144 767c-36 0 -66.666 12.5 -91.999 37.5s-38.666 56.5 -39.999 94.5h66c7.33301 -42.667 29.333 -64 66 -64c39.333 0 63.333 21.333 72 64h64c-2.66699 -38 -16.834 -69.5 -42.501 -94.5s-56.834 -37.5 -93.501 -37.5z" />
    <glyph glyph-name="ibreve" unicode="&#x12d;" horiz-adv-x="255" 
d="M92 523h83v-523h-83v523zM132 619c-36 0 -66.666 12.5 -91.999 37.5s-38.666 56.5 -39.999 94.5h66c7.33301 -42.667 29.333 -64 66 -64c39.333 0 63.333 21.333 72 64h64c-2.66699 -38 -16.834 -69.5 -42.501 -94.5s-56.834 -37.5 -93.501 -37.5z" />
    <glyph glyph-name="Iogonek" unicode="&#x12e;" horiz-adv-x="277" 
d="M130 -182c-32 0 -57.333 7 -76 21s-28 33.667 -28 59c0 38 23 70.667 69 98v719h87v-711c-51.333 -28.667 -77 -58.667 -77 -90c0 -24 12.667 -36 38 -36c20.667 0 38 3.66699 52 11v-59c-19.333 -8 -41 -12 -65 -12z" />
    <glyph glyph-name="iogonek" unicode="&#x12f;" horiz-adv-x="255" 
d="M120 -182c-32 0 -57.333 6.99902 -76 20.999s-28 33.667 -28 59c0 40.667 23.333 73.334 70 98.001v527h83v-520c-49.333 -30 -74 -59.667 -74 -89c0 -24 12.667 -36 38 -36c20.667 0 38 3.66699 52 11v-59c-19.333 -8 -41 -12 -65 -12zM126 631.999
c-15.333 0 -28.333 5.33301 -39 16s-16 23.667 -16 39s5.33301 28.333 16 39s23.667 16 39 16s28.333 -5.33301 39 -16s16 -23.667 16 -39s-5.33301 -28.333 -16 -39s-23.667 -16 -39 -16z" />
    <glyph glyph-name="Idotaccent" unicode="&#x130;" horiz-adv-x="277" 
d="M101 715h87v-715h-87v715zM144 787c-15.333 0 -28.333 5.33301 -39 16s-16 23.667 -16 39s5.33301 28.333 16 39s23.667 16 39 16s28.333 -5.33301 39 -16s16 -23.667 16 -39s-5.33301 -28.333 -16 -39s-23.667 -16 -39 -16z" />
    <glyph glyph-name="dotlessi" unicode="&#x131;" horiz-adv-x="267" 
d="M92 523h83v-523h-83v523z" />
    <glyph glyph-name="IJ" unicode="&#x132;" horiz-adv-x="657" 
d="M101 715h87v-715h-87v715zM381 -9c-44.667 0 -78 6.33301 -100 19v72c32.667 -13.333 64.334 -20 95.001 -20c77.333 0 116 45.333 116 136v517h87v-521c0 -68 -18.333 -118.833 -55 -152.5s-84.334 -50.5 -143.001 -50.5z" />
    <glyph glyph-name="ij" unicode="&#x133;" horiz-adv-x="255" 
d="M92 523h83v-523h-83v523zM132 632c-15.333 0 -28.333 5.33301 -39 16s-16 23.667 -16 39s5.33301 28.333 16 39s23.667 16 39 16s28.333 -5.33301 39 -16s16 -23.667 16 -39s-5.33301 -28.333 -16 -39s-23.667 -16 -39 -16zM270 -121c28.667 2.66699 48.667 10.5 60 23.5
s17 32.167 17 57.5v563h83v-556c0 -51.333 -12.5 -90 -37.5 -116s-65.833 -40 -122.5 -42v70zM387 632c-15.333 0 -28.333 5.33301 -39 16s-16 23.667 -16 39s5.33301 28.333 16 39s23.667 16 39 16s28.333 -5.33301 39 -16s16 -23.667 16 -39s-5.33301 -28.333 -16 -39
s-23.667 -16 -39 -16z" />
    <glyph glyph-name="Jcircumflex" unicode="&#x134;" horiz-adv-x="420" 
d="M144 -9c-44.667 0 -78 6.33301 -100 19v72c32.667 -13.333 64.334 -20 95.001 -20c77.333 0 116 45.333 116 136v517h87v-521c0 -68 -18.333 -118.833 -55 -152.5s-84.334 -50.5 -143.001 -50.5zM259 898h75l107 -127h-61l-85 58l-85 -58h-59z" />
    <glyph glyph-name="jcircumflex" unicode="&#x135;" horiz-adv-x="255" 
d="M9 -121c28.667 2.66699 48.667 10.5 60 23.5s17 32.167 17 57.5v563h83v-556c0 -51.333 -12.5 -90 -37.5 -116s-65.833 -40 -122.5 -42v70zM95 757h75l107 -144h-61l-85 75l-85 -75h-59z" />
    <glyph glyph-name="uni0136" unicode="&#x136;" horiz-adv-x="616" 
d="M96 715h87v-344l311 345h97l-318 -348l334 -368h-105l-319 349v-349h-87v715zM244 -194l58 157l80 -24l-87 -159z" />
    <glyph glyph-name="uni0137" unicode="&#x137;" horiz-adv-x="516" 
d="M90 773h83v-491l217 241h97l-224 -243l243 -280h-101l-232 271v-271h-83v773zM192 -194l58 157l80 -24l-87 -159z" />
    <glyph glyph-name="Lacute" unicode="&#x139;" horiz-adv-x="535" 
d="M96 715h87v-644h327v-71h-414v715zM160 898h104l-98 -127h-62z" />
    <glyph glyph-name="lacute" unicode="&#x13a;" horiz-adv-x="256" 
d="M92 773h84v-773h-84v773zM154 948h104l-98 -127h-62z" />
    <glyph glyph-name="uni013B" unicode="&#x13b;" horiz-adv-x="535" 
d="M96 715h87v-644h327v-71h-414v715zM220 -194l58 157l80 -24l-87 -159z" />
    <glyph glyph-name="uni013C" unicode="&#x13c;" horiz-adv-x="256" 
d="M92 773h84v-773h-84v773zM50 -194l58 157l80 -24l-87 -159z" />
    <glyph glyph-name="Lcaron" unicode="&#x13d;" horiz-adv-x="535" 
d="M315 715h94l-58 -157h-58zM90 715h87v-644h327v-71h-414v715z" />
    <glyph glyph-name="lcaron" unicode="&#x13e;" horiz-adv-x="256" 
d="M92 773h84v-773h-84v773zM236 773h94l-48 -175h-58z" />
    <glyph glyph-name="Ldot" unicode="&#x13f;" horiz-adv-x="535" 
d="M96 715h87v-644h327v-71h-414v715zM406 320c-17.333 0 -32.333 6.16699 -45 18.5s-19 27.5 -19 45.5s6.33301 33.167 19 45.5s27.667 18.5 45 18.5s32.333 -6.16699 45 -18.5s19 -27.5 19 -45.5s-6.33301 -33.167 -19 -45.5s-27.667 -18.5 -45 -18.5z" />
    <glyph glyph-name="ldot" unicode="&#x140;" horiz-adv-x="328" 
d="M92 773h84v-773h-84v773zM296 303c-17.333 0 -32.333 6.16699 -45 18.5s-19 27.5 -19 45.5s6.33301 33.167 19 45.5s27.667 18.5 45 18.5s32.333 -6.16699 45 -18.5s19 -27.5 19 -45.5s-6.33301 -33.167 -19 -45.5s-27.667 -18.5 -45 -18.5z" />
    <glyph glyph-name="Lslash" unicode="&#x141;" horiz-adv-x="567" 
d="M48 319l68 25v371h87v-339l199 73v-68l-199 -73v-237h327v-71h-414v276l-68 -25v68z" />
    <glyph glyph-name="lslash" unicode="&#x142;" horiz-adv-x="288" 
d="M26 381l76 43v349h84v-301l80 46v-70l-80 -46v-402h-84v354l-76 -43v70z" />
    <glyph glyph-name="Nacute" unicode="&#x143;" horiz-adv-x="724" 
d="M96 715h113l348 -591v591h83v-715h-100l-361 613v-613h-83v715zM397 898h104l-98 -127h-62z" />
    <glyph glyph-name="nacute" unicode="&#x144;" horiz-adv-x="598" 
d="M90 523h83v-83c13.333 26.667 34.333 48.667 63 66s63.667 26 105 26c57.333 0 102.333 -17 135 -51s49 -87.333 49 -160v-321h-83v327c0 46 -10 79.667 -30 101s-51 32 -93 32c-40.667 0 -75.167 -12.667 -103.5 -38s-42.5 -60.333 -42.5 -105v-317h-83v523zM329 760
h104l-104 -147h-62z" />
    <glyph glyph-name="uni0145" unicode="&#x145;" horiz-adv-x="724" 
d="M96 715h113l348 -591v591h83v-715h-100l-361 613v-613h-83v715zM272 -194l58 157l80 -24l-87 -159z" />
    <glyph glyph-name="uni0146" unicode="&#x146;" horiz-adv-x="598" 
d="M90 523h83v-83c13.333 26.667 34.333 48.667 63 66s63.667 26 105 26c57.333 0 102.333 -17 135 -51s49 -87.333 49 -160v-321h-83v327c0 46 -10 79.667 -30 101s-51 32 -93 32c-40.667 0 -75.167 -12.667 -103.5 -38s-42.5 -60.333 -42.5 -105v-317h-83v523zM220 -194
l58 157l80 -24l-87 -159z" />
    <glyph glyph-name="Ncaron" unicode="&#x147;" horiz-adv-x="724" 
d="M96 715h113l348 -591v591h83v-715h-100l-361 613v-613h-83v715zM233 898h61l85 -58l85 58h59l-108 -127h-75z" />
    <glyph glyph-name="ncaron" unicode="&#x148;" horiz-adv-x="598" 
d="M90 523h83v-83c13.333 26.667 34.333 48.667 63 66s63.667 26 105 26c57.333 0 102.333 -17 135 -51s49 -87.333 49 -160v-321h-83v327c0 46 -10 79.667 -30 101s-51 32 -93 32c-40.667 0 -75.167 -12.667 -103.5 -38s-42.5 -60.333 -42.5 -105v-317h-83v523zM159 757h61
l85 -75l85 75h59l-108 -144h-75z" />
    <glyph glyph-name="napostrophe" unicode="&#x149;" horiz-adv-x="598" 
d="M90 523h83v-83c13.333 26.667 34.333 48.667 63 66s63.667 26 105 26c57.333 0 102.333 -17 135 -51s49 -87.333 49 -160v-321h-83v327c0 46 -10 79.667 -30 101s-51 32 -93 32c-40.667 0 -75.167 -12.667 -103.5 -38s-42.5 -60.333 -42.5 -105v-317h-83v523zM-38 514
l89 212l79 -36l-117 -202z" />
    <glyph glyph-name="Eng" unicode="&#x14a;" horiz-adv-x="724" 
d="M436 -193c-44.667 0 -78 6.33301 -100 19v72c32.667 -13.333 64.334 -20 95.001 -20c76 0 115.333 40.333 118 121l-376 614v-613h-83v715h113l348 -568v568h83v-705c0 -68 -18.333 -118.833 -55 -152.5s-84.334 -50.5 -143.001 -50.5z" />
    <glyph glyph-name="eng" unicode="&#x14b;" horiz-adv-x="598" 
d="M359 -121c28.667 2.66699 48.667 10.5 60 23.5s17 32.167 17 57.5v367c0 46 -10 79.667 -30 101s-51 32 -93 32c-40.667 0 -75.167 -12.667 -103.5 -38s-42.5 -60.333 -42.5 -105v-317h-83v523h83v-83c13.333 26.667 34.333 48.667 63 66s63.667 26 105 26
c57.333 0 102.333 -17 135 -51s49 -87.333 49 -160v-354c0 -51.333 -12.5 -90 -37.5 -116s-65.833 -40 -122.5 -42v70z" />
    <glyph glyph-name="Omacron" unicode="&#x14c;" horiz-adv-x="811" 
d="M415 63c78.667 0 141.168 26.999 187.501 80.999s69.5 124.667 69.5 212v8c0 82.667 -23.333 151.667 -70 207s-109.667 83 -189 83c-81.333 0 -145.333 -26.833 -192 -80.5s-70 -124.167 -70 -211.5v-8c0 -85.333 25.167 -155.166 75.5 -209.499
s113.166 -81.5 188.499 -81.5zM415.001 -9.00098c-104 0 -189 34.834 -255 104.501s-99 155.5 -99 257.5v8c0 103.333 32.833 189.666 98.5 258.999s150.167 104 253.5 104s187.333 -34.5 252 -103.5s97 -154.833 97 -257.5v-8c0 -102.667 -32.333 -189 -97 -259
s-148 -105 -250 -105zM278.001 850h266v-64h-266v64z" />
    <glyph glyph-name="omacron" unicode="&#x14d;" horiz-adv-x="604" 
d="M308 60c52 0 93.502 18 124.502 54s46.5 83.667 46.5 143v7c0 60.667 -15.5 109 -46.5 145s-72.5 54 -124.5 54c-52.667 0 -94.334 -18 -125.001 -54s-46 -84 -46 -144v-8c0 -60.667 15.167 -108.667 45.5 -144s72.166 -53 125.499 -53zM307.002 -9
c-74 0 -135.166 25.168 -183.499 75.501s-72.5 113.833 -72.5 190.5v8c0 78 24.167 142 72.5 192s109.833 75 184.5 75s136.167 -24.833 184.5 -74.5s72.5 -113.5 72.5 -191.5v-8c0 -78.667 -24.333 -142.834 -73 -192.501s-110.334 -74.5 -185.001 -74.5zM177.003 712.001
h262v-64h-262v64z" />
    <glyph glyph-name="Obreve" unicode="&#x14e;" horiz-adv-x="811" 
d="M415 63c78.667 0 141.168 26.999 187.501 80.999s69.5 124.667 69.5 212v8c0 82.667 -23.333 151.667 -70 207s-109.667 83 -189 83c-81.333 0 -145.333 -26.833 -192 -80.5s-70 -124.167 -70 -211.5v-8c0 -85.333 25.167 -155.166 75.5 -209.499
s113.166 -81.5 188.499 -81.5zM415.001 -9.00098c-104 0 -189 34.834 -255 104.501s-99 155.5 -99 257.5v8c0 103.333 32.833 189.666 98.5 258.999s150.167 104 253.5 104s187.333 -34.5 252 -103.5s97 -154.833 97 -257.5v-8c0 -102.667 -32.333 -189 -97 -259
s-148 -105 -250 -105zM409.001 767c-36 0 -66.666 12.5 -91.999 37.5s-38.666 56.5 -39.999 94.5h66c7.33301 -42.667 29.333 -64 66 -64c39.333 0 63.333 21.333 72 64h64c-2.66699 -38 -16.834 -69.5 -42.501 -94.5s-56.834 -37.5 -93.501 -37.5z" />
    <glyph glyph-name="obreve" unicode="&#x14f;" horiz-adv-x="604" 
d="M308 60c52 0 93.502 18 124.502 54s46.5 83.667 46.5 143v7c0 60.667 -15.5 109 -46.5 145s-72.5 54 -124.5 54c-52.667 0 -94.334 -18 -125.001 -54s-46 -84 -46 -144v-8c0 -60.667 15.167 -108.667 45.5 -144s72.166 -53 125.499 -53zM307.002 -9
c-74 0 -135.166 25.168 -183.499 75.501s-72.5 113.833 -72.5 190.5v8c0 78 24.167 142 72.5 192s109.833 75 184.5 75s136.167 -24.833 184.5 -74.5s72.5 -113.5 72.5 -191.5v-8c0 -78.667 -24.333 -142.834 -73 -192.501s-110.334 -74.5 -185.001 -74.5zM306.003 619.001
c-36 0 -66.666 12.5 -91.999 37.5s-38.666 56.5 -39.999 94.5h66c7.33301 -42.667 29.333 -64 66 -64c39.333 0 63.333 21.333 72 64h64c-2.66699 -38 -16.834 -69.5 -42.501 -94.5s-56.834 -37.5 -93.501 -37.5z" />
    <glyph glyph-name="Ohungarumlaut" unicode="&#x150;" horiz-adv-x="811" 
d="M415 63c78.667 0 141.168 26.999 187.501 80.999s69.5 124.667 69.5 212v8c0 82.667 -23.333 151.667 -70 207s-109.667 83 -189 83c-81.333 0 -145.333 -26.833 -192 -80.5s-70 -124.167 -70 -211.5v-8c0 -85.333 25.167 -155.166 75.5 -209.499
s113.166 -81.5 188.499 -81.5zM415.001 -9.00098c-104 0 -189 34.834 -255 104.501s-99 155.5 -99 257.5v8c0 103.333 32.833 189.666 98.5 258.999s150.167 104 253.5 104s187.333 -34.5 252 -103.5s97 -154.833 97 -257.5v-8c0 -102.667 -32.333 -189 -97 -259
s-148 -105 -250 -105zM336.001 898h95l-72 -127h-60zM490.001 898h95l-72 -127h-60z" />
    <glyph glyph-name="ohungarumlaut" unicode="&#x151;" horiz-adv-x="604" 
d="M308 60c52 0 93.502 18 124.502 54s46.5 83.667 46.5 143v7c0 60.667 -15.5 109 -46.5 145s-72.5 54 -124.5 54c-52.667 0 -94.334 -18 -125.001 -54s-46 -84 -46 -144v-8c0 -60.667 15.167 -108.667 45.5 -144s72.166 -53 125.499 -53zM307.002 -9
c-74 0 -135.166 25.168 -183.499 75.501s-72.5 113.833 -72.5 190.5v8c0 78 24.167 142 72.5 192s109.833 75 184.5 75s136.167 -24.833 184.5 -74.5s72.5 -113.5 72.5 -191.5v-8c0 -78.667 -24.333 -142.834 -73 -192.501s-110.334 -74.5 -185.001 -74.5zM236.003 760.001
h95l-75 -147h-60zM390.003 760.001h95l-75 -147h-60z" />
    <glyph glyph-name="OE" unicode="&#x152;" horiz-adv-x="967" 
d="M61 360c0 104.667 30.667 189.999 92 255.999s152 99 272 99h477v-71h-314v-243h250v-71h-250v-259h332v-71h-497c-118 0 -207.833 32.333 -269.5 97s-92.5 149.334 -92.5 254.001v9zM427 643.999c-90.667 0 -159.333 -25.168 -206 -75.501s-70 -120.166 -70 -209.499v-8
c0 -87.333 22.5 -156 67.5 -206s114.833 -75 209.5 -75h73v574h-74z" />
    <glyph glyph-name="oe" unicode="&#x153;" horiz-adv-x="1007" 
d="M307 -9c-74 0 -135.168 25.167 -183.501 75.5s-72.5 113.833 -72.5 190.5v8c0 78 24.167 142 72.5 192s109.833 75 184.5 75c48.667 0 91.167 -11 127.5 -33s64.5 -53 84.5 -93c39.333 84 107 126 203 126c66.667 0 122.5 -21.5 167.5 -64.5s67.5 -108.167 67.5 -195.5
v-27h-394c4 -123.333 60 -185 168 -185c82 0 128.333 30.333 139 91h83c-9.33301 -52 -33.666 -91.667 -72.999 -119s-89.333 -41 -150 -41c-100 0 -170.333 41.667 -211 125c-42 -83.333 -113 -125 -213 -125zM307.999 60c52 0 93.502 18 124.502 54s46.5 83.667 46.5 143
v7c0 60.667 -15.5 109 -46.5 145s-72.5 54 -124.5 54c-52.667 0 -94.334 -18 -125.001 -54s-46 -84 -46 -144v-8c0 -60.667 15.167 -108.667 45.5 -144s72.166 -53 125.499 -53zM873.001 312c-7.33301 100.667 -57.334 151 -150.001 151c-42 0 -76.667 -13.333 -104 -40
s-44.666 -63.667 -51.999 -111h306z" />
    <glyph glyph-name="Racute" unicode="&#x154;" horiz-adv-x="628" 
d="M96 715l215.001 -0.000976562c74 0 134.167 -16.333 180.5 -49s69.5 -82.667 69.5 -150v-4c0 -55.333 -16.333 -99.166 -49 -131.499s-75.334 -53.5 -128.001 -63.5l219 -317h-97l-213 311h-110v-311h-87v715zM317.001 379.999c104.667 0 157 43.999 157 131.999v4
c0 46.667 -13.333 79.834 -40 99.501s-65.667 29.5 -117 29.5h-134v-265h134zM335.001 897.998h104l-98 -127h-62z" />
    <glyph glyph-name="racute" unicode="&#x155;" horiz-adv-x="376" 
d="M90 523h83v-94c17.333 32 39.333 56.833 66 74.5s62 27.167 106 28.5v-78c-57.333 -2.66699 -100.333 -16 -129 -40s-43 -66.333 -43 -127v-287h-83v523zM236 760h104l-104 -147h-62z" />
    <glyph glyph-name="uni0156" unicode="&#x156;" horiz-adv-x="628" 
d="M96 715l215.001 -0.000976562c74 0 134.167 -16.333 180.5 -49s69.5 -82.667 69.5 -150v-4c0 -55.333 -16.333 -99.166 -49 -131.499s-75.334 -53.5 -128.001 -63.5l219 -317h-97l-213 311h-110v-311h-87v715zM317.001 379.999c104.667 0 157 43.999 157 131.999v4
c0 46.667 -13.333 79.834 -40 99.501s-65.667 29.5 -117 29.5h-134v-265h134zM232.001 -194.002l58 157l80 -24l-87 -159z" />
    <glyph glyph-name="uni0157" unicode="&#x157;" horiz-adv-x="376" 
d="M90 523h83v-94c17.333 32 39.333 56.833 66 74.5s62 27.167 106 28.5v-78c-57.333 -2.66699 -100.333 -16 -129 -40s-43 -66.333 -43 -127v-287h-83v523zM45 -194l58 157l80 -24l-87 -159z" />
    <glyph glyph-name="Rcaron" unicode="&#x158;" horiz-adv-x="628" 
d="M96 715l215.001 -0.000976562c74 0 134.167 -16.333 180.5 -49s69.5 -82.667 69.5 -150v-4c0 -55.333 -16.333 -99.166 -49 -131.499s-75.334 -53.5 -128.001 -63.5l219 -317h-97l-213 311h-110v-311h-87v715zM317.001 379.999c104.667 0 157 43.999 157 131.999v4
c0 46.667 -13.333 79.834 -40 99.501s-65.667 29.5 -117 29.5h-134v-265h134zM171.001 897.998h61l85 -58l85 58h59l-108 -127h-75z" />
    <glyph glyph-name="rcaron" unicode="&#x159;" horiz-adv-x="376" 
d="M90 523h83v-94c17.333 32 39.333 56.833 66 74.5s62 27.167 106 28.5v-78c-57.333 -2.66699 -100.333 -16 -129 -40s-43 -66.333 -43 -127v-287h-83v523zM66 757h61l85 -75l85 75h59l-108 -144h-75z" />
    <glyph glyph-name="Sacute" unicode="&#x15a;" horiz-adv-x="627" 
d="M327 -9c-88.667 0 -154.498 20.8311 -197.498 62.498s-68.167 96.5 -75.5 164.5h84c3.33301 -23.333 8.16602 -43.666 14.499 -60.999s16.333 -33.666 30 -48.999s32.5 -27 56.5 -35s53.333 -12 88 -12c46.667 0 85.5 12.5 116.5 37.5s46.5 57.5 46.5 97.5
c0 41.333 -12.167 72 -36.5 92s-69.833 35 -136.5 45c-80.667 12.667 -140.667 33.5 -180 62.5s-59 73.833 -59 134.5c0 55.333 21.667 101.5 65 138.5s98.333 55.5 165 55.5c72 0 129.167 -16.833 171.5 -50.5s67.166 -82.5 74.499 -146.5h-78
c-8.66699 45.333 -26.167 77.833 -52.5 97.5s-64.833 29.5 -115.5 29.5c-48 0 -84.833 -10.5 -110.5 -31.5s-38.5 -49.167 -38.5 -84.5c0 -37.333 11.333 -65.5 34 -84.5s68.667 -33.5 138 -43.5c84 -12.667 145.5 -34.5 184.5 -65.5s58.5 -78.5 58.5 -142.5
c0 -60 -23.5 -110.167 -70.5 -150.5s-105.833 -60.5 -176.5 -60.5zM327.002 897.998h104l-98 -127h-62z" />
    <glyph glyph-name="sacute" unicode="&#x15b;" horiz-adv-x="480" 
d="M252 -9c-62.667 0 -111.827 14.834 -147.494 44.501s-54.834 71.5 -57.501 125.5h81c4 -33.333 15.5 -58.5 34.5 -75.5s48.5 -25.5 88.5 -25.5c39.333 0 68.166 6.83301 86.499 20.5s27.5 34.5 27.5 62.5c0 26 -9.5 45.167 -28.5 57.5s-50.167 22.5 -93.5 30.5
c-68 12 -115.333 29.333 -142 52s-40 56.667 -40 102s18.167 81.166 54.5 107.499s77.166 39.5 122.499 39.5c51.333 0 94.166 -12 128.499 -36s54.5 -62.333 60.5 -115h-80c-6 28.667 -17.5 49.5 -34.5 62.5s-42.167 19.5 -75.5 19.5c-30 0 -54 -6.83301 -72 -20.5
s-27 -31.834 -27 -54.501c0 -23.333 8.5 -41 25.5 -53s49.167 -22 96.5 -30c26 -5.33301 46.5 -10 61.5 -14s31.333 -9.83301 49 -17.5s31.167 -16.667 40.5 -27s17.166 -23.5 23.499 -39.5s9.5 -35 9.5 -57c0 -49.333 -16.333 -88.166 -49 -116.499
s-80.334 -42.5 -143.001 -42.5zM269.007 760.001h104l-104 -147h-62z" />
    <glyph glyph-name="Scircumflex" unicode="&#x15c;" horiz-adv-x="627" 
d="M327 -9c-88.667 0 -154.498 20.8311 -197.498 62.498s-68.167 96.5 -75.5 164.5h84c3.33301 -23.333 8.16602 -43.666 14.499 -60.999s16.333 -33.666 30 -48.999s32.5 -27 56.5 -35s53.333 -12 88 -12c46.667 0 85.5 12.5 116.5 37.5s46.5 57.5 46.5 97.5
c0 41.333 -12.167 72 -36.5 92s-69.833 35 -136.5 45c-80.667 12.667 -140.667 33.5 -180 62.5s-59 73.833 -59 134.5c0 55.333 21.667 101.5 65 138.5s98.333 55.5 165 55.5c72 0 129.167 -16.833 171.5 -50.5s67.166 -82.5 74.499 -146.5h-78
c-8.66699 45.333 -26.167 77.833 -52.5 97.5s-64.833 29.5 -115.5 29.5c-48 0 -84.833 -10.5 -110.5 -31.5s-38.5 -49.167 -38.5 -84.5c0 -37.333 11.333 -65.5 34 -84.5s68.667 -33.5 138 -43.5c84 -12.667 145.5 -34.5 184.5 -65.5s58.5 -78.5 58.5 -142.5
c0 -60 -23.5 -110.167 -70.5 -150.5s-105.833 -60.5 -176.5 -60.5zM271.002 897.998h75l107 -127h-61l-85 58l-85 -58h-59z" />
    <glyph glyph-name="scircumflex" unicode="&#x15d;" horiz-adv-x="480" 
d="M252 -9c-62.667 0 -111.827 14.834 -147.494 44.501s-54.834 71.5 -57.501 125.5h81c4 -33.333 15.5 -58.5 34.5 -75.5s48.5 -25.5 88.5 -25.5c39.333 0 68.166 6.83301 86.499 20.5s27.5 34.5 27.5 62.5c0 26 -9.5 45.167 -28.5 57.5s-50.167 22.5 -93.5 30.5
c-68 12 -115.333 29.333 -142 52s-40 56.667 -40 102s18.167 81.166 54.5 107.499s77.166 39.5 122.499 39.5c51.333 0 94.166 -12 128.499 -36s54.5 -62.333 60.5 -115h-80c-6 28.667 -17.5 49.5 -34.5 62.5s-42.167 19.5 -75.5 19.5c-30 0 -54 -6.83301 -72 -20.5
s-27 -31.834 -27 -54.501c0 -23.333 8.5 -41 25.5 -53s49.167 -22 96.5 -30c26 -5.33301 46.5 -10 61.5 -14s31.333 -9.83301 49 -17.5s31.167 -16.667 40.5 -27s17.166 -23.5 23.499 -39.5s9.5 -35 9.5 -57c0 -49.333 -16.333 -88.166 -49 -116.499
s-80.334 -42.5 -143.001 -42.5zM207.007 757.001h75l107 -144h-61l-85 75l-85 -75h-59z" />
    <glyph glyph-name="uni015E" unicode="&#x15e;" horiz-adv-x="627" 
d="M290 -214c-29.333 0 -52.8281 7.49609 -70.4951 22.4961s-27.5 35.5 -29.5 61.5h54c5.33301 -24 19.666 -36 42.999 -36c12 0 21.667 3.33301 29 10s11 15.334 11 26.001s-3.33301 19 -10 25s-15.334 9 -26.001 9c-10 0 -19.333 -2.66699 -28 -8l-32 28l38 70
c-70.667 7.33301 -123.834 31.333 -159.501 72s-56.167 91.334 -61.5 152.001h84c3.33301 -23.333 8.16602 -43.666 14.499 -60.999s16.333 -33.666 30 -48.999s32.5 -27 56.5 -35s53.333 -12 88 -12c46.667 0 85.5 12.5 116.5 37.5s46.5 57.5 46.5 97.5
c0 41.333 -12.167 72 -36.5 92s-69.833 35 -136.5 45c-80.667 12.667 -140.667 33.5 -180 62.5s-59 73.833 -59 134.5c0 55.333 21.667 101.5 65 138.5s98.333 55.5 165 55.5c72 0 129.167 -16.833 171.5 -50.5s67.166 -82.5 74.499 -146.5h-78
c-8.66699 45.333 -26.167 77.833 -52.5 97.5s-64.833 29.5 -115.5 29.5c-48 0 -84.833 -10.5 -110.5 -31.5s-38.5 -49.167 -38.5 -84.5c0 -37.333 11.333 -65.5 34 -84.5s68.667 -33.5 138 -43.5c84 -12.667 145.5 -34.5 184.5 -65.5s58.5 -78.5 58.5 -142.5
c0 -60 -23.5 -110.167 -70.5 -150.5s-105.833 -60.5 -176.5 -60.5l-24 -44c25.333 2.66699 47.333 -2.83301 66 -16.5s28 -35.167 28 -64.5c0 -25.333 -9.66699 -45 -29 -59s-43.333 -21 -72 -21z" />
    <glyph glyph-name="uni015F" unicode="&#x15f;" horiz-adv-x="480" 
d="M227 -214c-29.333 0 -52.8252 7.5 -70.4922 22.5s-27.5 35.5 -29.5 61.5h54c5.33301 -24 19.666 -36 42.999 -36c12 0 21.667 3.33301 29 10s11 15.334 11 26.001s-3.33301 19 -10 25s-15.334 9 -26.001 9c-10 0 -19.333 -2.66699 -28 -8l-32 28l38 70
c-50.667 5.33301 -90.334 22.5 -119.001 51.5s-44 67.5 -46 115.5h81c4 -33.333 15.5 -58.5 34.5 -75.5s48.5 -25.5 88.5 -25.5c39.333 0 68.166 6.83301 86.499 20.5s27.5 34.5 27.5 62.5c0 26 -9.5 45.167 -28.5 57.5s-50.167 22.5 -93.5 30.5
c-68 12 -115.333 29.333 -142 52s-40 56.667 -40 102s18.167 81.166 54.5 107.499s77.166 39.5 122.499 39.5c51.333 0 94.166 -12 128.499 -36s54.5 -62.333 60.5 -115h-80c-6 28.667 -17.5 49.5 -34.5 62.5s-42.167 19.5 -75.5 19.5c-30 0 -54 -6.83301 -72 -20.5
s-27 -31.834 -27 -54.501c0 -23.333 8.5 -41 25.5 -53s49.167 -22 96.5 -30c26 -5.33301 46.5 -10 61.5 -14s31.333 -9.83301 49 -17.5s31.167 -16.667 40.5 -27s17.166 -23.5 23.499 -39.5s9.5 -35 9.5 -57c0 -47.333 -15.333 -85.166 -46 -113.499
s-75.334 -43.5 -134.001 -45.5l-24 -44c25.333 2.66699 47.333 -2.83301 66 -16.5s28 -35.167 28 -64.5c0 -25.333 -9.66699 -45 -29 -59s-43.333 -21 -72 -21z" />
    <glyph glyph-name="Scaron" unicode="&#x160;" horiz-adv-x="639" 
d="M327 -9c-88.667 0 -154.498 20.8311 -197.498 62.498s-68.167 96.5 -75.5 164.5h84c3.33301 -23.333 8.16602 -43.666 14.499 -60.999s16.333 -33.666 30 -48.999s32.5 -27 56.5 -35s53.333 -12 88 -12c46.667 0 85.5 12.5 116.5 37.5s46.5 57.5 46.5 97.5
c0 41.333 -12.167 72 -36.5 92s-69.833 35 -136.5 45c-80.667 12.667 -140.667 33.5 -180 62.5s-59 73.833 -59 134.5c0 55.333 21.667 101.5 65 138.5s98.333 55.5 165 55.5c72 0 129.167 -16.833 171.5 -50.5s67.166 -82.5 74.499 -146.5h-78
c-8.66699 45.333 -26.167 77.833 -52.5 97.5s-64.833 29.5 -115.5 29.5c-48 0 -84.833 -10.5 -110.5 -31.5s-38.5 -49.167 -38.5 -84.5c0 -37.333 11.333 -65.5 34 -84.5s68.667 -33.5 138 -43.5c84 -12.667 145.5 -34.5 184.5 -65.5s58.5 -78.5 58.5 -142.5
c0 -60 -23.5 -110.167 -70.5 -150.5s-105.833 -60.5 -176.5 -60.5zM163.002 897.998h61l85 -58l85 58h59l-108 -127h-75z" />
    <glyph glyph-name="scaron" unicode="&#x161;" horiz-adv-x="492" 
d="M252 -9c-62.667 0 -111.827 14.834 -147.494 44.501s-54.834 71.5 -57.501 125.5h81c4 -33.333 15.5 -58.5 34.5 -75.5s48.5 -25.5 88.5 -25.5c39.333 0 68.166 6.83301 86.499 20.5s27.5 34.5 27.5 62.5c0 26 -9.5 45.167 -28.5 57.5s-50.167 22.5 -93.5 30.5
c-68 12 -115.333 29.333 -142 52s-40 56.667 -40 102s18.167 81.166 54.5 107.499s77.166 39.5 122.499 39.5c51.333 0 94.166 -12 128.499 -36s54.5 -62.333 60.5 -115h-80c-6 28.667 -17.5 49.5 -34.5 62.5s-42.167 19.5 -75.5 19.5c-30 0 -54 -6.83301 -72 -20.5
s-27 -31.834 -27 -54.501c0 -23.333 8.5 -41 25.5 -53s49.167 -22 96.5 -30c26 -5.33301 46.5 -10 61.5 -14s31.333 -9.83301 49 -17.5s31.167 -16.667 40.5 -27s17.166 -23.5 23.499 -39.5s9.5 -35 9.5 -57c0 -49.333 -16.333 -88.166 -49 -116.499
s-80.334 -42.5 -143.001 -42.5zM99.0068 757.001h61l85 -75l85 75h59l-108 -144h-75z" />
    <glyph glyph-name="Tcommaaccent" unicode="&#x162;" horiz-adv-x="561" 
d="M243 644h-208v71h503v-71h-208v-644h-87v644zM202 -194l58 157l80 -24l-87 -159z" />
    <glyph glyph-name="tcommaaccent" unicode="&#x163;" horiz-adv-x="355" 
d="M249 -7c-46.667 0 -81.833 12.332 -105.5 36.999s-35.5 58.334 -35.5 101.001v322h-75v70h75v119h83v-119h122v-70h-122v-314c0 -50.667 21.667 -76 65 -76c22.667 0 44 3.66699 64 11v-70c-18 -7.33301 -41.667 -11 -71 -11zM113.001 -194.001l58 157l80 -24l-87 -159z
" />
    <glyph glyph-name="Tcaron" unicode="&#x164;" horiz-adv-x="561" 
d="M243 644h-208v71h503v-71h-208v-644h-87v644zM141 898h61l85 -58l85 58h59l-108 -127h-75z" />
    <glyph glyph-name="tcaron" unicode="&#x165;" horiz-adv-x="355" 
d="M249 -7c-46.667 0 -81.833 12.332 -105.5 36.999s-35.5 58.334 -35.5 101.001v322h-75v70h75v119h83v-119h122v-70h-122v-314c0 -50.667 21.667 -76 65 -76c22.667 0 44 3.66699 64 11v-70c-18 -7.33301 -41.667 -11 -71 -11zM275.001 772.999h94l-48 -175h-58z" />
    <glyph glyph-name="Tbar" unicode="&#x166;" horiz-adv-x="561" 
d="M92 404h145v240h-208v71h503v-71h-208v-240h145v-66h-145v-338h-87v338h-145v66z" />
    <glyph glyph-name="tbar" unicode="&#x167;" horiz-adv-x="355" 
d="M27 339l75.001 -0.000976562v114h-75v70h75v119h83v-119h122v-70h-122v-114h122v-59h-122v-141c0 -50.667 21.667 -76 65 -76c22.667 0 44 3.66699 64 11v-70c-18 -7.33301 -41.667 -11 -71 -11c-46.667 0 -81.834 12.333 -105.501 37s-35.5 58.334 -35.5 101.001v149
h-75v59z" />
    <glyph glyph-name="Utilde" unicode="&#x168;" horiz-adv-x="696" 
d="M347 -9c-82.667 0 -146.167 23.168 -190.5 69.501s-66.5 113.166 -66.5 200.499v454h87v-444c0 -74 13.5 -127.167 40.5 -159.5s70.833 -48.5 131.5 -48.5c61.333 0 107 16 137 48s45 89.667 45 173v431h87v-443c0 -89.333 -22.667 -158.5 -68 -207.5
s-113 -73.5 -203 -73.5zM408 774.001c-15.333 0 -35.001 7.16699 -59.001 21.5s-40.333 21.5 -49 21.5c-9.33301 0 -17.666 -4.16699 -24.999 -12.5s-12.333 -19.166 -15 -32.499h-60c4 35.333 15.333 63.5 34 84.5s41 31.5 67 31.5c15.333 0 34.833 -7.16699 58.5 -21.5
s39.834 -21.5 48.501 -21.5c9.33301 0 17.666 4.16699 24.999 12.5s12.333 19.166 15 32.499h60c-4 -35.333 -15.167 -63.5 -33.5 -84.5s-40.5 -31.5 -66.5 -31.5z" />
    <glyph glyph-name="utilde" unicode="&#x169;" horiz-adv-x="594" 
d="M267 -9c-55.333 0 -99.5 16.332 -132.5 48.999s-49.5 83.334 -49.5 152.001v331h83v-327c0 -46 9.83301 -79.667 29.5 -101s50.167 -32 91.5 -32c40 0 74 12.667 102 38s42 60.333 42 105v317h83v-523h-83v83c-12.667 -26.667 -33.5 -48.667 -62.5 -66
s-63.5 -26 -103.5 -26zM357 618.999c-15.333 0 -35.001 7.16699 -59.001 21.5s-40.333 21.5 -49 21.5c-9.33301 0 -17.666 -4.16699 -24.999 -12.5s-12.333 -19.166 -15 -32.499h-60c4 35.333 15.333 63.5 34 84.5s41 31.5 67 31.5c15.333 0 34.833 -7.16699 58.5 -21.5
s39.834 -21.5 48.501 -21.5c9.33301 0 17.666 4.16699 24.999 12.5s12.333 19.166 15 32.499h60c-4 -35.333 -15.167 -63.5 -33.5 -84.5s-40.5 -31.5 -66.5 -31.5z" />
    <glyph glyph-name="Umacron" unicode="&#x16a;" horiz-adv-x="696" 
d="M347 -9c-82.667 0 -146.167 23.168 -190.5 69.501s-66.5 113.166 -66.5 200.499v454h87v-444c0 -74 13.5 -127.167 40.5 -159.5s70.833 -48.5 131.5 -48.5c61.333 0 107 16 137 48s45 89.667 45 173v431h87v-443c0 -89.333 -22.667 -158.5 -68 -207.5
s-113 -73.5 -203 -73.5zM221 850.001h266v-64h-266v64z" />
    <glyph glyph-name="umacron" unicode="&#x16b;" horiz-adv-x="594" 
d="M267 -9c-55.333 0 -99.5 16.332 -132.5 48.999s-49.5 83.334 -49.5 152.001v331h83v-327c0 -46 9.83301 -79.667 29.5 -101s50.167 -32 91.5 -32c40 0 74 12.667 102 38s42 60.333 42 105v317h83v-523h-83v83c-12.667 -26.667 -33.5 -48.667 -62.5 -66
s-63.5 -26 -103.5 -26zM172 711.999h262v-64h-262v64z" />
    <glyph glyph-name="Ubreve" unicode="&#x16c;" horiz-adv-x="696" 
d="M347 -9c-82.667 0 -146.167 23.168 -190.5 69.501s-66.5 113.166 -66.5 200.499v454h87v-444c0 -74 13.5 -127.167 40.5 -159.5s70.833 -48.5 131.5 -48.5c61.333 0 107 16 137 48s45 89.667 45 173v431h87v-443c0 -89.333 -22.667 -158.5 -68 -207.5
s-113 -73.5 -203 -73.5zM352 767.001c-36 0 -66.666 12.5 -91.999 37.5s-38.666 56.5 -39.999 94.5h66c7.33301 -42.667 29.333 -64 66 -64c39.333 0 63.333 21.333 72 64h64c-2.66699 -38 -16.834 -69.5 -42.501 -94.5s-56.834 -37.5 -93.501 -37.5z" />
    <glyph glyph-name="ubreve" unicode="&#x16d;" horiz-adv-x="594" 
d="M267 -9c-55.333 0 -99.5 16.332 -132.5 48.999s-49.5 83.334 -49.5 152.001v331h83v-327c0 -46 9.83301 -79.667 29.5 -101s50.167 -32 91.5 -32c40 0 74 12.667 102 38s42 60.333 42 105v317h83v-523h-83v83c-12.667 -26.667 -33.5 -48.667 -62.5 -66
s-63.5 -26 -103.5 -26zM301 618.999c-36 0 -66.666 12.5 -91.999 37.5s-38.666 56.5 -39.999 94.5h66c7.33301 -42.667 29.333 -64 66 -64c39.333 0 63.333 21.333 72 64h64c-2.66699 -38 -16.834 -69.5 -42.501 -94.5s-56.834 -37.5 -93.501 -37.5z" />
    <glyph glyph-name="Uring" unicode="&#x16e;" horiz-adv-x="696" 
d="M347 -9c-82.667 0 -146.167 23.168 -190.5 69.501s-66.5 113.166 -66.5 200.499v454h87v-444c0 -74 13.5 -127.167 40.5 -159.5s70.833 -48.5 131.5 -48.5c61.333 0 107 16 137 48s45 89.667 45 173v431h87v-443c0 -89.333 -22.667 -158.5 -68 -207.5
s-113 -73.5 -203 -73.5zM354 785.001c15.333 0 28 5.5 38 16.5s15 24.833 15 41.5s-5 30.5 -15 41.5s-22.667 16.5 -38 16.5s-28 -5.5 -38 -16.5s-15 -24.833 -15 -41.5s5 -30.5 15 -41.5s22.667 -16.5 38 -16.5zM354 739.001c-29.333 0 -54.5 10.167 -75.5 30.5
s-31.5 44.833 -31.5 73.5s10.5 53.167 31.5 73.5s46.167 30.5 75.5 30.5s54.5 -10.167 75.5 -30.5s31.5 -44.833 31.5 -73.5s-10.5 -53.167 -31.5 -73.5s-46.167 -30.5 -75.5 -30.5z" />
    <glyph glyph-name="uring" unicode="&#x16f;" horiz-adv-x="594" 
d="M267 -9c-55.333 0 -99.5 16.332 -132.5 48.999s-49.5 83.334 -49.5 152.001v331h83v-327c0 -46 9.83301 -79.667 29.5 -101s50.167 -32 91.5 -32c40 0 74 12.667 102 38s42 60.333 42 105v317h83v-523h-83v83c-12.667 -26.667 -33.5 -48.667 -62.5 -66
s-63.5 -26 -103.5 -26zM300 613.999c15.333 0 28 5.5 38 16.5s15 24.833 15 41.5s-5 30.5 -15 41.5s-22.667 16.5 -38 16.5s-28 -5.5 -38 -16.5s-15 -24.833 -15 -41.5s5 -30.5 15 -41.5s22.667 -16.5 38 -16.5zM300 567.999c-29.333 0 -54.5 10.167 -75.5 30.5
s-31.5 44.833 -31.5 73.5s10.5 53.167 31.5 73.5s46.167 30.5 75.5 30.5s54.5 -10.167 75.5 -30.5s31.5 -44.833 31.5 -73.5s-10.5 -53.167 -31.5 -73.5s-46.167 -30.5 -75.5 -30.5z" />
    <glyph glyph-name="Uhungarumlaut" unicode="&#x170;" horiz-adv-x="696" 
d="M347 -9c-82.667 0 -146.167 23.168 -190.5 69.501s-66.5 113.166 -66.5 200.499v454h87v-444c0 -74 13.5 -127.167 40.5 -159.5s70.833 -48.5 131.5 -48.5c61.333 0 107 16 137 48s45 89.667 45 173v431h87v-443c0 -89.333 -22.667 -158.5 -68 -207.5
s-113 -73.5 -203 -73.5zM279 898.001h95l-72 -127h-60zM433 898.001h95l-72 -127h-60z" />
    <glyph glyph-name="uhungarumlaut" unicode="&#x171;" horiz-adv-x="594" 
d="M267 -9c-55.333 0 -99.5 16.332 -132.5 48.999s-49.5 83.334 -49.5 152.001v331h83v-327c0 -46 9.83301 -79.667 29.5 -101s50.167 -32 91.5 -32c40 0 74 12.667 102 38s42 60.333 42 105v317h83v-523h-83v83c-12.667 -26.667 -33.5 -48.667 -62.5 -66
s-63.5 -26 -103.5 -26zM231 759.999h95l-75 -147h-60zM385 759.999h95l-75 -147h-60z" />
    <glyph glyph-name="Uogonek" unicode="&#x172;" horiz-adv-x="696" 
d="M384 -182c-32 0 -57.333 7.00195 -76 21.002s-28 33.667 -28 59c0 34.667 20.667 65.667 62 93h-1c-82.667 0 -146.167 23.167 -190.5 69.5s-66.5 113.166 -66.5 200.499v454h87v-444c0 -74 13.5 -127.167 40.5 -159.5s70.833 -48.5 131.5 -48.5c61.333 0 107 16 137 48
s45 89.667 45 173v431h87v-443c0 -128.667 -44.333 -213.334 -133 -254.001c-29.333 -14 -50.5 -24.5 -63.5 -31.5s-25.667 -17 -38 -30s-18.5 -27.167 -18.5 -42.5c0 -24 12.667 -36 38 -36c20.667 0 38 3.66699 52 11v-59c-19.333 -8 -41 -12 -65 -12z" />
    <glyph glyph-name="uogonek" unicode="&#x173;" horiz-adv-x="594" 
d="M459 -182c-32 0 -57.332 7 -75.999 21s-28 33.667 -28 59c0 20 6.66699 38.667 20 56s30.666 31.666 51.999 42.999v86c-12.667 -26.667 -33.5 -48.667 -62.5 -66s-63.5 -26 -103.5 -26c-55.333 0 -99.5 16.333 -132.5 49s-49.5 83.334 -49.5 152.001v331h83v-327
c0 -46 9.83301 -79.667 29.5 -101s50.167 -32 91.5 -32c40 0 74 12.667 102 38s42 60.333 42 105v317h83v-518c-50.667 -32 -76 -62.333 -76 -91c0 -24 12.667 -36 38 -36c20.667 0 38 3.66699 52 11v-59c-19.333 -8 -41 -12 -65 -12z" />
    <glyph glyph-name="Wcircumflex" unicode="&#x174;" horiz-adv-x="928" 
d="M40 715h89l145 -577l168 577h62l168 -579l147 579h81l-186 -715h-80l-162 565l-167 -565h-79zM433 898h75l107 -127h-61l-85 58l-85 -58h-59z" />
    <glyph glyph-name="wcircumflex" unicode="&#x175;" horiz-adv-x="794" 
d="M34 523h90l122 -421l127 421h72l119 -421l123 421h85l-163 -523h-92l-109 392l-122 -392h-91zM366 757h75l107 -144h-61l-85 75l-85 -75h-59z" />
    <glyph glyph-name="Ycircumflex" unicode="&#x176;" horiz-adv-x="598" 
d="M268 312l-239 403h98l187 -332l180 332h87l-226 -404v-311h-87v312zM268 898h75l107 -127h-61l-85 58l-85 -58h-59z" />
    <glyph glyph-name="ycircumflex" unicode="&#x177;" horiz-adv-x="529" 
d="M236 54l-205 469h89l160 -375l145 375h85l-289 -705h-84zM233 757h75l107 -144h-61l-85 75l-85 -75h-59z" />
    <glyph glyph-name="Ydieresis" unicode="&#x178;" horiz-adv-x="610" 
d="M268 312l-239 403h98l187 -332l180 332h87l-226 -404v-311h-87v312zM203 789c-14.667 0 -27.167 5.16699 -37.5 15.5s-15.5 22.833 -15.5 37.5s5.16699 27.167 15.5 37.5s22.833 15.5 37.5 15.5s27.167 -5.16699 37.5 -15.5s15.5 -22.833 15.5 -37.5
s-5.16699 -27.167 -15.5 -37.5s-22.833 -15.5 -37.5 -15.5zM406 789c-14.667 0 -27.167 5.16699 -37.5 15.5s-15.5 22.833 -15.5 37.5s5.16699 27.167 15.5 37.5s22.833 15.5 37.5 15.5s27.167 -5.16699 37.5 -15.5s15.5 -22.833 15.5 -37.5s-5.16699 -27.167 -15.5 -37.5
s-22.833 -15.5 -37.5 -15.5z" />
    <glyph glyph-name="Zacute" unicode="&#x179;" horiz-adv-x="595" 
d="M34 14l405 630h-369v71h489v-13l-394 -628h388v-74h-519v14zM320 898h104l-98 -127h-62z" />
    <glyph glyph-name="zacute" unicode="&#x17a;" horiz-adv-x="483" 
d="M27 12l309 441h-279v70h407v-15l-302 -435h298v-73h-433v12zM279 760h104l-104 -147h-62z" />
    <glyph glyph-name="Zdotaccent" unicode="&#x17b;" horiz-adv-x="595" 
d="M34 14l405 630h-369v71h489v-13l-394 -628h388v-74h-519v14zM301 787c-15.333 0 -28.333 5.33301 -39 16s-16 23.667 -16 39s5.33301 28.333 16 39s23.667 16 39 16s28.333 -5.33301 39 -16s16 -23.667 16 -39s-5.33301 -28.333 -16 -39s-23.667 -16 -39 -16z" />
    <glyph glyph-name="zdotaccent" unicode="&#x17c;" horiz-adv-x="483" 
d="M27 12l309 441h-279v70h407v-15l-302 -435h298v-73h-433v12zM254 632c-15.333 0 -28.333 5.33301 -39 16s-16 23.667 -16 39s5.33301 28.333 16 39s23.667 16 39 16s28.333 -5.33301 39 -16s16 -23.667 16 -39s-5.33301 -28.333 -16 -39s-23.667 -16 -39 -16z" />
    <glyph glyph-name="Zcaron" unicode="&#x17d;" horiz-adv-x="607" 
d="M34 14l405 630h-369v71h489v-13l-394 -628h388v-74h-519v14zM156 898h61l85 -58l85 58h59l-108 -127h-75z" />
    <glyph glyph-name="zcaron" unicode="&#x17e;" horiz-adv-x="495" 
d="M27 12l309 441h-279v70h407v-15l-302 -435h298v-73h-433v12zM109 757h61l85 -75l85 75h59l-108 -144h-75z" />
    <glyph glyph-name="uni0192" unicode="&#x192;" horiz-adv-x="409" 
d="M35 413h97l23 152c16 106 72.333 159 169 159c25.333 0 48 -3.66699 68 -11v-70c-17.333 8 -39.333 12 -66 12c-50 0 -79.667 -31.333 -89 -94l-23 -148h132v-68h-142l-80 -527h-83l80 527h-86v68z" />
    <glyph glyph-name="Aringacute" unicode="&#x1fa;" horiz-adv-x="674" 
d="M288 715h114l242 -715h-86l-70 206h-295l-69 -206h-82zM217 275h248l-124 368zM350 795c15.333 0 28 5.5 38 16.5s15 24.833 15 41.5s-5 30.5 -15 41.5s-22.667 16.5 -38 16.5s-28 -5.5 -38 -16.5s-15 -24.833 -15 -41.5s5 -30.5 15 -41.5s22.667 -16.5 38 -16.5z
M350 749c-29.333 0 -54.5 10.167 -75.5 30.5s-31.5 44.833 -31.5 73.5s10.5 53.167 31.5 73.5s46.167 30.5 75.5 30.5s54.5 -10.167 75.5 -30.5s31.5 -44.833 31.5 -73.5s-10.5 -53.167 -31.5 -73.5s-46.167 -30.5 -75.5 -30.5zM373 1113h104l-98 -127h-62z" />
    <glyph glyph-name="aringacute" unicode="&#x1fb;" horiz-adv-x="540" 
d="M221 -9c-51.333 0 -93.165 12.832 -125.498 38.499s-48.5 64.167 -48.5 115.5c0 28.667 7.16699 53.834 21.5 75.501s34.166 38.667 59.499 51s53 21.333 83 27s62.667 8.5 98 8.5h75v38c0 42 -8.66699 72.167 -26 90.5s-46 27.5 -86 27.5c-72 0 -112 -31.333 -120 -94
h-83c5.33301 56 27.166 97.167 65.499 123.5s85.5 39.5 141.5 39.5c127.333 0 191 -62.333 191 -187v-345h-83v66c-40 -50 -94.333 -75 -163 -75zM229.001 56.999c45.333 0 82.5 11.168 111.5 33.501s43.5 53.166 43.5 92.499v65h-72c-121.333 0 -182 -34.333 -182 -103
c0 -58.667 33 -88 99 -88zM279.001 624c15.333 0 28 5.5 38 16.5s15 24.833 15 41.5s-5 30.5 -15 41.5s-22.667 16.5 -38 16.5s-28 -5.5 -38 -16.5s-15 -24.833 -15 -41.5s5 -30.5 15 -41.5s22.667 -16.5 38 -16.5zM279.001 578c-29.333 0 -54.5 10.167 -75.5 30.5
s-31.5 44.833 -31.5 73.5s10.5 53.167 31.5 73.5s46.167 30.5 75.5 30.5s54.5 -10.167 75.5 -30.5s31.5 -44.833 31.5 -73.5s-10.5 -53.167 -31.5 -73.5s-46.167 -30.5 -75.5 -30.5zM309.001 956h104l-98 -127h-62z" />
    <glyph glyph-name="AEacute" unicode="&#x1fc;" horiz-adv-x="950" 
d="M405 715h492v-71h-330v-243h266v-71h-266v-259h348v-71h-435v207h-252l-105 -207h-88zM262 275h218v369h-31zM635 898h104l-98 -127h-62z" />
    <glyph glyph-name="aeacute" unicode="&#x1fd;" horiz-adv-x="880" 
d="M622 -9c-88.667 0 -154.334 36.001 -197.001 108.001c-24 -38 -52 -65.5 -84 -82.5s-72 -25.5 -120 -25.5c-51.333 0 -93.166 12.833 -125.499 38.5s-48.5 64.167 -48.5 115.5c0 39.333 12.667 71.666 38 96.999s56.5 43 93.5 53s79.5 15 127.5 15h78v34
c0 42 -9 72.333 -27 91s-46.333 28 -85 28c-72 0 -112 -31.333 -120 -94h-83c5.33301 56 27.166 97.167 65.499 123.5s85.5 39.5 141.5 39.5c82 0 136.667 -29.667 164 -89c42.667 59.333 101.334 89 176.001 89c64.667 0 118.667 -21.333 162 -64s65 -108 65 -196v-25h-379
c4 -124.667 57 -187 159 -187c78 0 122.333 30.333 133 91h83c-9.33301 -51.333 -33.333 -90.833 -72 -118.5s-87 -41.5 -145 -41.5zM229 57.001c45.333 0 82.5 11.168 111.5 33.501s43.5 53.166 43.5 92.499v64h-75c-119.333 0 -179 -34 -179 -102c0 -58.667 33 -88 99 -88
zM758 310.002c-4 54 -17.833 93 -41.5 117s-57.167 36 -100.5 36c-40 0 -73.167 -13.5 -99.5 -40.5s-42.833 -64.5 -49.5 -112.5h291zM475 760.002h104l-104 -147h-62z" />
    <glyph glyph-name="Oslashacute" unicode="&#x1fe;" horiz-adv-x="811" 
d="M41 12l98 107c-52 65.333 -78 143.333 -78 234v8c0 103.333 32.833 189.666 98.5 258.999s150.167 104 253.5 104c82 0 153.333 -23.333 214 -70l81 88l45 -45l-79 -87c58.667 -67.333 88 -149.666 88 -246.999v-8c0 -102.667 -32.333 -189 -97 -259s-148 -105 -250 -105
c-90.667 0 -168 27.333 -232 82l-97 -106zM415 63c78.667 0 141.167 26.999 187.5 80.999s69.5 124.667 69.5 212v8c0 74.667 -17.333 137.334 -52 188.001l-384 -421c47.333 -45.333 107 -68 179 -68zM151 353.999c0 -66 14.667 -123.667 44 -173l382 418
c-45.333 36.667 -100 55 -164 55c-81.333 0 -145.333 -26.833 -192 -80.5s-70 -124.167 -70 -211.5v-8zM431 897.999h104l-98 -127h-62z" />
    <glyph glyph-name="oslashacute" unicode="&#x1ff;" horiz-adv-x="604" 
d="M29 1l77.001 85.001c-36.667 47.333 -55 104.333 -55 171v8c0 78 24.167 142 72.5 192s109.833 75 184.5 75c59.333 0 111.333 -16.667 156 -50l68 74l44 -38l-70 -77c39.333 -50 59 -108.333 59 -175v-8c0 -78.667 -24.333 -142.834 -73 -192.501
s-110.334 -74.5 -185.001 -74.5c-62.667 0 -116 18 -160 54l-74 -82zM308.001 60.001c52 0 93.501 18 124.501 54s46.5 83.667 46.5 143v7c0 44 -9 83 -27 117l-256 -281c29.333 -26.667 66.666 -40 111.999 -40zM137.002 257.001c0 -43.333 8.00098 -80.333 24.001 -111
l253 280c-28.667 24.667 -64 37 -106 37c-52.667 0 -94.334 -18 -125.001 -54s-46 -84 -46 -144v-8zM332.003 760.001h104l-104 -147h-62z" />
    <glyph glyph-name="uni0218" unicode="&#x218;" horiz-adv-x="627" 
d="M327 -9c-88.667 0 -154.498 20.8311 -197.498 62.498s-68.167 96.5 -75.5 164.5h84c3.33301 -23.333 8.16602 -43.666 14.499 -60.999s16.333 -33.666 30 -48.999s32.5 -27 56.5 -35s53.333 -12 88 -12c46.667 0 85.5 12.5 116.5 37.5s46.5 57.5 46.5 97.5
c0 41.333 -12.167 72 -36.5 92s-69.833 35 -136.5 45c-80.667 12.667 -140.667 33.5 -180 62.5s-59 73.833 -59 134.5c0 55.333 21.667 101.5 65 138.5s98.333 55.5 165 55.5c72 0 129.167 -16.833 171.5 -50.5s67.166 -82.5 74.499 -146.5h-78
c-8.66699 45.333 -26.167 77.833 -52.5 97.5s-64.833 29.5 -115.5 29.5c-48 0 -84.833 -10.5 -110.5 -31.5s-38.5 -49.167 -38.5 -84.5c0 -37.333 11.333 -65.5 34 -84.5s68.667 -33.5 138 -43.5c84 -12.667 145.5 -34.5 184.5 -65.5s58.5 -78.5 58.5 -142.5
c0 -60 -23.5 -110.167 -70.5 -150.5s-105.833 -60.5 -176.5 -60.5zM224.002 -194.002l58 157l80 -24l-87 -159z" />
    <glyph glyph-name="uni0219" unicode="&#x219;" horiz-adv-x="480" 
d="M252 -9c-62.667 0 -111.827 14.834 -147.494 44.501s-54.834 71.5 -57.501 125.5h81c4 -33.333 15.5 -58.5 34.5 -75.5s48.5 -25.5 88.5 -25.5c39.333 0 68.166 6.83301 86.499 20.5s27.5 34.5 27.5 62.5c0 26 -9.5 45.167 -28.5 57.5s-50.167 22.5 -93.5 30.5
c-68 12 -115.333 29.333 -142 52s-40 56.667 -40 102s18.167 81.166 54.5 107.499s77.166 39.5 122.499 39.5c51.333 0 94.166 -12 128.499 -36s54.5 -62.333 60.5 -115h-80c-6 28.667 -17.5 49.5 -34.5 62.5s-42.167 19.5 -75.5 19.5c-30 0 -54 -6.83301 -72 -20.5
s-27 -31.834 -27 -54.501c0 -23.333 8.5 -41 25.5 -53s49.167 -22 96.5 -30c26 -5.33301 46.5 -10 61.5 -14s31.333 -9.83301 49 -17.5s31.167 -16.667 40.5 -27s17.166 -23.5 23.499 -39.5s9.5 -35 9.5 -57c0 -49.333 -16.333 -88.166 -49 -116.499
s-80.334 -42.5 -143.001 -42.5zM160.007 -193.999l58 157l80 -24l-87 -159z" />
    <glyph glyph-name="uni021A" unicode="&#x21a;" horiz-adv-x="561" 
d="M243 644h-208v71h503v-71h-208v-644h-87v644zM202 -194l58 157l80 -24l-87 -159z" />
    <glyph glyph-name="uni021B" unicode="&#x21b;" horiz-adv-x="355" 
d="M249 -7c-46.667 0 -81.833 12.332 -105.5 36.999s-35.5 58.334 -35.5 101.001v322h-75v70h75v119h83v-119h122v-70h-122v-314c0 -50.667 21.667 -76 65 -76c22.667 0 44 3.66699 64 11v-70c-18 -7.33301 -41.667 -11 -71 -11zM113.001 -194.001l58 157l80 -24l-87 -159z
" />
    <glyph glyph-name="uni0237" unicode="&#x237;" horiz-adv-x="255" 
d="M9 -121c28.667 2.66699 48.667 10.5 60 23.5s17 32.167 17 57.5v563h83v-556c0 -51.333 -12.5 -90 -37.5 -116s-65.833 -40 -122.5 -42v70z" />
    <glyph glyph-name="uni02BC" unicode="&#x2bc;" horiz-adv-x="267" 
d="M53 514l89 212l79 -36l-117 -202z" />
    <glyph glyph-name="circumflex" unicode="&#x2c6;" horiz-adv-x="412" 
d="M169 757h75l107 -144h-61l-85 75l-85 -75h-59z" />
    <glyph glyph-name="caron" unicode="&#x2c7;" horiz-adv-x="412" 
d="M61 757h61l85 -75l85 75h59l-108 -144h-75z" />
    <glyph glyph-name="breve" unicode="&#x2d8;" horiz-adv-x="412" 
d="M204 619c-36 0 -66.666 12.5 -91.999 37.5s-38.666 56.5 -39.999 94.5h66c7.33301 -42.667 29.333 -64 66 -64c39.333 0 63.333 21.333 72 64h64c-2.66699 -38 -16.834 -69.5 -42.501 -94.5s-56.834 -37.5 -93.501 -37.5z" />
    <glyph glyph-name="dotaccent" unicode="&#x2d9;" horiz-adv-x="412" 
d="M206 632c-15.333 0 -28.333 5.33301 -39 16s-16 23.667 -16 39s5.33301 28.333 16 39s23.667 16 39 16s28.333 -5.33301 39 -16s16 -23.667 16 -39s-5.33301 -28.333 -16 -39s-23.667 -16 -39 -16z" />
    <glyph glyph-name="ring" unicode="&#x2da;" horiz-adv-x="412" 
d="M206 644c15.333 0 28 5.5 38 16.5s15 24.833 15 41.5s-5 30.5 -15 41.5s-22.667 16.5 -38 16.5s-28 -5.5 -38 -16.5s-15 -24.833 -15 -41.5s5 -30.5 15 -41.5s22.667 -16.5 38 -16.5zM206 598c-29.333 0 -54.5 10.167 -75.5 30.5s-31.5 44.833 -31.5 73.5
s10.5 53.167 31.5 73.5s46.167 30.5 75.5 30.5s54.5 -10.167 75.5 -30.5s31.5 -44.833 31.5 -73.5s-10.5 -53.167 -31.5 -73.5s-46.167 -30.5 -75.5 -30.5z" />
    <glyph glyph-name="ogonek" unicode="&#x2db;" horiz-adv-x="412" 
d="M229 -182c-32 0 -57.334 7 -76.001 21s-28 33.667 -28 59c0 20.667 7.33301 40 22 58s33.334 32.667 56.001 44h69c-45.333 -31.333 -68 -60 -68 -86c0 -24 12.667 -36 38 -36c20.667 0 38 3.66699 52 11v-59c-19.333 -8 -41 -12 -65 -12z" />
    <glyph glyph-name="tilde" unicode="&#x2dc;" horiz-adv-x="412" 
d="M260 619c-15.333 0 -35.001 7.16699 -59.001 21.5s-40.333 21.5 -49 21.5c-9.33301 0 -17.666 -4.16699 -24.999 -12.5s-12.333 -19.166 -15 -32.499h-60c4 35.333 15.333 63.5 34 84.5s41 31.5 67 31.5c15.333 0 34.833 -7.16699 58.5 -21.5s39.834 -21.5 48.501 -21.5
c9.33301 0 17.666 4.16699 24.999 12.5s12.333 19.166 15 32.499h60c-4 -35.333 -15.167 -63.5 -33.5 -84.5s-40.5 -31.5 -66.5 -31.5z" />
    <glyph glyph-name="hungarumlaut" unicode="&#x2dd;" horiz-adv-x="412" 
d="M142 760h95l-75 -147h-60zM296 760h95l-75 -147h-60z" />
    <glyph glyph-name="uni037E" unicode="&#x37e;" horiz-adv-x="292" 
d="M27 -95l96 219l81 -38l-123 -209zM161 292c-17.333 0 -32.333 6.16699 -45 18.5s-19 27.5 -19 45.5s6.33301 33.167 19 45.5s27.667 18.5 45 18.5s32.333 -6.16699 45 -18.5s19 -27.5 19 -45.5s-6.33301 -33.167 -19 -45.5s-27.667 -18.5 -45 -18.5z" />
    <glyph glyph-name="tonos" unicode="&#x384;" horiz-adv-x="400" 
d="M229 760h104l-104 -147h-62z" />
    <glyph glyph-name="dieresistonos" unicode="&#x385;" horiz-adv-x="400" 
d="M187 785h97l-78 -147h-59zM329 634c-14.667 0 -27.167 5.16699 -37.5 15.5s-15.5 22.833 -15.5 37.5s5.16699 27.167 15.5 37.5s22.833 15.5 37.5 15.5s27.167 -5.16699 37.5 -15.5s15.5 -22.833 15.5 -37.5s-5.16699 -27.167 -15.5 -37.5s-22.833 -15.5 -37.5 -15.5z
M71 634c-14.667 0 -27.167 5.16699 -37.5 15.5s-15.5 22.833 -15.5 37.5s5.16699 27.167 15.5 37.5s22.833 15.5 37.5 15.5s27.167 -5.16699 37.5 -15.5s15.5 -22.833 15.5 -37.5s-5.16699 -27.167 -15.5 -37.5s-22.833 -15.5 -37.5 -15.5z" />
    <glyph glyph-name="Alphatonos" unicode="&#x386;" horiz-adv-x="674" 
d="M288 715h114l242 -715h-86l-70 206h-295l-69 -206h-82zM217 275h248l-124 368zM79 715h104l-104 -147h-62z" />
    <glyph glyph-name="anoteleia" unicode="&#x387;" horiz-adv-x="282" 
d="M147 263c-17.333 0 -32.333 6.16699 -45 18.5s-19 27.5 -19 45.5s6.33301 33.167 19 45.5s27.667 18.5 45 18.5s32.333 -6.16699 45 -18.5s19 -27.5 19 -45.5s-6.33301 -33.167 -19 -45.5s-27.667 -18.5 -45 -18.5z" />
    <glyph glyph-name="Epsilontonos" unicode="&#x388;" horiz-adv-x="566" 
d="M96 715h417v-71h-330v-243h266v-71h-266v-259h348v-71h-435v715zM-51 715h104l-104 -147h-62z" />
    <glyph glyph-name="Etatonos" unicode="&#x389;" horiz-adv-x="730" 
d="M96 715h87v-324h376v324h87v-715h-87v318h-376v-318h-87v715zM-51 715h104l-104 -147h-62z" />
    <glyph glyph-name="Iotatonos" unicode="&#x38a;" horiz-adv-x="277" 
d="M101 715h87v-715h-87v715zM-51 715h104l-104 -147h-62z" />
    <glyph glyph-name="Omicrontonos" unicode="&#x38c;" horiz-adv-x="811" 
d="M415 63c78.667 0 141.168 26.999 187.501 80.999s69.5 124.667 69.5 212v8c0 82.667 -23.333 151.667 -70 207s-109.667 83 -189 83c-81.333 0 -145.333 -26.833 -192 -80.5s-70 -124.167 -70 -211.5v-8c0 -85.333 25.167 -155.166 75.5 -209.499
s113.166 -81.5 188.499 -81.5zM415.001 -9.00098c-104 0 -189 34.834 -255 104.501s-99 155.5 -99 257.5v8c0 103.333 32.833 189.666 98.5 258.999s150.167 104 253.5 104s187.333 -34.5 252 -103.5s97 -154.833 97 -257.5v-8c0 -102.667 -32.333 -189 -97 -259
s-148 -105 -250 -105zM19.001 715h104l-104 -147h-62z" />
    <glyph glyph-name="Upsilontonos" unicode="&#x38e;" horiz-adv-x="598" 
d="M268 312l-239 403h98l187 -332l180 332h87l-226 -404v-311h-87v312zM-91 715h104l-104 -147h-62z" />
    <glyph glyph-name="Omegatonos" unicode="&#x38f;" horiz-adv-x="817" 
d="M145 363c0 -138.667 67.335 -247.664 202.002 -326.997v-36h-290v67h148c-40.667 24.667 -75.834 63.5 -105.501 116.5s-44.5 112.5 -44.5 178.5v8c0 59.333 13.167 115.5 39.5 168.5s67.166 97.167 122.499 132.5s119.666 53 192.999 53s137.333 -17.5 192 -52.5
s95 -78.833 121 -131.5s39 -109.334 39 -170.001v-8c0 -71.333 -14.667 -132 -44 -182s-64.333 -87.667 -105 -113h147v-67h-290v36c134.667 68.667 202 177.667 202 327v8c0 28 -3.16699 55.333 -9.5 82s-16.5 52.167 -30.5 76.5s-31 45.666 -51 63.999s-44.667 33 -74 44
s-61.666 16.5 -96.999 16.5c-58.667 0 -108.5 -13.833 -149.5 -41.5s-70.5 -62.334 -88.5 -104.001s-27 -87.5 -27 -137.5v-8zM19.002 715.003h104l-104 -147h-62z" />
    <glyph glyph-name="iotadieresistonos" unicode="&#x390;" horiz-adv-x="255" 
d="M86 523h83v-523h-83v523zM137 785h97l-78 -147h-59zM279 634c-14.667 0 -27.167 5.16699 -37.5 15.5s-15.5 22.833 -15.5 37.5s5.16699 27.167 15.5 37.5s22.833 15.5 37.5 15.5s27.167 -5.16699 37.5 -15.5s15.5 -22.833 15.5 -37.5s-5.16699 -27.167 -15.5 -37.5
s-22.833 -15.5 -37.5 -15.5zM21 634c-14.667 0 -27.167 5.16699 -37.5 15.5s-15.5 22.833 -15.5 37.5s5.16699 27.167 15.5 37.5s22.833 15.5 37.5 15.5s27.167 -5.16699 37.5 -15.5s15.5 -22.833 15.5 -37.5s-5.16699 -27.167 -15.5 -37.5s-22.833 -15.5 -37.5 -15.5z" />
    <glyph glyph-name="Alpha" unicode="&#x391;" horiz-adv-x="674" 
d="M288 715h114l242 -715h-86l-70 206h-295l-69 -206h-82zM217 275h248l-124 368z" />
    <glyph glyph-name="Beta" unicode="&#x392;" horiz-adv-x="622" 
d="M96 715l215 -0.000976562c153.333 0 230 -61.667 230 -185v-4c0 -76 -36 -126.333 -108 -151c51.333 -12 88 -31.667 110 -59s33 -64.666 33 -111.999v-4c0 -66 -20.833 -115.833 -62.5 -149.5s-99.167 -50.5 -172.5 -50.5h-245v715zM339 67.999
c101.333 0 152 44.333 152 133v4c0 44.667 -13 77.5 -39 98.5s-67.667 31.5 -125 31.5h-146v-267h158zM311 402.999c52 0 89.168 9.83203 111.501 29.499s33.5 51.834 33.5 96.501v4c0 40 -11.833 69 -35.5 87s-60.834 27 -111.501 27h-128v-244h130z" />
    <glyph glyph-name="Gamma" unicode="&#x393;" horiz-adv-x="531" 
d="M90 715h412v-71h-325v-644h-87v715z" />
    <glyph glyph-name="uni0394" unicode="&#x394;" horiz-adv-x="682" 
d="M41 14l240 701h124l236 -701v-14h-600v14zM143 74h392l-196 581z" />
    <glyph glyph-name="Epsilon" unicode="&#x395;" horiz-adv-x="566" 
d="M96 715h417v-71h-330v-243h266v-71h-266v-259h348v-71h-435v715z" />
    <glyph glyph-name="Zeta" unicode="&#x396;" horiz-adv-x="595" 
d="M34 14l405 630h-369v71h489v-13l-394 -628h388v-74h-519v14z" />
    <glyph glyph-name="Eta" unicode="&#x397;" horiz-adv-x="730" 
d="M96 715h87v-324h376v324h87v-715h-87v318h-376v-318h-87v715z" />
    <glyph glyph-name="Theta" unicode="&#x398;" horiz-adv-x="811" 
d="M409 -9c-104 0 -189 34.834 -255 104.501s-99 155.5 -99 257.5v8c0 103.333 32.833 189.666 98.5 258.999s150.167 104 253.5 104s187.333 -34.5 252 -103.5s97 -154.833 97 -257.5v-8c0 -102.667 -32.333 -189 -97 -259s-148 -105 -250 -105zM409 63.001
c78.667 0 141.168 26.999 187.501 80.999s69.5 124.667 69.5 212v8c0 82.667 -23.333 151.667 -70 207s-109.667 83 -189 83c-81.333 0 -145.333 -26.833 -192 -80.5s-70 -124.167 -70 -211.5v-8c0 -85.333 25.167 -155.166 75.5 -209.499s113.166 -81.5 188.499 -81.5z
M265.001 398h281v-73h-281v73z" />
    <glyph glyph-name="Iota" unicode="&#x399;" horiz-adv-x="277" 
d="M101 715h87v-715h-87v715z" />
    <glyph glyph-name="Kappa" unicode="&#x39a;" horiz-adv-x="616" 
d="M96 715h87v-344l311 345h97l-318 -348l334 -368h-105l-319 349v-349h-87v715z" />
    <glyph glyph-name="Lambda" unicode="&#x39b;" horiz-adv-x="666" 
d="M630 0h-86l-213 631l-213 -631h-82l247 715h104z" />
    <glyph glyph-name="Mu" unicode="&#x39c;" horiz-adv-x="856" 
d="M96 715h121l221 -557l214 557h120v-715h-87v602l-237 -602h-27l-245 602v-602h-80v715z" />
    <glyph glyph-name="Nu" unicode="&#x39d;" horiz-adv-x="724" 
d="M96 715h113l348 -591v591h83v-715h-100l-361 613v-613h-83v715z" />
    <glyph glyph-name="Xi" unicode="&#x39e;" horiz-adv-x="577" 
d="M529 715v-75h-481v75h481zM479 396v-73h-381v73h381zM40 75h497v-75h-497v75z" />
    <glyph glyph-name="Omicron" unicode="&#x39f;" horiz-adv-x="811" 
d="M415 63c78.667 0 141.168 26.999 187.501 80.999s69.5 124.667 69.5 212v8c0 82.667 -23.333 151.667 -70 207s-109.667 83 -189 83c-81.333 0 -145.333 -26.833 -192 -80.5s-70 -124.167 -70 -211.5v-8c0 -85.333 25.167 -155.166 75.5 -209.499
s113.166 -81.5 188.499 -81.5zM415.001 -9.00098c-104 0 -189 34.834 -255 104.501s-99 155.5 -99 257.5v8c0 103.333 32.833 189.666 98.5 258.999s150.167 104 253.5 104s187.333 -34.5 252 -103.5s97 -154.833 97 -257.5v-8c0 -102.667 -32.333 -189 -97 -259
s-148 -105 -250 -105z" />
    <glyph glyph-name="Pi" unicode="&#x3a0;" horiz-adv-x="718" 
d="M90 715h538v-715h-87v642h-364v-642h-87v715z" />
    <glyph glyph-name="Rho" unicode="&#x3a1;" horiz-adv-x="581" 
d="M96 715h203c73.333 0 133.333 -17.167 180 -51.5s70 -86.833 70 -157.5v-4c0 -72 -23.167 -125.167 -69.5 -159.5s-106.5 -51.5 -180.5 -51.5h-116v-291h-87v715zM305 360c51.333 0 90.333 12.167 117 36.5s40 59.5 40 105.5v4c0 92.667 -52.333 139 -157 139h-122v-285
h122z" />
    <glyph glyph-name="Sigma" unicode="&#x3a3;" horiz-adv-x="573" 
d="M60 640v75h455v-71h-357l223 -274l-224 -295h376v-75h-476v61l227 301z" />
    <glyph glyph-name="Tau" unicode="&#x3a4;" horiz-adv-x="561" 
d="M243 644h-208v71h503v-71h-208v-644h-87v644z" />
    <glyph glyph-name="Upsilon" unicode="&#x3a5;" horiz-adv-x="598" 
d="M268 312l-239 403h98l187 -332l180 332h87l-226 -404v-311h-87v312z" />
    <glyph glyph-name="Phi" unicode="&#x3a6;" horiz-adv-x="865" 
d="M391 53c-104 4 -185.999 35.499 -245.999 94.499s-90 128.5 -90 208.5v6c0 82 29.667 152.333 89 211s141.666 89.334 246.999 92.001v70h83v-70c105.333 -2.66699 187.666 -33 246.999 -91s89 -128 89 -210v-6c0 -82 -29.667 -152.333 -89 -211
s-141.666 -90 -246.999 -94v-73h-83v73zM145.001 356.999c0 -64.667 21.833 -118.167 65.5 -160.5s103.834 -66.833 180.501 -73.5v475c-82.667 -5.33301 -144.334 -29.333 -185.001 -72s-61 -97 -61 -163v-6zM720.001 364.999c0 63.333 -20.499 116.67 -61.499 160.003
s-102.5 67.666 -184.5 72.999v-476c81.333 5.33301 142.666 29.166 183.999 71.499s62 97.166 62 164.499v7z" />
    <glyph glyph-name="Chi" unicode="&#x3a7;" horiz-adv-x="657" 
d="M287 367l-220 348h96l178 -281l177 281h89l-222 -348l233 -367h-98l-191 301l-191 -301h-87z" />
    <glyph glyph-name="Psi" unicode="&#x3a8;" horiz-adv-x="774" 
d="M345 187c-94 4 -163.666 30.498 -208.999 79.498s-68 112.833 -68 191.5v257h87v-250c0 -66.667 14.667 -117.167 44 -151.5s78 -53.166 146 -56.499v458h83v-458c67.333 4 116.666 22.833 147.999 56.5s47 89.834 47 168.501v233h83v-250c0 -80 -22.167 -145 -66.5 -195
s-114.833 -77.667 -211.5 -83v-187h-83v187z" />
    <glyph glyph-name="uni03A9" unicode="&#x3a9;" horiz-adv-x="817" 
d="M145 363c0 -138.667 67.335 -247.664 202.002 -326.997v-36h-290v67h148c-40.667 24.667 -75.834 63.5 -105.501 116.5s-44.5 112.5 -44.5 178.5v8c0 59.333 13.167 115.5 39.5 168.5s67.166 97.167 122.499 132.5s119.666 53 192.999 53s137.333 -17.5 192 -52.5
s95 -78.833 121 -131.5s39 -109.334 39 -170.001v-8c0 -71.333 -14.667 -132 -44 -182s-64.333 -87.667 -105 -113h147v-67h-290v36c134.667 68.667 202 177.667 202 327v8c0 28 -3.16699 55.333 -9.5 82s-16.5 52.167 -30.5 76.5s-31 45.666 -51 63.999s-44.667 33 -74 44
s-61.666 16.5 -96.999 16.5c-58.667 0 -108.5 -13.833 -149.5 -41.5s-70.5 -62.334 -88.5 -104.001s-27 -87.5 -27 -137.5v-8z" />
    <glyph glyph-name="Iotadieresis" unicode="&#x3aa;" horiz-adv-x="277" 
d="M101 715h87v-715h-87v715zM42 789c-14.667 0 -27.167 5.16699 -37.5 15.5s-15.5 22.833 -15.5 37.5s5.16699 27.167 15.5 37.5s22.833 15.5 37.5 15.5s27.167 -5.16699 37.5 -15.5s15.5 -22.833 15.5 -37.5s-5.16699 -27.167 -15.5 -37.5s-22.833 -15.5 -37.5 -15.5z
M245 789c-14.667 0 -27.167 5.16699 -37.5 15.5s-15.5 22.833 -15.5 37.5s5.16699 27.167 15.5 37.5s22.833 15.5 37.5 15.5s27.167 -5.16699 37.5 -15.5s15.5 -22.833 15.5 -37.5s-5.16699 -27.167 -15.5 -37.5s-22.833 -15.5 -37.5 -15.5z" />
    <glyph glyph-name="Upsilondieresis" unicode="&#x3ab;" horiz-adv-x="598" 
d="M268 312l-239 403h98l187 -332l180 332h87l-226 -404v-311h-87v312zM212 789c-14.667 0 -27.167 5.16699 -37.5 15.5s-15.5 22.833 -15.5 37.5s5.16699 27.167 15.5 37.5s22.833 15.5 37.5 15.5s27.167 -5.16699 37.5 -15.5s15.5 -22.833 15.5 -37.5
s-5.16699 -27.167 -15.5 -37.5s-22.833 -15.5 -37.5 -15.5zM415 789c-14.667 0 -27.167 5.16699 -37.5 15.5s-15.5 22.833 -15.5 37.5s5.16699 27.167 15.5 37.5s22.833 15.5 37.5 15.5s27.167 -5.16699 37.5 -15.5s15.5 -22.833 15.5 -37.5s-5.16699 -27.167 -15.5 -37.5
s-22.833 -15.5 -37.5 -15.5z" />
    <glyph glyph-name="alphatonos" unicode="&#x3ac;" horiz-adv-x="627" 
d="M290 60c51.333 0 92.999 16.8311 124.999 50.498s48 82.834 48 147.501v8c0 66 -14.5 115.333 -43.5 148s-69.833 49 -122.5 49c-52 0 -92.667 -17.333 -122 -52s-44 -84 -44 -148v-8c0 -63.333 14.833 -111.666 44.5 -144.999s67.834 -50 114.501 -50zM280.999 -9.00195
c-70 0 -126.833 23.168 -170.5 69.501s-65.5 109.833 -65.5 190.5v8c0 80 22.667 145.5 68 196.5s104 76.5 176 76.5c76 0 133 -31 171 -93v84h83v-523h-83v90c-15.333 -26.667 -40 -49.834 -74 -69.501s-69 -29.5 -105 -29.5zM337.999 759.999h104l-104 -147h-62z" />
    <glyph glyph-name="epsilontonos" unicode="&#x3ad;" horiz-adv-x="554" 
d="M163 272c-30 4.66699 -54.668 17.001 -74.001 37.001s-29 44 -29 72c0 41.333 17.833 76.833 53.5 106.5s91.167 44.5 166.5 44.5c138.667 0 214.334 -49.333 227.001 -148h-82c-4.66699 26 -17 45.667 -37 59s-55.333 20 -106 20c-92 0 -138 -28.667 -138 -86
c0 -19.333 8.33301 -36.5 25 -51.5s41.667 -22.5 75 -22.5h102v-67h-103c-74.667 0 -112 -30 -112 -90c0 -57.333 48.333 -86 145 -86c98.667 0 151 31.333 157 94h79c-4 -52.667 -27.333 -93 -70 -121s-97.667 -42 -165 -42c-73.333 0 -130 13.333 -170 40s-60 64 -60 112
c0 33.333 10.5 61.166 31.5 83.499s49.167 37.5 84.5 45.5zM317.999 760.001h104l-104 -147h-62z" />
    <glyph glyph-name="etatonos" unicode="&#x3ae;" horiz-adv-x="598" 
d="M84 523h83v-83c13.333 26.667 34.333 48.667 63 66s63.667 26 105 26c57.333 0 102.333 -17 135 -51s49 -87.333 49 -160v-503h-83v509c0 46 -10 79.667 -30 101s-51 32 -93 32c-40.667 0 -75.167 -12.667 -103.5 -38s-42.5 -60.333 -42.5 -105v-317h-83v523zM338 760
h104l-104 -147h-62z" />
    <glyph glyph-name="iotatonos" unicode="&#x3af;" horiz-adv-x="255" 
d="M86 523h83v-523h-83v523zM160 760h104l-104 -147h-62z" />
    <glyph glyph-name="upsilondieresistonos" unicode="&#x3b0;" horiz-adv-x="589" 
d="M294 -9c-61.333 0 -112.5 18.833 -153.5 56.5s-61.5 90.834 -61.5 159.501v316h83v-313c0 -98 44.333 -147 133 -147c88 0 132 49 132 147v313h83v-319c0 -68.667 -20.5 -121.334 -61.5 -158.001s-92.5 -55 -154.5 -55zM287 785h97l-78 -147h-59zM429 634
c-14.667 0 -27.167 5.16699 -37.5 15.5s-15.5 22.833 -15.5 37.5s5.16699 27.167 15.5 37.5s22.833 15.5 37.5 15.5s27.167 -5.16699 37.5 -15.5s15.5 -22.833 15.5 -37.5s-5.16699 -27.167 -15.5 -37.5s-22.833 -15.5 -37.5 -15.5zM171 634
c-14.667 0 -27.167 5.16699 -37.5 15.5s-15.5 22.833 -15.5 37.5s5.16699 27.167 15.5 37.5s22.833 15.5 37.5 15.5s27.167 -5.16699 37.5 -15.5s15.5 -22.833 15.5 -37.5s-5.16699 -27.167 -15.5 -37.5s-22.833 -15.5 -37.5 -15.5z" />
    <glyph glyph-name="alpha" unicode="&#x3b1;" horiz-adv-x="627" 
d="M290 60c51.333 0 92.999 16.8311 124.999 50.498s48 82.834 48 147.501v8c0 66 -14.5 115.333 -43.5 148s-69.833 49 -122.5 49c-52 0 -92.667 -17.333 -122 -52s-44 -84 -44 -148v-8c0 -63.333 14.833 -111.666 44.5 -144.999s67.834 -50 114.501 -50zM280.999 -9.00195
c-70 0 -126.833 23.168 -170.5 69.501s-65.5 109.833 -65.5 190.5v8c0 80 22.667 145.5 68 196.5s104 76.5 176 76.5c76 0 133 -31 171 -93v84h83v-523h-83v90c-15.333 -26.667 -40 -49.834 -74 -69.501s-69 -29.5 -105 -29.5z" />
    <glyph glyph-name="beta" unicode="&#x3b2;" horiz-adv-x="609" 
d="M285 442c54 -1.33301 94.834 10.667 122.501 36s41.5 59 41.5 101v4c0 38.667 -12.167 69.167 -36.5 91.5s-58.5 33.5 -102.5 33.5c-43.333 0 -78 -13.5 -104 -40.5s-39 -63.833 -39 -110.5v-321c0 -57.333 16.167 -101 48.5 -131s69.166 -45 110.499 -45
c47.333 0 85 12.833 113 38.5s42 62.834 42 111.501v7c0 53.333 -17.167 93.166 -51.5 119.499s-82.5 37.833 -144.5 34.5v71zM404.001 411c46 -8.66699 84.668 -29.5 116.001 -62.5s47 -75.833 47 -128.5v-8c0 -66.667 -22.5 -120.167 -67.5 -160.5
s-101.167 -60.5 -168.5 -60.5c-35.333 0 -67.833 8.5 -97.5 25.5s-51.834 39.5 -66.501 67.5v-266h-83v735c0 68.667 20.667 123 62 163s96.333 60 165 60s122.834 -17.833 162.501 -53.5s59.5 -81.167 59.5 -136.5v-4c0 -41.333 -11.333 -76.833 -34 -106.5
s-54.334 -51.167 -95.001 -64.5z" />
    <glyph glyph-name="gamma" unicode="&#x3b3;" horiz-adv-x="541" 
d="M433 523h86l-206 -516v-189h-83v189l-208 516h90l161 -413z" />
    <glyph glyph-name="delta" unicode="&#x3b4;" horiz-adv-x="594" 
d="M117 773h391v-70h-273l188 -203c42 -44.667 73.5 -85.667 94.5 -123s31.5 -78.333 31.5 -123v-7c0 -75.333 -23.667 -136.833 -71 -184.5s-108 -71.5 -182 -71.5s-134.333 24 -181 72s-70 109 -70 183v6c0 64.667 22 120.667 66 168s97.333 71 160 71
c26 0 46.667 -1.66699 62 -5l-216 233v54zM463 251c0 52 -15 94.332 -45 126.999s-70.333 49 -121 49c-50 0 -90.167 -16.333 -120.5 -49s-45.5 -74.667 -45.5 -126v-6c0 -54 14.5 -98.5 43.5 -133.5s69.833 -52.5 122.5 -52.5c51.333 0 91.833 16.833 121.5 50.5
s44.5 78.834 44.5 135.501v5z" />
    <glyph glyph-name="epsilon" unicode="&#x3b5;" horiz-adv-x="554" 
d="M163 272c-30 4.66699 -54.668 17.001 -74.001 37.001s-29 44 -29 72c0 41.333 17.833 76.833 53.5 106.5s91.167 44.5 166.5 44.5c138.667 0 214.334 -49.333 227.001 -148h-82c-4.66699 26 -17 45.667 -37 59s-55.333 20 -106 20c-92 0 -138 -28.667 -138 -86
c0 -19.333 8.33301 -36.5 25 -51.5s41.667 -22.5 75 -22.5h102v-67h-103c-74.667 0 -112 -30 -112 -90c0 -57.333 48.333 -86 145 -86c98.667 0 151 31.333 157 94h79c-4 -52.667 -27.333 -93 -70 -121s-97.667 -42 -165 -42c-73.333 0 -130 13.333 -170 40s-60 64 -60 112
c0 33.333 10.5 61.166 31.5 83.499s49.167 37.5 84.5 45.5z" />
    <glyph glyph-name="zeta" unicode="&#x3b6;" horiz-adv-x="501" 
d="M264 0c-62 0 -113.999 19.334 -155.999 58.001s-63 88.334 -63 149.001c0 85.333 28.167 172 84.5 260s122.5 166 198.5 234h-251v72h408v-23c-118.667 -102 -207.334 -197 -266.001 -285s-88 -172.333 -88 -253c0 -44.667 12.833 -79 38.5 -103s57.167 -36 94.5 -36h80
c94.667 0 142 -38 142 -114c0 -26.667 -6.66699 -64.334 -20 -113.001h-76c9.33301 41.333 14 73.666 14 96.999c0 38 -20.333 57 -61 57h-79z" />
    <glyph glyph-name="eta" unicode="&#x3b7;" horiz-adv-x="598" 
d="M84 523h83v-83c13.333 26.667 34.333 48.667 63 66s63.667 26 105 26c57.333 0 102.333 -17 135 -51s49 -87.333 49 -160v-503h-83v509c0 46 -10 79.667 -30 101s-51 32 -93 32c-40.667 0 -75.167 -12.667 -103.5 -38s-42.5 -60.333 -42.5 -105v-317h-83v523z" />
    <glyph glyph-name="theta" unicode="&#x3b8;" horiz-adv-x="618" 
d="M553 359c0 -119.333 -21.167 -210.502 -63.5 -273.502s-102.5 -94.5 -180.5 -94.5s-138.167 31.5 -180.5 94.5s-63.5 154.167 -63.5 273.5v51c0 118.667 21.333 209.334 64 272.001s102.667 94 180 94c78.667 0 139 -31.167 181 -93.5s63 -153.166 63 -272.499v-51z
M468 425.998c-4 187.333 -57.001 281 -159.001 281c-101.333 0 -154.666 -93.667 -159.999 -281h319zM308.999 59.998c103.333 0 156.668 98.667 160.001 296h-320c3.33301 -197.333 56.666 -296 159.999 -296z" />
    <glyph glyph-name="iota" unicode="&#x3b9;" horiz-adv-x="255" 
d="M86 523h83v-523h-83v523z" />
    <glyph glyph-name="kappa" unicode="&#x3ba;" horiz-adv-x="516" 
d="M167 259v-259h-83v523h83v-253l230 253h97l-237 -255l247 -268h-99z" />
    <glyph glyph-name="lambda" unicode="&#x3bb;" horiz-adv-x="546" 
d="M172 659c-12 32 -32.332 48 -60.999 48c-15.333 0 -35.333 -3.66699 -60 -11v69c24 7.33301 50 11 78 11c29.333 0 53.166 -8 71.499 -24s33.5 -40.667 45.5 -74l200 -559c13.333 -35.333 31 -53 53 -53c10 0 22.333 2 37 6v-70c-14 -4 -30.333 -6 -49 -6
c-26 0 -48.833 8 -68.5 24s-34.5 39 -44.5 69l-111 334l-153 -423h-85l197 520z" />
    <glyph glyph-name="uni03BC" unicode="&#x3bc;" horiz-adv-x="599" 
d="M84 523h83.001v-334c0 -84 40.333 -126 121 -126c40 0 74 12.667 102 38s42 60.333 42 105v317h83v-523h-83v83c-12.667 -26 -32.667 -47.333 -60 -64s-60 -25 -98 -25c-50.667 0 -86.334 18.333 -107.001 55v-231h-83v705z" />
    <glyph glyph-name="nu" unicode="&#x3bd;" horiz-adv-x="534" 
d="M31 523h90l155 -439l153 439h86l-188 -523h-106z" />
    <glyph glyph-name="xi" unicode="&#x3be;" horiz-adv-x="521" 
d="M354 73c94.667 0 142 -37.998 142 -113.998c0 -26.667 -6.66699 -64.334 -20 -113.001h-76c9.33301 41.333 14 73.666 14 96.999c0 38 -20.333 57 -61 57h-61c-71.333 0 -130.333 19 -177 57s-70 88.667 -70 152c0 54 14.833 99.167 44.5 135.5s68.167 59.833 115.5 70.5
c-70 26 -105 74 -105 144c0 74 36 122 108 144h-154v70h431v-70h-117c-52.667 0 -96.167 -12.5 -130.5 -37.5s-51.5 -60.167 -51.5 -105.5c0 -34 12.5 -61.5 37.5 -82.5s58.833 -31.5 101.5 -31.5h115v-70h-128c-56 0 -100.167 -15.167 -132.5 -45.5
s-48.5 -70.833 -48.5 -121.5c0 -42.667 14.667 -76 44 -100s69 -36 119 -36h60z" />
    <glyph glyph-name="omicron" unicode="&#x3bf;" horiz-adv-x="604" 
d="M301 -9c-74 0 -135.166 25.168 -183.499 75.501s-72.5 113.833 -72.5 190.5v8c0 78 24.167 142 72.5 192s109.833 75 184.5 75s136.167 -24.833 184.5 -74.5s72.5 -113.5 72.5 -191.5v-8c0 -78.667 -24.333 -142.834 -73 -192.501s-110.334 -74.5 -185.001 -74.5z
M302.001 60.001c52 0 93.502 18 124.502 54s46.5 83.667 46.5 143v7c0 60.667 -15.5 109 -46.5 145s-72.5 54 -124.5 54c-52.667 0 -94.334 -18 -125.001 -54s-46 -84 -46 -144v-8c0 -60.667 15.167 -108.667 45.5 -144s72.166 -53 125.499 -53z" />
    <glyph glyph-name="pi" unicode="&#x3c0;" horiz-adv-x="597" 
d="M412 453h-227v-453h-83v453h-75v70h543v-70h-75v-453h-83v453z" />
    <glyph glyph-name="rho" unicode="&#x3c1;" horiz-adv-x="607" 
d="M315 60c51.333 0 91 17.668 119 53.001s42 83.333 42 144v7c0 60.667 -14.833 109 -44.5 145s-70.167 54 -121.5 54c-52 0 -92.667 -17.833 -122 -53.5s-44 -83.834 -44 -144.501v-8c0 -63.333 15 -112 45 -146s72 -51 126 -51zM316 -7.99902
c-36.667 0 -69.832 8.33203 -99.499 24.999s-52.834 39.667 -69.501 69v-268h-83v450c0 78.667 22.5 142.334 67.5 191.001s104.5 73 178.5 73s134.5 -24.667 181.5 -74s70.5 -113.333 70.5 -192v-8c0 -78.667 -22.5 -142.667 -67.5 -192s-104.5 -74 -178.5 -74z" />
    <glyph glyph-name="uni03C2" unicode="&#x3c2;" horiz-adv-x="570" 
d="M131 256c0 -54 13.6699 -97.9971 41.0029 -131.997s68.666 -51 123.999 -51h48c94.667 0 142 -38 142 -114c0 -26.667 -6.66699 -64.334 -20 -113.001h-76c9.33301 41.333 14 73.666 14 96.999c0 38 -20.333 57 -61 57h-49c-74.667 0 -134.834 23.333 -180.501 70
s-68.5 108.667 -68.5 186v8c0 78.667 24.5 143 73.5 193s109.167 75 180.5 75c60 0 111 -14.833 153 -44.5s66.667 -75.834 74 -138.501h-82c-12 76 -60.333 114 -145 114c-48.667 0 -88.834 -18.167 -120.501 -54.5s-47.5 -84.5 -47.5 -144.5v-8z" />
    <glyph glyph-name="sigma" unicode="&#x3c3;" horiz-adv-x="617" 
d="M301 -9c-74 0 -135.166 25.167 -183.499 75.5s-72.5 113.833 -72.5 190.5v8c0 76.667 23.333 138.834 70 186.501s109 71.5 187 71.5h285v-70h-140c33.333 -14.667 60.333 -38.5 81 -71.5s31 -71.5 31 -115.5v-8c0 -78.667 -24.333 -142.834 -73 -192.501
s-110.334 -74.5 -185.001 -74.5zM302.001 60c52 0 93.5029 18 124.503 54s46.5 83.667 46.5 143v7c0 60 -15.333 106.5 -46 139.5s-72.334 49.5 -125.001 49.5c-54.667 0 -96.834 -16.5 -126.501 -49.5s-44.5 -79.167 -44.5 -138.5v-8c0 -60.667 15.167 -108.667 45.5 -144
s72.166 -53 125.499 -53z" />
    <glyph glyph-name="tau" unicode="&#x3c4;" horiz-adv-x="483" 
d="M349 -7c-53.333 0 -92.833 15.5 -118.5 46.5s-38.5 69.5 -38.5 115.5v298h-165v70h421v-70h-173v-300c0 -60 26 -90 78 -90c27.333 0 51 3.66699 71 11v-70c-18 -7.33301 -43 -11 -75 -11z" />
    <glyph glyph-name="upsilon" unicode="&#x3c5;" horiz-adv-x="589" 
d="M294 -9c-61.333 0 -112.5 18.833 -153.5 56.5s-61.5 90.834 -61.5 159.501v316h83v-313c0 -98 44.333 -147 133 -147c88 0 132 49 132 147v313h83v-319c0 -68.667 -20.5 -121.334 -61.5 -158.001s-92.5 -55 -154.5 -55z" />
    <glyph glyph-name="phi" unicode="&#x3c6;" horiz-adv-x="752" 
d="M707 267c0 -86 -26.333 -152.834 -79 -200.501s-123.334 -72.167 -212.001 -73.5v-175h-83v175c-92 4 -163 29.667 -213 77s-75 108.666 -75 183.999v8c0 74 19.833 134.333 59.5 181s91.834 75.334 156.501 86.001v-67c-86.667 -27.333 -130 -94 -130 -200v-8
c0 -58.667 15.833 -104.167 47.5 -136.5s83.167 -51.166 154.5 -56.499v468c10.667 2 32.667 3 66 3c100.667 0 177.167 -24.5 229.5 -73.5s78.5 -110.167 78.5 -183.5v-8zM621 272.999c0 57.333 -17.833 103.167 -53.5 137.5s-86.167 51.833 -151.5 52.5v-402
c136.667 4.66699 205 73 205 205v7z" />
    <glyph glyph-name="chi" unicode="&#x3c7;" horiz-adv-x="540" 
d="M236 181l-125.001 245c-11.333 22 -27 33 -47 33c-12 0 -24.333 -3 -37 -9v69c15.333 6 33.333 9 54 9c43.333 0 76 -21.667 98 -65l107 -210l134 270h90l-185 -347l124 -242c16.667 -32.667 36.334 -49 59.001 -49c8 0 18 1.66699 30 5v-70
c-17.333 -4.66699 -32 -7 -44 -7c-46.667 0 -85.667 31 -117 93l-102 199l-148 -287h-89z" />
    <glyph glyph-name="psi" unicode="&#x3c8;" horiz-adv-x="737" 
d="M152 246c0 -110.667 58.332 -171.666 174.999 -182.999v460h83v-460c116.667 11.333 175 72.333 175 183v277h83v-277c0 -70.667 -21.167 -128.334 -63.5 -173.001s-107.166 -70 -194.499 -76v-179h-83v179c-90 6 -155.5 32 -196.5 78s-61.5 105.667 -61.5 179v269h83
v-277z" />
    <glyph glyph-name="omega" unicode="&#x3c9;" horiz-adv-x="761" 
d="M422 190c0 -42 9.00098 -74.166 27.001 -96.499s41.667 -33.5 71 -33.5c36 0 63.333 15.167 82 45.5s28 73.5 28 129.5v7c0 132 -47.667 205.667 -143 221v70c76.667 -7.33301 134 -37.666 172 -90.999s57 -120 57 -200v-8c0 -70.667 -17 -128.834 -51 -174.501
s-79.333 -68.5 -136 -68.5c-73.333 0 -122.666 35.667 -147.999 107c-22.667 -71.333 -72.334 -107 -149.001 -107c-56.667 0 -102 22.833 -136 68.5s-51 104.167 -51 175.5v8c0 79.333 19.5 145.5 58.5 198.5s95.833 83.5 170.5 91.5v-70
c-26.667 -4 -49.834 -13.167 -69.501 -27.5s-34.5 -32.333 -44.5 -54s-17.333 -43.834 -22 -66.501s-7 -46.667 -7 -72v-8c0 -116.667 37 -175 111 -175c28.667 0 52 11.5 70 34.5s27 54.833 27 95.5v161h83v-161z" />
    <glyph glyph-name="iotadieresis" unicode="&#x3ca;" horiz-adv-x="255" 
d="M86 523h83v-523h-83v523zM40 634c-14.667 0 -27.167 5.16699 -37.5 15.5s-15.5 22.833 -15.5 37.5s5.16699 27.167 15.5 37.5s22.833 15.5 37.5 15.5s27.167 -5.16699 37.5 -15.5s15.5 -22.833 15.5 -37.5s-5.16699 -27.167 -15.5 -37.5s-22.833 -15.5 -37.5 -15.5z
M228 634c-14.667 0 -27.167 5.16699 -37.5 15.5s-15.5 22.833 -15.5 37.5s5.16699 27.167 15.5 37.5s22.833 15.5 37.5 15.5s27.167 -5.16699 37.5 -15.5s15.5 -22.833 15.5 -37.5s-5.16699 -27.167 -15.5 -37.5s-22.833 -15.5 -37.5 -15.5z" />
    <glyph glyph-name="upsilondieresis" unicode="&#x3cb;" horiz-adv-x="589" 
d="M294 -9c-61.333 0 -112.5 18.833 -153.5 56.5s-61.5 90.834 -61.5 159.501v316h83v-313c0 -98 44.333 -147 133 -147c88 0 132 49 132 147v313h83v-319c0 -68.667 -20.5 -121.334 -61.5 -158.001s-92.5 -55 -154.5 -55zM206 634c-14.667 0 -27.167 5.16699 -37.5 15.5
s-15.5 22.833 -15.5 37.5s5.16699 27.167 15.5 37.5s22.833 15.5 37.5 15.5s27.167 -5.16699 37.5 -15.5s15.5 -22.833 15.5 -37.5s-5.16699 -27.167 -15.5 -37.5s-22.833 -15.5 -37.5 -15.5zM394 634c-14.667 0 -27.167 5.16699 -37.5 15.5s-15.5 22.833 -15.5 37.5
s5.16699 27.167 15.5 37.5s22.833 15.5 37.5 15.5s27.167 -5.16699 37.5 -15.5s15.5 -22.833 15.5 -37.5s-5.16699 -27.167 -15.5 -37.5s-22.833 -15.5 -37.5 -15.5z" />
    <glyph glyph-name="omicrontonos" unicode="&#x3cc;" horiz-adv-x="604" 
d="M301 -9c-74 0 -135.166 25.168 -183.499 75.501s-72.5 113.833 -72.5 190.5v8c0 78 24.167 142 72.5 192s109.833 75 184.5 75s136.167 -24.833 184.5 -74.5s72.5 -113.5 72.5 -191.5v-8c0 -78.667 -24.333 -142.834 -73 -192.501s-110.334 -74.5 -185.001 -74.5z
M302.001 60.001c52 0 93.502 18 124.502 54s46.5 83.667 46.5 143v7c0 60.667 -15.5 109 -46.5 145s-72.5 54 -124.5 54c-52.667 0 -94.334 -18 -125.001 -54s-46 -84 -46 -144v-8c0 -60.667 15.167 -108.667 45.5 -144s72.166 -53 125.499 -53zM338.003 760.001h104
l-104 -147h-62z" />
    <glyph glyph-name="upsilontonos" unicode="&#x3cd;" horiz-adv-x="589" 
d="M294 -9c-61.333 0 -112.5 18.833 -153.5 56.5s-61.5 90.834 -61.5 159.501v316h83v-313c0 -98 44.333 -147 133 -147c88 0 132 49 132 147v313h83v-319c0 -68.667 -20.5 -121.334 -61.5 -158.001s-92.5 -55 -154.5 -55zM326 760h104l-104 -147h-62z" />
    <glyph glyph-name="omegatonos" unicode="&#x3ce;" horiz-adv-x="761" 
d="M422 190c0 -42 9.00098 -74.166 27.001 -96.499s41.667 -33.5 71 -33.5c36 0 63.333 15.167 82 45.5s28 73.5 28 129.5v7c0 132 -47.667 205.667 -143 221v70c76.667 -7.33301 134 -37.666 172 -90.999s57 -120 57 -200v-8c0 -70.667 -17 -128.834 -51 -174.501
s-79.333 -68.5 -136 -68.5c-73.333 0 -122.666 35.667 -147.999 107c-22.667 -71.333 -72.334 -107 -149.001 -107c-56.667 0 -102 22.833 -136 68.5s-51 104.167 -51 175.5v8c0 79.333 19.5 145.5 58.5 198.5s95.833 83.5 170.5 91.5v-70
c-26.667 -4 -49.834 -13.167 -69.501 -27.5s-34.5 -32.333 -44.5 -54s-17.333 -43.834 -22 -66.501s-7 -46.667 -7 -72v-8c0 -116.667 37 -175 111 -175c28.667 0 52 11.5 70 34.5s27 54.833 27 95.5v161h83v-161zM421.001 760.001h104l-104 -147h-62z" />
    <glyph glyph-name="uni0401" unicode="&#x401;" horiz-adv-x="566" 
d="M96 715h417v-71h-330v-243h266v-71h-266v-259h348v-71h-435v715zM214 789c-14.667 0 -27.167 5.16699 -37.5 15.5s-15.5 22.833 -15.5 37.5s5.16699 27.167 15.5 37.5s22.833 15.5 37.5 15.5s27.167 -5.16699 37.5 -15.5s15.5 -22.833 15.5 -37.5
s-5.16699 -27.167 -15.5 -37.5s-22.833 -15.5 -37.5 -15.5zM417 789c-14.667 0 -27.167 5.16699 -37.5 15.5s-15.5 22.833 -15.5 37.5s5.16699 27.167 15.5 37.5s22.833 15.5 37.5 15.5s27.167 -5.16699 37.5 -15.5s15.5 -22.833 15.5 -37.5s-5.16699 -27.167 -15.5 -37.5
s-22.833 -15.5 -37.5 -15.5z" />
    <glyph glyph-name="uni0402" unicode="&#x402;" horiz-adv-x="771" 
d="M324 372c44 41.333 102 62 174 62s127.5 -19.167 166.5 -57.5s58.5 -93.5 58.5 -165.5c0 -74.667 -16.667 -130 -50 -166s-75 -54 -125 -54c-37.333 0 -65.333 6.33301 -84 19v72c24 -13.333 48.333 -20 73 -20c30 0 54.167 11.833 72.5 35.5s27.5 61.167 27.5 112.5
c0 52 -12 91 -36 117s-62.333 39 -115 39c-61.333 0 -115.333 -27 -162 -81v-285h-87v644h-208v71h513v-71h-218v-272z" />
    <glyph glyph-name="uni0403" unicode="&#x403;" horiz-adv-x="536" 
d="M90 715h408v-74h-321v-641h-87v715zM323 898h104l-98 -127h-62z" />
    <glyph glyph-name="uni0404" unicode="&#x404;" horiz-adv-x="730" 
d="M688 237c-12 -80.667 -44.332 -141.831 -96.999 -183.498s-120 -62.5 -202 -62.5c-103.333 0 -184.833 32.667 -244.5 98s-89.5 153.333 -89.5 264v8c0 106 31.667 193.333 95 262s143.666 103 240.999 103c78 0 143.833 -20.333 197.5 -61s84.5 -98.334 92.5 -173.001
h-86c-10 55.333 -31.167 96.666 -63.5 123.999s-78.833 41 -139.5 41c-68.667 0 -125 -23 -169 -69s-69.333 -108.333 -76 -187h346v-71h-347c3.33301 -84.667 26.5 -150.5 69.5 -197.5s101.5 -70.5 175.5 -70.5c59.333 0 107.833 14.833 145.5 44.5
s61.167 73.167 70.5 130.5h81z" />
    <glyph glyph-name="uni0405" unicode="&#x405;" horiz-adv-x="627" 
d="M327 -9c-88.667 0 -154.498 20.8311 -197.498 62.498s-68.167 96.5 -75.5 164.5h84c3.33301 -23.333 8.16602 -43.666 14.499 -60.999s16.333 -33.666 30 -48.999s32.5 -27 56.5 -35s53.333 -12 88 -12c46.667 0 85.5 12.5 116.5 37.5s46.5 57.5 46.5 97.5
c0 41.333 -12.167 72 -36.5 92s-69.833 35 -136.5 45c-80.667 12.667 -140.667 33.5 -180 62.5s-59 73.833 -59 134.5c0 55.333 21.667 101.5 65 138.5s98.333 55.5 165 55.5c72 0 129.167 -16.833 171.5 -50.5s67.166 -82.5 74.499 -146.5h-78
c-8.66699 45.333 -26.167 77.833 -52.5 97.5s-64.833 29.5 -115.5 29.5c-48 0 -84.833 -10.5 -110.5 -31.5s-38.5 -49.167 -38.5 -84.5c0 -37.333 11.333 -65.5 34 -84.5s68.667 -33.5 138 -43.5c84 -12.667 145.5 -34.5 184.5 -65.5s58.5 -78.5 58.5 -142.5
c0 -60 -23.5 -110.167 -70.5 -150.5s-105.833 -60.5 -176.5 -60.5z" />
    <glyph glyph-name="uni0406" unicode="&#x406;" horiz-adv-x="277" 
d="M101 715h87v-715h-87v715z" />
    <glyph glyph-name="uni0407" unicode="&#x407;" horiz-adv-x="277" 
d="M101 715h87v-715h-87v715zM44 789c-14.667 0 -27.167 5.16699 -37.5 15.5s-15.5 22.833 -15.5 37.5s5.16699 27.167 15.5 37.5s22.833 15.5 37.5 15.5s27.167 -5.16699 37.5 -15.5s15.5 -22.833 15.5 -37.5s-5.16699 -27.167 -15.5 -37.5s-22.833 -15.5 -37.5 -15.5z
M247 789c-14.667 0 -27.167 5.16699 -37.5 15.5s-15.5 22.833 -15.5 37.5s5.16699 27.167 15.5 37.5s22.833 15.5 37.5 15.5s27.167 -5.16699 37.5 -15.5s15.5 -22.833 15.5 -37.5s-5.16699 -27.167 -15.5 -37.5s-22.833 -15.5 -37.5 -15.5z" />
    <glyph glyph-name="uni0408" unicode="&#x408;" horiz-adv-x="420" 
d="M144 -9c-44.667 0 -78 6.33301 -100 19v72c32.667 -13.333 64.334 -20 95.001 -20c77.333 0 116 45.333 116 136v517h87v-521c0 -68 -18.333 -118.833 -55 -152.5s-84.334 -50.5 -143.001 -50.5z" />
    <glyph glyph-name="uni0409" unicode="&#x409;" horiz-adv-x="983" 
d="M502 642l-253.001 -0.000976562c-5.33301 -172.667 -10.666 -303 -15.999 -391c-10 -172.667 -66.333 -259 -169 -259c-14 0 -24 1.33301 -30 4l-9 4v84l9 -2c9.33301 -1.33301 19.333 -2 30 -2c27.333 0 47.333 14 60 42s22 73.333 28 136c5.33301 72 10 173 14 303
l3 154h420v-291h106c74 0 134.167 -16.667 180.5 -50s69.5 -85.666 69.5 -156.999v-4c0 -70 -23.5 -123 -70.5 -159s-106.833 -54 -179.5 -54h-193v642zM700.999 69.999c104.667 0 157 47.667 157 143v4c0 92 -52.333 138 -157 138h-112v-285h112z" />
    <glyph glyph-name="uni040A" unicode="&#x40a;" horiz-adv-x="1023" 
d="M741 70c104.667 0 157 47.667 157 143v4c0 92 -52.333 138 -157 138h-112v-285h112zM542 318l-365 -0.000976562v-318h-87v715h87v-324h365v324h87v-291h106c74 0 134.167 -16.667 180.5 -50s69.5 -85.666 69.5 -156.999v-4c0 -70 -23.5 -123 -70.5 -159
s-106.833 -54 -179.5 -54h-193v318z" />
    <glyph glyph-name="uni040B" unicode="&#x40b;" horiz-adv-x="781" 
d="M324 373c11.333 11.333 24.667 21.333 40 30c37.333 20.667 79.333 31 126 31c76 0 132.333 -20.833 169 -62.5s55 -106.167 55 -193.5v-178h-87v187c0 61.333 -10.833 106.5 -32.5 135.5s-59.5 43.5 -113.5 43.5c-48 0 -88.333 -12.333 -121 -37
c-14 -10 -26 -22.333 -36 -37v-292h-87v644h-208v71h513v-71h-218v-271z" />
    <glyph glyph-name="uni040C" unicode="&#x40c;" horiz-adv-x="616" 
d="M343 898h104l-98 -127h-62zM96 715h87v-344l311 345h97l-318 -348l334 -368h-105l-319 349v-349h-87v715z" />
    <glyph glyph-name="uni040D" unicode="&#x40d;" horiz-adv-x="740" 
d="M90 0v715h87v-595l386 595h87v-715h-87v595l-386 -595h-87zM245 898h104l56 -127h-62z" />
    <glyph glyph-name="uni040E" unicode="&#x40e;" horiz-adv-x="588" 
d="M309 767c-36 0 -66.666 12.5 -91.999 37.5s-38.666 56.5 -39.999 94.5h72c4 -49.333 24 -74 60 -74c39.333 0 61.333 24.667 66 74h70c-2.66699 -38 -16.834 -69.5 -42.501 -94.5s-56.834 -37.5 -93.501 -37.5zM131.001 -8c-14 0 -24 1.33203 -30 3.99902l-9 4v79l9 -2
c9.33301 -1.33301 19.333 -2 30 -2c28.667 0 53 7.33301 73 22s38 38.667 54 72l-238 546h91l191 -446l194 446h82l-241 -546c-24.667 -57.333 -52.167 -101.166 -82.5 -131.499s-71.5 -45.5 -123.5 -45.5z" />
    <glyph glyph-name="uni040F" unicode="&#x40f;" horiz-adv-x="720" 
d="M90 0v715h87v-642h366v642h87v-715h-232l-2 -130h-72l-2 130h-232z" />
    <glyph glyph-name="uni0410" unicode="&#x410;" horiz-adv-x="674" 
d="M288 715h114l242 -715h-86l-70 206h-295l-69 -206h-82zM217 275h248l-124 368z" />
    <glyph glyph-name="uni0411" unicode="&#x411;" horiz-adv-x="622" 
d="M570 206c0 -66.667 -20.833 -117.667 -62.5 -153s-99.167 -53 -172.5 -53h-245v715h422v-71h-337v-231h159c157.333 0 236 -67.667 236 -203v-4zM333 68c101.333 0 152 46 152 138v4c0 90 -53.333 135 -160 135h-150v-277h158z" />
    <glyph glyph-name="uni0412" unicode="&#x412;" horiz-adv-x="622" 
d="M96 715l215 -0.000976562c153.333 0 230 -61.667 230 -185v-4c0 -76 -36 -126.333 -108 -151c51.333 -12 88 -31.667 110 -59s33 -64.666 33 -111.999v-4c0 -66 -20.833 -115.833 -62.5 -149.5s-99.167 -50.5 -172.5 -50.5h-245v715zM339 67.999
c101.333 0 152 44.333 152 133v4c0 44.667 -13 77.5 -39 98.5s-67.667 31.5 -125 31.5h-146v-267h158zM311 402.999c52 0 89.168 9.83203 111.501 29.499s33.5 51.834 33.5 96.501v4c0 40 -11.833 69 -35.5 87s-60.834 27 -111.501 27h-128v-244h130z" />
    <glyph glyph-name="uni0413" unicode="&#x413;" horiz-adv-x="536" 
d="M90 715h408v-74h-321v-641h-87v715z" />
    <glyph glyph-name="uni0414" unicode="&#x414;" horiz-adv-x="697" 
d="M211 251c-6 -83.333 -21.667 -142.664 -47 -177.997h348v571h-280c-1.33301 -18.667 -3 -53.834 -5 -105.501s-4.33301 -102.334 -7 -152.001s-5.66699 -94.834 -9 -135.501zM82 -129.998l-72.001 0.00195312v203h45c24 7.33301 41.5 25.666 52.5 54.999
s19.5 72.666 25.5 129.999c8 99.333 13.667 200.333 17 303c2.66699 70 4.33398 121.333 5.00098 154h442v-642h80v-203h-72l-5 130h-513z" />
    <glyph glyph-name="uni0415" unicode="&#x415;" horiz-adv-x="566" 
d="M96 715h417v-71h-330v-243h266v-71h-266v-259h348v-71h-435v715z" />
    <glyph glyph-name="uni0416" unicode="&#x416;" horiz-adv-x="879" 
d="M395 351l-279 -351h-97l291 363l-283 352h97l271 -346v346h85v-346l271 346h95l-279 -347l293 -368h-101l-279 351v-351h-85v351z" />
    <glyph glyph-name="uni0417" unicode="&#x417;" horiz-adv-x="595" 
d="M293 -9c-79.333 0 -139.498 20.999 -180.498 62.999s-65.167 96.667 -72.5 164h84c6 -48.667 21.5 -87 46.5 -115s65.833 -42 122.5 -42c53.333 0 94 13.167 122 39.5s42 62.833 42 109.5c0 44 -12.833 75.833 -38.5 95.5s-69.167 29.5 -130.5 29.5h-91v66h91
c92 0 138 43.667 138 131c0 81.333 -44.333 122 -133 122c-44 0 -77.5 -9.83301 -100.5 -29.5s-38.833 -52.167 -47.5 -97.5h-78c15.333 131.333 92.666 197 231.999 197c63.333 0 114.5 -17.5 153.5 -52.5s58.5 -81.5 58.5 -139.5c0 -37.333 -10.167 -70.5 -30.5 -99.5
s-49.5 -49.167 -87.5 -60.5c49.333 -7.33301 86.666 -25 111.999 -53s38 -64.333 38 -109c0 -63.333 -23.167 -115.666 -69.5 -156.999s-106.5 -62 -180.5 -62z" />
    <glyph glyph-name="uni0418" unicode="&#x418;" horiz-adv-x="740" 
d="M90 0v715h87v-595l386 595h87v-715h-87v595l-386 -595h-87z" />
    <glyph glyph-name="uni0419" unicode="&#x419;" horiz-adv-x="740" 
d="M370 767c-36 0 -66.666 12.5 -91.999 37.5s-38.666 56.5 -39.999 94.5h72c4 -49.333 24 -74 60 -74c39.333 0 61.333 24.667 66 74h70c-2.66699 -38 -16.834 -69.5 -42.501 -94.5s-56.834 -37.5 -93.501 -37.5zM90.001 0v715h87v-595l386 595h87v-715h-87v595l-386 -595
h-87z" />
    <glyph glyph-name="uni041A" unicode="&#x41a;" horiz-adv-x="616" 
d="M96 715h87v-344l311 345h97l-318 -348l334 -368h-105l-319 349v-349h-87v715z" />
    <glyph glyph-name="uni041B" unicode="&#x41b;" horiz-adv-x="689" 
d="M233 251c-10 -172.667 -66.334 -259 -169.001 -259c-14 0 -24 1.33301 -30 4l-9 4v84l9 -2c9.33301 -1.33301 19.333 -2 30 -2c27.333 0 47.333 14 60 42s22 73.333 28 136c5.33301 72 10 173 14 303l3 154h430v-715h-87v642h-263
c-5.33301 -172.667 -10.666 -303 -15.999 -391z" />
    <glyph glyph-name="uni041C" unicode="&#x41c;" horiz-adv-x="856" 
d="M96 715h121l221 -557l214 557h120v-715h-87v602l-237 -602h-27l-245 602v-602h-80v715z" />
    <glyph glyph-name="uni041D" unicode="&#x41d;" horiz-adv-x="730" 
d="M96 715h87v-324h376v324h87v-715h-87v318h-376v-318h-87v715z" />
    <glyph glyph-name="uni041E" unicode="&#x41e;" horiz-adv-x="811" 
d="M415 63c78.667 0 141.168 26.999 187.501 80.999s69.5 124.667 69.5 212v8c0 82.667 -23.333 151.667 -70 207s-109.667 83 -189 83c-81.333 0 -145.333 -26.833 -192 -80.5s-70 -124.167 -70 -211.5v-8c0 -85.333 25.167 -155.166 75.5 -209.499
s113.166 -81.5 188.499 -81.5zM415.001 -9.00098c-104 0 -189 34.834 -255 104.501s-99 155.5 -99 257.5v8c0 103.333 32.833 189.666 98.5 258.999s150.167 104 253.5 104s187.333 -34.5 252 -103.5s97 -154.833 97 -257.5v-8c0 -102.667 -32.333 -189 -97 -259
s-148 -105 -250 -105z" />
    <glyph glyph-name="uni041F" unicode="&#x41f;" horiz-adv-x="720" 
d="M543 642h-366v-642h-87v715h540v-715h-87v642z" />
    <glyph glyph-name="uni0420" unicode="&#x420;" horiz-adv-x="581" 
d="M96 715h203c73.333 0 133.333 -17.167 180 -51.5s70 -86.833 70 -157.5v-4c0 -72 -23.167 -125.167 -69.5 -159.5s-106.5 -51.5 -180.5 -51.5h-116v-291h-87v715zM305 360c51.333 0 90.333 12.167 117 36.5s40 59.5 40 105.5v4c0 92.667 -52.333 139 -157 139h-122v-285
h122z" />
    <glyph glyph-name="uni0421" unicode="&#x421;" horiz-adv-x="730" 
d="M395 -9c-103.333 0 -184.833 32.6699 -244.5 98.0029s-89.5 153.333 -89.5 264v8c0 106 31.667 193.333 95 262s143.666 103 240.999 103c78 0 143.833 -20.333 197.5 -61s84.5 -98.334 92.5 -173.001h-86c-10 55.333 -31.167 96.666 -63.5 123.999s-78.833 41 -139.5 41
c-74 0 -133.667 -26.833 -179 -80.5s-68 -125.167 -68 -214.5v-8c0 -91.333 21.833 -162.833 65.5 -214.5s103.834 -77.5 180.501 -77.5c59.333 0 107.833 14.833 145.5 44.5s61.167 73.167 70.5 130.5h81c-12 -80.667 -44.333 -141.834 -97 -183.501s-120 -62.5 -202 -62.5
z" />
    <glyph glyph-name="uni0422" unicode="&#x422;" horiz-adv-x="561" 
d="M243 644h-208v71h503v-71h-208v-644h-87v644z" />
    <glyph glyph-name="uni0423" unicode="&#x423;" horiz-adv-x="588" 
d="M131 -8c-14 0 -24 1.33203 -30 3.99902l-9 4v79l9 -2c9.33301 -1.33301 19.333 -2 30 -2c28.667 0 53 7.33301 73 22s38 38.667 54 72l-238 546h91l191 -446l194 446h82l-241 -546c-24.667 -57.333 -52.167 -101.166 -82.5 -131.499s-71.5 -45.5 -123.5 -45.5z" />
    <glyph glyph-name="uni0424" unicode="&#x424;" horiz-adv-x="821" 
d="M453 623c98 -2.66699 175.666 -24.499 232.999 -65.499s86 -105.5 86 -193.5v-8c-2.66699 -89.333 -32.667 -155.333 -90 -198s-133.666 -64.667 -228.999 -66v-102h-85v102c-97.333 1.33301 -174.833 22.833 -232.5 64.5s-86.5 106.5 -86.5 194.5v5
c0.666992 61.333 15.667 112.166 45 152.499s66.833 69 112.5 86s99.5 26.5 161.5 28.5v102h85v-102zM452.999 158.001c34.667 0.666992 64.666 4.00098 89.999 10.001s49 16.167 71 30.5s38.833 34.666 50.5 60.999s17.834 58.833 18.501 97.5v8c0 68 -20 116.667 -60 146
s-96.667 45.333 -170 48v-401zM367.998 557.002c-35.333 -1.33301 -65.499 -5 -90.499 -11s-48.5 -16.167 -70.5 -30.5s-38.833 -34.833 -50.5 -61.5s-17.834 -59.667 -18.501 -99v-5c0 -126 76.667 -190.667 230 -194v401z" />
    <glyph glyph-name="uni0425" unicode="&#x425;" horiz-adv-x="657" 
d="M287 367l-220 348h96l178 -281l177 281h89l-222 -348l233 -367h-98l-191 301l-191 -301h-87z" />
    <glyph glyph-name="uni0426" unicode="&#x426;" horiz-adv-x="730" 
d="M638 -130l-5 130h-543v715h87v-642h366v642h87v-642h80v-203h-72z" />
    <glyph glyph-name="uni0427" unicode="&#x427;" horiz-adv-x="672" 
d="M495 0l-0.000976562 346c-15.333 -13.333 -32.666 -24.333 -51.999 -33c-46.667 -21.333 -95 -32 -145 -32c-72 0 -129 22 -171 66s-63 107.333 -63 190v178h87v-187c0 -58.667 13 -103.167 39 -133.5s64 -45.5 114 -45.5c58.667 0 108.667 14 150 42
c18 12.667 31.667 27 41 43v281h87v-715h-87z" />
    <glyph glyph-name="uni0428" unicode="&#x428;" horiz-adv-x="973" 
d="M90 715h87v-642h266v642h87v-642h266v642h87v-715h-793v715z" />
    <glyph glyph-name="uni0429" unicode="&#x429;" horiz-adv-x="983" 
d="M891 -130l-5 130h-796v715h87v-642h266v642h87v-642h266v642h87v-642h80v-203h-72z" />
    <glyph glyph-name="uni042A" unicode="&#x42a;" horiz-adv-x="716" 
d="M225 642l-196 -0.000976562v73h283v-291h116c74 0 134.167 -16.667 180.5 -50s69.5 -85.666 69.5 -156.999v-4c0 -70 -23.5 -123 -70.5 -159s-106.833 -54 -179.5 -54h-203v642zM434 69.999c104.667 0 157 47.667 157 143v4c0 92 -52.333 138 -157 138h-122v-285h122z
" />
    <glyph glyph-name="uni042B" unicode="&#x42b;" horiz-adv-x="805" 
d="M715 0h-87v715h87v-715zM90 715l87 -0.000976562v-291h111c74 0 134.167 -16.667 180.5 -50s69.5 -85.666 69.5 -156.999v-4c0 -70 -23.5 -123 -70.5 -159s-106.833 -54 -179.5 -54h-198v715zM294 69.999c104.667 0 157 47.667 157 143v4c0 92 -52.333 138 -157 138h-117
v-285h117z" />
    <glyph glyph-name="uni042C" unicode="&#x42c;" horiz-adv-x="581" 
d="M90 715l87 -0.000976562v-291h116c74 0 134.167 -16.667 180.5 -50s69.5 -85.666 69.5 -156.999v-4c0 -70 -23.5 -123 -70.5 -159s-106.833 -54 -179.5 -54h-203v715zM299 69.999c104.667 0 157 47.667 157 143v4c0 92 -52.333 138 -157 138h-122v-285h122z" />
    <glyph glyph-name="uni042D" unicode="&#x42d;" horiz-adv-x="730" 
d="M339 -9c-78.667 0 -145.835 20.333 -201.502 61s-87.5 98.334 -95.5 173.001h86c18 -110 88 -165 210 -165c70.667 0 128.334 24.5 173.001 73.5s69 114.5 73 196.5h-347v71h347c-6 80.667 -29.667 143.167 -71 187.5s-97.666 66.5 -168.999 66.5
c-59.333 0 -107 -14.667 -143 -44s-58.667 -73 -68 -131h-81c12 81.333 43.667 142.666 95 183.999s117.666 62 198.999 62c102.667 0 183.167 -32.667 241.5 -98s87.5 -153.333 87.5 -264v-8c0 -106 -31.667 -193.333 -95 -262s-143.666 -103 -240.999 -103z" />
    <glyph glyph-name="uni042E" unicode="&#x42e;" horiz-adv-x="1028" 
d="M636 -9c-97.333 0 -176.832 30.8311 -238.499 92.498s-96.5 139.834 -104.5 234.501h-116v-318h-87v715h87v-324h116c5.33301 96.667 39.166 176.334 101.499 239.001s142.166 94 239.499 94c102.667 0 184.834 -34.333 246.501 -103s92.5 -154.667 92.5 -258v-8
c0 -104 -30.833 -190.667 -92.5 -260s-143.167 -104 -244.5 -104zM636.001 62.998c78 0 138.667 26.667 182 80s65 124.333 65 213v8c0 84 -21.667 153.333 -65 208s-104.666 82 -183.999 82c-80.667 0 -142.834 -26.667 -186.501 -80s-65.5 -124 -65.5 -212v-8
c0 -86 23.667 -156 71 -210s108.333 -81 183 -81z" />
    <glyph glyph-name="uni042F" unicode="&#x42f;" horiz-adv-x="626" 
d="M327 645c-52 0 -91.167 -9.5 -117.5 -28.5s-39.5 -52.5 -39.5 -100.5v-4c0 -88 52.333 -132 157 -132h122v265h-122zM118 0h-98l234 317c-114 20.667 -171 85.667 -171 195v4c0 70 23 120.667 69 152s106.333 47 181 47h203v-715h-87v311h-105z" />
    <glyph glyph-name="uni0430" unicode="&#x430;" horiz-adv-x="540" 
d="M221 -9c-51.333 0 -93.165 12.832 -125.498 38.499s-48.5 64.167 -48.5 115.5c0 28.667 7.16699 53.834 21.5 75.501s34.166 38.667 59.499 51s53 21.333 83 27s62.667 8.5 98 8.5h75v38c0 42 -8.66699 72.167 -26 90.5s-46 27.5 -86 27.5c-72 0 -112 -31.333 -120 -94
h-83c5.33301 56 27.166 97.167 65.499 123.5s85.5 39.5 141.5 39.5c127.333 0 191 -62.333 191 -187v-345h-83v66c-40 -50 -94.333 -75 -163 -75zM229.001 56.999c45.333 0 82.5 11.168 111.5 33.501s43.5 53.166 43.5 92.499v65h-72c-121.333 0 -182 -34.333 -182 -103
c0 -58.667 33 -88 99 -88z" />
    <glyph glyph-name="uni0431" unicode="&#x431;" 
d="M309 -9c-78.667 0 -141.005 25.333 -187.005 76s-69 127.667 -69 231v32c0 49.333 2 93.166 6 131.499s12.333 77 25 116s29.334 71.5 50.001 97.5s48.834 47.667 84.501 65s77.834 27.333 126.501 30l20 1c73.333 4 123 11.333 149 22l11 -70
c-34 -14.667 -87 -23.667 -159 -27l-15 -1c-80.667 -4 -138.167 -30.167 -172.5 -78.5s-54.5 -123.166 -60.5 -224.499h4c18 36.667 44.833 65.834 80.5 87.501s77.167 32.5 124.5 32.5c72.667 0 130.834 -23.5 174.501 -70.5s65.5 -107.833 65.5 -182.5v-4
c0 -80.667 -24.167 -144.834 -72.5 -192.501s-110.166 -71.5 -185.499 -71.5zM309.995 60c53.333 0 95.168 16.833 125.501 50.5s45.5 81.5 45.5 143.5v2c0 58 -13.833 103.667 -41.5 137s-67.834 50 -120.501 50c-55.333 0 -99.166 -17.333 -131.499 -52
s-48.5 -82 -48.5 -142v-2c0 -56.667 15.167 -102 45.5 -136s72.166 -51 125.499 -51z" />
    <glyph glyph-name="uni0432" unicode="&#x432;" horiz-adv-x="524" 
d="M84 523h183c122.667 0 184 -44.333 184 -133v-3c0 -25.333 -7 -48.5 -21 -69.5s-35 -35.167 -63 -42.5c72.667 -16 109 -55.333 109 -118v-3c0 -50.667 -16.5 -89 -49.5 -115s-78.833 -39 -137.5 -39h-205v523zM167 457v-155.001h100c34.667 0 59.5 6.33301 74.5 19
s22.5 33.334 22.5 62.001v3c0 26.667 -7.83301 45.167 -23.5 55.5s-40.5 15.5 -74.5 15.5h-99zM167 235.999v-169.999h114c36.667 0 63.834 6.5 81.501 19.5s26.5 34.167 26.5 63.5v3c0 29.333 -8.83301 50.666 -26.5 63.999s-44.834 20 -81.501 20h-114z" />
    <glyph glyph-name="uni0433" unicode="&#x433;" horiz-adv-x="446" 
d="M167 453v-453h-83v523h332v-70h-249z" />
    <glyph glyph-name="uni0434" unicode="&#x434;" horiz-adv-x="578" 
d="M186 202c-7.33301 -61.333 -18.668 -105.334 -34.001 -132.001h245v385h-192c-3.33301 -81.333 -9.66602 -165.666 -18.999 -252.999zM81.998 -127.001h-66.999v197h37c18.667 4.66699 31.667 18.167 39 40.5s13.666 54.5 18.999 96.5c6 54 11.667 122 17 204
c2.66699 36.667 4.66699 74 6 112h345v-453h80v-197h-67l-6 127h-397z" />
    <glyph glyph-name="uni0435" unicode="&#x435;" horiz-adv-x="568" 
d="M304 -9c-74.667 0 -135.501 24.333 -182.501 73s-70.5 112.667 -70.5 192v8c0 78.667 22.833 143 68.5 193s104.5 75 176.5 75c66.667 0 122.5 -21.5 167.5 -64.5s67.5 -108.167 67.5 -195.5v-27h-394c4 -123.333 60 -185 168 -185c82 0 128.333 30.333 139 91h83
c-9.33301 -52 -33.666 -91.667 -72.999 -119s-89.333 -41 -150 -41zM445.999 312c-7.33301 100.667 -57.334 151 -150.001 151c-42 0 -76.667 -13.333 -104 -40s-44.666 -63.667 -51.999 -111h306z" />
    <glyph glyph-name="uni0436" unicode="&#x436;" horiz-adv-x="709" 
d="M314 269l-202 -269h-93l213 278l-194 245h89l187 -246v246h81v-246l187 246h90l-194 -245l213 -278h-94l-202 269v-269h-81v269z" />
    <glyph glyph-name="uni0437" unicode="&#x437;" horiz-adv-x="494" 
d="M421 387c0 -26 -7.49707 -49.833 -22.4971 -71.5s-36.167 -35.167 -63.5 -40.5c34 -6 61 -19 81 -39s30 -46.333 30 -79v-3c0 -48.667 -17.833 -88 -53.5 -118s-84.167 -45 -145.5 -45c-63.333 0 -112.833 14.833 -148.5 44.5s-54.834 71.5 -57.501 125.5h81
c4 -33.333 15.5 -58.5 34.5 -75.5s49.167 -25.5 90.5 -25.5c74.667 0 112 29.667 112 89v3c0 29.333 -8.83301 50.666 -26.5 63.999s-44.834 20 -81.501 20h-79v66h65c34.667 0 59.5 6.33301 74.5 19s22.5 33.334 22.5 62.001v3c0 51.333 -30 77 -90 77
c-58 0 -92.667 -27.333 -104 -82h-80c6 52.667 26.167 91 60.5 115s77.166 36 128.499 36c49.333 0 90.333 -12.5 123 -37.5s49 -59.833 49 -104.5v-3z" />
    <glyph glyph-name="uni0438" unicode="&#x438;" horiz-adv-x="591" 
d="M84 0v523h83v-403l267 403h83v-523h-83v403l-267 -403h-83z" />
    <glyph glyph-name="uni0439" unicode="&#x439;" horiz-adv-x="591" 
d="M299 619c-36 0 -66.666 12.5 -91.999 37.5s-38.666 56.5 -39.999 94.5h72c4 -49.333 24 -74 60 -74c39.333 0 61.333 24.667 66 74h70c-2.66699 -38 -16.834 -69.5 -42.501 -94.5s-56.834 -37.5 -93.501 -37.5zM84.001 0v523h83v-403l267 403h83v-523h-83v403l-267 -403
h-83z" />
    <glyph glyph-name="uni043A" unicode="&#x43a;" horiz-adv-x="516" 
d="M167 267v-267h-83v523h83v-244l217 244h97l-224 -246l243 -277h-101z" />
    <glyph glyph-name="uni043B" unicode="&#x43b;" horiz-adv-x="552" 
d="M184 202c-6 -72 -18.668 -124.5 -38.001 -157.5s-49.666 -49.5 -90.999 -49.5c-8.66699 0 -17.667 0.666992 -27 2l-8 3v79l7 -2c6.66699 -1.33301 13.667 -2 21 -2c10.667 0 19.5 3.16699 26.5 9.5s12.667 16.5 17 30.5s7.5 27.167 9.5 39.5s4.33301 29.833 7 52.5
c2.66699 24 6.66699 92 12 204l3 112h345v-523h-83v453h-188c-6 -144 -10.333 -227.667 -13 -251z" />
    <glyph glyph-name="uni043C" unicode="&#x43c;" horiz-adv-x="703" 
d="M154 441v-441h-69v523h117l149 -393l153 393h114v-523h-82v441l-173 -441h-38z" />
    <glyph glyph-name="uni043D" unicode="&#x43d;" horiz-adv-x="591" 
d="M424 233h-257v-233h-83v523h83v-220h257v220h83v-523h-83v233z" />
    <glyph glyph-name="uni043E" unicode="&#x43e;" horiz-adv-x="604" 
d="M308 60c52 0 93.502 18 124.502 54s46.5 83.667 46.5 143v7c0 60.667 -15.5 109 -46.5 145s-72.5 54 -124.5 54c-52.667 0 -94.334 -18 -125.001 -54s-46 -84 -46 -144v-8c0 -60.667 15.167 -108.667 45.5 -144s72.166 -53 125.499 -53zM307.002 -9
c-74 0 -135.166 25.168 -183.499 75.501s-72.5 113.833 -72.5 190.5v8c0 78 24.167 142 72.5 192s109.833 75 184.5 75s136.167 -24.833 184.5 -74.5s72.5 -113.5 72.5 -191.5v-8c0 -78.667 -24.333 -142.834 -73 -192.501s-110.334 -74.5 -185.001 -74.5z" />
    <glyph glyph-name="uni043F" unicode="&#x43f;" horiz-adv-x="581" 
d="M414 453h-247v-453h-83v523h413v-523h-83v453z" />
    <glyph glyph-name="uni0440" unicode="&#x440;" horiz-adv-x="627" 
d="M90 523l83 0.000976562v-88c15.333 26.667 39.333 49.5 72 68.5s67.667 28.5 105 28.5c70 0 127.167 -23.667 171.5 -71s66.5 -111.333 66.5 -192v-8c0 -80.667 -21.833 -145.834 -65.5 -195.501s-101.167 -74.5 -172.5 -74.5c-80 0 -139 31.667 -177 95v-268h-83v705z
M342 60.001c52 0 91.668 16.835 119.001 50.502s41 82.5 41 146.5v8c0 63.333 -15.167 112.166 -45.5 146.499s-68.833 51.5 -115.5 51.5c-50.667 0 -91.834 -16.833 -123.501 -50.5s-47.5 -82.834 -47.5 -147.501v-8c0 -64.667 15.5 -113.667 46.5 -147
s72.833 -50 125.5 -50z" />
    <glyph glyph-name="uni0441" unicode="&#x441;" horiz-adv-x="570" 
d="M307 -9c-74.667 0 -135.999 24.168 -183.999 72.501s-72 112.5 -72 192.5v8c0 78.667 24.5 143 73.5 193s109.167 75 180.5 75c60 0 111 -14.833 153 -44.5s66.667 -75.834 74 -138.501h-82c-12 76 -60.333 114 -145 114c-48.667 0 -88.834 -18.167 -120.501 -54.5
s-47.5 -84.5 -47.5 -144.5v-8c0 -62.667 15.5 -111 46.5 -145s72.5 -51 124.5 -51c39.333 0 73.166 11.167 101.499 33.5s44.5 53.833 48.5 94.5h77c-5.33301 -57.333 -29.166 -104.5 -71.499 -141.5s-94.5 -55.5 -156.5 -55.5z" />
    <glyph glyph-name="uni0442" unicode="&#x442;" horiz-adv-x="481" 
d="M451 453h-169v-453h-83v453h-169v70h421v-70z" />
    <glyph glyph-name="uni0443" unicode="&#x443;" horiz-adv-x="529" 
d="M236 54l-205 469h89l160 -375l145 375h85l-289 -705h-84z" />
    <glyph glyph-name="uni0444" unicode="&#x444;" horiz-adv-x="708" 
d="M395 531c78 -4 142.167 -29 192.5 -75s75.5 -109.333 75.5 -190v-8c0 -81.333 -25 -145 -75 -191s-114.333 -71 -193 -75v-174h-82v174c-78 4 -142.167 29 -192.5 75s-75.5 109.333 -75.5 190v8c0 81.333 25 145 75 191s114.333 71 193 75v242h82v-242zM313 468
c-54 -2.66699 -98 -21.502 -132 -56.502s-51 -83.5 -51 -145.5v-7c0 -63.333 17 -112.666 51 -147.999s78 -53.666 132 -54.999v412zM395 54.998c54 1.33301 98.001 19.833 132.001 55.5s51 84.5 51 146.5v7c0 64 -16.833 113.167 -50.5 147.5s-77.834 52.833 -132.501 55.5
v-412z" />
    <glyph glyph-name="uni0445" unicode="&#x445;" horiz-adv-x="528" 
d="M221 269l-175 254h97l128 -190l127 190h90l-173 -248l191 -275h-98l-141 211l-144 -211h-89z" />
    <glyph glyph-name="uni0446" unicode="&#x446;" horiz-adv-x="597" 
d="M510 -127l-6 127h-420v523h83v-453h247v453h83v-453h80v-197h-67z" />
    <glyph glyph-name="uni0447" unicode="&#x447;" horiz-adv-x="556" 
d="M389 0l-0.000976562 244c-36 -38.667 -86 -58 -150 -58c-51.333 0 -93.333 16.5 -126 49.5s-49 83.5 -49 151.5v136h83v-132c0 -88.667 38 -133 114 -133c56.667 0 99.334 19.333 128.001 58v207h83v-523h-83z" />
    <glyph glyph-name="uni0448" unicode="&#x448;" horiz-adv-x="811" 
d="M84 523h83v-453h197v453h83v-453h197v453h83v-523h-643v523z" />
    <glyph glyph-name="uni0449" unicode="&#x449;" horiz-adv-x="827" 
d="M740 -127l-6 127h-650v523h83v-453h197v453h83v-453h197v453h83v-453h80v-197h-67z" />
    <glyph glyph-name="uni044A" unicode="&#x44a;" horiz-adv-x="589" 
d="M179 453l-149 0.000976562v70h232v-183h93c59.333 0 107.5 -13.333 144.5 -40s55.5 -68.667 55.5 -126v-3c0 -56.667 -18.667 -99.334 -56 -128.001s-85.333 -43 -144 -43h-176v453zM360 66.001c39.333 0 67.833 8.5 85.5 25.5s26.5 43.5 26.5 79.5v3
c0 33.333 -8.66699 58.5 -26 75.5s-46 25.5 -86 25.5h-98v-209h98z" />
    <glyph glyph-name="uni044B" unicode="&#x44b;" horiz-adv-x="701" 
d="M534 523h83v-523h-83v523zM84 523l83 0.000976562v-183h93c59.333 0 107.5 -13.333 144.5 -40s55.5 -68.667 55.5 -126v-3c0 -56.667 -18.667 -99.334 -56 -128.001s-85.333 -43 -144 -43h-176v523zM265 66.001c39.333 0 67.833 8.5 85.5 25.5s26.5 43.5 26.5 79.5v3
c0 33.333 -8.66699 58.5 -26 75.5s-46 25.5 -86 25.5h-98v-209h98z" />
    <glyph glyph-name="uni044C" unicode="&#x44c;" horiz-adv-x="494" 
d="M84 523l83 0.000976562v-183h93c58.667 0 106.667 -14.333 144 -43s56 -71.334 56 -128.001v-3c0 -57.333 -18.5 -99.333 -55.5 -126s-85.167 -40 -144.5 -40h-176v523zM265 65.001c40 0 68.667 8.5 86 25.5s26 42.167 26 75.5v3c0 36 -8.83301 62.5 -26.5 79.5
s-46.167 25.5 -85.5 25.5h-98v-209h98z" />
    <glyph glyph-name="uni044D" unicode="&#x44d;" horiz-adv-x="570" 
d="M277 -9c-62.667 0 -115.332 14.833 -157.999 44.5s-67.667 75.834 -75 138.501h82c12 -76 62.333 -114 151 -114c42.667 0 78.834 15.833 108.501 47.5s47.167 74.167 52.5 127.5h-265v65h265c-5.33301 53.333 -22.833 93.833 -52.5 121.5s-68.834 41.5 -117.501 41.5
c-38.667 0 -71.5 -11.167 -98.5 -33.5s-44.167 -53.833 -51.5 -94.5h-77c5.33301 57.333 29.166 104.5 71.499 141.5s94.5 55.5 156.5 55.5c77.333 0 139.333 -23.333 186 -70s70 -110 70 -190v-8c0 -78.667 -24.333 -143.834 -73 -195.501s-107 -77.5 -175 -77.5z" />
    <glyph glyph-name="uni044E" unicode="&#x44e;" horiz-adv-x="784" 
d="M491 -9c-66.667 0 -121.833 20.667 -165.5 62s-69.5 95.666 -77.5 162.999c-1.33301 9.33301 -2 15 -2 17h-79v-233h-83v523h83v-220h80c8 69.333 33.833 124.833 77.5 166.5s99.5 62.5 167.5 62.5c74 0 133.667 -24.667 179 -74s68 -113.333 68 -192v-8
c0 -79.333 -22.833 -143.666 -68.5 -192.999s-105.5 -74 -179.5 -74zM492.001 60c51.333 0 91 17.666 119 52.999s42 83.333 42 144v7c0 61.333 -14 109.833 -42 145.5s-67.667 53.5 -119 53.5c-52 0 -91.833 -17.667 -119.5 -53s-41.5 -83.666 -41.5 -144.999v-8
c0 -61.333 13.667 -109.5 41 -144.5s67.333 -52.5 120 -52.5z" />
    <glyph glyph-name="uni044F" unicode="&#x44f;" horiz-adv-x="523" 
d="M258 457c-74.667 0 -112 -31.667 -112 -95v-3c0 -30 8.66699 -52.667 26 -68s46 -23 86 -23h98v189h-98zM120 0l-95 -0.000976562l159 219c-80.667 16.667 -121 63.334 -121 140.001v3c0 54.667 18.667 95.167 56 121.5s85.333 39.5 144 39.5h176v-523h-83v205h-90z" />
    </font>
</defs>
</svg>
